<?xml version="1.0" encoding="UTF-8"?>
<svg width="24px" height="24px" viewBox="0 0 24 24" version="1.1" xmlns="http://www.w3.org/2000/svg" xmlns:xlink="http://www.w3.org/1999/xlink">
    <title>icons/global/localization</title>
    <defs>
        <path d="M12.7920063,15.6632383 C12.9216957,15.3297514 12.838324,14.9499469 12.5789453,14.6905682 L10.6428686,12.7822821 L10.6706592,12.7544916 C12.2825125,10.9573678 13.4311895,8.89160174 14.1074268,6.7054099 L15.9045506,6.7054099 C16.404781,6.7054099 16.8216396,6.28855129 16.8216396,5.78832095 L16.8216396,5.7697939 C16.8216396,5.26956356 16.404781,4.85270495 15.9045506,4.85270495 L10.3371723,4.85270495 L10.3371723,3.92635247 C10.3371723,3.41685861 9.92031366,3 9.4108198,3 C8.90132594,3 8.48446732,3.41685861 8.48446732,3.92635247 L8.48446732,4.85270495 L2.91708895,4.85270495 C2.41685861,4.85270495 2,5.26956356 2,5.7697939 C2,6.27928776 2.41685861,6.68688285 2.91708895,6.68688285 L12.3473571,6.68688285 C11.726701,8.48400665 10.7447674,10.1792317 9.4108198,11.6613956 C8.66047429,10.8369419 8.03055461,9.93838004 7.5025337,8.99350051 C7.35431731,8.72485829 7.08567509,8.55811485 6.77997877,8.55811485 C6.14079556,8.55811485 5.73320047,9.25287921 6.04816032,9.80869069 C6.63176237,10.855469 7.34505378,11.8559297 8.17877101,12.7822821 L4.13061069,16.7748613 C3.7600697,17.1361388 3.7600697,17.7290044 4.13061069,18.0902818 C4.49188816,18.4515593 5.07549022,18.4515593 5.44603121,18.0902818 L9.4108198,14.1162297 L11.2820518,15.9874617 C11.7544916,16.4599015 12.5604182,16.2838945 12.7920063,15.6632383 Z M17.2848158,10.4108198 C16.7290044,10.4108198 16.228774,10.7535702 16.03424,11.2815911 L12.6345264,20.3598454 C12.4122018,20.9249204 12.838324,21.5270495 13.4404531,21.5270495 C13.8017305,21.5270495 14.1259539,21.3047249 14.2556432,20.9619745 L15.0800969,18.7479921 L19.4802712,18.7479921 L20.3139884,20.9619745 C20.4436778,21.2954614 20.7679011,21.5270495 21.1291786,21.5270495 C21.7313077,21.5270495 22.1574299,20.9249204 21.9443688,20.3598454 L18.5446552,11.2815911 C18.3408577,10.7535702 17.8406273,10.4108198 17.2848158,10.4108198 L17.2848158,10.4108198 Z M15.7841248,16.8952871 L17.2848158,12.8841809 L18.7855068,16.8952871 L15.7841248,16.8952871 L15.7841248,16.8952871 Z" id="path-1"></path>
    </defs>
    <g id="icons/global/localization">
        <g id="icon">
            <mask id="mask-2" fill="white">
                <use xlink:href="#path-1"></use>
            </mask>
            <use id="Shape" xlink:href="#path-1"></use>
            <g id="Group" mask="url(#mask-2)">
                <g id="✱-/-Color-/-Icons-/-Black-/-Inactive">
                    <rect id="Rectangle-13" x="0" y="0" width="24" height="24"></rect>
                </g>
            </g>
        </g>
    </g>
</svg>
