<?xml version="1.0" encoding="UTF-8"?>
<svg width="24px" height="24px" viewBox="0 0 24 24" version="1.1" xmlns="http://www.w3.org/2000/svg" xmlns:xlink="http://www.w3.org/1999/xlink">
    <title>icons/global/remove</title>
    <defs>
        <path d="M1,16 C1,17.1 1.9,18 3,18 L11,18 C12.1,18 13,17.1 13,16 L13,6 C13,4.9 12.1,4 11,4 L3,4 C1.9,4 1,4.9 1,6 L1,16 Z M4.17,8.17 C4.56,7.78 5.19,7.78 5.58,8.17 L7,9.59 L8.42,8.17 C8.81,7.78 9.44,7.78 9.83,8.17 C10.22,8.56 10.22,9.19 9.83,9.58 L8.41,11 L9.83,12.42 C10.22,12.81 10.22,13.44 9.83,13.83 C9.44,14.22 8.81,14.22 8.42,13.83 L7,12.41 L5.58,13.83 C5.19,14.22 4.56,14.22 4.17,13.83 C3.78,13.44 3.78,12.81 4.17,12.42 L5.59,11 L4.17,9.58 C3.78,9.2 3.78,8.56 4.17,8.17 Z M10.5,1 L9.79,0.29 C9.61,0.11 9.35,0 9.09,0 L4.91,0 C4.65,0 4.39,0.11 4.21,0.29 L3.5,1 L1,1 C0.45,1 0,1.45 0,2 C0,2.55 0.45,3 1,3 L13,3 C13.55,3 14,2.55 14,2 C14,1.45 13.55,1 13,1 L10.5,1 Z" id="path-1"></path>
    </defs>
    <g id="icons/global/remove" stroke="none" stroke-width="1" fill="none" fill-rule="evenodd">
        <polygon id="Path" points="0 0 24 0 24 24 0 24"></polygon>
        <g id="icon" transform="translate(5.000000, 3.000000)">
            <mask id="mask-2" fill="white">
                <use xlink:href="#path-1"></use>
            </mask>
            <g id="Shape" fill-rule="nonzero"></g>
            <g id="Group" mask="url(#mask-2)" fill-opacity="0.87">
                <g transform="translate(-5.000000, -3.000000)" id="✱-/-Color-/-Icons-/-Black-/-Inactive">
                    <rect id="Rectangle-13" fill="#000000" x="0" y="0" width="24" height="24"></rect>
                </g>
            </g>
        </g>
    </g>
</svg>