<?xml version="1.0" encoding="UTF-8"?>
<svg width="24px" height="24px" viewBox="0 0 24 24" version="1.1" xmlns="http://www.w3.org/2000/svg" xmlns:xlink="http://www.w3.org/1999/xlink">
    <title>icons/global/shift-back/ltr</title>
    <defs>
        <path d="M7.34244111,0 C6.64197376,0 5.9853427,0.317813087 5.54452105,0.852278597 L5.43891119,0.990350025 L0.242788982,8.2572041 C-0.0495221228,8.66643965 -0.0760958597,9.19259964 0.153404595,9.62309418 L0.229927294,9.74915998 L5.4260495,17.0160141 C5.86334692,17.6333751 6.58360148,18.0063641 7.34244111,18.0063641 C9.20407867,18.0063641 10.3132077,15.9673087 9.34929711,14.4241461 L9.25883271,14.2893361 L5.49035794,9.00318204 L9.25883271,3.71702802 C10.3649379,2.16076369 9.25883271,0 7.34244111,0 Z M15.6382303,0 C14.9377629,0 14.2811319,0.317813087 13.8301942,0.852278597 L13.7218387,0.990350025 L8.53857815,8.2572041 C8.24626705,8.66643965 8.21969331,9.19259964 8.44919376,9.62309418 L8.52571646,9.74915998 L13.7218387,17.0160141 C14.1591361,17.6333751 14.8793906,18.0063641 15.6382303,18.0063641 C17.4998678,18.0063641 18.6089969,15.9673087 17.6450863,14.4241461 L17.5546219,14.2893361 L13.7861471,9.00318204 L17.5546219,3.71702802 C18.6735888,2.16076369 17.5546219,0 15.6382303,0 Z" id="path-1"></path>
    </defs>
    <g id="icons/global/shift-back/ltr">
        <g id="icon" transform="translate(3.000000, 3.000000)">
            <mask id="mask-2" fill="white">
                <use xlink:href="#path-1"></use>
            </mask>
            <use id="Shape" xlink:href="#path-1"></use>
            <g id="Group" mask="url(#mask-2)">
                <g transform="translate(-3.000000, -3.000000)" id="✱-/-Color-/-Icons-/-Black-/-Inactive">
                    <rect id="Rectangle-13" x="0" y="0" width="24" height="24"></rect>
                </g>
            </g>
        </g>
    </g>
</svg>
