<?xml version="1.0" encoding="UTF-8"?>
<svg width="24px" height="24px" viewBox="0 0 24 24" version="1.1" xmlns="http://www.w3.org/2000/svg" xmlns:xlink="http://www.w3.org/1999/xlink">
    <title>icons/global/dashboard</title>
    <defs>
        <path d="M8.101125,6.444 L8.101125,0 C3.601125,0.45 0.001125,4.311 0.001125,9 C0.001125,13.689 3.601125,17.55 8.101125,18 L8.101125,11.556 C7.201125,11.187 6.301125,10.188 6.301125,9 C6.301125,7.812 7.201125,6.813 8.101125,6.444 L8.101125,6.444 Z M11.575125,8.1 L18.001125,8.1 C17.569125,3.825 14.401125,0.423 9.901125,0 L9.901125,6.444 C10.801125,6.714 11.269125,7.326 11.575125,8.1 L11.575125,8.1 Z M9.901125,11.556 L9.901125,18 C14.401125,17.577 17.569125,14.175 18.001125,9.9 L11.575125,9.9 C11.269125,10.674 10.801125,11.286 9.901125,11.556 L9.901125,11.556 Z" id="path-1"></path>
    </defs>
    <g id="icons/global/dashboard" stroke="none" stroke-width="1" fill="none" fill-rule="evenodd">
        <polygon id="Path" points="0 0 24 0 24 24 0 24"></polygon>
        <g id="icon" transform="translate(3.000000, 3.000000)">
            <mask id="mask-2" fill="white">
                <use xlink:href="#path-1"></use>
            </mask>
            <g id="Mask"></g>
            <g id="Group" mask="url(#mask-2)" fill-opacity="0.87">
                <g transform="translate(-1.800000, -1.800000)" id="✱-/-Color-/-Icons-/-Black-/-Inactive">
                    <rect id="Rectangle-13" fill="#000000" x="0" y="0" width="21.6" height="21.6"></rect>
                </g>
            </g>
        </g>
    </g>
</svg>