<?xml version="1.0" encoding="UTF-8"?>
<svg width="24px" height="24px" viewBox="0 0 24 24" version="1.1" xmlns="http://www.w3.org/2000/svg" xmlns:xlink="http://www.w3.org/1999/xlink">
    <title>icons/global/shift-back/rtl</title>
    <defs>
        <path d="M10.6575589,0 C11.4163985,0 12.1237914,0.37298897 12.5610888,0.990350025 L12.5610888,0.990350025 L17.757211,8.2572041 C18.0787532,8.7073632 18.0787532,9.29900088 17.7700727,9.74915998 L17.7700727,9.74915998 L12.5739505,17.0160141 C12.1366531,17.6333751 11.4163985,18.0063641 10.6575589,18.0063641 C8.74116729,18.0063641 7.62220037,15.8456004 8.74116729,14.2893361 L8.74116729,14.2893361 L12.5096421,9.00318204 L8.74116729,3.71702802 C7.63506206,2.16076369 8.74116729,0 10.6575589,0 Z M2.36176972,0 C3.12060935,0 3.82800223,0.37298897 4.27816133,0.990350025 L4.27816133,0.990350025 L9.46142185,8.2572041 C9.78296406,8.7073632 9.78296406,9.29900088 9.47428354,9.74915998 L9.47428354,9.74915998 L4.27816133,17.0160141 C3.84086392,17.6333751 3.12060935,18.0063641 2.36176972,18.0063641 C0.445378117,18.0063641 -0.673588794,15.8456004 0.445378117,14.2893361 L0.445378117,14.2893361 L4.21385289,9.00318204 L0.445378117,3.71702802 C-0.673588794,2.16076369 0.445378117,0 2.36176972,0 Z" id="path-1"></path>
    </defs>
    <g id="icons/global/shift-back/rtl">
        <g id="icon" transform="translate(3.000000, 3.000000)">
            <mask id="mask-2" fill="white">
                <use xlink:href="#path-1"></use>
            </mask>
            <use id="Combined-Shape" xlink:href="#path-1"></use>
            <g id="Group" mask="url(#mask-2)">
                <g transform="translate(-3.000000, -3.000000)" id="✱-/-Color-/-Icons-/-Black-/-Inactive">
                    <rect id="Rectangle-13" x="0" y="0" width="24" height="24"></rect>
                </g>
            </g>
        </g>
    </g>
</svg>
