<?xml version="1.0" encoding="UTF-8"?>
<svg viewBox="0 0 24 24" version="1.1" xmlns="http://www.w3.org/2000/svg" xmlns:xlink="http://www.w3.org/1999/xlink">
    <title>icons/global/online-orders</title>
    <defs>
        <path d="M6.18777518,0 C7.64947712,0 8.83846011,1.18679808 8.83846011,2.64550781 L8.83846011,2.64550781 L8.83846011,2.82417296 L10.4323936,2.82417296 C11.4466273,2.82417296 12.2812959,3.60365295 12.3678449,4.59379579 L12.3678449,4.59379579 L8.73457376,4.59379579 C7.95081642,4.59379579 7.20090814,4.89605713 6.62285959,5.4446869 C6.04481104,5.99345399 5.70508196,6.7259674 5.66600414,7.50723265 L5.66600414,7.50723265 L5.24123961,15.9833222 C5.20395059,16.7286072 5.4408941,17.4369507 5.91010274,18 L5.91010274,18 L1.94315678,18 C0.871682372,18 2.5313085e-13,17.1300201 2.5313085e-13,16.0605011 L2.5313085e-13,16.0605011 L2.5313085e-13,4.76367188 C2.5313085e-13,3.69429015 0.871682372,2.82417296 1.94315678,2.82417296 L1.94315678,2.82417296 L3.53709025,2.82417296 L3.53709025,2.64550781 C3.53709025,1.18679808 4.72634845,0 6.18777518,0 Z M15.5259907,5.64848329 C16.5832926,5.64848329 17.4864848,6.50582888 17.5391848,7.5598297 L17.5391848,7.5598297 L17.9639493,16.0360565 C17.9899554,16.5568085 17.8086014,17.048996 17.4531861,17.4218445 C17.0979085,17.794693 16.6143897,18 16.0919306,18 L16.0919306,18 L8.16863382,18 C7.64617477,18 7.16279354,17.794693 6.80737829,17.4218445 C6.45196305,17.048996 6.2706091,16.5568085 6.29675267,16.0360565 L6.29675267,16.0360565 L6.72137965,7.5598297 C6.77407963,6.5059662 7.6772719,5.64848329 8.73457376,5.64848329 L8.73457376,5.64848329 Z M14.2526602,8.47265625 C13.9608152,8.47265625 13.7242845,8.70872498 13.7242845,9 L13.7242845,9 L13.7242845,9.7060089 C13.7242845,10.5832672 13.0091885,11.2968292 12.130351,11.2968292 C11.251376,11.2968292 10.5364176,10.5832672 10.5364176,9.7060089 L10.5364176,9.7060089 L10.5364176,9 C10.5364176,8.70872498 10.2997493,8.47265625 10.0080418,8.47265625 C9.71619679,8.47265625 9.47966611,8.70872498 9.47966611,9 L9.47966611,9 L9.47966611,9.7060089 C9.47966611,11.1647186 10.6686491,12.3515167 12.130351,12.3515167 C13.5919154,12.3515167 14.781036,11.1647186 14.781036,9.7060089 L14.781036,9.7060089 L14.781036,9 C14.781036,8.70872498 14.5443677,8.47265625 14.2526602,8.47265625 Z M6.18777518,1.0546875 C5.30893775,1.0546875 4.59384171,1.76838683 4.59384171,2.64550781 L4.59384171,2.64550781 L4.59384171,2.82417296 L7.78170864,2.82417296 L7.78170864,2.64550781 C7.78170864,1.76838683 7.06675026,1.0546875 6.18777518,1.0546875 Z" id="path-1"></path>
    </defs>
    <g id="icons/global/online-orders">
        <g id="icon" transform="translate(3.000000, 3.000000)">
            <mask id="mask-2">
                <use xlink:href="#path-1"></use>
            </mask>
            <use id="Combined-Shape" xlink:href="#path-1"></use>
            <g id="Group" mask="url(#mask-2)">
                <g transform="translate(-1.800000, -1.800000)" id="✱-/-Color-/-Icons-/-Black-/-Inactive">
                    <rect id="Rectangle-13" x="0" y="0" width="21.6" height="21.6"></rect>
                </g>
            </g>
        </g>
        <g id="shopping-bag" transform="translate(3.000000, 3.000000)"></g>
    </g>
</svg>
