<?xml version="1.0" encoding="UTF-8"?>
<svg width="24px" height="24px" viewBox="0 0 24 24" version="1.1" xmlns="http://www.w3.org/2000/svg" xmlns:xlink="http://www.w3.org/1999/xlink">
    <title>icons/global/edit</title>
    <defs>
        <path d="M0,14.46 L0,17.5 C0,17.78 0.22,18 0.5,18 L3.54,18 C3.67,18 3.8,17.95 3.89,17.85 L14.81,6.94 L11.06,3.19 L0.15,14.1 C0.05,14.2 0,14.32 0,14.46 Z M17.71,4.04 C18.1,3.65 18.1,3.02 17.71,2.63 L15.37,0.29 C14.98,-0.1 14.35,-0.1 13.96,0.29 L12.13,2.12 L15.88,5.87 L17.71,4.04 Z" id="path-1"></path>
    </defs>
    <g id="icons/global/edit" stroke="none" stroke-width="1" fill="none" fill-rule="evenodd">
        <polygon id="Path" points="0 0 24 0 24 24 0 24"></polygon>
        <g id="icon" transform="translate(3.000000, 3.000000)">
            <mask id="mask-2" fill="white">
                <use xlink:href="#path-1"></use>
            </mask>
            <g id="Shape" fill-rule="nonzero"></g>
            <g id="Group" mask="url(#mask-2)" fill-opacity="0.87">
                <g transform="translate(-3.000000, -3.000000)" id="✱-/-Color-/-Icons-/-Black-/-Inactive">
                    <rect id="Rectangle-13" fill="#000000" x="0" y="0" width="24" height="24"></rect>
                </g>
            </g>
        </g>
    </g>
</svg>