<?xml version="1.0" encoding="UTF-8"?>
<svg width="24px" height="24px" viewBox="0 0 24 24" version="1.1" xmlns="http://www.w3.org/2000/svg" xmlns:xlink="http://www.w3.org/1999/xlink">
    <title>icons/global/promotion</title>
    <defs>
        <path d="M18,8 C18,6.9 18.9,6 20,6 L20,2 C20,0.9 19.1,0 18,0 L2,0 C0.9,0 0.01,0.9 0.01,2 L0.01,6 C1.11,6 2,6.9 2,8 C2,9.1 1.11,10 0,10 L0,14 C0,15.1 0.9,16 2,16 L18,16 C19.1,16 20,15.1 20,14 L20,10 C18.9,10 18,9.1 18,8 L18,8 Z M13.58,12.8 L10,10.5 L6.42,12.8 L7.5,8.68 L4.21,5.99 L8.45,5.74 L10,1.8 L11.54,5.75 L15.78,6 L12.49,8.69 L13.58,12.8 L13.58,12.8 Z" id="path-1"></path>
    </defs>
    <g id="icons/global/promotion" stroke="none" stroke-width="1" fill="none" fill-rule="evenodd">
        <polygon id="Path" points="0 0 24 0 24 24 0 24"></polygon>
        <g id="icon" transform="translate(2.000000, 4.000000)">
            <mask id="mask-2" fill="white">
                <use xlink:href="#path-1"></use>
            </mask>
            <g id="Mask"></g>
            <g id="Group" mask="url(#mask-2)" fill-opacity="0.87">
                <g transform="translate(-3.333333, -5.333333)" id="✱-/-Color-/-Icons-/-Black-/-Inactive">
                    <rect id="Rectangle-13" fill="#000000" x="0" y="0" width="26.6666667" height="26.6666667"></rect>
                </g>
            </g>
        </g>
    </g>
</svg>