<?xml version="1.0" encoding="UTF-8"?>
<svg width="24px" height="24px" viewBox="0 0 24 24" version="1.1" xmlns="http://www.w3.org/2000/svg" xmlns:xlink="http://www.w3.org/1999/xlink">
    <title>icons/global/warning</title>
    <defs>
        <path d="M23.5844531,19.4511719 L16.5194141,6.46382813 C15.3842969,4.55285156 12.6172266,4.5503125 11.4805859,6.46382813 L4.41589844,19.4511719 C3.25550781,21.4038672 4.66039063,23.8766016 6.93472656,23.8766016 L21.0650391,23.8766016 C23.3374609,23.8766016 24.7448438,21.4058594 23.5844531,19.4511719 Z M14,21.5328516 C13.3539844,21.5328516 12.828125,21.0069922 12.828125,20.3609766 C12.828125,19.7149609 13.3539844,19.1891016 14,19.1891016 C14.6460156,19.1891016 15.171875,19.7149609 15.171875,20.3609766 C15.171875,21.0069922 14.6460156,21.5328516 14,21.5328516 Z M15.171875,16.8453516 C15.171875,17.4913672 14.6460156,18.0172266 14,18.0172266 C13.3539844,18.0172266 12.828125,17.4913672 12.828125,16.8453516 L12.828125,10.9859766 C12.828125,10.3399609 13.3539844,9.81410156 14,9.81410156 C14.6460156,9.81410156 15.171875,10.3399609 15.171875,10.9859766 L15.171875,16.8453516 Z" id="path-1"></path>
    </defs>
    <g id="icons/global/warning" stroke="none" stroke-width="1">
        <g id="icon" transform="translate(-2.000000, -2.000000)">
            <mask id="mask-2">
                <use xlink:href="#path-1"></use>
            </mask>
          <use id="Mask" xlink:href="#path-1"></use>
            <g id="Group" mask="url(#mask-2)">
                <g transform="translate(0.666667, 0.666667)" id="✱-/-Color-/-Icons-/-Black-/-Inactive">
                    <rect id="Rectangle-13" x="0" y="0" width="26.6666667" height="26.6666667"></rect>
                </g>
            </g>
        </g>
    </g>
</svg>
