<?xml version="1.0" encoding="UTF-8"?>
<svg width="24px" height="24px" viewBox="0 0 24 24" version="1.1" xmlns="http://www.w3.org/2000/svg" xmlns:xlink="http://www.w3.org/1999/xlink">
    <title>icons/global/help</title>
    <defs>
        <path d="M10,20 C15.5228475,20 20,15.5228475 20,10 C20,4.4771525 15.5228475,0 10,0 C4.4771525,0 0,4.4771525 0,10 C0,15.5228475 4.4771525,20 10,20 Z M9.68811881,12.4691525 C10.2117712,12.4691525 10.4735974,12.1355932 10.5506051,11.5986441 C10.6122112,10.8583051 10.8586359,10.4677966 11.8674367,9.84949153 C12.9147415,9.19050847 13.5,8.33627119 13.5,7.09152542 C13.5,5.25288136 12.0676568,4 9.98074807,4 C8.39438944,4 7.19306931,4.68338983 6.71562156,5.78983051 C6.56930693,6.09898305 6.5,6.4 6.5,6.74983051 C6.5,7.29491525 6.81573157,7.63661017 7.34708471,7.63661017 C7.77062706,7.63661017 8.05555556,7.43322034 8.2249725,6.92881356 C8.47139714,6.10711864 9.04125413,5.65966102 9.8960396,5.65966102 C10.8432343,5.65966102 11.4977998,6.2779661 11.4977998,7.16474576 C11.4977998,7.94576271 11.1743674,8.39322034 10.2194719,9.00338983 C9.25687569,9.60542373 8.77942794,10.2725424 8.77942794,11.2813559 L8.77942794,11.4359322 C8.77942794,12.0298305 9.10286029,12.4691525 9.68811881,12.4691525 Z M9.70352035,16 C10.3272827,16 10.820132,15.4874576 10.820132,14.8447458 C10.820132,14.2020339 10.3272827,13.6976271 9.70352035,13.6976271 C9.07975798,13.6976271 8.57920792,14.2020339 8.57920792,14.8447458 C8.57920792,15.4874576 9.07975798,16 9.70352035,16 Z" id="path-1"></path>
    </defs>
    <g id="icons/global/help" stroke="none" stroke-width="1" fill="none" fill-rule="evenodd">
        <polygon id="Path" points="0 0 24 0 24 24 0 24"></polygon>
        <g id="icon" transform="translate(2.000000, 2.000000)">
            <mask id="mask-2" fill="white">
                <use xlink:href="#path-1"></use>
            </mask>
            <use id="Combined-Shape" fill="#D8D8D8" xlink:href="#path-1"></use>
            <g id="Group" mask="url(#mask-2)" fill-opacity="0.87">
                <g transform="translate(-2.000000, -2.000000)" id="✱-/-Color-/-Icons-/-Black-/-Inactive">
                    <rect id="Rectangle-13" fill="#000000" x="0" y="0" width="24" height="24"></rect>
                </g>
            </g>
        </g>
    </g>
</svg>