<?xml version="1.0" standalone="no"?>
<!DOCTYPE svg PUBLIC "-//W3C//DTD SVG 20010904//EN"
  "http://www.w3.org/TR/2001/REC-SVG-20010904/DTD/svg10.dtd">
<svg version="1.0" xmlns="http://www.w3.org/2000/svg"
     width="12.000000pt" height="12.000000pt" viewBox="0 0 16.000000 16.000000"
     preserveAspectRatio="xMidYMid meet">
  <g transform="translate(0.000000,16.000000) scale(0.100000,-0.100000)"
     fill="#ff0000" stroke="none">
    <path d="M3 144 c-3 -8 4 -25 17 -40 l23 -24 -21 -23 c-12 -13 -22 -29 -22
-35 0 -24 31 -25 56 -2 l24 23 24 -23 c25 -23 56 -22 56 2 0 6 -10 22 -22 35
l-21 23 23 24 c23 25 22 56 -2 56 -6 0 -22 -10 -35 -22 l-23 -21 -23 21 c-27
26 -45 28 -54 6z"/>
  </g>
</svg>
