<?xml version="1.0" encoding="UTF-8"?>
<svg width="20px" height="20px" viewBox="0 0 20 20" version="1.1" xmlns="http://www.w3.org/2000/svg" xmlns:xlink="http://www.w3.org/1999/xlink">
    <title>5976B31D-B390-4078-BB0A-D0C9A98193D3</title>
    <g id="landing" stroke="none" stroke-width="1" fill="none" fill-rule="evenodd">
        <g id="home-worker-update" transform="translate(-316.000000, -192.000000)" fill="#FFFFFF" fill-rule="nonzero">
            <g id="body" transform="translate(256.000000, 64.000000)">
                <g id="alert" transform="translate(20.000000, 88.000000)">
                    <path d="M48.75,50.6546736 L48.75,60 L42.5,60 C41.81125,60 41.25,59.4018991 41.25,58.6649534 L41.25,58.6649534 L41.25,50.6546736 L48.75,50.6546736 Z M58.75,50.6546736 L58.75,58.6649534 C58.75,59.4018991 58.19,60 57.5,60 L57.5,60 L51.25,60 L51.25,50.6546736 L58.75,50.6546736 Z M51.82625,40.7900142 C52.805,39.7379974 54.5125,39.7353273 55.4925,40.7900142 C56.50125,41.872737 56.50125,43.6349985 55.4925,44.7177213 C55.3225,44.9019578 55.07875,45.1075549 54.795,45.3144872 L54.795,45.3144872 L58.75,45.3144872 C59.44,45.3144872 60,45.9139231 60,46.6495338 L60,46.6495338 L60,48.6521037 C60,49.0205766 59.72,49.319627 59.375,49.319627 L59.375,49.319627 L51.25,49.319627 L51.25,46.6495338 L48.75,46.6495338 L48.75,49.319627 L40.625,49.319627 C40.28,49.319627 40,49.0205766 40,48.6521037 L40,48.6521037 L40,46.6495338 C40,45.9139231 40.56125,45.3144872 41.25,45.3144872 L41.25,45.3144872 L45.205,45.3144872 C44.92125,45.1075549 44.6775,44.9019578 44.50625,44.7177213 C43.5,43.6349985 43.5,41.872737 44.5075,40.7900142 C45.48625,39.7379974 47.19375,39.7379974 48.17375,40.7900142 C48.715,41.3707594 50.1525,43.735127 49.955,45.3144872 L49.955,45.3144872 L50.045,45.3144872 C49.84625,43.735127 51.28375,41.3707594 51.82625,40.7900142 Z M46.34125,41.3093473 C45.98375,41.3093473 45.6475,41.4588725 45.39375,41.731222 C44.87,42.2946117 44.87,43.2131238 45.39375,43.7765134 C45.9325,44.3559237 47.58125,45.3144872 48.445,45.3144872 C48.62375,45.3144872 48.67625,45.2704306 48.67625,45.2704306 C48.9675,44.9486844 48.13,42.6363836 47.2875,41.731222 C47.03375,41.4588725 46.6975,41.3093473 46.34125,41.3093473 Z M54.60625,41.731222 C54.0975,41.185188 53.21625,41.187858 52.7125,41.731222 C51.87,42.6363836 51.0325,44.9486844 51.32375,45.2704306 C51.32375,45.2717657 51.37625,45.3144872 51.55375,45.3144872 C52.41875,45.3144872 54.0675,44.3559237 54.60625,43.7765134 C55.13125,43.2131238 55.13125,42.2946117 54.60625,41.731222 Z" id="ic-new-update"></path>
                </g>
            </g>
        </g>
    </g>
</svg>