<?xml version="1.0" encoding="UTF-8"?>
<svg width="114px" height="48px" viewBox="0 0 114 48" version="1.1" xmlns="http://www.w3.org/2000/svg" xmlns:xlink="http://www.w3.org/1999/xlink">
    <!-- Generator: Sketch 59.1 (86144) - https://sketch.com -->
    <title>components/logo/rtl</title>
    <desc>Created with Sketch.</desc>
    <defs>
        <linearGradient x1="100.007069%" y1="50.0020768%" x2="0.00226232388%" y2="50.0020768%" id="linearGradient-1">
            <stop stop-color="#F1F2F2" offset="0%"></stop>
            <stop stop-color="#EFF0F0" stop-opacity="0.5871" offset="41.29%"></stop>
            <stop stop-color="#E8E9E9" stop-opacity="0.4384" offset="56.16%"></stop>
            <stop stop-color="#DDDEDE" stop-opacity="0.3324" offset="66.76%"></stop>
            <stop stop-color="#CCCDCD" stop-opacity="0.2466" offset="75.34%"></stop>
            <stop stop-color="#B6B7B7" stop-opacity="0.1732" offset="82.68%"></stop>
            <stop stop-color="#9A9B9D" stop-opacity="0.1082" offset="89.18%"></stop>
            <stop stop-color="#7B7C7E" stop-opacity="0.0508" offset="94.92%"></stop>
            <stop stop-color="#58595B" stop-opacity="0" offset="100%"></stop>
        </linearGradient>
        <linearGradient x1="-0.00289840438%" y1="50.0032731%" x2="100.001908%" y2="50.0032731%" id="linearGradient-2">
            <stop stop-color="#F1F2F2" offset="0%"></stop>
            <stop stop-color="#EFF0F0" stop-opacity="0.5871" offset="41.29%"></stop>
            <stop stop-color="#E8E9E9" stop-opacity="0.4384" offset="56.16%"></stop>
            <stop stop-color="#DDDEDE" stop-opacity="0.3324" offset="66.76%"></stop>
            <stop stop-color="#CCCDCD" stop-opacity="0.2466" offset="75.34%"></stop>
            <stop stop-color="#B6B7B7" stop-opacity="0.1732" offset="82.68%"></stop>
            <stop stop-color="#9A9B9D" stop-opacity="0.1082" offset="89.18%"></stop>
            <stop stop-color="#7B7C7E" stop-opacity="0.0508" offset="94.92%"></stop>
            <stop stop-color="#58595B" stop-opacity="0" offset="100%"></stop>
        </linearGradient>
    </defs>
    <g id="components/logo/rtl" stroke="none" stroke-width="1" fill="none" fill-rule="evenodd">
        <rect id="surface" fill-opacity="0.01" fill="#FFFFFF" x="0" y="0" width="114" height="48"></rect>
        <g id="icons/global/logo" transform="translate(84.000000, 9.000000)">
            <circle id="Oval" fill="#E83744" cx="15" cy="15" r="15"></circle>
            <g id="XMLID_8_" stroke-width="1" transform="translate(8.000000, 5.000000)">
                <path d="M0.371730826,17.0645161 C-0.478401411,17.9290323 0.736996768,18.816129 0.829660104,18.8817204 C3.66127926,20.6451613 7.43784896,20.2795699 9.87295524,17.8032258 C12.6884122,14.9397849 12.645313,10.3408602 9.77598198,7.5311828 C9.77059457,7.52580645 9.76520717,7.52150538 9.76089725,7.5172043 L0.371730826,17.0645161 L0.371730826,17.0645161 Z" id="XMLID_21_" fill="#FFFFFF" fill-rule="nonzero"></path>
                <path d="M0.369575864,17.0623656 C-0.480556372,17.9268817 0.734841806,18.8139785 0.827505143,18.8795699 C3.6591243,20.6430108 7.435694,20.2774194 9.87080027,17.8010753 C12.6862572,14.9376344 12.643158,10.3387097 9.77382702,7.52903226 C9.76843961,7.52365591 9.76305221,7.51935484 9.75874229,7.51505376 L0.369575864,17.0623656 L0.369575864,17.0623656 Z" id="XMLID_20_" fill="url(#linearGradient-1)" fill-rule="nonzero"></path>
                <polygon id="XMLID_19_" fill="#A4A6BA" fill-rule="nonzero" points="1.13350965 16.2913978 10.1196983 7.89784946 9.69193849 7.42903226"></polygon>
                <g id="XMLID_9_" transform="translate(1.185229, 0.000000)" fill-rule="nonzero">
                    <path d="M11.6755804,2.94193548 C12.5257126,2.07741935 11.3103144,1.19032258 11.2176511,1.12473118 C8.38603193,-0.638709677 4.60946224,-0.27311828 2.17435596,2.20322581 C-0.641100989,5.06666667 -0.598001763,9.6655914 2.27132922,12.4752688 C2.27671662,12.4806452 2.28210403,12.4849462 2.28641395,12.4892473 L11.6755804,2.94193548 L11.6755804,2.94193548 Z" id="XMLID_18_" fill="#FFFFFF"></path>
                    <path d="M11.6755804,2.94193548 C12.5257126,2.07741935 11.3103144,1.19032258 11.2176511,1.12473118 C8.38603193,-0.638709677 4.60946224,-0.27311828 2.17435596,2.20322581 C-0.641100989,5.06666667 -0.598001763,9.6655914 2.27132922,12.4752688 C2.27671662,12.4806452 2.28210403,12.4849462 2.28641395,12.4892473 L11.6755804,2.94193548 L11.6755804,2.94193548 Z" id="XMLID_17_" fill="url(#linearGradient-2)"></path>
                </g>
            </g>
        </g>
        <path d="M50.512,31 L50.512,28.096 L53.056,28.096 C53.664003,28.096 54.0999987,27.9640013 54.364,27.7 C54.6280013,27.4359987 54.76,26.9920031 54.76,26.368 L54.76,23.2 L57.784,21.616 L57.784,26.368 C57.784,26.9920031 57.9119987,27.4359987 58.168,27.7 C58.4240013,27.9640013 58.855997,28.096 59.464,28.096 L61.096,28.096 C61.704003,28.096 62.1359987,27.9640013 62.392,27.7 C62.6480013,27.4359987 62.776,26.9920031 62.776,26.368 L62.776,22.576 L65.8,20.968 L65.8,26.368 C65.8,26.9920031 65.9319987,27.4359987 66.196,27.7 C66.4600013,27.9640013 66.895997,28.096 67.504,28.096 L69.136,28.096 C69.744003,28.096 70.1759987,27.9640013 70.432,27.7 C70.6880013,27.4359987 70.816,26.9920031 70.816,26.368 L70.816,21.928 L73.84,20.344 L73.84,26.512 C73.84,27.9360071 73.4080043,29.0559959 72.544,29.872 C71.7919962,30.5920036 70.8000062,30.9679998 69.568,31 L67.192,31 C66.0079941,31 65.0400038,30.6480035 64.288,29.944 C63.5999966,30.6320034 62.6880057,30.9839999 61.552,31 L59.176,31 C57.9919941,31 57.0240038,30.6480035 56.272,29.944 C55.5199962,30.6480035 54.5520059,31 53.368,31 L50.512,31 Z M49.792,28.096 L51.952,28.096 L51.952,31 L49.504,31 C48.9599973,31 48.4560023,30.9280007 47.992,30.784 C47.783999,32.3200077 47.1680051,33.5359955 46.144,34.432 C45.2159954,35.232004 44.1040065,35.632 42.808,35.632 C41.799995,35.632 40.8160048,35.3760026 39.856,34.864 L39.856,32.224 C40.6880042,32.6880023 41.503996,32.92 42.304,32.92 C43.1840044,32.92 43.8679976,32.6360028 44.356,32.068 C44.8440024,31.4999972 45.088,30.712005 45.088,29.704 L45.088,21.928 L47.056,20.896 L48.088,20.344 L48.088,20.368 L48.112,20.344 L48.112,26.368 C48.112,26.9920031 48.2399987,27.4359987 48.496,27.7 C48.7520013,27.9640013 49.183997,28.096 49.792,28.096 Z M35.344,14.704 C34.3839952,14.704 33.904,14.2160049 33.904,13.24 C33.904,12.2959953 34.3839952,11.824 35.344,11.824 C36.2880047,11.824 36.76,12.2959953 36.76,13.24 C36.76,14.2160049 36.2880047,14.704 35.344,14.704 Z M33.52,18.232 C33.0399976,18.232 32.6560014,18.0880014 32.368,17.8 C32.0799986,17.5119986 31.936,17.1200025 31.936,16.624 C31.936,15.5839948 32.4639947,15.064 33.52,15.064 C34.0000024,15.064 34.3799986,15.2039986 34.66,15.484 C34.9400014,15.7640014 35.08,16.1439976 35.08,16.624 C35.08,17.6960054 34.5600052,18.232 33.52,18.232 Z M37.216,18.232 C36.7359976,18.232 36.3520014,18.0880014 36.064,17.8 C35.7759986,17.5119986 35.632,17.1200025 35.632,16.624 C35.632,15.5839948 36.1599947,15.064 37.216,15.064 C37.6960024,15.064 38.0759986,15.2039986 38.356,15.484 C38.6360014,15.7640014 38.776,16.1439976 38.776,16.624 C38.776,17.6960054 38.2560052,18.232 37.216,18.232 Z M35.32,19.936 C36.7440071,19.936 37.855996,20.3919954 38.656,21.304 C39.3440034,22.0880039 39.688,23.1119937 39.688,24.376 L39.688,26.536 C39.688,27.9120069 39.2800041,29.0079959 38.464,29.824 C37.663996,30.6080039 36.6000066,31 35.272,31 L24.952,31 C23.4479925,31 22.2560044,30.4880051 21.376,29.464 C20.6239962,28.5679955 20.248,27.4320069 20.248,26.056 L20.248,23.632 L23.272,22.024 L23.272,25.864 C23.272,26.6800041 23.4239985,27.2559983 23.728,27.592 C24.0320015,27.9280017 24.5519963,28.096 25.288,28.096 L31.24,28.096 C30.7599976,27.4239966 30.52,26.5440054 30.52,25.456 C30.52,23.6959912 30.9999952,22.3040051 31.96,21.28 C32.8080042,20.3839955 33.927993,19.936 35.32,19.936 Z M35.32,22.744 C34.7439971,22.744 34.2920016,22.9759977 33.964,23.44 C33.6359984,23.9040023 33.472,24.5439959 33.472,25.36 C33.472,27.1840091 34.0639941,28.096 35.248,28.096 C36.1920047,28.096 36.664,27.5760052 36.664,26.536 L36.664,26.536 L36.664,24.328 C36.664,23.2719947 36.2160045,22.744 35.32,22.744 Z" id="سرڤ" fill="#E83744" fill-rule="nonzero"></path>
    </g>
</svg>