<?xml version="1.0" encoding="UTF-8"?>
<svg width="114px" height="48px" viewBox="0 0 114 48" version="1.1" xmlns="http://www.w3.org/2000/svg" xmlns:xlink="http://www.w3.org/1999/xlink">
    <!-- Generator: Sketch 59.1 (86144) - https://sketch.com -->
    <title>components/logo/ltr</title>
    <desc>Created with Sketch.</desc>
    <defs>
        <linearGradient x1="100.007069%" y1="50.0020768%" x2="0.00226232388%" y2="50.0020768%" id="linearGradient-1">
            <stop stop-color="#F1F2F2" offset="0%"></stop>
            <stop stop-color="#EFF0F0" stop-opacity="0.5871" offset="41.29%"></stop>
            <stop stop-color="#E8E9E9" stop-opacity="0.4384" offset="56.16%"></stop>
            <stop stop-color="#DDDEDE" stop-opacity="0.3324" offset="66.76%"></stop>
            <stop stop-color="#CCCDCD" stop-opacity="0.2466" offset="75.34%"></stop>
            <stop stop-color="#B6B7B7" stop-opacity="0.1732" offset="82.68%"></stop>
            <stop stop-color="#9A9B9D" stop-opacity="0.1082" offset="89.18%"></stop>
            <stop stop-color="#7B7C7E" stop-opacity="0.0508" offset="94.92%"></stop>
            <stop stop-color="#58595B" stop-opacity="0" offset="100%"></stop>
        </linearGradient>
        <linearGradient x1="-0.00289840438%" y1="50.0032731%" x2="100.001908%" y2="50.0032731%" id="linearGradient-2">
            <stop stop-color="#F1F2F2" offset="0%"></stop>
            <stop stop-color="#EFF0F0" stop-opacity="0.5871" offset="41.29%"></stop>
            <stop stop-color="#E8E9E9" stop-opacity="0.4384" offset="56.16%"></stop>
            <stop stop-color="#DDDEDE" stop-opacity="0.3324" offset="66.76%"></stop>
            <stop stop-color="#CCCDCD" stop-opacity="0.2466" offset="75.34%"></stop>
            <stop stop-color="#B6B7B7" stop-opacity="0.1732" offset="82.68%"></stop>
            <stop stop-color="#9A9B9D" stop-opacity="0.1082" offset="89.18%"></stop>
            <stop stop-color="#7B7C7E" stop-opacity="0.0508" offset="94.92%"></stop>
            <stop stop-color="#58595B" stop-opacity="0" offset="100%"></stop>
        </linearGradient>
    </defs>
    <g id="components/logo/ltr" stroke="none" stroke-width="1" fill="none" fill-rule="evenodd">
        <rect id="surface" fill-opacity="0.01" fill="#FFFFFF" x="0" y="0" width="114" height="48"></rect>
        <g id="icons/global/logo" transform="translate(0.000000, 9.000000)">
            <circle id="Oval" fill="#E83744" cx="15" cy="15" r="15"></circle>
            <g id="XMLID_8_" stroke-width="1" transform="translate(8.000000, 5.000000)">
                <path d="M0.371730826,17.0645161 C-0.478401411,17.9290323 0.736996768,18.816129 0.829660104,18.8817204 C3.66127926,20.6451613 7.43784896,20.2795699 9.87295524,17.8032258 C12.6884122,14.9397849 12.645313,10.3408602 9.77598198,7.5311828 C9.77059457,7.52580645 9.76520717,7.52150538 9.76089725,7.5172043 L0.371730826,17.0645161 L0.371730826,17.0645161 Z" id="XMLID_21_" fill="#FFFFFF" fill-rule="nonzero"></path>
                <path d="M0.369575864,17.0623656 C-0.480556372,17.9268817 0.734841806,18.8139785 0.827505143,18.8795699 C3.6591243,20.6430108 7.435694,20.2774194 9.87080027,17.8010753 C12.6862572,14.9376344 12.643158,10.3387097 9.77382702,7.52903226 C9.76843961,7.52365591 9.76305221,7.51935484 9.75874229,7.51505376 L0.369575864,17.0623656 L0.369575864,17.0623656 Z" id="XMLID_20_" fill="url(#linearGradient-1)" fill-rule="nonzero"></path>
                <polygon id="XMLID_19_" fill="#A4A6BA" fill-rule="nonzero" points="1.13350965 16.2913978 10.1196983 7.89784946 9.69193849 7.42903226"></polygon>
                <g id="XMLID_9_" transform="translate(1.185229, 0.000000)" fill-rule="nonzero">
                    <path d="M11.6755804,2.94193548 C12.5257126,2.07741935 11.3103144,1.19032258 11.2176511,1.12473118 C8.38603193,-0.638709677 4.60946224,-0.27311828 2.17435596,2.20322581 C-0.641100989,5.06666667 -0.598001763,9.6655914 2.27132922,12.4752688 C2.27671662,12.4806452 2.28210403,12.4849462 2.28641395,12.4892473 L11.6755804,2.94193548 L11.6755804,2.94193548 Z" id="XMLID_18_" fill="#FFFFFF"></path>
                    <path d="M11.6755804,2.94193548 C12.5257126,2.07741935 11.3103144,1.19032258 11.2176511,1.12473118 C8.38603193,-0.638709677 4.60946224,-0.27311828 2.17435596,2.20322581 C-0.641100989,5.06666667 -0.598001763,9.6655914 2.27132922,12.4752688 C2.27671662,12.4806452 2.28210403,12.4849462 2.28641395,12.4892473 L11.6755804,2.94193548 L11.6755804,2.94193548 Z" id="XMLID_17_" fill="url(#linearGradient-2)"></path>
                </g>
            </g>
        </g>
        <path d="M38.6347656,26.9765625 C38.7226562,29.6328125 40.9589844,31.234375 44.3183594,31.234375 C47.84375,31.234375 50.0019531,29.4960938 50.0019531,26.7421875 C50.0019531,24.6035156 48.703125,23.4023438 45.7246094,22.8066406 L44.2304688,22.5039062 C42.5703125,22.171875 41.8867188,21.6347656 41.8867188,20.765625 C41.8867188,19.7304688 42.8632812,19.046875 44.3183594,19.046875 C45.8027344,19.046875 46.8476562,19.7695312 46.9453125,20.9707031 L49.7285156,20.9707031 C49.6796875,18.3828125 47.609375,16.6640625 44.3183594,16.6640625 C41.1835938,16.6640625 38.9375,18.3730469 38.9375,20.9511719 C38.9375,23.0507812 40.3144531,24.3984375 43.1269531,24.9550781 L44.6113281,25.2480469 C46.3789062,25.609375 47.0429688,26.1367188 47.0429688,27.0644531 C47.0429688,28.0996094 45.96875,28.8613281 44.3964844,28.8613281 C42.7949219,28.8613281 41.6035156,28.1582031 41.4179688,26.9765625 L38.6347656,26.9765625 Z M54.7480469,16.9082031 L51.7988281,16.9082031 L51.7988281,26.0195312 C51.7988281,29.125 54.09375,31.234375 57.7070312,31.234375 C61.3105469,31.234375 63.6054688,29.125 63.6054688,26.0195312 L63.6054688,16.9082031 L60.65625,16.9082031 L60.65625,25.7265625 C60.65625,27.5332031 59.5917969,28.7148438 57.7070312,28.7148438 C55.8125,28.7148438 54.7480469,27.5332031 54.7480469,25.7265625 L54.7480469,16.9082031 Z M68.8984375,25.84375 L71.2617188,25.84375 L73.8886719,31 L77.2285156,31 L74.2597656,25.4042969 C75.8808594,24.7695312 76.8183594,23.2070312 76.8183594,21.4003906 C76.8183594,18.6171875 74.9628906,16.9082031 71.7207031,16.9082031 L65.9492188,16.9082031 L65.9492188,31 L68.8984375,31 L68.8984375,25.84375 Z M68.8984375,19.2128906 L71.4082031,19.2128906 C72.8730469,19.2128906 73.7910156,20.0917969 73.7910156,21.4589844 C73.7910156,22.8554688 72.921875,23.7050781 71.4375,23.7050781 L68.8984375,23.7050781 L68.8984375,19.2128906 Z M85.9980469,31 L90.734375,16.9082031 L87.5214844,16.9082031 L84.2988281,27.9628906 L84.2304688,27.9628906 L81.0078125,16.9082031 L77.7070312,16.9082031 L82.4433594,31 L85.9980469,31 Z M99.5625,31 L96.0078125,31 L91.2714844,16.9082031 L94.5722656,16.9082031 L97.7949219,27.9628906 L97.8632812,27.9628906 L101.085938,16.9082031 L104.298828,16.9082031 L99.5625,31 Z" id="SURVV" fill="#E83744" fill-rule="nonzero"></path>
    </g>
</svg>