<?xml version="1.0" encoding="UTF-8"?>
<svg width="24px" height="24px" viewBox="0 0 24 24" version="1.1" xmlns="http://www.w3.org/2000/svg" xmlns:xlink="http://www.w3.org/1999/xlink">
    <title>icons/navigation/store</title>
    <defs>
        <path d="M2.37371789,2.17893774 L17.6262821,2.17893774 C18.22549,2.17893774 18.715751,1.68867675 18.715751,1.08946887 C18.715751,0.490260993 18.22549,0 17.6262821,0 L2.37371789,0 C1.77451001,0 1.28424902,0.490260993 1.28424902,1.08946887 C1.28424902,1.68867675 1.77451001,2.17893774 2.37371789,2.17893774 Z M18.890066,4.13998171 C18.7920138,3.63882603 18.3453316,3.26840662 17.8223865,3.26840662 L2.1776135,3.26840662 C1.65466844,3.26840662 1.2079862,3.63882603 1.109934,4.13998171 L0.0204651302,9.58732608 C-0.110271135,10.2627968 0.401779235,10.8946887 1.08814462,10.8946887 L1.28424902,10.8946887 L1.28424902,16.3420331 C1.28424902,16.941241 1.77451001,17.431502 2.37371789,17.431502 L11.0894689,17.431502 C11.6886768,17.431502 12.1789377,16.941241 12.1789377,16.3420331 L12.1789377,10.8946887 L16.5368132,10.8946887 L16.5368132,16.3420331 C16.5368132,16.941241 17.0270742,17.431502 17.6262821,17.431502 C18.22549,17.431502 18.715751,16.941241 18.715751,16.3420331 L18.715751,10.8946887 L18.9118554,10.8946887 C19.5982208,10.8946887 20.1102711,10.2627968 19.9795349,9.58732608 L18.890066,4.13998171 Z M10,15.2525642 L3.46318677,15.2525642 L3.46318677,10.8946887 L10,10.8946887 L10,15.2525642 Z" id="path-1"></path>
    </defs>
    <g id="icons/navigation/store" stroke="none" stroke-width="1">
        <g id="icon" transform="translate(2.351013, 3.333333)">
          <use xlink:href="#path-1"></use>
        </g>
    </g>
</svg>
