<?xml version="1.0" encoding="UTF-8"?>
<svg viewBox="0 0 24 24" version="1.1" xmlns="http://www.w3.org/2000/svg" xmlns:xlink="http://www.w3.org/1999/xlink">
    <title>icons/navigation/live-ops-orders</title>
    <defs>
        <path d="M0.147641053,3.63534676 L0.191067329,3.64687766 L1.73437463,4.35412235 L1.73437463,7.87731941 C1.73437463,7.91410652 1.75566003,7.94760839 1.78916912,7.96349981 L1.78916912,7.96349981 L4.44498571,9.20979224 C4.45821196,9.21598073 4.47240223,9.21911317 4.4865925,9.21911317 C4.50448457,9.21911317 4.52233809,9.2141853 4.53799366,9.20436776 C4.56602715,9.18683372 4.58299377,9.15631149 4.58299377,9.12361184 L4.58299377,9.12361184 L4.58299377,5.6237935 L7.08896422,6.77019153 C7.13704917,6.79196583 7.16785902,6.8395255 7.16785902,6.89182203 L7.16785902,6.89182203 L7.16785902,14.8661453 C7.16785902,14.9116422 7.14449135,14.9540066 7.10585372,14.9786459 C7.08371999,14.9926655 7.05838573,14.9998472 7.03289723,14.9998472 C7.01380978,14.9998472 6.99468377,14.9958743 6.97679169,14.987814 L6.97679169,14.987814 L0.0788562436,11.8642328 C0.0308098477,11.8424585 -1.88737914e-13,11.794937 -1.88737914e-13,11.7425641 L-1.88737914e-13,11.7425641 L-1.88737914e-13,3.76843176 C-1.88737914e-13,3.72297312 0.0233676693,3.68060873 0.0620053006,3.65596939 C0.100681492,3.63136824 0.149306296,3.62793019 0.191067329,3.64687766 Z M14.8089326,3.64695406 C14.8506937,3.628083 14.899357,3.63144464 14.9379947,3.65604579 C14.9766323,3.68064693 15,3.72304952 15,3.76854636 L15,3.76854636 L15,11.7427169 C15,11.795128 14.9691901,11.8426877 14.9211437,11.8643856 L14.9211437,11.8643856 L8.02359387,14.9879668 C8.00570179,14.9960271 7.98657578,15 7.96748832,15 C7.94196127,15 7.91658845,14.9928183 7.89453184,14.9787987 C7.85589421,14.9542358 7.83252654,14.911795 7.83252654,14.8662981 L7.83252654,14.8662981 L7.83252654,6.89189843 C7.83252654,6.8395255 7.86333638,6.79200403 7.91138278,6.77022973 L7.91138278,6.77022973 Z M11.8700419,1.91189429 L11.9075627,1.92231454 L14.2282113,2.941543 C14.276759,2.96289709 14.3081473,3.01041856 14.3084966,3.06302069 C14.3088028,3.11562283 14.2779158,3.1635263 14.2295224,3.1853006 L14.2295224,3.1853006 L7.55600912,6.20665725 C7.53819416,6.21471756 7.51906815,6.21872862 7.49990357,6.21872862 C7.480739,6.21872862 7.46161299,6.21471756 7.44379803,6.20665725 L7.44379803,6.20665725 L5.09419046,5.0943723 L11.7942719,1.92403357 C11.8299404,1.90707253 11.8713929,1.90634672 11.9075627,1.92231454 Z M7.51856829,-3.69079767e-14 L7.5546595,0.0101868091 L8.70576785,0.515656277 C8.75389137,0.536781172 8.78524107,0.583653227 8.78606848,0.635796957 C8.78689917,0.687864285 8.75709189,0.735767754 8.70970103,0.758382471 L8.70970103,0.758382471 L2.17805186,3.82248551 L0.77074748,3.18537701 C0.722431161,3.1635263 0.691582753,3.11562283 0.691888944,3.06302069 C0.692199721,3.01041856 0.723587976,2.96289709 0.772135659,2.941543 L0.772135659,2.941543 L7.44526333,0.0101868091 C7.48012203,-0.00509340455 7.51983936,-0.00509340455 7.5546595,0.0101868091 Z M17.6666797,12 L19.5791797,13.9125 L15.5125,17.975 L12.1791797,14.6416797 L6,20.8208594 L7.17917969,22 L12.1791797,17 L15.5125,20.3333594 L20.7541797,15.0875 L22.6666797,17 L22.6666797,12 L17.6666797,12 Z" id="path-1"></path>
    </defs>
    <g id="icons/navigation/live-ops-orders">
        <g id="icon" transform="translate(1.000000, 1.000000)">
            <mask id="mask-2">
                <use xlink:href="#path-1"></use>
            </mask>
          <use id="Mask" xlink:href="#path-1"></use>
            <g id="Group" mask="url(#mask-2)" fill-opacity="0.87">
                <g transform="translate(-1.000000, -1.000000)" id="✱-/-Color-/-Icons-/-Black-/-Inactive">
                    <rect id="Rectangle-13" x="0" y="0" width="24" height="24"></rect>
                </g>
            </g>
        </g>
    </g>
</svg>
