<?xml version="1.0" encoding="UTF-8"?>
<svg width="24px" height="24px" viewBox="0 0 24 24" version="1.1" xmlns="http://www.w3.org/2000/svg" xmlns:xlink="http://www.w3.org/1999/xlink">
    <title>icons/navigation/pilot</title>
    <defs>
        <path d="M5.46,16.5970654 C6.98039024,16.1050597 8.63043902,16.8826019 9.14595122,18.3337532 C9.66136585,19.7849044 8.84673171,21.3602911 7.32663415,21.8522968 C5.8062439,22.3443955 4.156,21.5667603 3.64058537,20.115609 C3.12517073,18.6644577 3.93980488,17.0890711 5.46,16.5970654 Z M19.9094634,16.5970654 C21.4298537,16.1050597 23.08,16.8826019 23.5954146,18.3337532 C24.1109268,19.7849044 23.2962927,21.3602911 21.7760976,21.8522968 C20.2557073,22.3443955 18.605561,21.5667603 18.0901463,20.115609 C17.5747317,18.6644577 18.3892683,17.0890711 19.9094634,16.5970654 Z M7.48078049,18.8726963 C7.27726829,18.2995745 6.62517073,17.9921524 6.02458537,18.1866078 C5.42409756,18.3808769 5.10234146,19.0033577 5.30585366,19.5766658 C5.50936585,20.1497877 6.16136585,20.4572097 6.76195122,20.2627543 C7.36263415,20.068299 7.68439024,19.4460976 7.48078049,18.8726963 Z M21.9302439,18.8726963 C21.7267317,18.2995745 21.0747317,17.9921524 20.4740488,18.1866078 C19.8736585,18.3808769 19.5518049,19.0033577 19.7553171,19.5766658 C19.9588293,20.1497877 20.6109268,20.4572097 21.2115122,20.2627543 C21.8120976,20.068299 22.1339512,19.4460976 21.9302439,18.8726963 Z M10.3680976,14.205022 C10.5836098,14.205022 10.7583415,14.3718178 10.7583415,14.5775419 L10.7583415,14.5775419 L10.7583415,15.6019716 C10.7583415,15.7696987 10.6414634,15.9099524 10.4817561,15.9566106 C10.5430244,16.6444686 10.728,17.70168 11.2657561,18.7373785 L11.2657561,18.7373785 L17.4861463,18.7373785 C17.4267317,19.1069182 17.4358049,19.4840946 17.5137561,19.8549382 L17.5137561,19.8549382 L9.72107317,19.8549382 C9.8342439,19.3154362 9.80585366,18.7418487 9.60780488,18.1844658 C9.14039024,16.8680736 7.84868293,15.9838976 6.39346341,15.9838976 C6.02341463,15.9838976 5.65678049,16.0417314 5.30331707,16.1561881 C4.44478049,16.4339017 3.75092683,17.0145671 3.34946341,17.7906192 C3.01443902,18.4385244 2.91785366,19.1580466 3.06419512,19.8549382 L3.06419512,19.8549382 L1.38204878,19.8549382 C1.38204878,18.6879265 2.03609756,16.9671639 2.45990244,15.9744915 L2.45990244,15.9744915 L2.41687805,15.9744915 C2.20136585,15.9744915 2.02663415,15.8076957 2.02663415,15.6019716 L2.02663415,15.6019716 L2.02663415,14.5775419 C2.02663415,14.3718178 2.20136585,14.205022 2.41687805,14.205022 L2.41687805,14.205022 Z M8.60117073,6.9802779 C9.09239024,5.6166688 10.2997073,5.18482511 11.1325854,5.38309882 C11.9062439,5.56712365 12.2769756,6.53791052 12.1010732,7.41808191 C11.9258537,7.2176662 11.7910244,7.03326885 11.6979512,6.89413267 C11.6183415,6.77567134 11.5611707,6.67825739 11.5272195,6.61725725 C11.5103415,6.5872694 11.4983415,6.56473195 11.491122,6.55057619 L11.491122,6.55057619 L11.4863415,6.54144946 C11.3283902,6.20990674 10.9797073,5.9957078 10.5979512,5.9957078 C10.4581463,5.9957078 10.322439,6.02373992 10.194439,6.07952478 C9.95726829,6.18234027 9.77609756,6.3672964 9.68468293,6.60021447 C9.59326829,6.83303941 9.60234146,7.08616668 9.71034146,7.31256565 L9.71034146,7.31256565 L9.71453659,7.32122674 C9.82273171,7.53896462 10.2372683,8.30616935 11.0610732,9.08874054 C11.2337561,9.25358059 11.4322927,9.42484662 11.6563902,9.59303935 C11.543122,10.2705599 11.4639024,10.9816073 11.4798049,11.6682546 L11.4798049,11.6682546 L14.5450732,12.1234739 C14.9716098,12.1868023 15.3334634,12.4630258 15.4920976,12.846535 L15.4920976,12.846535 L17.134439,16.8202048 C17.3814634,17.4180993 17.0739512,18.0942229 16.4476098,18.3302142 C16.3005854,18.3855334 16.1491707,18.411703 16.0001951,18.411703 C15.5140488,18.411703 15.0547317,18.132313 14.8654634,17.6744861 L14.8654634,17.6744861 L13.4796098,14.3212482 L9.77990244,13.7721539 C9.77658537,13.7715951 9.77356098,13.7706638 9.77014634,13.770105 C9.02770732,13.6879644 8.29082927,13.3494369 8.04682927,12.1508541 C7.79453659,10.0819717 7.93726829,8.85908202 8.60117073,6.9802779 Z M16.7939512,9.98353334 C16.8405854,10.0311228 16.8774634,10.0873733 16.9001951,10.1504223 L16.9001951,10.1504223 L17.622439,12.1610984 C18.3716098,12.462467 19.6444878,13.1749113 20.2113171,14.6706719 C20.2737561,14.8356982 20.3338537,14.991784 20.3919024,15.1411645 C21.3167805,15.129337 22.6317073,15.3573192 23.5771707,16.5332714 C24.1635122,17.2625722 24.0700488,17.46662 23.7050732,17.4831971 C23.0918049,16.5637249 22.0210732,15.9837114 20.8428293,15.9837114 C20.472878,15.9837114 20.1060488,16.0418245 19.752878,16.156095 C19.2035122,16.3339732 18.7221463,16.6359937 18.3411707,17.0333793 L18.3411707,17.0333793 L16.1403902,10.9067308 L15.2130732,11.2412537 L15.1281942,11.2640082 C14.900554,11.3039163 14.6688455,11.1843512 14.5842927,10.9705248 C14.5613659,10.9125048 14.5519024,10.8529017 14.5533659,10.7945092 C14.8523902,10.8367902 15.1674146,10.8600727 15.4988293,10.8601658 L15.4988293,10.8601658 L15.5098537,10.8601658 C15.6260488,10.8601658 15.7474146,10.8570925 15.8706341,10.8512253 C16.3690732,10.8267321 16.7614634,10.4475069 16.7939512,9.98353334 Z M6.68253659,6.91508692 C6.97004878,6.91508692 7.20312195,7.13766756 7.20312195,7.41212159 L7.20312195,7.41212159 L7.20312195,13.2113251 C7.20312195,13.4858723 6.97004878,13.7083598 6.68253659,13.7083598 L6.68253659,13.7083598 L0.520585366,13.7083598 C0.23297561,13.7083598 8.8817842e-16,13.4858723 8.8817842e-16,13.2113251 L8.8817842e-16,13.2113251 L8.8817842e-16,7.41212159 C8.8817842e-16,7.13766756 0.23297561,6.91508692 0.520585366,6.91508692 L0.520585366,6.91508692 Z M19.3332683,9.16445521 C20.1548293,9.16445521 20.1548293,12.0049194 19.3332683,12.0049194 C18.5116098,12.0049194 17.8454634,11.369028 17.8454634,10.5846873 C17.8454634,9.80025355 18.5116098,9.16445521 19.3332683,9.16445521 Z M10.2752195,6.24902133 C10.6675122,6.07850035 11.1301463,6.24399231 11.3087805,6.61856107 L11.3087805,6.61856107 L11.3114878,6.62385784 C11.323122,6.64696572 11.3363902,6.67173829 11.3549268,6.70507882 C11.3922927,6.77166675 11.4516098,6.87234026 11.5337561,6.99471304 C11.6977561,7.23964488 11.9524878,7.5718395 12.2982439,7.89881884 C12.9988293,8.55501265 14.0146341,9.18065982 15.5098537,9.18373311 C15.597561,9.18373311 15.6880976,9.18159112 15.7813659,9.17702775 C16.2116098,9.15607351 16.578439,9.47224977 16.6003902,9.88313922 C16.6223415,10.2941218 16.291122,10.6440111 15.8606829,10.6650585 C15.7428293,10.6707394 15.6259512,10.6738127 15.5098537,10.6738127 L15.5098537,10.6738127 L15.4989268,10.6738127 C13.5188293,10.6737196 12.0822439,9.79997416 11.199122,8.95696162 C10.3063415,8.10919946 9.91385366,7.28676865 9.88780488,7.23545403 C9.70946341,6.86088527 9.88263415,6.41926293 10.2752195,6.24902133 Z M14.5738537,2.29462946 C14.7985366,2.71818458 14.8748293,3.21652308 14.7532683,3.71504784 C14.4780488,4.84182741 13.2983415,5.54263047 12.1179512,5.2801902 C11.6060488,5.16638537 11.1783415,4.89006874 10.8801951,4.52192594 C11.0743415,4.58786197 11.2919024,4.63628955 11.538439,4.66692932 C11.8026341,4.6998042 12.0643902,4.73174778 12.3207805,4.73202717 C12.6142439,4.73202717 12.9027317,4.68900112 13.1712195,4.5519138 C13.1880976,4.54334584 13.202439,4.52974886 13.2113171,4.51391677 C13.3028293,4.35177748 13.3353171,4.19150079 13.3349268,4.03094471 C13.3333659,3.71961121 13.2259512,3.40576319 13.2009756,2.95520037 L13.2009756,2.95520037 L13.2001951,2.93536369 C13.2011707,2.8139222 13.2630244,2.72004718 13.384878,2.63082867 C13.6519024,2.43404503 14.1807805,2.34063567 14.5738537,2.29462946 Z M12.3013659,1.19904087e-14 L12.466939,0.00509886614 L12.466939,0.00509886614 L12.6336585,0.0206748545 C13.4792195,0.126191116 14.1715122,0.617451735 14.5442927,1.28519366 C14.6816585,1.53096366 14.775122,1.80029555 14.8167805,2.08322441 C14.5758049,2.10445805 14.1818537,2.14394516 13.8236098,2.24117285 C13.6162927,2.29770275 13.4198049,2.37276551 13.2674146,2.48219323 C13.1156098,2.58957209 13.0041951,2.74351594 13.0049756,2.93536369 L13.0049756,2.93536369 L13.0061463,2.96581719 C13.0339512,3.43854494 13.1413659,3.76459299 13.1398049,4.03094471 C13.1394146,4.16086103 13.1174634,4.27624907 13.0526829,4.40085698 C12.8283902,4.50888775 12.5846829,4.54558285 12.3207805,4.54558285 C12.0818537,4.54586035 11.8274146,4.51522059 11.5638049,4.48225257 C10.9919024,4.41054249 10.6059512,4.25184902 10.3364878,3.99313394 C10.0667317,3.73413948 9.90409756,3.36366844 9.80780488,2.84763525 C9.78185366,2.70915098 9.76829268,2.56750029 9.76829268,2.42352134 C9.76829268,2.31949516 9.7755122,2.21407203 9.78995122,2.10799699 C9.95658537,0.888459963 11.0472195,9.31299752e-05 12.3013659,1.19904087e-14 L12.3013659,1.19904087e-14 Z" id="path-1"></path>
    </defs>
    <g id="icons/navigation/pilot" stroke="none" stroke-width="1" fill="none" fill-rule="evenodd">
        <polygon id="Path" points="0 0 24 0 24 24 0 24"></polygon>
        <g id="icon" transform="translate(0.000000, 1.000000)">
            <mask id="mask-2" fill="white">
                <use xlink:href="#path-1"></use>
            </mask>
            <g id="pilot"></g>
            <g id="Group" mask="url(#mask-2)" fill-opacity="0.87">
                <g transform="translate(0.000000, -1.000000)" id="✱-/-Color-/-Icons-/-Black-/-Inactive">
                    <rect id="Rectangle-13" fill="#000000" x="0" y="0" width="24" height="24"></rect>
                </g>
            </g>
        </g>
    </g>
</svg>