<?xml version="1.0" encoding="UTF-8"?>
<svg viewBox="0 0 24 24" version="1.1" xmlns="http://www.w3.org/2000/svg" xmlns:xlink="http://www.w3.org/1999/xlink">
    <title>icons/navigation/dispute</title>
    <defs>
        <path d="M4.70824879,1.00617524 C4.73996116,1.23832943 4.82969149,1.46923592 4.98533247,1.66857942 L4.98533247,1.66857942 L8.17026394,5.74838011 L4.80406317,6.28400723 C4.03409211,6.40615161 3.73706344,7.51213044 4.28065472,8.23254544 L4.28065472,8.23254544 L11.2219997,17.4352803 C11.2985802,17.5368031 11.3831068,17.6089763 11.4704733,17.6555232 C10.6856482,17.8796906 9.85680619,18 9,18 C4.02943725,18 0,13.9510225 0,8.95635574 C0,5.56711756 1.85539139,2.61333071 4.60121742,1.06463138 Z M10.2558558,5.59824257e-05 C14.6319242,0.613999406 18,4.38994205 18,8.95635574 C18,12.7964803 15.6181085,16.0775864 12.2579066,17.3892867 C12.3678058,17.1966022 12.4015187,16.9354746 12.2984404,16.650921 L12.2984404,16.650921 L9.84929366,9.89399359 L12.8406464,9.41822966 C13.4906198,9.3148206 13.8344822,8.48248032 13.5267507,7.75446948 L13.5267507,7.75446948 Z" id="path-1"></path>
    </defs>
    <g id="icons/navigation/dispute">
        <g id="icon" transform="translate(3.000000, 3.000000)">
            <mask id="mask-2" fill="white">
                <use xlink:href="#path-1"></use>
            </mask>
            <g id="Combined-Shape"></g>
            <g id="Group" mask="url(#mask-2)" fill-opacity="0.87">
                <g transform="translate(-3.000000, -3.000000)" id="✱-/-Color-/-Icons-/-Black-/-Inactive">
                    <rect id="Rectangle-13" x="0" y="0" width="24" height="24"></rect>
                </g>
            </g>
        </g>
    </g>
</svg>
