<?xml version="1.0" encoding="UTF-8"?>
<svg height="100%" viewBox="0 0 24 24"viewBox="0 0 24 24" version="1.1" xmlns="http://www.w3.org/2000/svg" xmlns:xlink="http://www.w3.org/1999/xlink">
    <title>icons/navigation/geo-settings</title>
    <defs>
        <path d="M10,0 C10.6966016,0 11.3764844,0.0714453125 12.0328906,0.206992187 C11.5541406,0.664882812 11.2726563,1.15507812 11.1794531,1.6890625 C10.9680078,2.90050781 11.8087891,3.95613281 12.484375,4.80429687 C12.7805859,5.17617187 13.3319922,5.86835937 13.2219922,6.02699219 C13.2126172,6.04054687 13.1367578,6.07828125 12.9219922,6.0740625 C12.6201563,6.06816406 12.2058594,5.983125 11.7672266,5.89308594 C10.9578906,5.72695312 10.0404297,5.53875 9.14140625,5.66808594 C8.02988281,5.82804687 7.19789063,6.45183594 6.66847656,7.5221875 C6.11960938,8.631875 6.05246094,9.56507812 6.46332031,10.3750391 C6.81199219,11.0624219 7.44765625,11.5254297 8.00839844,11.9339062 C8.54277344,12.323125 9.04746094,12.6907422 9.16210938,13.1403906 C9.25234375,13.4945312 9.33128906,13.8669141 9.40761719,14.2270312 C9.59910156,15.130625 9.78,15.9841797 10.1417969,16.6667578 C10.6054297,17.5416016 11.3085156,17.9851953 12.2314063,17.9851953 C13.0092969,17.9851953 14.0966406,17.6689062 14.859375,16.1621094 C15.4742969,14.9473828 15.7948438,13.1012109 15.8120313,10.6748437 C15.8171484,9.94589844 15.9479688,9.45828125 16.2008203,9.22535156 C16.5473828,8.90605469 17.248125,8.95871094 18.0594141,9.01964844 C18.6541797,9.06429688 19.3089063,9.11328125 19.9515625,9.0134375 C19.9833594,9.33804687 20,9.66707031 20,10 C20,15.5228516 15.5228516,20 10,20 C7.07050781,20 4.4353125,18.7402344 2.60636719,16.7329688 C3.59167969,15.0986719 3.23246094,13.9662891 2.8534375,12.7717188 C2.61433594,12.0181641 2.34332031,11.1641016 2.34332031,10 C2.34332031,9.03011719 2.94179688,8.30019531 3.57542969,7.52746094 C4.15652344,6.81871094 4.75742188,6.08585938 4.92875,5.12433594 C5.10027344,4.1615625 4.79484375,3.13640625 3.99679688,2.00203125 C5.66867188,0.745117188 7.74726563,0 10,0 Z M13.4235547,0.601601562 C16.6061719,1.76121094 19.0332422,4.49144531 19.7685156,7.85457031 C19.2609766,7.933125 18.6969922,7.89128906 18.1472656,7.85 L18.1472656,7.85 L17.7490925,7.82180981 C16.8859271,7.76806806 16.0311432,7.78685937 15.4060937,8.36261719 C14.8976172,8.83097656 14.6466797,9.58460937 14.6390234,10.6665234 C14.6109375,14.6296484 13.7558594,16.8122266 12.2313672,16.8122266 C11.7448047,16.8122266 11.4396094,16.6109375 11.178125,16.1174609 C10.8932812,15.5801172 10.7289844,14.8047656 10.555,13.9838281 C10.47625,13.6122266 10.3948047,13.2279297 10.2986328,12.8506641 C10.0796484,11.9915234 9.37773437,11.4802344 8.69898437,10.9857812 C7.62101562,10.200625 6.90886719,9.68183594 7.71984375,8.04222656 C8.07757812,7.31910156 8.58234375,6.93359375 9.30847656,6.82910156 C10.0052734,6.72890625 10.8160156,6.89523437 11.5313672,7.04210937 C12.0241797,7.14328125 12.4896484,7.23882812 12.8990234,7.24683594 C13.4903516,7.25875 13.9242578,7.07285156 14.1860156,6.69527344 C14.5478906,6.17324219 14.3970312,5.60796875 14.2067578,5.22574219 C14.0187109,4.84789062 13.7191016,4.47171875 13.401875,4.07351562 C12.8452344,3.37460937 12.2142578,2.5825 12.335,1.89078125 C12.4097266,1.46269531 12.7760547,1.02949219 13.4235547,0.601601562 Z M3.09878906,2.763125 C4.40546875,4.66441406 3.66582031,5.56726562 2.66839844,6.78367187 C1.96621094,7.64007812 1.17039063,8.61066406 1.17039063,9.99996094 C1.17039063,11.3457031 1.48363281,12.3330859 1.73539063,13.1264453 C2.04996094,14.1178125 2.26109375,14.7855469 1.81132813,15.7403906 C0.670273438,14.115625 5.19584376e-14,12.1362109 5.19584376e-14,10 C5.19584376e-14,7.15324219 1.18957031,4.58429687 3.09878906,2.763125 Z" id="path-1"></path>
    </defs>
    <g id="icons/navigation/geo-settings" stroke="none" stroke-width="1" fill-rule="evenodd">
        
        <g id="icon" transform="translate(2.000000, 2.000000)">

                <use xlink:href="#path-1"></use>
            
        </g>
    </g>
</svg>