<?xml version="1.0" encoding="UTF-8"?>
<svg height="100%" viewBox="0 0 24 24" version="1.1" xmlns="http://www.w3.org/2000/svg" xmlns:xlink="http://www.w3.org/1999/xlink">
    <title>icons/navigation/complaints</title>
    <defs>
        <path d="M13.8330434,0.000525753967 C15.1602714,0.000525753967 16.3322831,0.815056711 16.6825583,1.98137544 L16.6825583,1.98137544 L17.9382547,6.15812036 C17.980957,6.32586409 18,6.47625536 18,6.62664554 C18,7.72302564 17.0207345,8.61537831 15.8175618,8.61537831 L15.8175618,8.61537831 L12.3263557,8.61537831 C12.0210923,8.61537831 11.868171,8.80100037 11.8168129,8.88092822 C11.7654545,8.96033085 11.6615839,9.17224459 11.809311,9.41518342 L11.809311,9.41518342 L13.0401736,11.4349423 C13.3102371,11.8771788 13.3379365,12.3972358 13.1169225,12.8615534 C12.895905,13.3263966 12.459649,13.6634607 11.9206753,13.7859823 L11.9206753,13.7859823 L11.0522016,13.9836989 C11.0048825,13.9947416 10.9569865,14 10.9090906,14 C10.7440522,14 10.5836293,13.9368988 10.4699486,13.8217401 L10.4699486,13.8217401 L5.75825627,9.05130363 C5.2689095,8.55543428 5,7.91601537 5,7.25030013 L5,7.25030013 L5,2.69230831 C5,1.20785566 6.32550252,0 7.95454296,0 L7.95454296,0 Z M3.5,0 C3.776367,0 4,0.1789064 4,0.4 L4,0.4 L4,7.6 C4,7.8210936 3.776367,8 3.5,8 L3.5,8 L0.5,8 C0.223633,8 0,7.8210936 0,7.6 L0,7.6 L0,0.4 C0,0.1789064 0.223633,0 0.5,0 L0.5,0 Z" id="path-1"></path>
    </defs>
    <g id="icons/navigation/complaints" stroke="none" stroke-width="1" fill-rule="evenodd">
        <g id="icon" transform="translate(3.000000, 5.000000)">
            <use xlink:href="#path-1"></use>
        </g>
    </g>
</svg>