<?xml version="1.0" encoding="UTF-8"?>
<svg width="24px" height="24px" viewBox="0 0 24 24" version="1.1" xmlns="http://www.w3.org/2000/svg" xmlns:xlink="http://www.w3.org/1999/xlink">
    <title>icons/navigation/balance</title>
    <defs>
        <path d="M10,0 C15.5228475,0 20,4.4771525 20,10 C20,15.5228475 15.5228475,20 10,20 C4.4771525,20 0,15.5228475 0,10 C0,4.4771525 4.4771525,0 10,0 Z M10,2 C9.336,2 8.8,2.59555556 8.8,3.33333333 L8.8,3.92 C7.248,4.29333333 6,5.41333333 6,7.12888889 C6,9.18222222 7.528,10.2044444 9.76,10.8 C11.76,11.3333333 12.16,12.1155556 12.16,12.9422222 C12.16,13.5555556 11.768,14.5333333 10,14.5333333 C8.68,14.5333333 8,14.0088889 7.736,13.2622222 C7.616,12.9155556 7.344,12.6666667 7.016,12.6666667 L6.792,12.6666667 C6.256,12.6666667 5.88,13.2711111 6.08,13.8222222 C6.536,15.0577778 7.6,15.7866667 8.8,16.0711111 L8.8,16.6666667 C8.8,17.4044444 9.336,18 10,18 C10.664,18 11.2,17.4044444 11.2,16.6666667 L11.2,16.0888889 C12.76,15.76 14,14.7555556 14,12.9333333 C14,10.4088889 12.056,9.54666667 10.24,9.02222222 C8.424,8.49777778 7.84,7.95555556 7.84,7.11111111 C7.84,6.14222222 8.648,5.46666667 10,5.46666667 C11.136,5.46666667 11.704,5.94666667 11.912,6.71111111 C12.008,7.06666667 12.272,7.33333333 12.608,7.33333333 L12.848,7.33333333 C13.376,7.33333333 13.752,6.75555556 13.568,6.20444444 C13.232,5.15555556 12.448,4.28444444 11.2,3.94666667 L11.2,3.33333333 C11.2,2.59555556 10.664,2 10,2 Z" id="path-1"></path>
    </defs>
    <g id="icons/navigation/balance" stroke="none" stroke-width="1" fill="none" fill-rule="evenodd">
        <polygon id="Path" points="0 0 24 0 24 24 0 24"></polygon>
        <g id="icon" transform="translate(2.000000, 2.000000)">
            <mask id="mask-2" fill="white">
                <use xlink:href="#path-1"></use>
            </mask>
            <use id="Combined-Shape" fill="#D8D8D8" xlink:href="#path-1"></use>
            <g id="Group" mask="url(#mask-2)" fill-opacity="0.87">
                <g transform="translate(-2.000000, -2.000000)" id="✱-/-Color-/-Icons-/-Black-/-Inactive">
                    <rect id="Rectangle-13" fill="#000000" x="0" y="0" width="24" height="24"></rect>
                </g>
            </g>
        </g>
    </g>
</svg>