<?xml version="1.0" encoding="UTF-8"?>
<svg width="24px" height="24px" viewBox="0 0 24 24" version="1.1" xmlns="http://www.w3.org/2000/svg" xmlns:xlink="http://www.w3.org/1999/xlink">
    <title>Symbols</title>
    <defs>
        <path d="M1.12515937,14.8569572 C1.12482259,15.1602156 1.24325737,15.4511519 1.45433875,15.6655881 C1.66542014,15.8800243 1.95180478,16.0003414 2.25031874,15.9999993 L7.87357214,15.9999993 L7.87357214,10.286082 L1.12515937,10.286082 L1.12515937,14.8569572 Z M10.1251594,15.9999993 L15.7471428,15.9999993 C16.0456568,16.0003414 16.3320414,15.8800243 16.5431228,15.6655881 C16.7542042,15.4511519 16.872639,15.1602156 16.8723022,14.8569572 L16.8723022,10.286082 L10.1251594,10.286082 L10.1251594,15.9999993 Z M16.8748413,4.57087525 L15.395372,4.57087525 C15.624617,4.13056105 15.7465549,3.64080865 15.7509526,3.14271863 C15.7481541,1.40771847 14.3639887,0.00213087056 12.6561314,0 C11.1931711,0 10.2432629,0.761167484 9.03555878,2.43960629 C7.82277491,0.761167484 6.87667649,0 5.41371626,0 C3.7063548,0.00284111526 2.3229616,1.40822125 2.32016493,3.14271863 C2.32285812,3.64103061 2.44489716,4.13118909 2.67574554,4.57087525 L1.12516009,4.57087525 C0.826646124,4.57053239 0.540261485,4.69084951 0.329180102,4.90528571 C0.11809872,5.11972191 -0.000336059319,5.4106582 7.16267387e-07,5.71391659 L7.16267387e-07,8.57151994 C0.000699783028,8.88686776 0.252166504,9.14233116 0.562580761,9.14304061 L17.4374207,9.14304061 C17.7478349,9.14233116 17.9993017,8.88686776 18.0000007,8.57151994 L18.0000007,5.71391659 C18.0000007,5.41088168 17.8814165,5.1202771 17.6703718,4.90612009 C17.459327,4.69196307 17.1731351,4.57182295 16.8748413,4.57216536 L16.8748413,4.57087525 Z M5.40990646,4.57087525 C4.90743087,4.57087525 4.44312427,4.2985472 4.19188647,3.85647442 C3.94064867,3.41440164 3.94064867,2.86974551 4.19188647,2.42767273 C4.44312427,1.98559994 4.90743087,1.7132719 5.40990646,1.7132719 C6.10963831,1.7132719 6.62650013,1.83067231 8.43742139,4.57087525 L5.4111764,4.57087525 L5.40990646,4.57087525 Z M12.6561314,4.57087525 L9.62988637,4.57087525 C11.4369978,1.83970311 11.9373506,1.71456201 12.6561314,1.71456201 C13.4328913,1.71456201 14.0625797,2.35425831 14.0625797,3.14336369 C14.0625797,3.93246906 13.4328913,4.57216536 12.6561314,4.57216536 L12.6561314,4.57087525 Z" id="path-1"></path>
    </defs>
    <g id="Symbols">
        <g id="icons/navigation/marketing">
            <g id="icon" transform="translate(3.000000, 4.000000)">
                <mask id="mask-2">
                    <use xlink:href="#path-1"></use>
                </mask>
              <use id="shape" xlink:href="#path-1"></use>
                <g id="Icon_awesome-gift"></g>
                <g id="Group" mask="url(#mask-2)">
                    <g transform="translate(-3.000000, -4.000000)" id="✱-/-Color-/-Icons-/-Black-/-Inactive">
                        <rect id="Rectangle-13" x="0" y="0" width="24" height="24"></rect>
                    </g>
                </g>
            </g>
        </g>
    </g>
</svg>
