<?xml version="1.0" encoding="UTF-8"?>
<svg height="100%" viewBox="0 0 24 24"viewBox="0 0 24 24" version="1.1" xmlns="http://www.w3.org/2000/svg" xmlns:xlink="http://www.w3.org/1999/xlink">
    <title>icons/navigation/fleet-customers</title>
    <defs>
        <path d="M10.0512815,0.000174105579 C15.4848797,-0.0333233155 20,4.77161441 20,10.2357217 L20,10.2357217 L20,12.5554721 C20,13.3909385 19.4054426,14.1158923 18.5866176,14.2789854 L18.5866176,14.2789854 L14.0329409,15.1899238 L13.6587057,16.7253429 C13.4944797,17.3810748 12.9823478,17.8760575 12.3220063,18.0179778 L12.3220063,18.0179778 L3.05238019,19.9875566 C2.80791632,20.0418949 2.54532666,19.9295853 2.41782105,19.7002783 C1.14807775,17.4323271 -0.0127935786,13.5350074 0.000106509142,9.83800894 C0.0474043795,4.57570737 4.49724838,0.0299997799 10.0506956,0.000174105579 L10.0506956,0.000174105579 Z M5.85914417,8.57209394 L1.21839334,9.08766347 C1.19343131,9.33911983 1.1744461,9.59233408 1.17210224,9.8494157 C1.16632074,11.3878817 1.34746151,12.9664277 1.8270529,14.7969378 L1.8270529,14.7969378 L5.85914417,13.0051794 L5.85914417,8.57209394 Z M15.3123721,8.24270446 C14.0197372,8.24270446 12.9685972,9.29388347 12.9685972,10.5865184 C12.9685972,11.8791533 14.0197372,12.9302933 15.3123721,12.9302933 C16.6050461,12.9302933 17.656147,11.8791143 17.656147,10.5864793 C17.656147,9.2938444 16.605007,8.24270446 15.3123721,8.24270446 Z M7.64334689,8.38053848 L7.55230452,8.3840388 L7.03099254,8.44197103 L7.03099254,12.4844143 L7.85497407,12.1182654 C8.06611616,12.0244332 8.20287998,11.813838 8.20287998,11.5826559 L8.20291905,11.5826559 L8.20291905,8.96597843 C8.20291905,8.60779863 7.888999,8.34419329 7.55230452,8.3840388 Z M15.3123721,9.4145919 C15.9584161,9.4145919 16.4842596,9.94047438 16.4842596,10.5864793 C16.4842596,11.2324843 15.9583771,11.7583668 15.3123721,11.7583668 C14.6663672,11.7583668 14.1404847,11.2324843 14.1404847,10.5864793 C14.1404847,9.94047438 14.6663281,9.4145919 15.3123721,9.4145919 Z" id="path-1"></path>
    </defs>
    <g id="icons/navigation/fleet-customers" stroke="none" stroke-width="1" fill-rule="evenodd">
        
        <g id="icon" transform="translate(2.000000, 2.000000)">

                <use xlink:href="#path-1"></use>
            
        </g>
    </g>
</svg>