<?xml version="1.0" encoding="UTF-8"?>
<svg viewBox="0 0 24 24" version="1.1" xmlns="http://www.w3.org/2000/svg" xmlns:xlink="http://www.w3.org/1999/xlink">
    <title>icons/navigation/settings</title>
    <defs>
        <path d="M21.6537807,14.1916797 L19.7659779,12.7541797 C19.789926,12.5325 19.8104643,12.2733594 19.8104643,11.9991797 C19.8104643,11.725 19.7907684,11.4658594 19.7659779,11.2441797 L21.6555056,9.80585938 C22.0063823,9.53585938 22.1022146,9.05667969 21.8788601,8.65753906 L19.9157233,5.35 C19.7060477,4.97667969 19.2465022,4.785 18.7801374,4.9525 L16.5525694,5.82332031 C16.1255564,5.52332031 15.6779649,5.27 15.2150098,5.0675 L14.8761271,2.76667969 C14.820489,2.33 14.4302605,2 13.9690303,2 L10.0325277,2 C9.57125731,2 9.18191128,2.33 9.12711562,2.76 L8.78739054,5.06917969 C8.33895666,5.26585937 7.89826476,5.51585937 7.45239817,5.825 L5.21885323,4.95167969 C4.80034436,4.79417969 4.29972222,4.97082031 4.09177148,5.3425 L2.12610753,8.65417969 C1.89420876,9.03585937 1.990041,9.53167969 2.34861963,9.80835938 L4.2364224,11.2458594 C4.20645727,11.5266797 4.19193602,11.7708594 4.19193602,12.0000391 C4.19193602,12.2292188 4.20649739,12.4733594 4.2364224,12.7550391 L2.34689473,14.1933594 C1.99601798,14.4641797 1.90102813,14.9433594 2.12438263,15.3416797 L4.0875194,18.6491797 C4.29719504,19.0216797 4.7524483,19.215 5.22310531,19.0466797 L7.45067327,18.1758594 C7.87684391,18.4750391 8.32439529,18.7283594 8.78739054,18.9316797 L9.12627322,21.2316797 C9.18187116,21.67 9.57125731,22 10.0333701,22 L13.9698727,22 C14.431143,22 14.8213716,21.67 14.8761271,21.24 L15.2158522,18.9316797 C15.6642861,18.7341797 16.1041356,18.485 16.5508445,18.175 L18.7843895,19.0483203 C18.8922158,19.0891406 19.0043343,19.11 19.1198625,19.11 C19.4518857,19.11 19.7573935,18.9333203 19.9114311,18.6583203 L21.8831122,15.3333203 C22.1022146,14.9433203 22.0063422,14.4641797 21.6537807,14.1916797 Z M12.0007589,15.3333203 C10.1129561,15.3333203 8.57771491,13.8383203 8.57771491,12 C8.57771491,10.1616797 10.1129561,8.66667969 12.0007589,8.66667969 C13.8885617,8.66667969 15.4238029,10.1616797 15.4238029,12 C15.4238029,13.8383203 13.8885617,15.3333203 12.0007589,15.3333203 Z" id="path-1"></path>
    </defs>
    <g id="icons/navigation/settings" >
        <g id="icon">
                <use xlink:href="#path-1"></use>
        </g>
    </g>
</svg>
