<?xml version="1.0" encoding="UTF-8"?>
<svg height="100%" viewBox="0 0 24 24"viewBox="0 0 24 24" version="1.1" xmlns="http://www.w3.org/2000/svg" xmlns:xlink="http://www.w3.org/1999/xlink">
    <title>icons/navigation/identity</title>
    <defs>
        <path d="M12.6231923,6.40008333 C17.4733185,6.71266667 21.2734076,10.8761667 21.2734076,15.8784167 L21.2734076,16.0351667 C21.2734076,17.8978333 19.7415887,19.4130833 17.859124,19.4130833 C15.9766592,19.4130833 14.4457906,17.8978333 14.4457906,16.0351667 L14.4457906,15.5869167 C14.4457906,14.9104167 14.1778174,14.2815833 13.6912843,13.8140833 C13.2351596,13.3759167 12.6374462,13.13575 12.0074239,13.13575 L11.9941203,13.13575 L11.9941203,13.13575 C11.1911507,13.1394167 10.6504529,13.5418333 10.3387676,13.87825 C9.78286563,14.4768333 9.50729027,15.3476667 9.601366,16.2056667 C9.915902,19.0638333 13.320683,21.6259167 14.2576392,21.6259167 C14.6510468,21.6259167 14.9703341,21.9339167 14.9703341,22.3134167 C14.9703341,22.6929167 14.651997,23 14.2585895,23 C12.5443207,23 8.57033408,19.854 8.18547884,16.3505 C8.04959169,15.1120833 8.45820341,13.84525 9.27732739,12.9615833 C9.99002227,12.1934167 10.9526355,11.7671667 11.9874684,11.7616667 L12.0074239,11.7616667 C13.0165999,11.7616667 13.9706607,12.1439167 14.6966592,12.8396667 C15.4549666,13.5665833 15.8721307,14.5428333 15.8721307,15.5878333 L15.8721307,16.0360833 C15.8721307,17.1406667 16.7634744,18.039 17.8600742,18.039 C18.9566741,18.039 19.8489681,17.1406667 19.8489681,16.0360833 L19.8489681,15.8793333 C19.8489681,11.5985 16.634239,8.03725 12.5300668,7.77325 C10.3900817,7.633 8.33752042,8.34616667 6.75343727,9.77433333 C5.10948775,11.2575 4.16682999,13.3768333 4.16682999,15.5878333 C4.16682999,17.4065 4.8054046,19.1784167 5.9647216,20.57725 C6.20988864,20.87425 6.16047513,21.306 5.85259094,21.5434167 C5.54565702,21.7808333 5.09713437,21.73225 4.85006682,21.43525 C3.49024499,19.7935 2.74048998,17.7163333 2.74048998,15.5869167 C2.74048998,12.9964167 3.84849295,10.5113333 5.77847068,8.76966667 C7.65333333,7.0775 10.084098,6.236 12.6231923,6.40008333 Z M12.0074239,9.07033333 C15.6279139,9.07033333 18.5727691,11.9935833 18.5727691,15.5869167 C18.5727691,15.9664167 18.2534818,16.2744167 17.8600742,16.2744167 C17.4666667,16.2744167 17.1473794,15.9664167 17.1473794,15.5869167 C17.1473794,12.7516667 14.842049,10.4453333 12.0074239,10.4453333 C9.17279881,10.4453333 6.86746845,12.7516667 6.86746845,15.5869167 C6.86746845,18.49 10.2285375,21.7955 10.2627468,21.8285 C10.5402227,22.098 10.5383222,22.5334167 10.2579955,22.8010833 C10.1192576,22.934 9.93775798,23 9.75625835,23 C9.5728582,23 9.38945805,22.9321667 9.24976986,22.7965 L9.2322313,22.779337 L9.2322313,22.779337 L9.16220831,22.7093703 C8.57906222,22.1197104 5.44207869,18.7958313 5.44207869,15.5869167 C5.44207869,11.9935833 8.38693393,9.07033333 12.0074239,9.07033333 Z M11.9513586,14.4511667 C12.3447661,14.4511667 12.6640535,14.7591667 12.6640535,15.1386667 C12.6640535,17.8593333 15.0349517,20.28025 16.9031626,20.28025 C17.2965702,20.28025 17.6158575,20.58825 17.6158575,20.96775 C17.6158575,21.34725 17.2965702,21.65525 16.9031626,21.65525 C14.3526652,21.65525 11.2386637,18.6485833 11.2386637,15.1386667 C11.2386637,14.7591667 11.557951,14.4511667 11.9513586,14.4511667 Z M12.0074239,3.69041667 C15.9357981,3.69041667 19.6209057,5.6145 21.8644692,8.8375 C22.0839792,9.15283333 21.9975056,9.58 21.6696659,9.79175 C21.5480327,9.86966667 21.410245,9.90725 21.2724573,9.90725 C21.0434447,9.90725 20.8172829,9.80091667 20.6804454,9.60291667 C18.7020045,6.76125 15.4597179,5.0645 12.0074239,5.0645 C8.55512992,5.0645 5.31284336,6.76125 3.33440238,9.60291667 C3.11489235,9.91916667 2.67112101,10.0035 2.34518189,9.79083333 C2.0182925,9.57908333 1.9308686,9.15191667 2.15037862,8.83658333 C4.39394209,5.6145 8.07904974,3.69041667 12.0074239,3.69041667 Z M12.0074239,1 C15.152784,1 18.1850631,2.14308333 20.5464588,4.21933333 C20.8372383,4.47508333 20.858144,4.90958333 20.5930215,5.191 C20.4523831,5.3395 20.2594803,5.41466667 20.0656273,5.41466667 C19.8936303,5.41466667 19.7225835,5.356 19.5857461,5.235 C17.4885226,3.39066667 14.7973868,2.375 12.0074239,2.375 C9.21746102,2.375 6.52632517,3.39066667 4.42910171,5.23591667 C4.13737194,5.49166667 3.68694878,5.47058333 3.42182628,5.191 C3.15670379,4.9105 3.1776095,4.47508333 3.46838901,4.21933333 C5.82978471,2.14308333 8.86206385,1 12.0074239,1 Z" id="path-1"></path>
    </defs>
    <g id="icons/navigation/identity" stroke="none" stroke-width="1" fill-rule="evenodd">
        
        <g id="icon">

                <use xlink:href="#path-1"></use>
            
            
        </g>
    </g>
</svg>