<?xml version="1.0" encoding="UTF-8"?>
<svg height="100%" viewBox="0 0 24 24"viewBox="0 0 24 24" version="1.1" xmlns="http://www.w3.org/2000/svg" xmlns:xlink="http://www.w3.org/1999/xlink">
    <title>icons/navigation/pharmacy</title>
    <defs>
        <path d="M15.9824101,3.71258039 L15.4460783,3.71258039 L16.1645605,1.70719185 C16.4074277,1.04551543 16.0633659,0.312581547 15.4056005,0.0784498896 C14.7478351,-0.165861405 14.0192334,0.180246262 13.7763662,0.841922684 L12.7441805,3.71258039 L2.02766453,3.71258039 C0.64129749,3.71258039 -0.330171383,5.07665178 0.104965716,6.38982499 L1.92646985,11.8562902 L0.115085184,17.3227554 C-0.330171383,18.6359286 0.651416957,20 2.02766453,20 L15.9722906,20 C17.3485382,20 18.3301266,18.6359286 17.8949895,17.3227554 L16.0937243,11.8562902 L17.8949895,6.38982499 C18.3301266,5.07665178 17.3586577,3.71258039 15.9824101,3.71258039 Z M12.0459373,12.8742539 L10.0220438,12.8742539 L10.0220438,14.9101814 C10.0220438,15.4700614 9.56666776,15.9281451 9.01009705,15.9281451 C8.45352635,15.9281451 7.99815031,15.4700614 7.99815031,14.9101814 L7.99815031,12.8742539 L5.97425683,12.8742539 C5.41768612,12.8742539 4.96231008,12.4161702 4.96231008,11.8562902 C4.96231008,11.2964101 5.41768612,10.8383265 5.97425683,10.8383265 L7.99815031,10.8383265 L7.99815031,8.80239902 C7.99815031,8.24251897 8.45352635,7.78443529 9.01009705,7.78443529 C9.56666776,7.78443529 10.0220438,8.24251897 10.0220438,8.80239902 L10.0220438,10.8383265 L12.0459373,10.8383265 C12.602508,10.8383265 13.057884,11.2964101 13.057884,11.8562902 C13.057884,12.4161702 12.602508,12.8742539 12.0459373,12.8742539 Z" id="path-1"></path>
    </defs>
    <g id="icons/navigation/pharmacy" stroke="none" stroke-width="1" fill-rule="evenodd">
        
        <g id="icon" transform="translate(3.000000, 2.000000)">

                <use xlink:href="#path-1"></use>
            
            
        </g>
    </g>
</svg>