<?xml version="1.0" encoding="UTF-8"?>
<svg viewBox="0 0 24 24" version="1.1" xmlns="http://www.w3.org/2000/svg" xmlns:xlink="http://www.w3.org/1999/xlink">
    <title>icons/navigation/home</title>
    <defs>
        <path d="M9.30925952,0.28318064 C9.70297045,-0.0943798475 10.2969158,-0.0944209448 10.690783,0.283221737 L10.690783,0.283221737 L19.6641423,8.88561709 C19.9796501,9.18813399 20.0838689,9.65413577 19.9299236,10.0729168 C19.7757439,10.4916156 19.4003142,10.7622 18.9735173,10.7622 L18.9735173,10.7622 L17.5400408,10.7622 L17.5400408,19.3811986 C17.5400408,19.7229634 17.2766814,20 16.9518767,20 L16.9518767,20 L12.0335955,20 C11.7087908,20 11.4454314,19.7229223 11.4454314,19.3811986 L11.4454314,19.3811986 L11.4454314,14.1479974 L8.55472827,14.1479974 L8.55472827,19.3811575 C8.55472827,19.7229223 8.29136889,20 7.9665642,20 L7.9665642,20 L3.04804858,20 C2.72324389,20 2.45988452,19.7228812 2.45988452,19.3811575 L2.45988452,19.3811575 L2.45988452,10.7622 L1.02668139,10.7622 C0.599845453,10.7622 0.224454828,10.4916567 0.0702751402,10.0729168 C-0.0838654848,9.65417687 0.0203532652,9.18813399 0.335861078,8.88565819 L0.335861078,8.88565819 Z M17.386408,1.23515747 C17.7112517,1.23515747 17.974572,1.51219407 17.974572,1.85391775 L17.974572,1.85391775 L17.974572,5.57650716 L13.436447,1.23515747 Z" id="path-1"></path>
    </defs>
    <g id="icons/navigation/home">
        <g id="icon" transform="translate(2.000000, 2.000000)">
            <mask id="mask-2">
                <use xlink:href="#path-1"></use>
            </mask>
            <use id="shape" fill-rule="nonzero" xlink:href="#path-1"></use>
            <g id="Group" mask="url(#mask-2)" fill-opacity="0.87">
                <g transform="translate(-3.333333, -3.333333)" id="✱-/-Color-/-Icons-/-Black-/-Inactive">
                    <rect id="Rectangle-13" x="0" y="0" width="26.6666667" height="26.6666667"></rect>
                </g>
            </g>
        </g>
    </g>
</svg>
