<?xml version="1.0" encoding="UTF-8"?>
<svg height="100%" viewBox="0 0 24 24"viewBox="0 0 24 24" version="1.1" xmlns="http://www.w3.org/2000/svg" xmlns:xlink="http://www.w3.org/1999/xlink">
    <title>icons/navigation/groceries</title>
    <defs>
        <path d="M7.99777251,18 C6.89818088,18 6.00851129,18.9 6.00851129,20 C6.00851129,21.1 6.89818088,22 7.99777251,22 C9.09736413,22 9.99703001,21.1 9.99703001,20 C9.99703001,18.9 9.09736413,18 7.99777251,18 Z M2.99962875,4 L3.9992575,4 L7.59792101,11.59 L6.24842219,14.03 C5.5186932,15.37 6.4783368,17 7.99777251,17 L18.9936888,17 C19.5434846,17 19.9933175,16.55 19.9933175,16 C19.9933175,15.45 19.5434846,15 18.9936888,15 L7.99777251,15 L9.09736413,13 L16.5445983,13 C17.2943199,13 17.9540749,12.59 18.2939486,11.97 L21.8726196,5.48 C22.2424822,4.82 21.7626604,4 21.0029426,4 L6.20843704,4 L5.53868578,2.57 C5.37874518,2.22 5.01887883,2 4.6390199,2 L2.99962875,2 C2.44983294,2 2,2.45 2,3 C2,3.55 2.44983294,4 2.99962875,4 Z M17.99406,18 C16.8944684,18 16.0047988,18.9 16.0047988,20 C16.0047988,21.1 16.8944684,22 17.99406,22 C19.0936516,22 19.9933175,21.1 19.9933175,20 C19.9933175,18.9 19.0936516,18 17.99406,18 Z" id="path-1"></path>
    </defs>
    <g id="icons/navigation/groceries" stroke="none" stroke-width="1" fill-rule="evenodd">
        
        <g id="icon">

                <use xlink:href="#path-1"></use>
            
            
        </g>
    </g>
</svg>