<?xml version="1.0" encoding="UTF-8"?>
<svg viewBox="0 0 24 24" version="1.1" xmlns="http://www.w3.org/2000/svg" xmlns:xlink="http://www.w3.org/1999/xlink">
    <title>icons/navigation/live-ops-fleet</title>
    <defs>
        <path d="M8.04113241,0.00013928632 C12.3880689,-0.0266590078 16.0002133,3.81734241 16.0002133,8.18868654 L16.0002133,8.18868654 L16.0002133,10.0445116 C16.0002133,10.7128936 15.524561,11.2928643 14.8694923,11.4233406 L14.8694923,11.4233406 L11.2265024,12.1521011 L10.9271102,13.3804527 C10.7957277,13.9050452 10.3860167,14.3010366 9.85773646,14.4145744 L9.85773646,14.4145744 L2.4419367,15.9902584 C2.246363,16.0337296 2.03628847,15.9438807 1.93428263,15.7604327 C0.918474444,13.9460476 -0.0102349993,10.8281502 8.52084497e-05,7.87051207 C0.0379240091,3.66061469 3.59784666,0.0240001438 8.04066363,0.00013928632 L8.04066363,0.00013928632 Z M4.68737782,6.85776656 L0.974727666,7.27022768 C0.954757772,7.47139546 0.939569402,7.67396956 0.937694295,7.87963759 C0.93306903,9.11042684 1.07798358,10.3732804 1.46166181,11.837708 L1.46166181,11.837708 L4.68737782,10.4042822 L4.68737782,6.85776656 Z M12.250061,6.59425147 C11.2159393,6.59425147 10.3750161,7.43520588 10.3750161,8.46932762 C10.3750161,9.50344935 11.2159393,10.3443725 12.250061,10.3443725 C13.284214,10.3443725 14.1251059,9.50341809 14.1251059,8.46929636 C14.1251059,7.43517463 13.2841827,6.59425147 12.250061,6.59425147 Z M6.12195239,6.70487321 L6.04192415,6.70732044 L5.62486901,6.75366685 L5.62486901,9.98766458 L6.28406302,9.69474155 C6.45297894,9.61967475 6.56239146,9.45119635 6.56239146,9.26624826 L6.56242271,9.26624826 L6.56242271,7.17287836 C6.56242271,6.8863307 6.31128333,6.67544362 6.04192415,6.70732044 Z M12.250061,7.53177392 C12.7669031,7.53177392 13.1875834,7.95248551 13.1875834,8.46929636 C13.1875834,8.98610721 12.7668718,9.40681881 12.250061,9.40681881 C11.7332501,9.40681881 11.3125385,8.98610721 11.3125385,8.46929636 C11.3125385,7.95248551 11.7332189,7.53177392 12.250061,7.53177392 Z M17.6666797,12 L19.5791797,13.9125 L15.5125,17.975 L12.1791797,14.6416797 L6,20.8208594 L7.17917969,22 L12.1791797,17 L15.5125,20.3333594 L20.7541797,15.0875 L22.6666797,17 L22.6666797,12 L17.6666797,12 Z" id="path-1"></path>
    </defs>
    <g id="icons/navigation/live-ops-fleet">
      <g id="icon" transform="translate(1.000000, 1.000000)">
        <mask id="mask-2">
          <use xlink:href="#path-1"></use>
        </mask>
        <use id="Mask" xlink:href="#path-1"></use>
        <g id="Group" mask="url(#mask-2)">
          <g transform="translate(-1.000000, -1.000000)" id="✱-/-Color-/-Icons-/-Black-/-Inactive">
              <rect id="Rectangle-13" x="0" y="0" width="24" height="24"></rect>
          </g>
        </g>
      </g>
    </g>
</svg>
