<?xml version="1.0" encoding="UTF-8"?>
<svg width="24px" height="24px" viewBox="0 0 24 24" version="1.1" xmlns="http://www.w3.org/2000/svg" xmlns:xlink="http://www.w3.org/1999/xlink">
    <title>icons/navigation/consumption</title>
    <defs>
        <path d="M1.8,5.4 L2.05714286,5.4 C3.04714286,5.4 3.85714286,6.21 3.85714286,7.2 L3.85714286,16.2 C3.85714286,17.19 3.04714286,18 2.05714286,18 L1.8,18 C0.81,18 0,17.19 0,16.2 L0,7.2 C0,6.21 0.81,5.4 1.8,5.4 Z M9,0 C9.99,0 10.8,0.81 10.8,1.8 L10.8,16.2 C10.8,17.19 9.99,18 9,18 C8.01,18 7.2,17.19 7.2,16.2 L7.2,1.8 C7.2,0.81 8.01,0 9,0 Z M16.2,10.2857143 C17.19,10.2857143 18,11.0957143 18,12.0857143 L18,16.2 C18,17.19 17.19,18 16.2,18 C15.21,18 14.4,17.19 14.4,16.2 L14.4,12.0857143 C14.4,11.0957143 15.21,10.2857143 16.2,10.2857143 L16.2,10.2857143 Z" id="path-1"></path>
    </defs>
    <g id="icons/navigation/consumption" stroke="none" stroke-width="1" fill="none" fill-rule="evenodd">
        <polygon id="Path" points="0 0 24 0 24 24 0 24"></polygon>
        <g id="icon" transform="translate(3.000000, 3.000000)">
            <mask id="mask-2" fill="white">
                <use xlink:href="#path-1"></use>
            </mask>
            <use id="Shape" fill-opacity="0.78" fill="#FFFFFF" fill-rule="nonzero" xlink:href="#path-1"></use>
            <g id="Group" mask="url(#mask-2)" fill-opacity="0.87">
                <g transform="translate(-3.000000, -3.000000)" id="✱-/-Color-/-Icons-/-Black-/-Inactive">
                    <rect id="Rectangle-13" fill="#000000" x="0" y="0" width="24" height="24"></rect>
                </g>
            </g>
        </g>
    </g>
</svg>