<?xml version="1.0" encoding="UTF-8"?>
<svg width="24px" height="24px" viewBox="0 0 24 24" version="1.1" xmlns="http://www.w3.org/2000/svg" xmlns:xlink="http://www.w3.org/1999/xlink">
    <title>icons/global/menu</title>
    <defs>
        <path d="M19.5179688,17.1846094 C20.2261719,17.1846094 20.8,17.7584375 20.8,18.4666797 C20.8,19.1748828 20.2261719,19.74875 19.5179688,19.74875 L2.08207031,19.74875 C1.37382813,19.74875 0.8,19.1748828 0.8,18.4666797 C0.8,17.7584766 1.37382813,17.1846094 2.08207031,17.1846094 L19.5179688,17.1846094 Z M12.3384766,9.49230469 C13.0466797,9.49230469 13.6205469,10.0661328 13.6205469,10.774375 C13.6205469,11.4826172 13.0466797,12.0564453 12.3384766,12.0564453 L2.08207031,12.0564453 C1.37382813,12.0564453 0.8,11.4825781 0.8,10.774375 C0.8,10.0661719 1.37382813,9.49230469 2.08207031,9.49230469 L12.3384766,9.49230469 Z M19.5179688,1.8 C20.2261719,1.8 20.8,2.37382813 20.8,3.08207031 C20.8,3.7903125 20.2261719,4.36410156 19.5179688,4.36410156 L2.08207031,4.36410156 C1.37382813,4.36410156 0.8,3.79027344 0.8,3.08207031 C0.8,2.37386719 1.37382813,1.8 2.08207031,1.8 L19.5179688,1.8 Z" id="path-1"></path>
    </defs>
    <g id="icons/global/menu" stroke="none" stroke-width="1">
      <g id="icon" transform="translate(1.200000, 1.200000)">
        <use xlink:href="#path-1"></use>
      </g>
    </g>
</svg>
