<?xml version="1.0" encoding="UTF-8"?>
<svg viewBox="0 0 24 24" version="1.1" xmlns="http://www.w3.org/2000/svg" xmlns:xlink="http://www.w3.org/1999/xlink">
    <title>icons/navigation/coupon </title>
    <defs>
        <path d="M12,1 C13.3,1 14.4,1.84 14.82,3 L14.82,3 L19,3 C20.1,3 21,3.9 21,5 L21,5 L21,21 C21,22.1 20.1,23 19,23 L19,23 L5,23 C3.9,23 3,22.1 3,21 L3,21 L3,5 C3,3.9 3.9,3 5,3 L5,3 L9.18,3 C9.6,1.84 10.7,1 12,1 Z M7,5 L6,5 C5.45,5 5,5.45 5,6 L5,6 L5,20 C5,20.55 5.45,21 6,21 L6,21 L18,21 C18.55,21 19,20.55 19,20 L19,20 L19,6 C19,5.45 18.55,5 18,5 L18,5 L17,5 L17,6 C17,7.1 16.1,8 15,8 L15,8 L9,8 C7.9,8 7,7.1 7,6 L7,6 L7,5 Z M12.5391313,9.17124929 L12.631628,9.24659629 L13.267734,9.83705827 C13.3191959,9.88482627 13.384672,9.91318166 13.4540982,9.91896864 L13.5244684,9.91711594 L14.4008011,9.79817199 C14.8511169,9.73703688 15.2683236,9.99900271 15.3968126,10.4059815 L15.422772,10.5106443 L15.5756768,11.3471386 C15.5880576,11.414799 15.6236809,11.4746921 15.676304,11.5185206 L15.7343624,11.556687 L16.516188,11.9547293 C16.9180094,12.1593002 17.095022,12.6064757 16.9496634,13.0081933 L16.9065513,13.107509 L16.5178571,13.8704885 C16.486409,13.9322164 16.478547,14.0007556 16.4942711,14.0658974 L16.5178571,14.1295285 L16.9065513,14.8925081 C17.1063158,15.284649 16.9755791,15.7462862 16.6119034,15.9892806 L16.516188,16.0453073 L15.7343624,16.4433496 C15.6711151,16.4755612 15.6227751,16.5265811 15.5955939,16.588145 L15.5756972,16.6529176 L15.422772,17.4893728 C15.3441776,17.9192837 14.9557557,18.219039 14.5125864,18.2105045 L14.4008011,18.2018451 L13.5244684,18.0829011 C13.4535576,18.0733505 13.3832078,18.0873322 13.3235089,18.1217896 L13.267734,18.1629588 L12.6316076,18.7534208 C12.4545621,18.9177939 12.22722,19 12,19 C11.8105991,19 11.6212548,18.9429396 11.4608971,18.8287735 L11.3683924,18.7534208 L10.7322863,18.1629588 C10.6808092,18.1151908 10.6152949,18.0868025 10.5458849,18.0810237 L10.475552,18.0829011 L9.59921924,18.2018451 C9.5554769,18.2077825 9.51195846,18.2106731 9.46907102,18.2106731 C9.06990944,18.2107089 8.71827887,17.9608634 8.60274264,17.5926501 L8.577228,17.4893923 L8.42432318,16.652898 C8.41194241,16.5852377 8.37631906,16.5253446 8.32369601,16.481516 L8.26563761,16.4433496 L7.48381197,16.0453073 C7.08199057,15.8407364 6.90497803,15.3935609 7.05033657,14.9918433 L7.09344873,14.8925276 L7.48214288,14.1295676 C7.51359096,14.0678398 7.52145298,13.9993005 7.50572894,13.9341588 L7.48214288,13.8705276 L7.09346908,13.1075676 C6.89370451,12.7154267 7.02444121,12.2537895 7.38811695,12.0107951 L7.48383232,11.9547683 L8.26565797,11.556726 C8.32890524,11.5245145 8.37724521,11.4734946 8.40442642,11.4119306 L8.42432318,11.3471581 L8.577228,10.5107029 C8.65582236,10.0807919 9.04429634,9.78102005 9.48742562,9.78956734 L9.59919889,9.79823059 L10.4755316,9.91717453 C10.5464577,9.9267545 10.6167999,9.91276907 10.676494,9.87829986 L10.732266,9.83711686 L11.3683924,9.24659629 C11.6930505,8.94519187 12.1863505,8.92009125 12.5391313,9.17124929 Z M11.8512108,9.61482449 L11.7862752,9.66116185 L11.1501488,10.2516238 C10.9762902,10.4129892 10.7482066,10.4994223 10.510659,10.4969266 L10.3913037,10.4882031 L9.51497097,10.3692592 C9.37342409,10.3500741 9.24167241,10.4251068 9.18876729,10.5461679 L9.16920496,10.6103111 L9.01630014,11.4467859 C8.97451476,11.6753993 8.84294254,11.8739079 8.64923222,12.005893 L8.54732689,12.0661733 L7.76550124,12.4642156 C7.63925532,12.5284839 7.57859985,12.663523 7.60995304,12.7913054 L7.63341932,12.8542307 L8.02211348,13.6172102 C8.12833034,13.8257346 8.14350417,14.0605183 8.06763499,14.2765453 L8.02211348,14.3827874 L7.63341932,15.1457669 C7.57066275,15.268963 7.60431786,15.4124204 7.70796646,15.4981115 L7.76550124,15.5357819 L8.54732689,15.9338242 C8.76099934,16.0425897 8.9171119,16.2239915 8.98806711,16.4415618 L9.0163205,16.5531921 L9.16924567,17.3896864 C9.19395051,17.5247519 9.30911515,17.6218203 9.44541905,17.6327025 L9.51501168,17.6307384 L10.3913444,17.5117944 C10.4346186,17.5059156 10.4778317,17.503025 10.5206988,17.503025 C10.7156633,17.503025 10.9037863,17.5629066 11.0602841,17.67495 L11.1501895,17.7483737 L11.7862956,18.3388357 C11.8861695,18.4315104 12.0331844,18.4469562 12.1487485,18.3851731 L12.2136841,18.3388357 L12.8498105,17.7483933 C13.0236691,17.5870279 13.2516779,17.5005661 13.4892683,17.5030782 L13.6086556,17.5118139 L14.4849883,17.6307579 C14.6265352,17.6499262 14.7583018,17.5749055 14.8111984,17.4538481 L14.8307543,17.389706 L14.9836591,16.5532312 C15.0254445,16.3246178 15.1570167,16.1261092 15.3507271,15.9941241 L15.4526324,15.9338438 L16.234458,15.5358015 C16.360704,15.4715332 16.4213594,15.3364798 16.3899934,15.2086686 L16.3665196,15.1457278 L15.9778255,14.3827678 C15.8716086,14.1742602 15.8564348,13.9394502 15.9323039,13.7234276 L15.9778255,13.6171907 L16.3665196,12.8542307 C16.4292762,12.7310345 16.3956211,12.5875772 16.2919725,12.5018861 L16.2344377,12.4642156 L15.4526121,12.0661733 C15.2389396,11.9574078 15.082827,11.776006 15.0118718,11.5584358 L14.9836184,11.4468054 L14.8307136,10.6103111 C14.8060262,10.4752457 14.6908641,10.3781629 14.5545477,10.3672889 L14.4849476,10.3692592 L13.6086149,10.4882031 C13.369121,10.5207307 13.1316908,10.4620108 12.9410084,10.3260035 L12.8497698,10.2516238 L12.2136637,9.66116185 C12.1137898,9.56848713 11.9667748,9.55304134 11.8512108,9.61482449 Z M13.2021307,14.4806378 C13.8097605,14.4806378 14.3041161,14.9549878 14.3041161,15.538028 C14.3041161,16.1210682 13.8097605,16.5954182 13.2021307,16.5954182 C12.594501,16.5954182 12.1001453,16.1210682 12.1001453,15.538028 C12.1001453,14.9549878 12.594501,14.4806378 13.2021307,14.4806378 Z M14.195951,11.8928941 C14.2965674,11.9894387 14.3109412,12.1373683 14.2390595,12.2485943 L14.1959306,12.3007409 L10.2290153,16.107123 C10.1703529,16.1634505 10.093412,16.1915947 10.0165118,16.1915947 C9.93961159,16.1915947 9.86269102,16.163431 9.8040083,16.107123 C9.70340935,16.0105951 9.68903807,15.8626536 9.76089447,15.7514361 L9.8040083,15.6992957 L13.7709236,11.8928941 C13.8882891,11.7802782 14.0786059,11.7802782 14.195951,11.8928941 Z M13.2021307,15.0574085 C12.9259169,15.0574085 12.7012209,15.2730115 12.7012209,15.538028 C12.7012209,15.8030445 12.9259372,16.0186475 13.2021307,16.0186475 C13.4783242,16.0186475 13.7030202,15.8030445 13.7030202,15.538028 C13.7030202,15.2730115 13.4783242,15.0574085 13.2021307,15.0574085 Z M10.7978286,11.4046184 C11.4054583,11.4046184 11.899814,11.8789684 11.899814,12.4620086 C11.899814,13.0450488 11.4054583,13.5193988 10.7978286,13.5193988 C10.1901988,13.5193988 9.6958432,13.0450488 9.6958432,12.4620086 C9.6958432,11.8789684 10.1901988,11.4046184 10.7978286,11.4046184 Z M10.7978286,11.9813696 C10.5216351,11.9813696 10.2969391,12.1969726 10.2969391,12.4619891 C10.2969391,12.7270251 10.5216351,12.9426281 10.7978286,12.9426281 C11.0740221,12.9426281 11.2987181,12.7270251 11.2987384,12.4619891 C11.2987384,12.1969726 11.0740221,11.9813696 10.7978286,11.9813696 Z M12,3 C11.45,3 11,3.45 11,4 C11,4.55 11.45,5 12,5 C12.55,5 13,4.55 13,4 C13,3.45 12.55,3 12,3 Z" id="path-1"></path>
    </defs>
    <g id="icons/navigation/coupon-">
      <g id="icon" transform="translate(0.000000, -0.480000)">
        <mask id="mask-2">
            <use xlink:href="#path-1"></use>
        </mask>
        <use id="Shape" xlink:href="#path-1"></use>
        <g id="coupon" mask="url(#mask-2)">
            <g transform="translate(0.000000, 0.480000)">
                <rect id="Rectangle-13" x="0" y="0" width="24" height="23.04"></rect>
            </g>
        </g>
      </g>
    </g>
</svg>
