<?xml version="1.0" encoding="UTF-8"?>
<svg height="100%" viewBox="0 0 24 24"viewBox="0 0 24 24" version="1.1" xmlns="http://www.w3.org/2000/svg" xmlns:xlink="http://www.w3.org/1999/xlink">
    <title>icons/navigation/tracking</title>
    <defs>
        <path d="M8.41028571,2 C8.7407619,2 9.08409524,2.05980952 9.32942857,2.16009524 L9.32942857,2.16009524 L14.9879048,4.47352381 C15.1201905,4.52742857 15.3451429,4.56380952 15.5507619,4.56380952 C15.6437143,4.56380952 15.7249524,4.55628571 15.7866667,4.54266667 L15.7866667,4.54266667 L20.9111429,3.41504762 C20.9839048,3.39914286 21.0415238,3.39095238 21.114,3.39095238 C21.6372381,3.39095238 21.9999048,3.79419048 21.9999048,4.32904762 L21.9999048,4.32904762 L21.9999048,19.54 C21.9999048,20.0745714 21.6231429,20.5842857 21.1014286,20.7007619 L21.1014286,20.7007619 L16.1034286,21.8244762 C15.9698095,21.854381 15.8167619,21.8694286 15.6481905,21.8694286 C15.3195238,21.8694286 14.9779048,21.8107619 14.734,21.7126667 L14.734,21.7126667 L8.97371429,19.3938095 C8.84314286,19.3411429 8.6187619,19.3059048 8.4152381,19.3059048 C8.3192381,19.3059048 8.2312381,19.3137143 8.16761905,19.3279048 L8.16761905,19.3279048 L3.13761905,20.4515238 C3.06390476,20.468 2.98904762,20.476381 2.91561905,20.476381 C2.39361905,20.476381 2,20.0738095 2,19.54 L2,19.54 L2,4.32904762 C2,3.79447619 2.40847619,3.28466667 2.93,3.16828571 L2.93,3.16828571 L7.95971429,2.04457143 C8.09209524,2.01495238 8.24352381,2 8.41028571,2 Z M15.8497143,7.91609524 C14.0070476,7.91609524 12.5079048,9.41514286 12.5079048,11.2578095 C12.5079048,12.0066667 13.0710476,13.2691429 14.0530476,14.7213333 C14.7871429,15.8070476 15.5133333,16.6408571 15.8534286,16.9599048 C16.6433333,16.2291429 19.1913333,12.9169524 19.1913333,11.2578095 C19.1913333,9.41514286 17.6922857,7.91609524 15.8497143,7.91609524 Z M15.863619,9.28390476 C16.9357143,9.28390476 17.8078095,10.156 17.8078095,11.2280952 C17.8078095,12.3001905 16.9357143,13.1722857 15.863619,13.1722857 C14.7915238,13.1722857 13.9194286,12.3001905 13.9194286,11.2280952 C13.9194286,10.156 14.7915238,9.28390476 15.863619,9.28390476 Z" id="path-1"></path>
    </defs>
    <g id="icons/navigation/tracking" stroke="none" stroke-width="1" fill-rule="evenodd">
        
        <g id="icon">

                <use xlink:href="#path-1"></use>
            
            
        </g>
    </g>
</svg>