<?xml version="1.0" encoding="UTF-8"?>
<svg height="100%" viewBox="0 0 24 24"viewBox="0 0 24 24" version="1.1" xmlns="http://www.w3.org/2000/svg" xmlns:xlink="http://www.w3.org/1999/xlink">
    <title>icons/navigation/food</title>
    <defs>
        <path d="M19.0908815,3.63636364 L15.5284682,3.63636364 L15.5284682,0.909090909 C15.5284682,0.409090909 15.1174205,0 14.6150289,0 C14.1126373,0 13.7015896,0.409090909 13.7015896,0.909090909 L13.7015896,3.63636364 L10.1391763,3.63636364 C9.60024711,3.63636364 9.18006503,4.1 9.22573699,4.63636364 L9.33534971,5.73636364 C12.6968064,6.50909091 15.5284682,8.88181818 15.5284682,12.7272727 L15.546737,20 L17.0995838,20 C17.8668728,20 18.497146,19.4090909 18.5884899,18.6636364 L19.9951864,4.63636364 C20.0499928,4.1 19.6298107,3.63636364 19.0908815,3.63636364 L19.0908815,3.63636364 Z M12.7881503,18.1818182 L0.913439306,18.1818182 C0.411047688,18.1818182 0,18.5909091 0,19.0909091 C0,19.5909091 0.411047688,20 0.913439306,20 L12.7881503,20 C13.2905419,20 13.7015896,19.5909091 13.7015896,19.0909091 C13.7015896,18.5909091 13.2905419,18.1818182 12.7881503,18.1818182 Z M1.00478324,12.7272727 L12.6968064,12.7272727 C13.2631387,12.7272727 13.710724,12.2181818 13.6011113,11.6727273 C13.0073757,8.73636364 9.92908526,7.26363636 6.8507948,7.26363636 C3.77250433,7.26363636 0.703348266,8.73636364 0.100478324,11.6727273 C-0.00913439306,12.2181818 0.44758526,12.7272727 1.00478324,12.7272727 Z M12.7881503,14.5454545 L0.913439306,14.5454545 C0.411047688,14.5454545 0,14.9545455 0,15.4545455 C0,15.9545455 0.411047688,16.3636364 0.913439306,16.3636364 L12.7881503,16.3636364 C13.2905419,16.3636364 13.7015896,15.9545455 13.7015896,15.4545455 C13.7015896,14.9545455 13.2905419,14.5454545 12.7881503,14.5454545 Z" id="path-1"></path>
    </defs>
    <g id="icons/navigation/food" stroke="none" stroke-width="1" fill-rule="evenodd">
        
        <g id="icon" transform="translate(2.000000, 2.000000)">

                <use xlink:href="#path-1"></use>
            
        </g>
    </g>
</svg>