<svg xmlns="http://www.w3.org/2000/svg" viewBox="0 0 27.764 26.221">
  <path id="Icon_metro-shopping-basket2"
        d="M30.95,12.339H23.227l-2.795,2.795a3.7,3.7,0,0,1-6.319-2.616c0-.06.015-.119.017-.179H5.039a.924.924,0,0,0-.925.925v3.7H31.877v-3.7a.927.927,0,0,0-.927-.925ZM19.18,13.88l7.8-7.8a.924.924,0,0,0,0-1.31L25.561,3.355a.93.93,0,0,0-1.311,0l-7.8,7.8A1.928,1.928,0,1,0,19.18,13.88ZM8.467,28.182A1.55,1.55,0,0,0,9.9,29.306h16.2a1.55,1.55,0,0,0,1.43-1.124l2.349-9.673H6.118l2.349,9.673Z"
        transform="translate(-4.113 -3.085)"/>
</svg>
