<?xml version="1.0" encoding="UTF-8"?>
<svg height="100%" viewBox="0 0 24 24"viewBox="0 0 24 24" version="1.1" xmlns="http://www.w3.org/2000/svg" xmlns:xlink="http://www.w3.org/1999/xlink">
    <title>icons/navigation/live-ops</title>
    <defs>
        <path d="M9.11462718,0 C15.1306155,0 20,4.8685642 20,10.8853728 C20,11.2092797 19.7374214,11.4718583 19.4135145,11.4718583 L9.11462718,11.4718583 C8.79072029,11.4718583 8.52814166,11.2092797 8.52814166,10.8853728 L8.52814166,0.58648552 C8.52814166,0.262578638 8.79072029,0 9.11462718,0 Z M13.2872525,13.1674476 C13.3901433,12.9795566 13.5873703,12.8627595 13.8015895,12.8627595 L17.2701119,12.8627595 C17.4567919,12.8627595 17.6323782,12.9516269 17.7428472,13.102174 C17.8533552,13.2527212 17.8855427,13.4467841 17.8296442,13.6249094 C16.7249936,17.1432366 13.5388155,19.759023 9.7011127,20 L9.7011127,15.6038977 C11.20635,15.4171004 12.5466261,14.5195596 13.2872525,13.1674476 Z M6.37509058,2.17039486 C6.55317686,2.11453538 6.74735693,2.14676201 6.89782597,2.25719191 C7.04837314,2.36769994 7.1372405,2.54324715 7.1372405,2.72996627 L7.1372405,6.19844961 C7.1372405,6.41262971 7.02040434,6.6098176 6.83255241,6.71274749 C5.48051852,7.45345206 4.58293864,8.79368905 4.3961414,10.2988873 L0,10.2988873 C0.241562972,6.45286417 2.86508372,3.27246733 6.37509058,2.17039486 Z M4.39539921,11.4718193 C4.66145442,13.6260422 6.3739187,15.3385065 8.52814166,15.6045617 L8.52814166,19.9995703 C3.95184366,19.7115229 0.288867752,16.0543673 0.000429688339,11.4718193 L4.39539921,11.4718193 Z" id="path-1"></path>
    </defs>
    <g id="icons/navigation/live-ops" stroke="none" stroke-width="1" fill-rule="evenodd">
        
        <g id="icon" transform="translate(2.000000, 2.000000)">

                <use xlink:href="#path-1"></use>
            
        </g>
    </g>
</svg>