<?xml version="1.0" encoding="UTF-8"?>
<svg height="100%" viewBox="0 0 24 24"viewBox="0 0 24 24" version="1.1" xmlns="http://www.w3.org/2000/svg" xmlns:xlink="http://www.w3.org/1999/xlink">
    <title>icons/navigation/bank</title>
    <defs>
        <path d="M1.89473684,8.57142857 L1.89473684,15.2380952 L4.73684211,15.2380952 L4.73684211,8.57142857 L1.89473684,8.57142857 L1.89473684,8.57142857 Z M7.57894737,8.57142857 L7.57894737,15.2380952 L10.4210526,15.2380952 L10.4210526,8.57142857 L7.57894737,8.57142857 L7.57894737,8.57142857 Z M0,20 L18,20 L18,17.1428571 L0,17.1428571 L0,20 L0,20 Z M13.2631579,8.57142857 L13.2631579,15.2380952 L16.1052632,15.2380952 L16.1052632,8.57142857 L13.2631579,8.57142857 L13.2631579,8.57142857 Z M0,4.76190476 L0,6.66666667 L18,6.66666667 L18,4.76190476 L9,0 L0,4.76190476 Z" id="path-1"></path>
    </defs>
    <g id="icons/navigation/bank" stroke="none" stroke-width="1" fill-rule="evenodd">
        
        <g id="icon" transform="translate(3.000000, 2.000000)">
            <use xlink:href="#path-1"></use>
        </g>
    </g>
</svg>