<?xml version="1.0" encoding="UTF-8"?>
<svg viewBox="0 0 24 24" version="1.1" xmlns="http://www.w3.org/2000/svg" xmlns:xlink="http://www.w3.org/1999/xlink">
    <title>icons/navigation/journal</title>
    <defs>
        <path d="M17.6,0 L17.6,18.0179551 L3.42707391,18.0179551 C2.66133043,18.0179551 2.04054783,18.5997429 2.04054783,19.3173469 C2.04054783,20.034951 2.66133043,20.6167388 3.42707391,20.6167388 L3.42707391,20.6167388 L17.6,20.6167388 L17.6,22 L2.7861087,22 C1.24735217,22 0,20.8309918 0,19.3890041 L0,19.3890041 L0,2.61099592 C0,1.16900816 1.2474,0 2.7861087,0 L2.7861087,0 L17.6,0 Z M15.7146957,18.5037061 L15.7146957,20.2098286 L14.7585087,20.2098286 L14.7585087,18.5037061 L15.7146957,18.5037061 Z M13.2891478,3.67902857 L5.13599565,3.67902857 C4.77342609,3.67902857 4.47953478,3.95447755 4.47953478,4.29426531 L4.47953478,4.29426531 L4.47953478,6.50903673 C4.47953478,6.84882449 4.77347391,7.12427347 5.13599565,7.12427347 L5.13599565,7.12427347 L13.2891478,7.12427347 C13.6517652,7.12427347 13.9457043,6.84882449 13.9457043,6.50903673 L13.9457043,6.50903673 L13.9457043,4.29426531 C13.9457043,3.95447755 13.651813,3.67902857 13.2891478,3.67902857 L13.2891478,3.67902857 Z" id="path-1"></path>
    </defs>
    <g id="icons/navigation/journal">
        <g id="icon" transform="translate(3.000000, 1.000000)">
            <mask id="mask-2">
                <use xlink:href="#path-1"></use>
            </mask>
            <use id="journal" xlink:href="#path-1"></use>
            <g id="Group" mask="url(#mask-2)">
                <g transform="translate(-4.400000, -2.200000)" id="✱-/-Color-/-Icons-/-Black-/-Inactive">
                    <rect id="Rectangle-13" x="0" y="0" width="26.4" height="26.4"></rect>
                </g>
            </g>
        </g>
    </g>
</svg>
