<?xml version="1.0" encoding="UTF-8"?>
<svg height="100%" viewBox="0 0 24 24"viewBox="0 0 24 24" version="1.1" xmlns="http://www.w3.org/2000/svg" xmlns:xlink="http://www.w3.org/1999/xlink">
    <title>icons/navigation/hub</title>
    <defs>
        <path d="M17.3745703,12.9296875 C17.6115234,12.9296875 17.8251563,13.0724609 17.9158594,13.2914062 C18.0065625,13.5103516 17.9564063,13.7624219 17.7888281,13.93 L17.7888281,13.93 L16.6879688,15.0308594 L19.8284766,18.1321875 C20.0573047,18.3610156 20.0573047,18.7319922 19.8284766,18.9608203 L19.8284766,18.9608203 L18.9609375,19.8283594 C18.7321094,20.0571875 18.3611328,20.0571875 18.1323047,19.8283594 L18.1323047,19.8283594 L15.0308984,16.6878906 L13.9300391,17.78875 C13.7624219,17.9563281 13.5103906,18.0064453 13.2914453,17.9157812 C13.0725,17.8251172 12.9297266,17.6114453 12.9297266,17.3744922 L12.9297266,17.3744922 L12.9297266,13.515625 C12.9297266,13.1920312 13.1920703,12.9296875 13.5156641,12.9296875 L13.5156641,12.9296875 Z M6.48441406,12.9297266 C6.80800781,12.9297266 7.07039063,13.1920703 7.07039063,13.515625 L7.07039063,13.515625 L7.07039063,17.3745703 C7.07039063,17.6115234 6.92761719,17.8251562 6.70867188,17.9158594 C6.48972656,18.0065625 6.23765625,17.9564062 6.07007813,17.7888281 L6.07007813,17.7888281 L4.96921875,16.6879687 L1.8678125,19.8284375 C1.63898438,20.0572656 1.26800781,20.0572656 1.03917969,19.8284375 L1.03917969,19.8284375 L0.171640625,18.9608984 C-0.0571875,18.7320703 -0.0571875,18.3610937 0.171640625,18.1322656 L0.171640625,18.1322656 L3.31210938,15.0308594 L2.21128906,13.9300391 C2.04371094,13.7624219 1.99359375,13.5103906 2.08425781,13.2914453 C2.17492188,13.0725 2.38859375,12.9297266 2.62554688,12.9297266 L2.62554688,12.9297266 Z M10.0000391,7.07035156 C11.6153906,7.07035156 12.9297266,8.38464844 12.9297266,10.0000391 C12.9297266,11.6153906 11.6153906,12.9297266 10.0000391,12.9297266 C8.38472656,12.9297266 7.07035156,11.6153906 7.07035156,10.0000391 C7.07035156,8.3846875 8.3846875,7.07035156 10.0000391,7.07035156 Z M18.1323047,0.171640625 C18.3611328,-0.0571875 18.7321094,-0.0571875 18.9609375,0.171640625 L18.9609375,0.171640625 L19.8283594,1.03914062 C20.0571875,1.26796875 20.0571875,1.63894531 19.8283984,1.86777344 L19.8283984,1.86777344 L16.6879297,4.96917969 L17.7887891,6.07003906 C17.9563672,6.23765625 18.0064844,6.4896875 17.9158203,6.70863281 C17.8251563,6.92757812 17.6114844,7.07035156 17.3745313,7.07035156 L17.3745313,7.07035156 L13.5156641,7.07035156 C13.1920703,7.07035156 12.9297266,6.80800781 12.9297266,6.48441406 L12.9297266,6.48441406 L12.9297266,2.62554687 C12.9297266,2.38859375 13.0725,2.17496094 13.2914453,2.08425781 C13.5103906,1.99355469 13.7624609,2.04371094 13.9300391,2.21128906 L13.9300391,2.21128906 L15.0308984,3.31214844 Z M1.03917969,0.171640625 C1.26800781,-0.0571875 1.63898438,-0.0571875 1.8678125,0.171640625 L1.8678125,0.171640625 L4.96921875,3.31214844 L6.07003906,2.21128906 C6.23765625,2.04371094 6.4896875,1.99359375 6.70863281,2.08425781 C6.92757813,2.17492187 7.07035156,2.38855469 7.07035156,2.62554687 L7.07035156,2.62554687 L7.07035156,6.48441406 C7.07035156,6.80800781 6.80800781,7.07035156 6.48441406,7.07035156 L6.48441406,7.07035156 L2.62554688,7.07035156 C2.38859375,7.07035156 2.17496094,6.92761719 2.08425781,6.70867187 C1.99355469,6.48972656 2.04371094,6.23765625 2.21128906,6.07007812 L2.21128906,6.07007812 L3.31214844,4.96921875 L0.171640625,1.8678125 C-0.0571875,1.63898437 -0.0571875,1.26800781 0.171640625,1.03917969 L0.171640625,1.03917969 Z" id="path-1"></path>
    </defs>
    <g id="icons/navigation/hub" stroke="none" stroke-width="1" fill-rule="evenodd">
        
        <g id="icon" transform="translate(2.000000, 2.000000)">

                <use xlink:href="#path-1"></use>
            
        </g>
    </g>
</svg>