<?xml version="1.0" encoding="UTF-8"?>
<svg width="24px" height="24px" viewBox="0 0 24 24" version="1.1" xmlns="http://www.w3.org/2000/svg" xmlns:xlink="http://www.w3.org/1999/xlink">
    <title>icons/navigation/live</title>
    <defs>
        <path d="M17.0711551,0.281976425 C18.9598517,2.1670165 20.0002437,4.67341536 20,7.33948071 C20,10.0055461 18.9598517,12.5121887 17.0711551,14.3972288 C16.882968,14.5849284 16.6365209,14.6787781 16.3900738,14.6787781 C16.1428954,14.6787781 15.8957169,14.5844409 15.7075299,14.3957662 C15.3311557,14.0186606 15.3318869,13.4082714 15.7087487,13.0318971 C17.2322842,11.5112868 18.0715695,9.48973785 18.0715695,7.33948071 C18.0715695,5.18922357 17.2322842,3.16767471 15.7087487,1.64706429 C15.3318869,1.27069007 15.3311557,0.660300777 15.7075299,0.283195238 C16.0839041,-0.0936664895 16.6942934,-0.0943978022 17.0711551,0.281976425 Z M4.29247004,0.283195238 C4.66884426,0.660057027 4.66811301,1.27044632 4.29125122,1.64682054 C2.76771569,3.16743089 1.9284304,5.18897982 1.9284304,7.33923696 C1.9284304,9.4894941 2.76771569,11.5112868 4.29125122,13.0318971 C4.66811301,13.4082714 4.66884426,14.0186606 4.29247004,14.3957662 C4.10428299,14.5844409 3.85710454,14.6787781 3.61016991,14.6787781 C3.36347904,14.6787781 3.11703191,14.5849284 2.92884479,14.396985 C1.04014822,12.5119449 0,10.0055461 0,7.33948071 C0,4.67317161 1.04014822,2.16677275 2.92884479,0.281732675 C3.30570652,-0.0943978022 3.91633962,-0.0939102396 4.29247004,0.283195238 Z M14.8899397,3.12111544 C16.0188186,4.24780044 16.6404211,5.74574065 16.6404211,7.33948071 C16.6404211,8.93297708 16.0188186,10.431161 14.8899397,11.557846 C14.7017526,11.7457893 14.4553055,11.8396391 14.2088583,11.8396391 C13.96168,11.8396391 13.7145016,11.7453018 13.5263144,11.5563834 C13.1499402,11.1795217 13.1506715,10.5688886 13.5275333,10.1927582 C14.2912512,9.43050284 14.711747,8.41716881 14.711747,7.33948071 C14.711747,6.26179261 14.2912512,5.24845864 13.5275333,4.48620331 C13.1506715,4.10982909 13.1499402,3.4994398 13.5263144,3.12233426 C13.9024449,2.74547253 14.5130779,2.74474122 14.8899397,3.12111544 Z M6.4736855,3.12233426 C6.85005973,3.49919605 6.84932842,4.10982909 6.47246663,4.48620331 C5.70874873,5.24845864 5.28825293,6.26179261 5.28825293,7.33948071 C5.28825293,8.41716881 5.70874873,9.43050284 6.47246663,10.1927582 C6.84932842,10.5688886 6.85005973,11.1795217 6.4736855,11.5563834 C6.28549833,11.7450581 6.03831995,11.8396391 5.79138532,11.8396391 C5.54493819,11.8396391 5.29849106,11.7457893 5.1100602,11.557846 C3.98118127,10.431161 3.35957878,8.93297708 3.35957878,7.33948071 C3.35957878,5.74574065 3.98118127,4.24780044 5.1100602,3.12111544 C5.48692199,2.74474122 6.09755503,2.74522878 6.4736855,3.12233426 Z M11.4372425,5.90760107 C12.2294809,6.69837697 12.2294809,7.98058451 11.4372425,8.77136041 C10.6447602,9.56213631 9.36035878,9.56213631 8.56787651,8.77136041 C7.77563804,7.98058451 7.77563804,6.69837697 8.56787651,5.90760107 C9.36035878,5.11682517 10.6447602,5.11682517 11.4372425,5.90760107 Z" id="path-1"></path>
    </defs>
    <g id="icons/navigation/live" stroke="none" stroke-width="1">
        <g id="icon" transform="translate(2.247218, 5.000000)">
          <use xlink:href="#path-1"></use>
        </g>
    </g>
</svg>
