<?xml version="1.0" encoding="UTF-8"?>
<svg viewBox="0 0 24 24" version="1.1" xmlns="http://www.w3.org/2000/svg" xmlns:xlink="http://www.w3.org/1999/xlink">
    <title>icons/navigation/orders</title>
    <defs>
        <path d="M17.7707191,4.37634487 C17.8208324,4.35369959 17.8792284,4.35773357 17.9255936,4.38725494 C17.9719587,4.41677632 18,4.46765943 18,4.52225563 L18,4.52225563 L18,14.0912602 C18,14.1541536 17.9630281,14.2112252 17.9053725,14.2372627 L17.9053725,14.2372627 L9.62831264,17.9855602 C9.60684215,17.9952326 9.58389093,18 9.56098599,18 C9.53035352,18 9.49990614,17.991382 9.47343821,17.9745584 C9.42707305,17.9450829 9.39903184,17.894154 9.39903184,17.8395578 L9.39903184,17.8395578 L9.39903184,8.27027812 C9.39903184,8.2074306 9.43600366,8.15040484 9.49365934,8.12427568 L9.49365934,8.12427568 Z M0.177169264,4.36241611 L0.229280794,4.37625319 L2.08124956,5.22494682 L2.08124956,9.45278329 C2.08124956,9.49692783 2.10679204,9.53713007 2.14700294,9.55619978 L2.14700294,9.55619978 L5.33398285,11.0517507 C5.34985435,11.0591769 5.36688267,11.0629358 5.383911,11.0629358 C5.40538149,11.0629358 5.42680571,11.0570224 5.44559239,11.0452413 C5.47923258,11.0242005 5.49959253,10.9875738 5.49959253,10.9483342 L5.49959253,10.9483342 L5.49959253,6.7485522 L8.50675706,8.12422983 C8.56445901,8.150359 8.60143082,8.2074306 8.60143082,8.27018644 L8.60143082,8.27018644 L8.60143082,17.8393744 C8.60143082,17.8939706 8.57338962,17.9448079 8.52702446,17.9743751 C8.50046398,17.9911986 8.47006288,17.9998166 8.43947668,17.9998166 C8.41657174,17.9998166 8.39362052,17.9950492 8.37215003,17.9853768 L8.37215003,17.9853768 L0.0946274923,14.2370793 C0.0369718173,14.2109501 -1.13686838e-13,14.1539244 -1.13686838e-13,14.0910769 L-1.13686838e-13,14.0910769 L-1.13686838e-13,4.52211811 C-1.13686838e-13,4.46756775 0.0280412031,4.41673048 0.0744063607,4.38716326 C0.120817791,4.35764189 0.179167555,4.35351623 0.229280794,4.37625319 Z M14.2440503,2.29427315 L14.2890752,2.30677745 L17.0738536,3.5298516 C17.1321108,3.55547651 17.1697767,3.61250227 17.1701959,3.67562483 C17.1705634,3.7387474 17.133499,3.79623156 17.0754269,3.82236073 L17.0754269,3.82236073 L9.06721094,7.4479887 C9.04583299,7.45766107 9.02288178,7.46247434 8.99988429,7.46247434 C8.9768868,7.46247434 8.95393559,7.45766107 8.93255764,7.4479887 L8.93255764,7.4479887 L6.11302855,6.11324676 L14.1531263,2.30884028 C14.1959285,2.28848704 14.2456715,2.28761607 14.2890752,2.30677745 Z M9.02228195,2.42861287e-15 L9.0655914,0.0122241709 L10.4469214,0.618787532 C10.5046696,0.644137406 10.5422893,0.700383873 10.5432822,0.762956348 C10.544279,0.825437141 10.5085103,0.882921305 10.4516412,0.910058965 L10.4516412,0.910058965 L2.61366224,4.58698262 L0.924896976,3.82245241 C0.866917393,3.79623156 0.829899303,3.7387474 0.830266733,3.67562483 C0.830639665,3.61250227 0.868305571,3.55547651 0.92656279,3.5298516 L0.92656279,3.5298516 L8.934316,0.0122241709 C8.97614644,-0.00611208546 9.02380723,-0.00611208546 9.0655914,0.0122241709 Z" id="path-1"></path>
    </defs>
    <g id="icons/navigation/orders">
        <g id="icon" transform="translate(3.000000, 3.000000)">
            <mask id="mask-2">
                <use xlink:href="#path-1"></use>
            </mask>
            <use id="Combined-Shape" xlink:href="#path-1"></use>
            <g id="Group" mask="url(#mask-2)">
                <g transform="translate(-3.000000, -3.000000)" id="✱-/-Color-/-Icons-/-Black-/-Inactive">
                    <rect id="Rectangle-13" x="0" y="0" width="24" height="24"></rect>
                </g>
            </g>
        </g>
    </g>
</svg>
