<?xml version="1.0" encoding="UTF-8"?>
<svg width="24px" height="24px" viewBox="0 0 24 24" version="1.1" xmlns="http://www.w3.org/2000/svg" xmlns:xlink="http://www.w3.org/1999/xlink">
  <title>icons/navigation/pricing</title>
  <defs>
    <path d="M2,0 L16,0 C17.1045695,-2.02906125e-16 18,0.8954305 18,2 L18,16 C18,17.1045695 17.1045695,18 16,18 L2,18 C0.8954305,18 1.3527075e-16,17.1045695 0,16 L0,2 C-1.3527075e-16,0.8954305 0.8954305,2.02906125e-16 2,0 Z M12.9375,4.15625 C12.6269844,4.15669639 12.3753487,4.47879003 12.375,4.87625 L12.375,8.15486 L12.8320312,8.65625 L12.375,9.15755 L12.375,12.43625 C12.3753487,12.83371 12.6269844,13.1558036 12.9375,13.15625 L16.3125,13.15625 C16.6230156,13.1558036 16.8746513,12.83371 16.875,12.43625 L16.875,9.15773 L16.4179688,8.65625 L16.875,8.15468 L16.875,4.87625 C16.8746513,4.47879003 16.6230156,4.15669639 16.3125,4.15625 L12.9375,4.15625 Z M7.3125,4.15625 C7.0019844,4.15669639 6.75034874,4.47879003 6.75,4.87625 L6.75,8.15486 L7.20703125,8.65625 L6.75,9.15764 L6.75,12.43625 C6.75034874,12.83371 7.0019844,13.1558036 7.3125,13.15625 L10.6875,13.15625 C10.9980156,13.1558036 11.2496513,12.83371 11.25,12.43625 L11.25,9.15773 L10.7929688,8.65625 L11.25,8.15468 L11.25,4.87625 C11.2496513,4.47879003 10.9980156,4.15669639 10.6875,4.15625 L7.3125,4.15625 Z M1.6875,4.0859375 C1.3769844,4.0863884 1.12534874,4.41173551 1.125,4.81321023 L1.125,8.12484659 L1.58203125,8.63139205 L1.125,9.1379375 L1.125,12.3586648 C1.12534874,12.7601395 1.3769844,13.0854866 1.6875,13.0859375 L5.0625,13.0859375 C5.3730156,13.0854866 5.62465126,12.7601395 5.625,12.3586648 L5.625,9.13784659 L5.16796875,8.63139205 L5.625,8.1249375 L5.625,4.81321023 C5.62465126,4.41173551 5.3730156,4.0863884 5.0625,4.0859375 L1.6875,4.0859375 Z M3.35010937,10.4253672 C3.10845036,10.4311623 2.8724496,10.3517901 2.68340625,10.2011406 C2.48587304,10.0316674 2.33873739,9.81114635 2.25808594,9.5636875 C2.15293525,9.24836029 2.10263603,8.91733672 2.109375,8.58500781 L2.109375,8.58015625 C2.10258019,8.24826073 2.15288282,7.91766661 2.25808594,7.6028125 C2.33888859,7.35578465 2.48601832,7.13571028 2.68340625,6.966625 C2.87240037,6.81586243 3.10841794,6.73640999 3.35010937,6.7421875 C3.59215866,6.73644402 3.82854853,6.81582125 4.01807812,6.96648438 C4.21629024,7.13532688 4.36427523,7.35540711 4.44585937,7.60267188 C4.55191844,7.91734565 4.60263775,8.24802031 4.59576562,8.58001563 L4.59576562,8.58486719 C4.60257683,8.91729539 4.55186114,9.24839846 4.44585937,9.56354688 C4.36444923,9.81125386 4.21645445,10.0317865 4.01807812,10.201 C3.82853788,10.3516511 3.59216097,10.4310488 3.35010937,10.4253672 L3.35010937,10.4253672 Z M3.35010937,7.12735938 C3.18860732,7.12523136 3.03322466,7.18907056 2.91986719,7.304125 C2.78741305,7.44559501 2.69305748,7.61838667 2.64564844,7.80629688 C2.57797762,8.05854489 2.54597915,8.31902951 2.55058594,8.58015625 L2.55058594,8.58500781 C2.54603622,8.84654829 2.57803272,9.10744281 2.64564844,9.36013281 C2.69314888,9.54873318 2.78746586,9.72230061 2.91986719,9.86476563 C3.15850138,10.1021765 3.54410799,10.1021765 3.78274219,9.86476563 C3.91528858,9.72221229 4.01000105,9.5487178 4.05822656,9.36013281 C4.12670432,9.10758978 4.15911133,8.84662925 4.15448437,8.58500781 L4.15448437,8.58015625 C4.15917531,8.31892487 4.12676619,8.05834986 4.05822656,7.80622656 C4.01010346,7.61836292 3.91537763,7.44567028 3.7828125,7.304125 C3.6686703,7.1887334 3.51239796,7.12489384 3.35010937,7.12735938 Z M10.1760469,10.4128516 L7.89939844,10.4128516 L7.89939844,10.1105078 L9.088875,8.82378906 C9.23751562,8.66207031 9.35564062,8.52650781 9.439875,8.42033594 C9.51271102,8.33304049 9.57264223,8.23574403 9.61783594,8.13142187 C9.65260871,8.04126038 9.66997773,7.94532518 9.66902344,7.84869531 L9.66902344,7.84384375 C9.67082004,7.72829589 9.64313618,7.61419674 9.58858594,7.51232031 C9.53522859,7.41530925 9.45587308,7.33510149 9.3594375,7.28071094 C9.25034232,7.22152636 9.1275866,7.19211058 9.00351562,7.19542187 C8.87550534,7.19275694 8.74890279,7.22253297 8.6355,7.28197656 C8.53229676,7.33751994 8.44696351,7.42119529 8.38940625,7.52328906 C8.32914308,7.63424855 8.2988955,7.75901981 8.30165625,7.88525781 L8.29926562,7.89010937 L7.87999219,7.88771875 L7.875,7.88504687 C7.87337753,7.68980335 7.92568993,7.497902 8.02617187,7.33049219 C8.12556084,7.16886804 8.26713847,7.0374031 8.43567187,6.95024219 C8.62043659,6.85610033 8.82550288,6.80879963 9.03283594,6.8125 C9.22492773,6.80974057 9.4148182,6.85365425 9.58619531,6.94046875 C9.74443311,7.02067022 9.87859494,7.14136735 9.97502344,7.29027344 C10.0709619,7.44177167 10.120548,7.617999 10.1176875,7.79729687 L10.1176875,7.80214844 C10.1178981,7.93365048 10.0943644,8.0641102 10.0482187,8.18725 C9.98724688,8.3354936 9.90469863,8.47391119 9.80325,8.59801562 C9.64800224,8.79130419 9.48282693,8.97640474 9.30839062,9.15257031 L8.50879687,9.97782812 L8.50879687,10.0179766 L10.1760469,10.0179766 L10.1760469,10.4125 L10.1760469,10.4128516 Z M15.4316953,10.4002656 L15.0027891,10.4002656 L15.0027891,9.67147656 L13.2890625,9.67147656 L13.2890625,9.27160937 C13.3814531,9.11811719 13.4798906,8.95520312 13.5815625,8.78778906 C13.6806328,8.62466406 13.7819531,8.45978125 13.8826406,8.29785156 C13.9852969,8.13275781 14.0881641,7.96914062 14.1885703,7.8115 C14.2916484,7.64978125 14.3945859,7.48953906 14.4945,7.33611719 C14.5944141,7.18269531 14.6962266,7.02927344 14.7955078,6.88274219 L15.4317656,6.88274219 L15.4317656,9.27899219 L15.9314766,9.27899219 L15.9314766,9.67147656 L15.4317656,9.67147656 L15.4317656,10.4001953 L15.4316953,10.4002656 Z M14.9758594,7.28992188 L14.9758594,7.28992188 C14.8975312,7.40642969 14.8155469,7.53067188 14.7320859,7.65913281 C14.6493281,7.78646875 14.5644609,7.91809375 14.4798047,8.05042188 C14.3924766,8.18689844 14.3067656,8.32217969 14.2251328,8.45260938 C14.1407578,8.586625 14.0570156,8.72239844 13.9752422,8.8560625 C13.8945937,8.98789844 13.8146484,9.12114063 13.7375859,9.25213281 L13.7375859,9.28138281 L15.0050391,9.28138281 L15.0050391,7.28992188 L14.9757891,7.28992188 L14.9758594,7.28992188 Z" id="path-1"></path>
  </defs>
  <g id="icons/navigation/pricing">
    <g id="icon" transform="translate(3.000000, 3.000000)">
      <mask id="mask-2">
        <use xlink:href="#path-1"></use>
      </mask>
      <use id="Combined-Shape" xlink:href="#path-1"></use>
      <g id="pricing" mask="url(#mask-2)">
        <g transform="translate(0.000000, 4.000000)"></g>
      </g>
      <g id="Group" mask="url(#mask-2)" fill-opacity="0.87">
        <g transform="translate(-3.000000, -3.000000)" id="✱-/-Color-/-Icons-/-Black-/-Inactive">
          <rect id="Rectangle-13" x="0" y="0" width="24" height="24"></rect>
        </g>
      </g>
    </g>
  </g>
</svg>
