<?xml version="1.0" encoding="UTF-8"?>
<svg height="100%" viewBox="0 0 24 24" version="1.1" xmlns="http://www.w3.org/2000/svg" xmlns:xlink="http://www.w3.org/1999/xlink">
    <title>icons/navigation/app</title>
    <defs>
        <path d="M9.9599191,0 C10.7233812,0 11.3506897,0.578448059 11.421849,1.31669847 L11.4285714,1.4568909 L11.4282932,2.25145102 C10.9317175,2.4841524 10.5241172,2.93070028 10.4176227,3.52187878 L10.397,3.672 L10.272,4.5 L9.50891003,4.18665614 L9.40729749,4.14917206 C8.63922223,3.89694343 7.94549235,4.12474782 7.42760353,4.63485713 L7.28388858,4.77641325 L5.939,7.095 L5.90872509,7.13326662 C5.31412282,7.93488317 5.65567782,8.83842809 6.24703903,9.42102033 L6.39928123,9.55211769 L7.06,10.048 L6.36447913,10.604004 L6.2469343,10.7082748 C5.64397712,11.3024075 5.53810614,12.1368162 5.89652229,12.8431575 L7.34943213,15.3527393 L7.49307988,15.494257 L7.60869167,15.5987405 C8.08721703,15.9951083 8.7531457,16.1302173 9.40721656,15.9154547 L10.34,15.549 L10.468,16.371 L10.481176,16.4692678 C10.5779384,17.0339561 10.9448633,17.4815643 11.4282197,17.725417 L11.4285714,18.5445667 C11.4285714,19.3004712 10.8461725,19.9227386 10.1013702,19.9933309 L9.9599191,20 L1.46865233,20 C0.703805847,20 0.0777188459,19.4221975 0.00670807929,18.6846307 L0,18.5445667 L0,1.4568909 C0,0.700300527 0.581096031,0.0773471523 1.32697134,0.00667647976 L1.46865233,0 L9.9599191,0 Z M5.71502114,16.703593 C5.19801434,16.703593 4.77734878,17.1190146 4.77734878,17.6320968 C4.77734878,18.1451789 5.19801434,18.5620582 5.71502114,18.5620582 C6.23055709,18.5620582 6.65122265,18.1451789 6.65122265,17.6320968 C6.65122265,17.1190146 6.23055709,16.703593 5.71502114,16.703593 Z M14.841599,3.57142857 C14.9727355,3.57142857 15.1695045,3.70064583 15.1039234,3.89447173 L15.1039234,3.89447173 L15.3662478,5.57429612 C15.7597344,5.76812202 16.153221,5.96194791 16.4811265,6.22038243 L16.4811265,6.22038243 L18.1206539,5.57429612 C18.3174229,5.50968749 18.4485594,5.57429612 18.5141405,5.63890476 L18.5141405,5.63890476 L19.8257624,7.90020683 C19.8913435,8.02942409 19.8913435,8.15864136 19.7601813,8.28785862 L19.7601813,8.28785862 L18.3829783,9.38620534 C18.4485594,9.58003123 18.4485594,9.77385712 18.4485594,10.0322916 C18.4485594,10.2907262 18.3829783,10.4845521 18.3829783,10.678378 L18.3829783,10.678378 L19.8913178,11.712116 C20.0225057,11.7767247 20.0225057,11.9705506 19.9569246,12.0997678 L19.9569246,12.0997678 L18.6453027,14.3610699 C18.5796958,14.4903125 18.3829783,14.5549211 18.2517904,14.4903125 L18.2517904,14.4903125 L16.6122629,13.8442262 C16.2843574,14.1026607 15.8908709,14.2964866 15.4973843,14.4903125 L15.4973843,14.4903125 L15.2350599,16.1701369 C15.2350599,16.2993288 15.0383423,16.4285714 14.9071544,16.4285714 L14.9071544,16.4285714 L12.2839105,16.4285714 C12.0871672,16.4285714 11.956005,16.2993542 11.956005,16.1701369 L11.956005,16.1701369 L11.6936806,14.4903125 C11.3001941,14.2964866 10.9067075,14.1026607 10.578802,13.8442262 L10.578802,13.8442262 L8.93927455,14.4903125 C8.74250554,14.5549211 8.61136906,14.4903125 8.54578797,14.4257039 L8.54578797,14.4257039 L7.23416602,12.1644018 C7.16858493,12.0351592 7.16858493,11.9059673 7.29974712,11.7767247 L7.29974712,11.7767247 L8.67695016,10.678378 C8.61136906,10.4845521 8.61136906,10.2907262 8.61136906,10.0322916 C8.61136906,9.77385712 8.67695016,9.58003123 8.67695016,9.38620534 L8.67695016,9.38620534 L7.29974712,8.35246725 C7.16858493,8.22324999 7.10300383,8.02942409 7.16858493,7.96481546 L7.16858493,7.96481546 L8.48020687,5.70351339 C8.61139478,5.57429612 8.74255698,5.50968749 8.93930027,5.57429612 L8.93930027,5.57429612 L10.5132466,6.22038243 C10.9067332,5.96194791 11.2346387,5.70351339 11.6281253,5.57429612 L11.6281253,5.57429612 L11.8904496,3.82986309 C11.8904496,3.70064583 12.0871672,3.57142857 12.2183551,3.57142857 L12.2183551,3.57142857 Z M13.5714286,7.66233766 C12.3024119,7.66233766 11.2337662,8.7309833 11.2337662,10 C11.2337662,11.2690167 12.3024119,12.3376623 13.5714286,12.3376623 C14.8404453,12.3376623 15.9090909,11.2690167 15.9090909,10 C15.9090909,8.7309833 14.8404453,7.66233766 13.5714286,7.66233766 Z M7.81099467,0.884775162 L3.61904762,0.884775162 C3.51241037,0.884775162 3.427836,1.04146928 3.427836,1.2353327 C3.427836,1.40150135 3.48997227,1.54089739 3.57487898,1.57733363 L3.61904762,1.58661905 L7.81099467,1.58661905 C7.91689649,1.58661905 8.00294172,1.42919612 8.00294172,1.2353327 C8.00294172,1.04146928 7.91689649,0.884775162 7.81099467,0.884775162 Z" id="path-1"></path>
    </defs>
    <g id="icons/navigation/app" stroke="none" stroke-width="1" fill-rule="evenodd">
        <g id="icon" transform="translate(2.000000, 2.000000)">
            <use xlink:href="#path-1"></use>
        </g>
    </g>
</svg>