<?xml version="1.0" encoding="UTF-8"?>
<svg height="100%" viewBox="0 0 24 24"viewBox="0 0 24 24" version="1.1" xmlns="http://www.w3.org/2000/svg" xmlns:xlink="http://www.w3.org/1999/xlink">
    <title>icons/navigation/logout</title>
    <defs>
        <path d="M11.7590972,2.62603369 C12.0714004,2.70968632 12.2885714,2.99268401 12.2885714,3.31599658 L12.2885714,16.6840034 C12.2885714,17.007316 12.0714004,17.2903137 11.7590972,17.3739663 L7.28857143,18.5714286 L16.5742857,18.5714286 L16.5742857,1.42857143 L7.28857143,1.42857143 L11.7590972,2.62603369 Z M6.00173109,7.43824206 C5.74943326,7.70127597 5.75435395,8.11679249 6.01001455,8.37381903 L6.02145635,8.38505463 L7.00696429,9.33035623 L4.2975,9.33035714 L4.28348981,9.33050079 C3.92012439,9.33795847 3.62785714,9.6348479 3.62785714,10 C3.62785714,10.3651521 3.92012439,10.6620415 4.28348981,10.6694992 L4.2975,10.6696429 L7.00691964,10.6696419 L6.02145635,11.6149454 L6.01001455,11.626181 C5.75435395,11.8832075 5.74943326,12.298724 6.00173109,12.5617579 C6.25402892,12.8247918 6.66938984,12.8371811 6.93684127,12.5924471 L6.94854365,12.5814832 L9.14133125,10.4781413 L9.15576891,10.4635436 L9.16957102,10.4487543 L9.18684275,10.4288944 L9.19626323,10.4173533 L9.20537461,10.4056455 L9.22267099,10.3819775 C9.22889645,10.3730294 9.23487815,10.3639608 9.24061427,10.3547805 L9.24903404,10.3409273 L9.25361742,10.3330998 L9.26358498,10.3150704 L9.27161849,10.2995291 L9.28211863,10.2775425 L9.28666912,10.267304 L9.29161727,10.2556373 C9.31495306,10.1991836 9.33079217,10.1388432 9.33788256,10.0758634 L9.33992027,10.0547741 L9.34106634,10.038287 L9.3415945,10.0272872 L9.34192784,10.0171375 L9.34214286,10 L9.34214286,9.99238418 L9.341074,9.96184343 C9.33755361,9.89917401 9.32541569,9.83880714 9.30580821,9.78190731 L9.29810751,9.76073467 L9.29165887,9.74446337 L9.28685319,9.73313028 L9.2814341,9.72096518 C9.26020262,9.6745972 9.23341575,9.63018669 9.20105611,9.58874852 L9.18684646,9.57117425 L9.18180564,9.56514876 L9.17031812,9.5520769 L9.16168215,9.54269934 L9.15058855,9.53111499 L9.1378936,9.51851152 L6.94854365,7.4185168 L6.93684127,7.40755288 C6.66938984,7.1628189 6.25402892,7.17520816 6.00173109,7.43824206 Z M0,0.714285714 C0,0.319796607 0.315510893,0 0.71,0 L17.2885714,0 C17.6830605,0 18.0028571,0.319796607 18.0028571,0.714285714 L18.0028571,19.2857143 C18.0028571,19.6802034 17.6830605,20 17.2885714,20 L0.71,20 C0.315510893,20 0,19.6802034 0,19.2857143 L0,0.714285714 Z" id="path-1"></path>
    </defs>
    <g id="icons/navigation/logout" stroke="none" stroke-width="1" fill-rule="evenodd">
        
        <g id="icon" transform="translate(3.000000, 2.000000)">

                <use xlink:href="#path-1"></use>
            
            
        </g>
    </g>
</svg>