<?xml version="1.0" encoding="UTF-8"?>
<svg viewBox="0 0 24 24" version="1.1" xmlns="http://www.w3.org/2000/svg" xmlns:xlink="http://www.w3.org/1999/xlink">
    <title>icons/navigation/catalogue</title>
    <defs>
        <path d="M19.3465687,-2.84217094e-14 C19.6973287,-2.84217094e-14 20,0.283182217 20,0.650655695 L20,0.650655695 L20,15.1284603 C20,15.4293767 19.7922408,15.6910091 19.4976861,15.7609917 L19.4976861,15.7609917 L10.1522739,17.9821792 C10.1008686,17.9943632 10.0507725,18 10.001811,18 C9.95267488,18 9.90467338,17.9943199 9.85763191,17.9839136 C9.79745548,17.9705154 0.602637028,15.7848395 0.502313891,15.7609917 C0.207759224,15.6910091 -2.84217094e-14,15.4293767 -2.84217094e-14,15.1284603 L-2.84217094e-14,15.1284603 L-2.84217094e-14,0.650655695 C-2.84217094e-14,0.283312296 0.302496733,-2.84217094e-14 0.653387706,-2.84217094e-14 C0.703745644,-2.84217094e-14 0.755194526,0.00589691953 0.806817959,0.0181677153 L0.806817959,0.0181677153 L10.0000218,2.20310648 L19.193182,0.0181243556 C19.2448055,0.00585355983 19.2961671,-2.84217094e-14 19.3465687,-2.84217094e-14 Z M18.6909118,1.47501036 L10.3046132,3.46821252 L10.0000218,3.54057986 L10.0000218,16.6804342 L10.0000218,16.6804342 L18.6909118,14.6152549 L18.6909118,1.47501036 Z M16.9376351,11.5157733 C17.2881334,11.4283601 17.6438245,11.6399988 17.7317545,11.9884374 C17.8196845,12.336876 17.6067324,12.6901275 17.2560596,12.7774973 L17.2560596,12.7774973 L11.7073043,14.1454092 C11.6538917,14.1587206 11.6003046,14.1650945 11.5475902,14.1650945 C11.2544756,14.1650945 10.9877182,13.9681113 10.9131849,13.6727451 C10.8252549,13.3243065 11.038207,12.971055 11.3888798,12.8836852 L11.3888798,12.8836852 Z M16.9376351,9.14521164 C17.2881334,9.05779848 17.6438245,9.26943719 17.7317545,9.61787576 C17.8196845,9.96631433 17.6067324,10.3195658 17.2560596,10.4069356 L17.2560596,10.4069356 L11.7073043,11.7748475 C11.6538917,11.7881589 11.6003046,11.7945328 11.5475902,11.7945328 C11.2544756,11.7945328 10.9877182,11.5975497 10.9131849,11.3021834 C10.8252549,10.9537448 11.038207,10.6004933 11.3888798,10.5131235 L11.3888798,10.5131235 Z M14.6796009,4.39021323 C14.9908688,4.31442047 15.2912709,4.54856287 15.2912709,4.86703988 L15.2912709,4.86703988 L15.2912709,7.91787191 C15.2912709,8.14399275 15.1358333,8.34088916 14.9148082,8.39469855 L14.9148082,8.39469855 L11.5050871,9.22508022 C11.1938192,9.30087298 10.893417,9.06673058 10.893417,8.74825357 L10.893417,8.74825357 L10.893417,5.69742154 C10.893417,5.47130069 11.0488546,5.27444765 11.2698797,5.2205949 L11.2698797,5.2205949 Z" id="path-1"></path>
    </defs>
    <g id="icons/navigation/catalogue">
        <g id="icon" transform="translate(2.000000, 3.000000)">
            <mask id="mask-2">
                <use xlink:href="#path-1"></use>
            </mask>
            <use id="shape" xlink:href="#path-1"></use>
            <g id="Group" mask="url(#mask-2)">
                <g transform="translate(-2.000000, -3.000000)" id="✱-/-Color-/-Icons-/-Black-/-Inactive">
                    <rect id="Rectangle-13" x="0" y="0" width="24" height="24"></rect>
                </g>
            </g>
        </g>
    </g>
</svg>
