<?xml version="1.0" encoding="UTF-8"?>
<svg width="24px" height="24px" viewBox="0 0 24 24" version="1.1" xmlns="http://www.w3.org/2000/svg" xmlns:xlink="http://www.w3.org/1999/xlink">
    <title>menu-icon-rtl</title>
    <defs>
        <path d="M20.7179688,18.3846094 C21.4261719,18.3846094 22,18.9584375 22,19.6666797 C22,20.3748828 21.4261719,20.94875 20.7179688,20.94875 L3.28207031,20.94875 C2.57382812,20.94875 2,20.3748828 2,19.6666797 C2,18.9584766 2.57382812,18.3846094 3.28207031,18.3846094 L20.7179688,18.3846094 Z M13.5384766,10.6923047 C14.2466797,10.6923047 14.8205469,11.2661328 14.8205469,11.974375 C14.8205469,12.6826172 14.2466797,13.2564453 13.5384766,13.2564453 L3.28207031,13.2564453 C2.57382812,13.2564453 2,12.6825781 2,11.974375 C2,11.2661719 2.57382812,10.6923047 3.28207031,10.6923047 L13.5384766,10.6923047 Z M20.7179688,3 C21.4261719,3 22,3.57382812 22,4.28207031 C22,4.9903125 21.4261719,5.56410156 20.7179688,5.56410156 L3.28207031,5.56410156 C2.57382812,5.56410156 2,4.99027344 2,4.28207031 C2,3.57386719 2.57382812,3 3.28207031,3 L20.7179688,3 Z" id="path-1"></path>
    </defs>
    <g id="menu-icon-rtl" stroke="none" stroke-width="1">
      <g id="icon" transform="translate(12.000000, 11.974375) scale(-1, 1) translate(-12.000000, -11.974375) ">
        <use xlink:href="#path-1"></use>
      </g>
    </g>
</svg>
