<svg xmlns="http://www.w3.org/2000/svg" viewBox="0 0 117 100">
  <g id="Icon_ionic-md-person-add" data-name="Icon ionic-md-person-add" transform="translate(-7.875 -4.5)">
    <path id="Subtraction_6" data-name="Subtraction 6"
          d="M-188.875-389.5h-100V-402c0-3.883,1.845-7.548,5.483-10.893a43.64,43.64,0,0,1,13.306-7.817,91.125,91.125,0,0,1,16.411-4.712,81.869,81.869,0,0,1,14.8-1.577,87.18,87.18,0,0,1,19,2.478c0,.079,0,.16,0,.24a16.84,16.84,0,0,0,2.368,8.266,20.1,20.1,0,0,0,5.444,6.184,1.7,1.7,0,0,0,1.007.332,1.772,1.772,0,0,0,1.406-.7,1.508,1.508,0,0,0,.22-1.375c-1.341-4.289-1.648-7.61-.937-10.153,6.374,2.272,11.459,4.982,15.115,8.053,4.232,3.555,6.377,7.484,6.377,11.678v12.5Zm-1.735-29a2.318,2.318,0,0,1-1.566-.619,2.208,2.208,0,0,1-.7-1.632v-8.242c-5.346.077-9.128.6-11.9,1.661-3.034,1.157-4.863,2.988-5.594,5.6a90.752,90.752,0,0,0-9.507-2.789c.062-6.559,2.657-11.08,7.934-13.822,4.273-2.22,10.331-3.3,19.065-3.4v-7.505a2.208,2.208,0,0,1,.7-1.632,2.317,2.317,0,0,1,1.567-.619,2.2,2.2,0,0,1,1.456.549l16.5,14.249a2.247,2.247,0,0,1,.779,1.7,2.247,2.247,0,0,1-.779,1.7l-16.5,14.25A2.2,2.2,0,0,1-190.61-418.5Zm-48.265-21a24.691,24.691,0,0,1-9.708-1.973,25.044,25.044,0,0,1-7.949-5.371,25.044,25.044,0,0,1-5.371-7.949,24.69,24.69,0,0,1-1.972-9.707,24.69,24.69,0,0,1,1.972-9.707,25.044,25.044,0,0,1,5.371-7.949,25.045,25.045,0,0,1,7.949-5.371,24.69,24.69,0,0,1,9.708-1.973,24.69,24.69,0,0,1,9.708,1.973,25.045,25.045,0,0,1,7.949,5.371,25.044,25.044,0,0,1,5.371,7.949,24.69,24.69,0,0,1,1.973,9.707,24.69,24.69,0,0,1-1.973,9.707,25.044,25.044,0,0,1-5.371,7.949,25.044,25.044,0,0,1-7.949,5.371A24.692,24.692,0,0,1-238.875-439.5Z"
          transform="translate(296.75 494)"/>
  </g>
</svg>
