<?xml version="1.0" encoding="UTF-8"?>
<svg width="154px" height="45px" viewBox="0 0 154 45" version="1.1" xmlns="http://www.w3.org/2000/svg" xmlns:xlink="http://www.w3.org/1999/xlink">
    <!-- Generator: sketchtool 61.2 (101010) - https://sketch.com -->
    <title>09C86065-DF1E-4A8B-89DB-F5C7931BD126</title>
    <desc>Created with sketchtool.</desc>
    <g id="Page-1" stroke="none" stroke-width="1" fill="none" fill-rule="evenodd">
        <g id="online-ordering-application" transform="translate(-979.000000, -1473.000000)">
            <g id="body" transform="translate(256.000000, 64.000000)">
                <g id="manage-data" transform="translate(20.000000, 1315.000000)">
                    <g id="Group-Copy-3" transform="translate(680.000000, 52.000000)">
                        <g id="allergies" transform="translate(23.000000, 42.000000)">
                            <g id="Group-8" transform="translate(108.736200, 0.000000)">
                                <path d="M44.7948134,22.396903 C44.7948134,34.7672015 34.7668657,44.7948134 22.396903,44.7948134 C10.0276119,44.7948134 -1.33624455e-13,34.7672015 -1.33624455e-13,22.396903 C-1.33624455e-13,10.0272761 10.0276119,1.90892078e-14 22.396903,1.90892078e-14 C34.7668657,1.90892078e-14 44.7948134,10.0272761 44.7948134,22.396903" id="Fill-820" fill="#E0555F"></path>
                                <path d="M8.02578358,17.4529478 C13.3935448,9.40097015 22.396903,10.0816791 22.396903,10.0816791 C22.396903,10.0816791 31.400597,9.40097015 36.7683582,17.4529478 C37.938694,19.2072761 37.4873507,20.9935075 37.066903,22.1339552 C36.1125,24.7224627 32.6565672,27.1037687 31.2004478,28.6958955 C30.0965011,29.9034558 29.1272878,30.8893087 28.7953398,31.2238246 L28.6733955,31.346194 C28.6733955,31.346194 28.6733955,31.346194 29.6163806,32.6827612 C30.5597015,34.0193284 28.044403,34.7265672 28.044403,34.7265672 L28.044403,34.7265672 L16.7497388,34.7265672 C16.7497388,34.7265672 14.2344403,34.0193284 15.1774254,32.6827612 C16.1214179,31.346194 16.1214179,31.346194 16.1214179,31.346194 L15.9477634,31.1716522 C15.5748783,30.7949152 14.6455884,29.8459529 13.593694,28.6958955 C12.1382463,27.1037687 8.68231343,24.7224627 7.72791045,22.1339552 C7.30746269,20.9935075 6.8561194,19.2072761 8.02578358,17.4529478 Z M34.798097,19.8107463 C35.5301866,18.9661567 34.2060448,17.8569403 33.4739552,18.703209 C30.9744403,21.586903 25.7598134,28.2660448 26.0902612,28.5427612 C26.4217164,28.8201493 32.2992537,22.6941045 34.798097,19.8107463 Z M9.99671642,19.8107463 C12.4955597,22.6941045 18.373097,28.8201493 18.7035448,28.5427612 C19.035,28.2660448 13.8197015,21.586903 11.3208582,18.703209 C10.588097,17.8569403 9.26462687,18.9661567 9.99671642,19.8107463 Z M29.5908582,15.6962687 C30.0049254,14.5595149 28.2418657,13.9174254 27.8284701,15.0548507 C26.4183582,18.9315672 23.7284328,27.6991791 24.1693657,27.8597015 C24.6099627,28.0195522 28.1807463,19.5736567 29.5908582,15.6962687 Z M15.2039552,15.6962687 C16.6140672,19.5736567 20.1848507,28.0195522 20.6254478,27.8597015 C21.0670522,27.6991791 18.3764552,18.9315672 16.9656716,15.0548507 C16.5522761,13.9174254 14.7898881,14.5595149 15.2039552,15.6962687 Z M21.4599627,13.873097 C21.4599627,17.9993284 21.9287687,27.1581716 22.396903,27.1581716 C22.8660448,27.1581716 23.3351866,17.9993284 23.3351866,13.873097 C23.3351866,12.6634701 21.4599627,12.6634701 21.4599627,13.873097 Z" id="Combined-Shape" fill="#FFFFFE"></path>
                            </g>
                            <g id="Group-9" transform="translate(54.736200, 0.000000)">
                                <path d="M44.7934701,22.396903 C44.7934701,34.7668657 34.7675373,44.7944776 22.3972388,44.7944776 C10.0282836,44.7944776 -2.6724891e-13,34.7668657 -2.6724891e-13,22.396903 C-2.6724891e-13,10.0276119 10.0282836,-1.43169059e-14 22.3972388,-1.43169059e-14 C34.7675373,-1.43169059e-14 44.7934701,10.0276119 44.7934701,22.396903" id="Fill-868" fill="#15A748"></path>
                                <path d="M27.7539179,7.47604478 L29.131791,7.53884328 L28.850709,10.3053358 C31.2847388,10.8345896 33.0548507,13.6007463 32.9060821,16.8454478 C32.7781343,19.62 31.2854104,21.9173507 29.3104478,22.715597 C29.4152239,23.7855224 29.2788806,24.9484701 28.863806,26.0946269 C28.0994776,28.2029104 26.5785448,29.7497015 24.9034701,30.3602239 C24.7123881,32.0856716 23.6448134,33.8883582 21.8797388,35.1497015 C19.6868284,36.7159701 17.0529851,36.993694 15.2096642,36.0402985 C14.6350746,35.8102612 13.6114925,35.5009701 12.9875373,35.9150373 C12.1127239,36.4956716 11.7382836,36.4980224 11.6123507,36.3223881 L11.6123507,36.3223881 L11.5912803,36.2872817 C11.504972,36.1010585 11.6623881,35.7525 12.4431716,35.1530597 C13.0231343,34.708097 13.0741791,33.6804851 13.0473134,33.0565299 C12.7141791,30.9922388 13.8311194,28.561903 16.0441791,26.9808582 C16.9656716,26.3223134 17.9650746,25.8921269 18.9523881,25.6845896 C18.9083955,24.7194403 19.0564925,23.6918284 19.4238806,22.676306 C20.1395149,20.7016791 21.5190672,19.2183582 23.0675373,18.5373134 C22.9120522,17.859291 22.843209,17.1352612 22.8771269,16.3850373 C23.0312687,13.0248134 25.1885821,10.3644403 27.7807836,10.220709 L27.7807836,10.220709 L27.7539179,7.47604478 Z M21.7806716,29.0518657 C20.7345896,27.5870149 18.3714179,27.4822388 16.5025746,28.816791 C14.6340672,30.1523507 13.966791,32.4218284 15.0128731,33.8863433 C16.059291,35.3505224 18.4224627,35.4556343 20.2909701,34.1204104 C22.1598134,32.7858582 22.8260821,30.5163806 21.7806716,29.0518657 Z M25.5401866,20.529403 C23.8479851,19.916194 21.8421269,21.1701493 21.0603358,23.3294776 C20.2778731,25.4891418 21.0156716,27.7364552 22.708209,28.3493284 C24.4004104,28.9622015 26.4066045,27.7085821 27.1883955,25.5492537 C27.9708582,23.3892537 27.2323881,21.1422761 25.5401866,20.529403 Z M29.3675373,12.4922015 C27.6830597,11.8578358 25.6614179,13.0866045 24.8520896,15.2358582 C24.0427612,17.3854478 24.7530224,19.6421642 26.4375,20.2758582 C28.1219776,20.9098881 30.1429478,19.6814552 30.9519403,17.5325373 C31.7612687,15.3826119 31.0516791,13.1262313 29.3675373,12.4922015 Z M15.5599254,33.0414179 C15.601903,33.0434328 15.6294403,32.9275746 15.6395149,32.9003731 C15.6727612,32.8066791 15.7036567,32.7116418 15.7385821,32.6179478 C15.8178358,32.4067164 15.9122015,32.2008582 16.0203358,32.0030597 C16.2527239,31.5816045 16.5445522,31.1927239 16.8790299,30.8475 C17.2135075,30.5026119 17.5946642,30.1936567 18.0198134,29.9683209 C18.4275,29.7527239 18.8986567,29.5989179 19.3641045,29.6694403 C19.5477985,29.6973134 19.7133582,29.784291 19.895709,29.8141791 C20.0804104,29.8420522 20.321194,29.8198881 20.4400746,29.6556716 C20.5703731,29.4746642 20.4588806,29.2365672 20.3178358,29.0995522 C20.1959328,28.9820149 20.0451493,28.9158582 19.884291,28.8691791 C18.9517164,28.6005224 17.9875746,29.0031716 17.2652239,29.5881716 C16.7000373,30.0465672 16.2298881,30.6335821 15.9011194,31.2827239 C15.7399254,31.6010821 15.6099627,31.9389179 15.5411194,32.2898507 C15.5122388,32.4362687 15.4924254,32.5853731 15.493097,32.7341418 C15.493097,32.773097 15.4883955,33.0397388 15.5599254,33.0414179 C15.5921642,33.0427612 15.5300373,33.0410821 15.5599254,33.0414179 M22.0271642,26.7397388 C22.0671269,26.7252985 22.0503358,26.6070896 22.0489925,26.5785448 C22.0449627,26.478806 22.0375746,26.3797388 22.0352239,26.2793284 C22.0298507,26.0536567 22.0402612,25.8276493 22.0677985,25.6036567 C22.1262313,25.1261194 22.2521642,24.6566418 22.4338433,24.2110075 C22.6114925,23.7757836 22.8445522,23.3573507 23.1447761,22.9943284 C23.435597,22.6450746 23.8039925,22.3260448 24.2506343,22.2048134 C24.4316418,22.1554478 24.6119776,22.171903 24.7936567,22.1393284 C24.9800373,22.1057463 25.2023507,22.010709 25.2792537,21.8229851 C25.3689179,21.6040299 25.1848881,21.3998507 24.9951493,21.3172388 C24.8346269,21.2470522 24.6673881,21.2383209 24.4954478,21.2551119 C23.5423881,21.346791 22.8012313,22.0597388 22.3458582,22.8573134 C21.9781343,23.5034328 21.7531343,24.2395522 21.6886567,24.9797015 C21.658097,25.3353358 21.6624627,25.6973507 21.729291,26.0489552 C21.7575,26.1953731 21.7951119,26.3404478 21.8508582,26.4784701 C21.8659701,26.5147388 21.9603358,26.7642537 22.0271642,26.7397388 C22.0580597,26.7286567 21.9989552,26.7498134 22.0271642,26.7397388 M25.7762687,18.6575373 C25.8162313,18.6434328 25.8007836,18.5255597 25.8001119,18.4976866 C25.7974254,18.4002985 25.7913806,18.3029104 25.7900373,18.2058582 C25.7873507,17.9858955 25.7997761,17.7666045 25.8276493,17.5489925 C25.8901119,17.0657463 26.0220896,16.591903 26.2111567,16.1435821 C26.398209,15.6989552 26.6433582,15.2697761 26.9603731,14.9047388 C27.2572388,14.5622015 27.6333582,14.2532463 28.0816791,14.1451119 C28.2633582,14.101791 28.4463806,14.1222761 28.6277239,14.0876866 C28.8184701,14.0510821 29.0538806,13.9416045 29.105597,13.7354104 C29.1593284,13.5198134 28.9712687,13.3394776 28.7902612,13.2639179 C28.6250373,13.1933955 28.4490672,13.1903731 28.2741045,13.2085075 C27.3123134,13.3079104 26.5681343,14.0329478 26.1100746,14.8382463 C25.7453731,15.4810075 25.5193657,16.2120896 25.4545522,16.9485448 C25.4246642,17.285709 25.428694,17.6292537 25.4877985,17.9630597 C25.5126493,18.1101493 25.5489179,18.2562313 25.6039925,18.3945896 C25.6177612,18.4308582 25.7094403,18.6820522 25.7762687,18.6575373 C25.8071642,18.6471269 25.7480597,18.6679478 25.7762687,18.6575373" id="Combined-Shape" fill="#FFFFFE"></path>
                            </g>
                            <g id="Group-10" transform="translate(0.736200, 0.000000)">
                                <path d="M44.7944776,22.396903 C44.7944776,34.7668657 34.7672015,44.7944776 22.396903,44.7944776 C10.0272761,44.7944776 -1.67030568e-13,34.7668657 -1.67030568e-13,22.396903 C-1.67030568e-13,10.0276119 10.0272761,-1.43169059e-14 22.396903,-1.43169059e-14 C34.7672015,-1.43169059e-14 44.7944776,10.0276119 44.7944776,22.396903" id="Fill-876" fill="#867E72"></path>
                                <path d="M22.3962313,7.27925373 C25.7282463,7.27925373 28.4292537,10.7318284 28.4292537,14.9903731 C28.4292537,16.1325 28.2331343,17.2141791 27.8842164,18.1880597 C27.6827239,18.748209 27.8657463,20.4158955 28.1925,20.7983955 C28.6055597,21.2826493 28.976306,21.8176119 29.2970149,22.3952239 C30.1476493,23.930597 30.6436567,25.7665299 30.6436567,27.7418284 C30.6436567,33.1398134 26.9516418,37.5155597 22.3962313,37.5155597 C17.8425,37.5155597 14.1508209,33.1398134 14.1508209,27.7418284 C14.1508209,25.7665299 14.6468284,23.930597 15.4974627,22.3952239 C15.9034701,21.6627985 16.3900746,20.998209 16.9431716,20.4199254 C17.1708582,20.1821642 17.1110821,18.748209 16.9102612,18.1880597 C16.5606716,17.2141791 16.3645522,16.1325 16.3645522,14.9903731 C16.3645522,10.7318284 19.0655597,7.27925373 22.3962313,7.27925373 Z M18.9513806,31.8630224 C18.5289179,30.8555597 17.6225373,30.275597 16.9273881,30.5670896 C16.2322388,30.8585821 16.0109328,31.9117164 16.4333955,32.9188433 C16.8558582,33.926306 17.7615672,34.5062687 18.4577239,34.2141045 C19.1528731,33.9229478 19.3738433,32.8698134 18.9513806,31.8630224 Z M22.6998134,29.1630224 C22.3267164,28.0232463 21.3860821,27.3079478 20.5992537,27.566194 C19.8127612,27.8237687 19.4782836,28.9564925 19.8513806,30.0966045 C20.2251493,31.2363806 21.1657836,31.9513433 21.9522761,31.6937687 C22.7394403,31.4355224 23.0739179,30.3027985 22.6998134,29.1630224 Z M16.983806,24.6821642 C16.1304851,24.6667164 15.4208955,25.6345522 15.3983955,26.8438433 C15.3762313,28.0534701 16.0498881,29.0464925 16.903209,29.0622761 C17.7565299,29.0780597 18.4654478,28.1098881 18.4876119,26.9002612 C18.5101119,25.6909701 17.8364552,24.6979478 16.983806,24.6821642 Z M21.7625373,24.4020896 C21.5502985,23.7495896 20.9931716,23.4107463 20.5183209,23.643806 C20.0427985,23.8765299 19.8298881,24.5948507 20.0414552,25.2466791 C20.2533582,25.8985075 20.8108209,26.2380224 21.2856716,26.004291 C21.761194,25.7715672 21.9744403,25.0539179 21.7625373,24.4020896 Z M18.4045655,14.1177288 L18.3052612,14.1239552 C17.7733209,14.1954851 17.424403,14.8627612 17.5261567,15.6136567 C17.6272388,16.3638806 18.1400373,16.9149627 18.6719776,16.843097 C19.2032463,16.7712313 19.5521642,16.1049627 19.4514179,15.3537313 C19.3496642,14.6028358 18.8365299,14.0524254 18.3052612,14.1239552 Z M20.982197,12.6914045 L20.8890672,12.6973881 C20.4474627,12.7585075 20.0965299,13.2642537 20.1039179,13.8274254 C20.1109701,14.3895896 20.4743284,14.7969403 20.9152612,14.7358209 C21.3558582,14.6743657 21.7074627,14.1686194 21.7004104,13.6057836 C21.6930224,13.0432836 21.3296642,12.6366045 20.8890672,12.6973881 Z M19.2828358,10.3768657 C18.8576866,10.2804851 18.4043284,10.6891791 18.2686567,11.2886194 C18.1329851,11.8880597 18.3670522,12.4522388 18.7915299,12.5479478 C19.2156716,12.6436567 19.6703731,12.2356343 19.8053731,11.636194 C19.9413806,11.0364179 19.7069776,10.4725746 19.2828358,10.3768657 Z" id="Combined-Shape" fill="#FFFFFE"></path>
                            </g>
                        </g>
                    </g>
                </g>
            </g>
        </g>
    </g>
</svg>