<?xml version="1.0" encoding="UTF-8"?>
<svg width="116px" height="66px" viewBox="0 0 116 66" version="1.1" xmlns="http://www.w3.org/2000/svg" xmlns:xlink="http://www.w3.org/1999/xlink">
    <!-- Generator: sketchtool 61.2 (101010) - https://sketch.com -->
    <title>4A4431D5-15E6-45C1-B8E9-598038147FB0</title>
    <desc>Created with sketchtool.</desc>
    <g id="Page-1" stroke="none" stroke-width="1" fill="none" fill-rule="evenodd">
        <g id="online-ordering-application" transform="translate(-558.000000, -1462.000000)">
            <g id="body" transform="translate(256.000000, 64.000000)">
                <g id="manage-data" transform="translate(20.000000, 1315.000000)">
                    <g id="Group-Copy" transform="translate(240.000000, 52.000000)">
                        <g id="dietary" transform="translate(42.000000, 31.000000)">
                            <path d="M74.1754779,34.3946612 C74.3195463,34.1775926 74.5994507,34.1114383 74.8011465,34.2458141 L76.8036975,35.5813029 C77.0053933,35.717746 77.0527301,36.0030362 76.9107198,36.2201048 C76.7666514,36.4371734 76.486747,36.5033276 76.2850512,36.3689518 L74.2804421,35.0334631 C74.0787463,34.8990873 74.0314095,34.6137971 74.1754779,34.3946612 Z M80.8602526,28.6475114 C81.004321,28.4304428 81.2842254,28.3642886 81.4859211,28.4986644 L84.4578468,30.479157 C84.6595426,30.6135328 84.7068794,30.898823 84.562811,31.1158916 C84.4187425,31.3329602 84.1388382,31.4011817 83.9371424,31.2668059 L80.9672748,29.284246 C80.765579,29.1498702 80.7182423,28.86458 80.8602526,28.6475114 Z M73.1546503,35.0045206 C73.1546503,35.620582 73.0146981,36.2159701 72.7553749,36.757608 C73.0146981,37.2992458 73.1546503,37.8967013 73.1546503,38.5106954 C73.1546503,39.3665659 72.8870946,40.1872919 72.4054945,40.8653729 C72.4384244,41.0721049 72.4548894,41.2809042 72.4548894,41.4917709 C72.4548894,43.8299099 70.4276409,45.7256423 68.1307787,45.5540548 C67.177869,46.3727135 65.8236259,46.6786769 64.5990443,46.4099253 C64.1544903,47.8591166 63.7284594,49.3124426 63.3333003,50.7802398 C62.8517002,52.5229906 61.085833,58.0985528 64.662846,54.9376205 C66.3031679,53.5029003 67.9126179,52.0454397 69.5344167,50.5735078 L66.7024432,48.6860446 C66.5089799,48.5558035 66.4616431,48.268446 66.5995372,48.0596467 C66.7477219,47.8343088 67.0296843,47.7660872 67.2252058,47.8963284 L70.2506426,49.9140327 C72.3560996,47.9996944 74.4450917,46.0502116 76.5011538,44.0800556 L73.7021103,42.2111983 C73.5065888,42.0809571 73.4592521,41.7956669 73.6074367,41.5682617 C73.7453308,41.3594624 74.0272933,41.2933082 74.2228147,41.421482 L77.2029729,43.4102439 C79.4113359,41.3077794 81.6011759,39.1701705 83.7457372,37.0036191 L81.5744203,35.556495 C81.380957,35.4262539 81.3315621,35.1388964 81.4818049,34.9135585 C81.619699,34.7026919 81.9016614,34.6365376 82.0971829,34.7667788 L84.4331494,36.3234708 C84.7315768,36.0361133 85.0300043,35.7466885 85.3140249,35.4489944 C86.9337655,33.8137442 88.5596805,32.1371477 89.6772398,30.1194433 C90.2082349,29.1519375 90.6178008,28.0769311 90.8071479,26.9729822 L87.3783195,24.6865262 C87.1683912,24.5480158 87.1210545,24.2606583 87.2692391,24.0353204 C87.4071332,23.8244538 87.6890956,23.7582995 87.8990239,23.89681 L90.9388676,25.9248509 C90.9779718,25.1144615 90.8853564,24.310274 90.638382,23.5412309 C89.8933425,21.3043906 87.8949077,19.8551993 85.8861823,18.7491831 C83.9268518,17.6969172 81.6279314,16.836912 79.4319171,17.5770126 C78.2196843,17.9760054 77.2235541,18.7967314 76.4064803,19.8055836 L79.5060094,21.874971 C79.6994727,22.0031448 79.7468095,22.2905023 79.5986249,22.5158402 C79.4607308,22.7267068 79.1787683,22.7928611 78.9832469,22.6626199 L75.8240323,20.5560208 C75.2189449,21.4056893 74.6941242,22.3318487 74.2186985,23.2456042 C73.5189376,24.5666217 72.8438741,25.8793699 72.1996825,27.2148586 L73.7268077,28.2340474 C73.9223291,28.3622213 73.9696659,28.6495788 73.8214812,28.8749166 C73.6815291,29.0857833 73.3995666,29.1519375 73.2061033,29.0216964 L71.7818841,28.0727965 C71.3332138,29.0010232 70.9092411,29.9375191 70.4852683,30.8740151 C70.5428956,31.002189 70.6211042,31.1158916 70.6663829,31.2502674 C72.1255901,31.8663287 73.1546503,33.3175874 73.1546503,35.0045206 L73.1546503,35.0045206 Z" id="Fill-144" fill="#FF932B"></path>
                            <path d="M20.6252465,32.4513803 C19.5241522,33.1459999 18.2645826,33.7910037 17.2561036,34.3036991 L16.6962949,34.5910566 C14.969532,35.504812 13.3539076,36.0361133 11.8514798,36.2180374 C11.1949394,37.6465556 10.9006282,39.2239208 11.0652778,41.0245566 C11.5283549,46.1163658 14.9324858,50.9642313 19.2463059,53.397467 C25.4844685,56.9139784 34.1409224,56.924315 40.3852593,52.047507 C42.0173486,50.4370647 43.2625114,48.5661401 44.1577937,46.5670416 C43.9190518,46.4202619 43.6885423,46.2610782 43.4251029,46.143241 C42.6780053,45.8042005 41.7539093,45.5829973 40.774244,45.3493901 C40.6322337,45.3142456 40.4902234,45.2811685 40.3502712,45.2460241 C39.6978471,45.6801613 38.9301682,45.9179031 38.1336757,45.9179031 C36.427494,45.9179031 34.9641705,44.851166 34.3673156,43.3502916 C32.9822006,42.7962498 31.9716636,41.4938382 31.8275952,39.9454155 C31.1998685,39.2156515 30.8458718,38.2750209 30.8458718,37.2868419 C30.8458718,36.3110668 31.1998685,35.3807728 31.8173046,34.6551435 C31.8131883,34.58072 31.8111302,34.5062964 31.8111302,34.4318729 C31.8111302,32.6271025 32.988375,31.0910837 34.6122319,30.5597825 C35.1226457,29.6542963 35.9644169,28.9762153 36.958489,28.6723193 C36.9214428,28.4531834 36.9029198,28.2319801 36.9029198,28.0066422 C36.9029198,27.1569737 37.164301,26.3445169 37.6376687,25.6705706 C37.5923901,25.4328288 37.5697507,25.1909523 37.5697507,24.9490759 C37.5697507,24.3640243 37.7055867,23.8120499 37.9278637,23.3096911 C36.5262838,22.4228108 34.9991585,21.7571337 33.4061734,21.3912181 C29.6048253,20.5167417 26.5279355,21.8418938 23.6568577,24.6472472 C22.7656916,25.5155216 21.9424435,26.4478829 21.1068467,27.3699077 L23.8770765,30.7355047 C22.4363924,31.4383935 21.3270655,32.0482529 20.6252465,32.4513803" id="Fill-145" fill="#FF932B"></path>
                            <polygon id="Fill-146" fill="#88A53A" points="8.93553498 65.6546076 115.745391 65.6546076 115.745391 62.0740093 8.93553498 62.0740093"></polygon>
                            <path d="M103.773306,14.3395894 L101.040122,14.769592 L102.359377,12.6340504 C102.57548,12.2846733 102.507562,11.8753439 102.159739,11.6355348 C101.834556,11.4329374 101.394119,11.552842 101.178016,11.9042864 L99.2310341,15.0528148 L98.2842988,15.1995945 L99.605612,13.0640529 C99.8217147,12.7146758 99.7640873,12.3156831 99.4059744,12.0655374 C99.0807914,11.8650073 98.6403536,11.9849119 98.424251,12.334289 L96.4752111,15.4828174 L95.5305339,15.6316644 L96.849789,13.4961228 C97.0658916,13.1467457 97.020613,12.7560222 96.6522094,12.4976072 C96.3249683,12.2950099 95.8845306,12.4169818 95.668428,12.7663588 L93.7214462,15.9148873 L92.776769,16.0637343 L94.0960241,13.9261254 C94.3121267,13.5788156 94.2771386,13.1963614 93.8963864,12.9276098 C93.5712034,12.7270798 93.1307657,12.8469843 92.914663,13.1984287 L90.9676812,16.3469572 L89.3849868,16.5929683 L92.7294322,11.5342361 L96.9238813,11.0174061 C97.3149242,10.9698577 97.6133516,10.6060094 97.5927704,10.2049493 C97.5701311,9.8018219 97.2367156,9.51653174 96.8436146,9.56614742 L93.7811317,9.94239967 L94.6126123,8.68340176 L98.8091195,8.16657175 C99.2001623,8.11902339 99.4985898,7.75310774 99.4759505,7.35204765 C99.4533111,6.95305488 99.1198957,6.66569739 98.7288528,6.71324576 L95.6663698,7.09156532 L96.4978504,5.83256742 L100.6923,5.3157374 C101.083342,5.26818904 101.383828,4.90434072 101.361189,4.50121331 C101.338549,4.10222054 101.005134,3.81486305 100.612033,3.86447873 L97.5495499,4.24073098 L99.570624,1.18316463 C99.7970172,0.839989506 99.7229249,0.389313736 99.4039163,0.176379771 C99.0849076,-0.0386215134 98.6403536,0.068879129 98.4139604,0.412054257 L96.3928863,3.4696206 L95.5511151,0.488545098 C95.4420347,0.10609089 95.0509919,-0.0923718346 94.6743559,0.0420039684 C94.2977199,0.178447091 94.0795591,0.596045741 94.1865814,0.976432629 L95.3411868,5.06145704 L94.5097062,6.32045495 L93.6658769,3.33937944 C93.5588547,2.95692523 93.1657537,2.75846251 92.7911758,2.89283831 C92.4124817,3.02928143 92.1943209,3.44688008 92.3034013,3.82726697 L93.4559487,7.91229138 L92.6244681,9.17128929 L91.7826969,6.19021378 C91.6736165,5.80775958 91.2825736,5.60929685 90.9059376,5.74573997 C90.5293016,5.88011578 90.3090828,6.29771443 90.4181631,6.67810131 L91.5727686,10.7631257 L88.2283232,15.8218579 L87.8413965,14.2630986 L89.9736092,11.236542 C90.2123511,10.8995688 90.1506075,10.4468258 89.8398313,10.2235552 C89.4796603,9.94653431 89.0824431,10.0891794 88.8457592,10.4261526 L87.3989007,12.476934 L87.1683912,11.5445727 L89.3006038,8.52008348 C89.5372877,8.18311031 89.4776022,7.73036722 89.166826,7.50502933 C88.8190037,7.23627773 88.4094377,7.37272085 88.1727539,7.7076267 L86.7258954,9.7604755 L86.4953859,8.82811416 L88.6275985,5.80155762 C88.8642823,5.46458445 88.8045968,5.01184136 88.4938207,4.78857079 C88.1192428,4.49914599 87.7364324,4.65419499 87.4997486,4.99116816 L86.05289,7.04194964 L85.8223806,6.1095883 L87.9545932,3.08509908 C88.191277,2.74812591 88.1315915,2.29538282 87.8187572,2.07004493 C87.4585862,1.78888941 87.061369,1.93773645 86.8246851,2.27470962 L85.3798847,4.3254911 L84.7109956,1.62763844 C84.614264,1.24311691 84.2314536,1.03018295 83.8507013,1.15422215 C83.4699491,1.27619404 83.2394396,1.68759072 83.3361713,2.07211225 L84.0050604,4.76996491 L81.8316853,3.88928657 C81.4756305,3.74457417 81.0537159,3.93476761 80.8911244,4.31101986 C80.747056,4.64385839 80.8520201,5.01390868 81.123692,5.19376552 C81.1607381,5.21857336 81.1998424,5.23924656 81.2410048,5.25578512 L84.4454981,6.55406211 L84.6780657,7.48849077 L82.5046907,6.60781243 C82.1486359,6.46310003 81.7267212,6.65122615 81.5641297,7.02954572 C81.4200613,7.36238425 81.5270835,7.73243454 81.7966973,7.91229138 C81.8337435,7.93709922 81.8728478,7.95777242 81.9160683,7.97431098 L85.1185034,9.27258797 L85.351071,10.2049493 L83.177696,9.32427097 C82.8216412,9.17955857 82.3997265,9.36975201 82.2391932,9.74600426 C82.0951247,10.0788428 82.2000889,10.4488931 82.4717608,10.6287499 C82.5088069,10.6535578 82.5479112,10.674231 82.5890736,10.6907695 L85.7935669,11.9890465 L86.0240763,12.9214079 L83.8507013,12.0407295 C83.4946465,11.8980844 83.07479,12.0862106 82.9121985,12.4645301 C82.7681301,12.7953013 82.8730942,13.1653516 83.1447661,13.3472758 C83.1818122,13.3700163 83.2209165,13.3906895 83.2620789,13.4072281 L86.4665722,14.7055051 L86.6970817,15.6399337 L84.5237067,14.7592554 C84.1676519,14.614543 83.7457372,14.8026691 83.5852038,15.1809887 C83.4411354,15.5138272 83.5460995,15.8838775 83.8177714,16.0637343 C83.8548176,16.0885422 83.8939219,16.1092154 83.9350843,16.1257539 L87.1395775,17.4240309 L87.2280767,17.77961 C87.2383673,17.825091 87.2630648,17.8602354 87.2815878,17.8995145 C87.2939366,17.928457 87.3042272,17.9573995 87.318634,17.9822073 C87.3680289,18.0607655 87.4297725,18.128987 87.5038648,18.1786027 C87.5779572,18.2282184 87.6643982,18.2571609 87.7549555,18.2736994 C87.7837692,18.2778341 87.814641,18.2757668 87.8455128,18.2757668 C87.8887333,18.2778341 87.9319538,18.2861034 87.9772325,18.2799014 L88.3394617,18.2240838 L90.7742179,20.6862619 C90.8050897,20.7172717 90.8380197,20.7462142 90.8750658,20.7710221 C91.1467377,20.9508789 91.5254318,20.9053979 91.7765225,20.6428482 C92.058485,20.3472215 92.0687756,19.8841418 91.7971037,19.6112555 L90.1464913,17.9408609 L91.0932266,17.7920139 L93.5279829,20.2541921 C93.5588547,20.2852019 93.5917846,20.3141443 93.6288308,20.3389522 C93.9005026,20.518809 94.2812549,20.473328 94.5302874,20.2107783 C94.814308,19.9151516 94.8225405,19.4520719 94.5529268,19.1791856 L92.9002562,17.508791 L93.8469915,17.359944 L96.2817478,19.8221222 C96.3126196,19.8551993 96.3476076,19.8841418 96.3825957,19.9068823 C96.6542676,20.0888064 97.0350198,20.0433254 97.2840524,19.7807758 C97.568073,19.4830817 97.5783636,19.020002 97.3066917,18.7471157 L95.6560792,17.0767211 L96.6007564,16.9299414 L99.0355127,19.3921196 C99.0684426,19.4231294 99.1013726,19.4520719 99.1384187,19.4768797 C99.4100906,19.6567366 99.7887847,19.6112555 100.037817,19.3487059 C100.321838,19.0530791 100.332128,18.5899994 100.060457,18.3171132 L98.4098442,16.6467186 L99.3565795,16.4978715 L101.791336,18.9600497 C101.822208,18.9931268 101.857196,19.020002 101.892184,19.0448098 C102.163856,19.226734 102.544608,19.1812529 102.79364,18.9187033 C103.077661,18.6210092 103.085893,18.1579295 102.81628,17.8850433 L101.163609,16.2146487 L103.898851,15.7867134 C104.289894,15.7267612 104.578031,15.3525762 104.543043,14.9535835 C104.508055,14.5525234 104.164348,14.2796371 103.773306,14.3395894" id="Fill-147" fill="#88A53A"></path>
                            <path d="M14.5229199,27.5704377 C14.8460448,27.8412566 15.088903,28.0231808 15.1300654,28.0562579 C16.3093683,28.2257781 17.4722063,28.4407794 18.5609519,28.6909252 C18.8902511,28.767416 19.196911,28.8501088 19.5138616,28.9328016 C19.8411027,29.0154944 20.1642276,29.1002545 20.4708875,29.187082 C20.8928022,29.3049192 21.3085424,29.4248238 21.6831203,29.5467957 C21.318833,29.1581395 20.9730688,28.7405408 20.6314209,28.3167402 C20.5676191,28.2402494 20.5058755,28.1637585 20.4441319,28.0852004 C18.9087742,26.1501888 17.4866131,24.0353204 15.362633,22.8445441 C12.8332032,21.4304972 9.64352836,21.7178546 7.0072821,22.8858905 C4.35786387,24.0539263 2.15402868,26.0013418 -3.4583059e-14,27.9322187 C3.29587381,29.7514603 5.07820596,33.8736965 8.65460156,35.0582709 C9.86642278,35.4572637 11.1373121,35.4551963 12.3907073,35.2133199 C13.736718,34.9528376 15.0642055,34.4153344 16.2784965,33.7744652 C17.2211156,33.2865776 18.7214853,32.5506117 19.999578,31.7588281 C20.5223405,31.4342589 21.0121731,31.1014203 21.403216,30.7685818 C21.0492193,30.6259367 20.6643508,30.479157 20.2609592,30.3344446 C19.6846856,30.1256453 19.0631332,29.9189133 18.4107091,29.7204505 C17.912644,29.5674689 17.4042883,29.4186218 16.8753514,29.2780441 C16.7765616,29.3173231 16.4719598,29.4496316 16.0603357,29.6708349 C15.5560963,29.9375191 14.9119046,30.3509832 14.3150498,30.8368034 C13.7264274,31.3288255 13.1769092,31.8870019 12.8105638,32.3335431 C12.4380441,32.7883535 12.2198833,33.1191247 12.2198833,33.1191247 C12.2198833,33.1191247 12.3948235,32.765613 12.7179484,32.2715235 C13.0328408,31.7732993 13.5164991,31.1365648 14.0639591,30.5639171 C14.6114191,29.9912695 15.2309133,29.4785741 15.7330946,29.1395336 C15.7927801,29.0940526 15.842175,29.0609754 15.8956861,29.0237637 C15.4552484,28.916263 15.0004038,28.8108297 14.5476173,28.7178003 C13.6214632,28.5276069 12.6994253,28.3766925 11.7876781,28.2567879 C11.7876781,28.2567879 11.7815037,28.2650572 11.7753293,28.2712592 C11.7568063,28.2795285 11.7465157,28.2939997 11.7279926,28.3043363 C11.7279926,28.3043363 11.4398557,28.4738566 11.0529291,28.7384735 C10.6608572,29.0113598 10.1599107,29.4227565 9.70444872,29.8920381 C8.86103103,30.73137 8.25491461,31.7753667 8.1452168,31.9572908 C8.220544,31.7588281 8.6809455,30.634206 9.41692931,29.6501617 C9.82505456,29.1064565 10.2831921,28.6040977 10.6542712,28.2547206 C10.7069591,28.2030376 10.7540901,28.1575566 10.8084244,28.1182775 C10.7754945,28.1162102 10.7427704,28.1141429 10.7156032,28.1038063 C9.47805549,27.9818344 8.32180352,27.888805 7.33020117,27.8701991 C6.32995472,27.8329873 5.49826831,27.8474586 4.91540865,27.8743337 C4.54515281,27.8846703 4.27944949,27.8950069 4.13661594,27.8970743 C4.27101119,27.8764011 4.54103657,27.8453913 4.91376215,27.8040449 C5.48674284,27.7440926 6.32542685,27.675871 7.32423262,27.6427939 C8.33435805,27.5931782 9.52477482,27.5828416 10.793606,27.6365919 L10.7649981,27.6138514 C10.4787136,27.2665416 10.1253343,26.7827888 9.79624088,26.2845646 C9.17777574,25.3542706 8.70070346,24.3474857 8.64204703,24.2296485 C8.71943235,24.3392165 9.34901135,25.2550392 10.0901405,26.0612941 C10.4822124,26.48096 10.8985701,26.8861548 11.2299275,27.1755796 C11.5551105,27.4588024 11.7712131,27.6448612 11.7712131,27.6448612 L11.7856199,27.6551978 C11.8000268,27.6676017 11.8000268,27.6800057 11.8144336,27.6924096 C12.5244851,27.7420253 13.2468853,27.8040449 13.9734018,27.8929396 C13.6585094,27.5228893 13.3045127,27.0391364 12.9937365,26.5202391 C12.3330799,25.4493673 11.9831995,24.252389 11.9358627,24.1076766 C12.0037807,24.2441197 12.5141945,25.3832131 13.3003965,26.3073051 C13.7099624,26.8117312 14.1627489,27.256205 14.5229199,27.5704377" id="Fill-148" fill="#88A53A"></path>
                            <path d="M18.6597417,19.1275026 C18.221362,20.6614541 18.3304424,22.4331474 19.0775401,23.8513289 C19.3080495,24.2833988 19.5200359,24.6100354 19.7196736,24.8374406 C19.7649522,23.942291 19.9296019,22.8342075 20.2012737,21.6930468 C20.2012737,21.6930468 20.2033319,21.6661716 20.1930413,21.6144886 C20.1848088,21.5483344 20.1868669,21.5090553 20.1724601,21.4242952 C20.1457045,21.2651116 20.0736703,21.0583796 19.9584155,20.8433783 C19.7464292,20.4175103 19.4562342,20.001979 19.4562342,20.001979 C19.4562342,20.001979 19.8616839,20.2686633 20.2589011,20.6159731 C20.3206447,20.6717907 20.3823883,20.7276083 20.4420738,20.7958299 C20.598491,20.2789999 20.7754893,19.7828431 20.9689526,19.3073595 C20.9504295,19.2742824 20.9401389,19.2350033 20.9380808,19.1895222 C20.9380808,19.1895222 20.9380808,19.0778869 20.9360227,18.9207706 C20.9277902,18.7574523 20.9030928,18.548653 20.8516397,18.3357191 C20.7569662,17.9201877 20.5367473,17.514993 20.5367473,17.514993 C20.5367473,17.514993 20.9010346,17.7920139 21.1871134,18.1765354 C21.2467988,18.2592282 21.2982518,18.3336517 21.3455886,18.4142772 C21.5514006,17.9656688 21.7530964,17.5563394 21.9527341,17.198693 C22.4158112,16.3758996 22.7945053,15.8342618 22.8871207,15.7040206 C22.8130284,15.8425311 22.5084266,16.4420539 22.1647205,17.3041263 C21.9733153,17.767206 21.7860264,18.3212478 21.6172605,18.9207706 L21.6296092,18.9352419 C21.7777939,18.8401451 21.934211,18.7409138 22.1070931,18.6602883 C22.4631479,18.4824988 22.8521327,18.3853347 23.1402695,18.3522576 C23.3604884,18.3295171 23.525138,18.3191805 23.5889397,18.3233151 C23.5169055,18.3398537 23.3646046,18.3749981 23.1608507,18.4328831 C22.8830045,18.5176432 22.5392984,18.6830288 22.2470453,18.9062994 C21.9465597,19.1192333 21.6954691,19.3900523 21.5452263,19.6071209 C21.4731921,19.7063522 21.4155647,19.7931797 21.3785185,19.8634686 C21.2879612,20.2479901 21.2035783,20.6387136 21.1397766,21.0397737 C21.0924398,21.3602083 21.0512774,21.6909795 21.0224637,22.0072795 C21.232392,21.8729036 21.4752502,21.7323259 21.728399,21.6310272 C22.4219855,21.3395351 23.1361533,21.3354004 23.302861,21.345737 C23.1382114,21.3808815 22.4528573,21.5566037 21.9074554,21.9638657 C21.5884468,22.1830017 21.3229493,22.4517533 21.1480091,22.6667545 C21.0698005,22.7742552 21.0039406,22.8672846 20.9545458,22.9355062 C20.9216158,23.6363276 20.9277902,24.2999374 20.9689526,24.8498445 C20.975127,24.9552778 20.9813013,25.0607112 20.9957082,25.1578752 C21.4773083,24.9180661 22.0083033,24.3536877 22.6998318,23.7086838 C23.115572,23.3076238 23.5436611,22.9065637 23.9120646,22.4496859 C25.9125575,19.9316901 25.4988753,15.8280598 23.0208985,13.7793457 C21.0204056,15.0135357 19.3101077,16.8575852 18.6597417,19.1275026" id="Fill-149" fill="#88A53A"></path>
                            <path d="M57.2906592,35.4035133 C57.1280677,35.4035133 56.9942899,35.2712049 56.9942899,35.1058193 C56.9942899,34.9404337 57.1280677,34.8081252 57.2906592,34.8081252 C57.9657226,34.8081252 58.5152408,34.2561507 58.5152408,33.5780697 C58.5152408,33.127394 58.2641501,32.7118626 57.8587004,32.494794 C57.74962,32.4369091 57.6878764,32.3190718 57.7043414,32.1950326 C57.714632,32.1164745 57.7208063,32.0833974 57.7208063,32.0503202 C57.7187482,31.2419981 56.9778249,30.582523 56.0907751,30.8967556 C55.9899272,30.9298328 55.8746725,30.9091596 55.7923476,30.8368034 C55.5638963,30.628004 55.2737013,30.5143014 54.9752739,30.5143014 C54.3002104,30.5143014 53.7506923,31.0662759 53.7506923,31.7443569 C53.7506923,31.8870019 53.6519026,32.029647 53.5119504,32.0565222 C52.9377348,32.1681575 52.5199364,32.6746509 52.5199364,33.2617698 C52.5199364,33.5904737 52.6475399,33.9005717 52.8801075,34.1321115 C52.9953622,34.2499488 52.9953622,34.4380749 52.8801075,34.5538448 C52.7627946,34.6716821 52.5734475,34.6696147 52.4581928,34.5538448 C52.1165448,34.206535 51.9271978,33.7496573 51.9271978,33.2617698 C51.9271978,32.4679189 52.4396697,31.7732993 53.1723605,31.5314229 C53.283499,30.6156001 54.0491198,29.9168459 54.9752739,29.9168459 C55.3642586,29.9168459 55.7408946,30.0470871 56.0578452,30.2827616 C57.23509,29.9705963 58.313545,30.898823 58.313545,32.0503202 C58.313545,32.0585895 58.313545,32.0668588 58.313545,32.0771954 C58.809552,32.4141686 59.1100375,32.9744123 59.1100375,33.5780697 C59.1100375,34.5848546 58.2950219,35.4035133 57.2906592,35.4035133 Z M54.977332,49.4302799 C54.9690995,49.5915308 54.8373798,49.7135027 54.6830208,49.7135027 C54.6768465,49.7135027 54.6706721,49.7135027 54.6644977,49.7135027 C54.4998481,49.7031661 54.3763609,49.5625883 54.3845934,49.3972027 C54.4833831,47.64825 54.7241832,46.3665115 55.1913765,45.1116483 C55.2490039,44.9565993 55.4177698,44.8780411 55.5721288,44.9379934 C55.7264878,44.993811 55.8046964,45.1674659 55.747069,45.3225149 C55.302515,46.5153586 55.0740637,47.745414 54.977332,49.4302799 Z M53.4831367,41.3222506 C53.3966956,41.3966742 53.2752665,41.41528 53.1723605,41.3718663 C53.0673964,41.3263853 52.9974203,41.2271539 52.9912459,41.1134513 C52.9644904,40.6317657 52.5713894,40.2555135 52.0939055,40.2555135 C51.6802233,40.2555135 51.3200523,40.5408037 51.2212625,40.9480657 C51.2006813,41.0286912 51.1471702,41.0989801 51.0730779,41.1382592 C50.9969274,41.1775382 50.9084282,41.1858075 50.8302197,41.156865 C50.1798537,40.9191232 49.6200449,41.4049434 49.6200449,42.0044663 C49.6200449,42.2773525 49.7394159,42.5316329 49.9493442,42.7052877 C50.0748895,42.8086538 50.0934126,42.9988472 49.9884485,43.1249537 C49.8834843,43.2531276 49.6961954,43.2696661 49.5706501,43.1642328 C49.2248858,42.8768753 49.0252482,42.455142 49.0252482,42.0044663 C49.0252482,41.1010474 49.8340894,40.3609468 50.7437786,40.5201305 C50.9886949,40.0012331 51.5073412,39.6601253 52.0939055,39.6601253 C52.7257484,39.6601253 53.2711503,40.0570508 53.4872529,40.6214291 C53.6704256,40.542871 53.8700633,40.5015246 54.069701,40.5015246 C54.8950072,40.5015246 55.5680125,41.1754709 55.5680125,42.0044663 C55.5680125,42.6267296 55.1790278,43.191108 54.600696,43.4123112 C54.565708,43.4247151 54.5307199,43.4309171 54.4957319,43.4309171 C54.3763609,43.4309171 54.2631643,43.3585609 54.2178856,43.2386563 C54.1602583,43.0856746 54.2364087,42.9120198 54.3907677,42.8541348 C54.7385901,42.7218263 54.9732158,42.3807185 54.9732158,42.0044663 C54.9732158,41.5041748 54.5677661,41.0969128 54.069701,41.0969128 C53.7980291,41.0969128 53.6004495,41.2188846 53.4831367,41.3222506 Z M62.6047257,41.628214 C61.7485477,41.628214 60.9685201,41.0431624 60.7565337,40.1707534 C60.5486636,39.3169502 60.9582295,38.4424738 61.7094434,38.0393464 C61.6703391,37.9442497 61.6374092,37.8512203 61.6147699,37.7561236 C61.3657373,36.7328001 61.993464,35.6970728 63.0122336,35.4448597 C63.8272492,35.2443297 64.6649041,35.61438 65.0868188,36.3193361 C65.1917829,36.2697204 65.3008633,36.2325087 65.4120018,36.2056335 C66.1982037,36.0092381 66.9905801,36.3482786 67.4269016,36.9829459 C67.53804,37.1462641 67.6244811,37.3281883 67.6821085,37.526651 C67.6903409,37.5535262 67.7026897,37.5804014 67.7109221,37.6093438 C67.8055957,37.998 67.7788401,38.3990601 67.6327136,38.7691104 C67.57097,38.9220921 67.400146,38.9985829 67.245787,38.934496 C67.2087408,38.9200247 67.194334,38.8848803 67.1675784,38.8580051 C67.0831955,38.7773797 67.0338006,38.6636771 67.0790792,38.5479071 C67.1799271,38.2936268 67.1984502,38.0186732 67.1346485,37.7499216 C67.1181835,37.6775654 67.0729049,37.6238151 67.0461493,37.5576608 C66.7991749,36.9788112 66.1837969,36.6335688 65.551954,36.7844831 C65.4058274,36.8216949 65.261759,36.8857818 65.1259231,36.9808785 C65.0497726,37.0304942 64.953041,37.0449655 64.868658,37.0180903 C64.782217,36.9912151 64.7122409,36.9250609 64.679311,36.8403008 C64.4467434,36.2180374 63.7881449,35.872795 63.1521857,36.0237094 C62.4524248,36.1973642 62.0202196,36.9105897 62.1910436,37.6155458 C62.2239735,37.7499216 62.2857171,37.8863647 62.3742163,38.0207405 C62.4256693,38.0972314 62.438018,38.1964627 62.4050881,38.2853575 C62.3742163,38.3721849 62.3042402,38.4424738 62.215741,38.469349 C61.5571425,38.676081 61.172274,39.3624312 61.3328074,40.0301756 C61.5036314,40.7351317 62.2177991,41.1672016 62.9155019,40.9956141 C63.0719191,40.950133 63.2365687,41.0555664 63.2736148,41.21475 C63.3127191,41.3739336 63.2159875,41.5351846 63.0554541,41.5744637 C62.9052113,41.6116754 62.7549685,41.628214 62.6047257,41.628214 Z M48.3049061,31.7650301 C48.3049061,31.5996445 48.4386839,31.467336 48.6012754,31.467336 C49.4698022,31.467336 50.1757374,30.7561779 50.1757374,29.8858361 C50.1757374,29.0134271 49.4698022,28.3043363 48.6012754,28.3043363 C48.4716138,28.3043363 48.3316616,28.3270768 48.1628958,28.3766925 C48.080571,28.4015004 47.9920718,28.3870291 47.9220957,28.3436154 C47.8500615,28.2981344 47.8006666,28.2237108 47.7862598,28.141018 C47.6565982,27.3781769 47.0062322,26.8262025 46.2406114,26.8262025 C45.5573155,26.8262025 44.9584025,27.2706763 44.7484742,27.9301514 C44.6990794,28.0831331 44.5406041,28.1720278 44.3862451,28.1265468 C44.2298279,28.0852004 44.0960501,28.0645272 43.9705048,28.0645272 C43.6885423,28.0645272 43.427161,28.1451527 43.1987097,28.2753938 C43.1493148,28.3043363 43.0999199,28.3312115 43.0525831,28.3663559 C42.6574241,28.6537134 42.3960428,29.1188604 42.3960428,29.6439597 C42.3960428,29.6791041 42.4042753,29.7121813 42.4063334,29.7473257 C42.4083915,29.7597296 42.4083915,29.7742009 42.4104496,29.7866048 C42.416624,29.8382878 42.416624,29.8899708 42.4248565,29.9375191 C42.451612,30.0822315 42.3713453,30.2228093 42.2355094,30.272425 C41.6180733,30.4998302 41.202333,31.0952184 41.202333,31.7505588 C41.202333,32.4865248 41.7086306,33.1025861 42.3898684,33.2783083 C42.5154138,33.3093181 42.6430172,33.3320587 42.776795,33.3320587 C42.9023404,33.3320587 43.0258276,33.3175874 43.1431404,33.2886449 C43.3057319,33.2431639 43.4621491,33.3485972 43.5012534,33.5077809 C43.5403576,33.6690318 43.443626,33.8282155 43.2830926,33.8674946 C43.118443,33.908841 42.9496771,33.9274468 42.776795,33.9274468 C42.4022171,33.9274468 42.0543948,33.8240808 41.7456768,33.6545606 C41.0726714,33.2845103 40.6095944,32.5754195 40.6095944,31.7505588 C40.6095944,31.7216163 40.619885,31.6968085 40.6219431,31.667866 C40.6281175,31.4714706 40.6589893,31.2792099 40.7186748,31.0972857 C40.7248491,31.0745452 40.739256,31.053872 40.7474884,31.0311315 C40.8503944,30.7417066 41.012986,30.4812243 41.2249723,30.2600211 C41.3937382,30.0822315 41.5851434,29.9209806 41.8094785,29.8093453 C41.8053623,29.755595 41.8033041,29.6997773 41.8033041,29.6439597 C41.8033041,29.5674689 41.817711,29.4930453 41.8259435,29.4186218 C41.8280016,29.3958813 41.8300597,29.3731408 41.8321178,29.3524676 C41.9144426,28.7405408 42.2437419,28.2113069 42.7232839,27.8701991 C42.8652942,27.7689004 43.0217113,27.6841403 43.186361,27.6200534 C43.4292192,27.5249567 43.6926585,27.4670717 43.9705048,27.4670717 C44.0713527,27.4670717 44.1742587,27.475341 44.2812809,27.4939469 C44.6332195,26.7269711 45.3885497,26.2308143 46.2406114,26.2308143 C47.191463,26.2308143 48.012653,26.8468757 48.2966736,27.733756 C48.4036959,27.7172174 48.5024856,27.7089481 48.6012754,27.7089481 C49.7970433,27.7089481 50.7684761,28.6847232 50.7684761,29.8858361 C50.7684761,31.0869491 49.7970433,32.0627242 48.6012754,32.0627242 C48.4386839,32.0627242 48.3049061,31.9304157 48.3049061,31.7650301 Z M46.5884338,39.7180103 C46.4258423,39.7180103 46.2920645,39.5857018 46.2920645,39.4203162 C46.2920645,39.2549306 46.4258423,39.1205548 46.5884338,39.1205548 C47.2387998,39.1205548 47.7656786,38.5913209 47.7656786,37.9380477 C47.7656786,37.2868419 47.2387998,36.7555407 46.5884338,36.7555407 C46.3105875,36.7555407 46.0409738,36.860974 45.8248712,37.0470328 C45.822813,37.0511674 45.8186968,37.0511674 45.8145806,37.0532347 C45.7404882,37.1214563 45.6375822,37.1421295 45.5429087,37.119389 C45.446177,37.0945811 45.3700266,37.0201576 45.3370966,36.9271282 C45.1745051,36.44751 44.727893,36.1229407 44.2277698,36.1229407 C43.5774038,36.1229407 43.050525,36.654242 43.050525,37.3054478 C43.050525,37.4046792 43.06699,37.5080452 43.101978,37.6341517 C43.134908,37.7478543 43.0978618,37.8698262 43.0073045,37.946317 C42.9146891,38.0228078 42.7870856,38.0372791 42.6821215,37.9814614 C41.8815127,37.5679974 40.9718235,38.1964627 40.9718235,39.0295927 C40.9718235,39.6828658 41.5007605,40.2141671 42.1511265,40.2141671 C42.3096017,40.2141671 42.4639607,40.18109 42.6080292,40.1211377 C42.7582719,40.0591181 42.9332122,40.1273397 42.9970139,40.2803213 C43.0608156,40.4312357 42.9908395,40.6048906 42.8405968,40.6710448 C42.6203779,40.7640742 42.3878103,40.8095553 42.1511265,40.8095553 C41.1735193,40.8095553 40.3790849,40.0115697 40.3790849,39.0295927 C40.3790849,38.0476157 41.1735193,37.2516975 42.1511265,37.2516975 C42.2519744,37.2516975 42.3548804,37.2599667 42.4557283,37.2785726 C42.4701351,36.3110668 43.2583952,35.5275525 44.2277698,35.5275525 C44.8513803,35.5275525 45.4194215,35.8583238 45.736372,36.383423 C45.7487207,36.3751538 45.7631275,36.3730864 45.7754763,36.3668845 C46.0265669,36.234576 46.3044132,36.1580852 46.5884338,36.1580852 C47.5660409,36.1580852 48.3604753,36.958138 48.3604753,37.9380477 C48.3604753,38.9200247 47.5660409,39.7180103 46.5884338,39.7180103 Z M55.1460979,25.3976843 C55.1460979,25.4059536 55.1378654,25.4100882 55.1378654,25.4204248 C55.1234586,25.5734065 55.0040876,25.6953784 54.8497286,25.6953784 C54.7797525,25.6953784 54.720067,25.6623013 54.668614,25.6209549 C54.600696,25.5651373 54.5533592,25.4907137 54.5533592,25.3976843 C54.5533592,24.5500831 55.0431919,23.8203191 55.7491271,23.4606054 C55.8787887,23.3965185 56.0125665,23.3427682 56.1545768,23.3055564 C56.1957392,23.2931525 56.2327854,23.276614 56.2718897,23.2683447 C56.3562726,23.2497388 56.4447718,23.2476715 56.5312128,23.2394022 C56.5950145,23.2332002 56.6547,23.2207963 56.7205599,23.2207963 C56.9819412,23.2207963 57.2309737,23.2807486 57.4676575,23.3696434 C57.8751654,23.522625 58.2373945,23.7851747 58.4926014,24.155225 C58.7786802,24.0208492 59.0894563,23.9505603 59.408465,23.9505603 C59.8427283,23.9505603 60.2461199,24.0828688 60.5877679,24.304072 C61.1084723,24.6451798 61.4665852,25.2054236 61.5468519,25.8524947 C61.5592006,25.9434568 61.5756656,26.0323516 61.5756656,26.1274483 C61.5756656,26.3734594 61.5324451,26.6174032 61.446004,26.855145 C61.890558,27.2127913 62.1622299,27.727554 62.2301479,28.2898651 C62.2404385,28.3766925 62.2610197,28.4614526 62.2610197,28.5503474 C62.2610197,29.1560722 62.0119871,29.7018447 61.6147699,30.0967028 C61.223727,30.4874263 60.6865577,30.7293027 60.0917609,30.7293027 C59.9271113,30.7293027 59.7953916,30.5949269 59.7953916,30.4295413 C59.7953916,30.266223 59.9271113,30.1318472 60.0917609,30.1318472 C60.9602876,30.1318472 61.6662229,29.4227565 61.6662229,28.5503474 C61.6662229,28.0045749 61.3863185,27.5042835 60.9211834,27.2127913 C60.7894637,27.1300985 60.7421269,26.9626456 60.8100449,26.8262025 C60.9252996,26.5987973 60.9808689,26.3631228 60.9808689,26.1274483 C60.9808689,25.2550392 60.2749336,24.5459485 59.408465,24.5459485 C59.1038632,24.5459485 58.8054357,24.6369105 58.5481707,24.8064308 C58.4781946,24.8539792 58.3917535,24.8663831 58.3094287,24.8436426 C58.2271039,24.8229694 58.159186,24.7650844 58.1200817,24.6906609 C57.8484098,24.1510903 57.3132985,23.8161845 56.7205599,23.8161845 C56.5538521,23.8161845 56.3953769,23.8492616 56.2451341,23.8988773 C55.6112331,24.1014747 55.1460979,24.6927282 55.1460979,25.3976843 Z M70.8886599,36.3999616 C70.977159,36.286259 71.0533095,36.1601525 71.1212274,36.0299113 C71.131518,36.0113054 71.1438668,35.9906322 71.1520992,35.969959 C71.2097266,35.8521218 71.250889,35.7260153 71.2858771,35.5978414 C71.2941095,35.5647643 71.3085164,35.5337545 71.3167489,35.5006774 C71.3517369,35.3414937 71.3723181,35.1761081 71.3723181,35.0045206 C71.3723181,34.8474043 71.3579113,34.6944226 71.3270395,34.5455755 C71.267354,34.2478814 71.147983,33.9729279 70.9853915,33.7310514 C70.9030667,33.6090795 70.8104513,33.4953769 70.7075453,33.3920109 C70.4173503,33.1005188 70.0448305,32.8917195 69.6290902,32.7924881 C69.4603244,32.7511417 69.2853842,32.7242666 69.1022115,32.7242666 C69.0980952,32.7242666 69.0919209,32.7263339 69.0857465,32.7263339 C69.0898627,32.6725836 69.1022115,32.6229679 69.1022115,32.5671502 C69.1022115,32.4100339 69.0878046,32.2570522 69.0569328,32.1082052 C69.026061,31.9593582 68.9807824,31.8167131 68.9252131,31.6802699 C68.5794489,30.8616112 67.7726658,30.2868962 66.8321048,30.2868962 C66.6921526,30.2868962 66.5583748,30.3034348 66.4266551,30.3282426 C66.2990516,30.3530505 66.1755644,30.3881949 66.0561934,30.433676 C66.1014721,30.2517518 66.1323439,30.065693 66.1323439,29.8713649 C66.1323439,29.6480943 66.0932396,29.4372277 66.031496,29.2346303 C66.0212054,29.1974186 66.0109148,29.1581395 65.9985661,29.1209277 C65.9265319,28.922465 65.8359746,28.7302042 65.7166036,28.560684 C65.8359746,28.4552507 65.9429968,28.3415481 66.0397285,28.2154415 C66.0397285,28.2133742 66.0417866,28.2113069 66.0417866,28.2113069 C66.1302858,28.0934697 66.2043781,27.9673631 66.270238,27.8350547 C66.2784704,27.8205834 66.2867029,27.8061122 66.2928773,27.7916409 C66.3484465,27.6717364 66.3896089,27.5456299 66.424597,27.4153887 C66.4307713,27.3864462 66.4431201,27.359571 66.4492944,27.3306286 C66.4842825,27.1735122 66.5048637,27.0122613 66.5048637,26.8448084 C66.5048637,26.6174032 66.4616431,26.4024019 66.3998995,26.1977372 C66.3896089,26.1584581 66.3772602,26.119179 66.3649115,26.0798999 C66.2908192,25.8793699 66.1961456,25.6871091 66.0726584,25.5155216 C66.0685422,25.5093196 66.0623678,25.505185 66.0582516,25.498983 C65.7865797,25.1268654 65.4078856,24.8477772 64.9653897,24.6947955 C65.0024359,24.5852275 65.0353658,24.4715249 65.055947,24.3536877 C65.0765282,24.2275812 65.0929932,24.0994073 65.0929932,23.9670989 C65.0929932,22.7081009 64.0783399,21.6868448 62.8228865,21.6868448 C62.8228865,21.2154959 62.6808762,20.7751567 62.4359599,20.4113084 C62.0284521,19.8055836 61.3369237,19.4065908 60.5527798,19.4065908 C60.5466055,19.4065908 60.5404311,19.4086582 60.5342568,19.4086582 C60.3819559,19.4086582 60.2317131,19.4251967 60.0876447,19.4562065 C60.0650053,19.4603412 60.0444241,19.4706778 60.0238429,19.4748124 C59.8941813,19.5058222 59.768636,19.543034 59.6513232,19.5967843 C59.6430907,19.5988516 59.6389744,19.6029862 59.630742,19.6071209 C59.3611282,19.7270254 59.1203281,19.898613 58.9186323,20.111547 C58.7292853,19.7518333 58.4534972,19.4479372 58.1118492,19.2350033 C58.0995005,19.2246667 58.0830355,19.220532 58.0706868,19.2122628 C57.9286765,19.1254353 57.7743175,19.0592811 57.6137841,19.0055307 C57.5705636,18.9910595 57.5294012,18.9765883 57.4841225,18.9662517 C57.3030079,18.916636 57.1136609,18.8835589 56.9160813,18.8835589 C55.8191032,18.8835589 54.9032397,19.6670732 54.6912533,20.7048678 C54.6603815,20.8537149 54.6459746,21.0066965 54.6459746,21.1658802 C54.6459746,21.1989573 54.6542071,21.2320344 54.6562652,21.2671789 C54.4525113,21.2072266 54.2425831,21.1658802 54.0203061,21.1658802 C54.018248,21.1658802 54.0161898,21.1658802 54.0141317,21.1658802 C53.8680052,21.1658802 53.7239368,21.1824188 53.5860427,21.2092939 C53.5345897,21.2196305 53.4872529,21.2361691 53.437858,21.2506403 C53.351417,21.2733808 53.2649759,21.2981887 53.1826511,21.3291985 C53.1229656,21.3540063 53.0673964,21.3850161 53.009769,21.4139586 C52.9459673,21.4449684 52.8801075,21.4780455 52.8183638,21.5173246 C52.7566202,21.5566037 52.6989929,21.6000174 52.6413655,21.6454984 C52.5940287,21.6827102 52.546692,21.719922 52.5014133,21.7612684 C52.4417278,21.817086 52.3841005,21.874971 52.3305893,21.9349233 C52.2976594,21.972135 52.2667876,22.0114141 52.2359158,22.0506932 C52.1803466,22.1230494 52.1288936,22.1954056 52.0815568,22.2739637 C52.0609756,22.3070409 52.0445106,22.3421853 52.0259875,22.3773297 C51.9786508,22.4662245 51.9354302,22.5571866 51.8983841,22.6522833 C51.8901516,22.6770911 51.8839772,22.701899 51.8757448,22.7267068 C51.8407567,22.8342075 51.8078268,22.9437754 51.7893037,23.0595454 L51.7872456,23.0595454 C51.6843396,22.9417081 51.571143,22.8342075 51.4455976,22.7411781 C51.4455976,22.7391107 51.4435395,22.7391107 51.4435395,22.7391107 C51.3262266,22.650216 51.2006813,22.5757925 51.0689616,22.5117055 C51.0545548,22.5055036 51.0442642,22.4972343 51.0319154,22.4910323 C50.9125445,22.4352147 50.784941,22.3959356 50.6532213,22.3607912 C50.6264658,22.3545892 50.6038264,22.3421853 50.5750127,22.3380507 C50.4206537,22.3029062 50.2601203,22.2843003 50.0954707,22.2843003 C49.8814262,22.2843003 49.6776723,22.3235794 49.4821509,22.3773297 C49.2928038,22.023818 49.0190738,21.7240566 48.679484,21.5111226 C48.6650771,21.5028534 48.6486122,21.4966514 48.6321472,21.4863148 C48.492195,21.403622 48.3398941,21.3374678 48.183477,21.2857848 C48.1402565,21.2713135 48.0990941,21.2568423 48.0538154,21.2465057 C47.8727008,21.1989573 47.6854119,21.1658802 47.4878323,21.1658802 C47.4754836,21.1658802 47.4672511,21.1679475 47.4549024,21.1679475 C47.3149502,21.1700148 47.1749981,21.1824188 47.0412202,21.2092939 C46.9239074,21.2341018 46.8127689,21.2713135 46.7036885,21.3126599 C46.6810492,21.3209292 46.6542936,21.3271312 46.6316543,21.3354004 C46.3682149,21.4429011 46.1315311,21.6020847 45.9277772,21.7943455 C45.7260814,21.6020847 45.4893975,21.4429011 45.2259582,21.3354004 C45.2012607,21.3250638 45.1745051,21.3209292 45.1498077,21.3126599 C45.0427854,21.2713135 44.931647,21.2341018 44.8163922,21.2092939 C44.6826144,21.1824188 44.5426622,21.1700148 44.40271,21.1679475 C44.3903613,21.1679475 44.3800707,21.1658802 44.3697801,21.1658802 C44.3347921,21.1658802 44.3039203,21.1720822 44.2689322,21.1741495 C44.077527,21.1844861 43.8902381,21.2196305 43.7132398,21.2733808 C43.6761936,21.2837174 43.6391474,21.294054 43.6021013,21.3085253 C43.3983473,21.3829488 43.204884,21.4821802 43.0320019,21.610354 C43.0237695,21.616556 43.015537,21.6248252 43.0073045,21.6330945 C42.6368428,21.9121827 42.3589966,22.3029062 42.2169863,22.7577166 C42.2149282,22.7577166 42.2149282,22.7577166 42.2149282,22.7577166 C42.0255811,22.7060336 41.8300597,22.6688219 41.6221896,22.6688219 C40.5663739,22.6688219 39.6854984,23.3985858 39.4323496,24.3805629 C39.3850128,24.562487 39.3520829,24.7526805 39.3520829,24.9490759 C39.3520829,25.1496059 39.3850128,25.3418667 39.4344077,25.5279255 C39.4426402,25.556868 39.4529308,25.5858105 39.4632214,25.6168203 C39.5187906,25.7925425 39.5887667,25.9620627 39.6813821,26.1171117 L39.6834403,26.1171117 L39.6813821,26.119179 C39.5434881,26.2122084 39.422059,26.3238437 39.3068042,26.4437483 C39.2738743,26.48096 39.2430025,26.5223064 39.2121307,26.5615855 C39.1359803,26.6525476 39.0680623,26.7476443 39.0083768,26.848943 C38.9795631,26.8985587 38.9528076,26.9502417 38.926052,27.0019247 C38.874599,27.107358 38.8313785,27.2189933 38.7963904,27.3326959 C38.7819836,27.3823116 38.7614024,27.4319273 38.7490537,27.4856776 C38.7099494,27.6531305 38.6852519,27.8267854 38.6852519,28.0066422 C38.6852519,28.1782298 38.7058331,28.3436154 38.7428793,28.502799 C38.7490537,28.5358762 38.7634605,28.566886 38.771693,28.5999631 C38.806681,28.7302042 38.8499015,28.8563108 38.9054708,28.9762153 C38.9157614,28.9968885 38.9281101,29.0154944 38.9404588,29.0361676 C39.0063187,29.1664088 39.0824691,29.2925153 39.1730264,29.4062179 C39.1792008,29.4124199 39.183317,29.4186218 39.1894914,29.4248238 C39.2882812,29.548863 39.4014778,29.6625656 39.524965,29.7659316 C39.4097103,29.858961 39.3047461,29.9643943 39.2121307,30.0780969 C39.1174572,30.1938668 39.0351324,30.317906 38.9630982,30.4502145 C38.9630982,30.4502145 38.96104,30.4502145 38.96104,30.4481472 C38.8334366,30.3985315 38.7017169,30.3592524 38.5638228,30.33031 C38.4259288,30.3034348 38.2818603,30.2868962 38.1336757,30.2868962 C37.985491,30.2868962 37.8414226,30.3034348 37.6994123,30.33031 C37.6520755,30.3406466 37.6067969,30.3571851 37.5594601,30.369589 C37.470961,30.3923296 37.3804037,30.4171374 37.2960207,30.4522818 C37.2404515,30.4750224 37.1889985,30.5018975 37.1354874,30.5287727 C37.0655113,30.5639171 36.9975933,30.5990616 36.9317334,30.640408 C36.8741061,30.6755524 36.8226531,30.7148315 36.7691419,30.7561779 C36.7156308,30.7975243 36.6621197,30.8388707 36.6127248,30.886419 C36.5592137,30.9360347 36.5057026,30.9877177 36.4583658,31.0414681 C36.4172034,31.0848818 36.3801572,31.1324301 36.343111,31.1799785 C36.2957743,31.2419981 36.2484375,31.306085 36.2072751,31.3743066 C36.1784614,31.4197876 36.1558221,31.467336 36.1311247,31.512817 C36.0920204,31.5893079 36.050858,31.667866 36.0199862,31.7484915 C36.0055793,31.7877706 35.9952887,31.829117 35.98294,31.8704634 C35.9541263,31.9634928 35.9232545,32.0565222 35.9047314,32.1557536 C35.8903246,32.1557536 35.8779759,32.1516189 35.863569,32.1516189 C35.7071519,32.1516189 35.5527929,32.1681575 35.4066663,32.1971 C35.2584817,32.2281098 35.1144132,32.2735908 34.9806354,32.3314758 C34.6328131,32.4782555 34.3385019,32.7159973 34.1059343,33.0054221 C33.7910419,33.3961456 33.5934624,33.8881678 33.5934624,34.4318729 C33.5934624,34.4504788 33.5975786,34.4670174 33.5975786,34.4835559 C33.6016948,34.6220664 33.6119854,34.7585095 33.638741,34.890818 C33.6654966,35.0189918 33.706659,35.1409637 33.7519376,35.2608683 C33.7601701,35.2794741 33.7622282,35.29808 33.7704607,35.3166859 C33.4370452,35.5089467 33.159199,35.7797656 32.9616194,36.1105368 C32.9472126,36.1332773 32.9348639,36.1580852 32.9225152,36.1808257 C32.8484228,36.3131342 32.7887373,36.4537119 32.7434587,36.5984243 C32.7290518,36.6439054 32.7125869,36.6852518 32.7022963,36.7307328 C32.6570176,36.9085223 32.6261458,37.0925138 32.6261458,37.2868419 C32.6261458,37.4666988 32.6529014,37.6403536 32.6920057,37.8098739 C32.7043544,37.8615569 32.7228775,37.9111726 32.7393424,37.9607882 C32.7743305,38.0765582 32.817551,38.1881934 32.8710621,38.2956941 C32.8957596,38.3453098 32.9225152,38.3969928 32.9513288,38.4445411 C33.0130724,38.5479071 33.0830485,38.6450712 33.159199,38.7381006 C33.1900708,38.7753123 33.2188845,38.8145914 33.2518144,38.8497359 C33.3670691,38.9717077 33.4926145,39.0854103 33.6325666,39.1784398 C33.6099273,39.3066136 33.5934624,39.4347874 33.5934624,39.5670959 C33.5934624,40.0384449 33.7354727,40.4767167 33.980389,40.8426324 C34.2253053,41.2064807 34.5731276,41.4938382 34.9806354,41.6674931 C35.1144132,41.725378 35.2584817,41.7708591 35.4066663,41.8018689 C35.5527929,41.8308114 35.7071519,41.8473499 35.863569,41.8473499 C35.863569,42.5564407 36.1846358,43.1890406 36.6888753,43.6066393 C36.8576411,43.7472171 37.0469882,43.8609197 37.2507421,43.9477471 C37.522414,44.063517 37.8208414,44.1276039 38.1336757,44.1276039 C38.3044997,44.1276039 38.4691493,44.1069307 38.6276246,44.069719 C38.6626126,44.0614497 38.6934844,44.0490458 38.7264143,44.0387092 C38.8540178,44.0035647 38.9795631,43.9622183 39.096876,43.9043334 C39.1195153,43.8939968 39.1380384,43.8815929 39.1606777,43.8712563 C39.2882812,43.8030347 39.4117684,43.7265439 39.524965,43.6355818 C39.5331975,43.6314471 39.5393718,43.6252452 39.5455462,43.6211105 C39.6710915,43.5198118 39.78223,43.4081766 39.885136,43.28207 C40.2823533,43.391638 40.6857448,43.488802 41.0891364,43.5859661 C41.3669826,43.6521203 41.6427708,43.7182746 41.9185589,43.7864961 C42.0008837,43.8071693 42.0832085,43.8278425 42.1655333,43.8505831 C42.4804257,43.9312085 42.7912019,44.018036 43.0958037,44.1131327 C43.1410823,44.1276039 43.1843028,44.1441425 43.2295815,44.1586137 C43.5506482,44.2640471 43.8614244,44.3777497 44.1577937,44.5100581 C44.3944776,44.6175588 44.6023477,44.7643385 44.8246247,44.890445 C45.5223275,45.2853032 46.1706354,45.7401136 46.7242697,46.292088 C47.2264511,46.7944468 47.6463076,47.3691618 48.029118,47.9707519 C48.7535763,49.1139799 49.2804551,50.3957183 49.5583013,51.7415437 C49.6632655,52.2563064 49.7373578,52.777271 49.7764621,53.3023703 C49.8155664,53.8254023 49.8237988,54.3505016 49.7949852,54.8735335 C49.792927,54.9376205 49.792927,55.0079093 49.7991014,55.0781982 C49.8052758,55.1484871 49.8155664,55.2208433 49.8340894,55.2869975 C49.8670194,55.419306 49.9225886,55.528874 50.0049134,55.5784897 C50.0604827,55.6115668 50.1284006,55.6177688 50.2086673,55.5846916 L51.1142403,55.5846916 C51.110124,53.2031389 50.8322778,50.7926438 50.2868759,48.3842159 C50.1942605,47.9790212 50.11811,47.5717591 50.0110878,47.1665644 C49.8958331,46.7324272 49.7620552,46.2817514 49.4965577,45.9468456 C49.3936517,45.8186717 49.4142329,45.6305456 49.5438945,45.5271796 C49.6714979,45.4238136 49.8587869,45.4465541 49.9596348,45.574728 C50.2992246,45.9985286 50.4535836,46.5194932 50.5853033,47.0135827 C51.1821582,49.2731635 51.5320387,51.5430809 51.6637584,53.7943925 C51.6966883,54.3939153 51.7069789,54.9893035 51.709037,55.5846916 L52.9850716,55.5846916 C52.9953622,54.9893035 52.9953622,54.391848 52.9871297,53.7943925 C52.9562579,51.1606267 52.736039,48.526861 52.0403944,46.1184331 C51.9951157,45.9592495 52.085673,45.7938639 52.2441483,45.7483829 C52.3985073,45.6966999 52.5652151,45.7938639 52.6125518,45.9509802 C53.3267196,48.4255623 53.5510547,51.1130784 53.5819265,53.7943925 C53.5881008,54.391848 53.5881008,54.9893035 53.5778102,55.5846916 L54.9732158,55.5846916 C54.9855645,54.9686303 55.0164363,54.3732421 55.0596568,53.7943925 C55.302515,50.5776425 56.0352058,47.9438767 57.2803686,45.8104025 C57.3626934,45.6677574 57.5458661,45.6222763 57.6858183,45.7049691 C57.8278286,45.7876619 57.8751654,45.9695861 57.7928405,46.1122312 C57.6034935,46.4368004 57.4285533,46.7758409 57.2639036,47.125218 C56.1957392,49.3847988 55.6359305,52.1736136 55.5680125,55.5846916 L56.9860574,55.5846916 C57.0292779,54.6523303 57.1054284,53.7179016 57.2453806,52.7979442 C57.337996,52.1839502 57.4573669,51.5761581 57.6137841,50.9787026 C57.6919927,50.6810085 57.7784337,50.3853817 57.8751654,50.0938896 C58.0706868,49.508838 58.3053125,48.9361904 58.587275,48.3842159 C58.7436921,48.0823872 58.9062836,47.8136356 59.0729914,47.5572879 C59.1203281,47.4849317 59.169723,47.4146428 59.2191179,47.3443539 C59.3508376,47.1562278 59.4866735,46.9784383 59.6245676,46.8130527 C59.6698462,46.7613697 59.7110086,46.7076194 59.7562873,46.6580037 C59.9353438,46.4554063 60.1185165,46.2693475 60.3099216,46.0998273 C60.3490259,46.0646828 60.3901883,46.0357403 60.4292926,46.0005959 C60.5857098,45.8662201 60.7483013,45.7401136 60.9108928,45.6243437 C60.9705783,45.5829973 61.0302637,45.5395835 61.0899492,45.5003044 C61.2648894,45.3824672 61.4418878,45.2728992 61.6230024,45.1695332 C61.6518161,45.1529947 61.6826879,45.1343888 61.7115015,45.1178502 C61.9234879,45.000013 62.1416487,44.890445 62.3618676,44.787079 C62.4256693,44.7560692 62.4935873,44.7271268 62.557389,44.696117 C62.7261548,44.6196261 62.8969788,44.5452026 63.0698609,44.4707791 C63.139837,44.4418366 63.2118712,44.4108268 63.2818473,44.3818843 C63.4835431,44.2971242 63.687297,44.2144314 63.893109,44.1317386 C63.909574,44.1234693 63.9280971,44.1172673 63.944562,44.1089981 C64.148316,44.3033261 64.3849998,44.4625098 64.6484392,44.5720777 C64.6751947,44.5824143 64.7060665,44.586549 64.7328221,44.5968856 C64.8398444,44.6361647 64.9468666,44.6733764 65.0621214,44.6981843 C65.090935,44.7043862 65.1218068,44.7023189 65.1506205,44.7064536 C65.2679334,44.7250594 65.3852462,44.7436653 65.5087335,44.7436653 C65.7021968,44.7436653 65.8874276,44.7105882 66.066484,44.6651072 C66.1097046,44.6547706 66.1529251,44.638232 66.1940875,44.6258281 C66.3443303,44.5762124 66.4883987,44.5141928 66.6242346,44.4377019 C66.6448158,44.425298 66.665397,44.4149614 66.6859783,44.4025575 C66.9370689,44.2495758 67.1552297,44.0490458 67.3301699,43.811304 C67.3857391,43.7348131 67.4330759,43.656255 67.4804127,43.5714948 L67.4804127,43.5735622 C67.6162486,43.6335144 67.760317,43.6810628 67.9085017,43.7162072 C67.9146761,43.7162072 67.9208504,43.7203419 67.9249667,43.7203419 C67.9846521,43.7327458 68.0484539,43.7348131 68.1081394,43.7430824 C68.2069291,43.7575537 68.3016027,43.7740922 68.4045087,43.7740922 C69.6579039,43.7740922 70.6746153,42.7528361 70.6746153,41.4917709 C70.6746153,41.2995101 70.6458017,41.1155186 70.5984649,40.9377291 C70.5922905,40.9170559 70.5861162,40.89845 70.5799418,40.8777768 C70.5305469,40.7082566 70.4646871,40.5449383 70.3823623,40.3940239 C70.5181982,40.2989272 70.6416854,40.1872919 70.754882,40.06532 C70.787812,40.0301756 70.8145675,39.9929638 70.8454393,39.9557521 C70.9215898,39.8627227 70.9915659,39.7655586 71.0512514,39.6621926 C71.080065,39.6146443 71.1068206,39.5650286 71.131518,39.5154129 C71.1829711,39.4079123 71.2261916,39.296277 71.2611796,39.1805071 C71.2776446,39.1308914 71.2961677,39.083343 71.3085164,39.03166 C71.3476207,38.8642071 71.3723181,38.6905522 71.3723181,38.5106954 C71.3723181,38.3391078 71.3517369,38.1737222 71.3167489,38.0145386 C71.3085164,37.9814614 71.2941095,37.9504516 71.2858771,37.9194418 C71.250889,37.7892007 71.2097266,37.6630942 71.1520992,37.5452569 C71.1438668,37.5245837 71.131518,37.5059778 71.1212274,37.4853046 C71.0533095,37.3550635 70.977159,37.2310243 70.8866017,37.1152543 C70.8824855,37.1111197 70.8783693,37.1049177 70.874253,37.0987158 C70.7734051,36.9746766 70.6622666,36.8589067 70.5387794,36.757608 C70.6622666,36.6563093 70.7734051,36.5405394 70.874253,36.4165002 C70.8783693,36.4102982 70.8824855,36.4061636 70.8886599,36.3999616 L70.8886599,36.3999616 Z" id="Fill-150" fill="#88A53A"></path>
                            <polyline id="Fill-160" fill="#603812" points="84.4516725 55.5536818 82.6261198 55.5536818 82.6261198 44.4108268 81.1813193 44.4108268 81.1813193 42.9388949 84.4516725 42.9388949 84.4516725 55.5536818"></polyline>
                            <path d="M90.5478247,44.993811 C90.5478247,44.5121255 90.4284537,44.4108268 89.9468536,44.4108268 L88.8622242,44.4108268 C88.3826822,44.4108268 88.2818343,44.5121255 88.2818343,44.993811 L88.2818343,53.4987657 C88.2818343,53.9825186 88.3826822,54.08175 88.8622242,54.08175 L89.9468536,54.08175 C90.4284537,54.08175 90.5478247,53.9825186 90.5478247,53.4987657 L90.5478247,44.993811 Z M92.3733774,53.7799212 C92.3733774,54.9272839 91.7909294,55.5536818 90.5087204,55.5536818 L88.3209386,55.5536818 C87.0181484,55.5536818 86.4357004,54.9272839 86.4357004,53.7799212 L86.4357004,44.7126555 C86.4357004,43.5652929 87.0181484,42.9388949 88.3209386,42.9388949 L90.5087204,42.9388949 C91.7909294,42.9388949 92.3733774,43.5652929 92.3733774,44.7126555 L92.3733774,53.7799212 L92.3733774,53.7799212 Z" id="Fill-161" fill="#603812"></path>
                            <path d="M98.3686818,44.993811 C98.3686818,44.5121255 98.2472527,44.4108268 97.7656525,44.4108268 L96.6830812,44.4108268 C96.2014811,44.4108268 96.1006332,44.5121255 96.1006332,44.993811 L96.1006332,53.4987657 C96.1006332,53.9825186 96.2014811,54.08175 96.6830812,54.08175 L97.7656525,54.08175 C98.2472527,54.08175 98.3686818,53.9825186 98.3686818,53.4987657 L98.3686818,44.993811 Z M100.194234,53.7799212 C100.194234,54.9272839 99.6117864,55.5536818 98.3275193,55.5536818 L96.1417956,55.5536818 C94.8369474,55.5536818 94.2565574,54.9272839 94.2565574,53.7799212 L94.2565574,44.7126555 C94.2565574,43.5652929 94.8369474,42.9388949 96.1417956,42.9388949 L98.3275193,42.9388949 C99.6117864,42.9388949 100.194234,43.5652929 100.194234,44.7126555 L100.194234,53.7799212 L100.194234,53.7799212 Z" id="Fill-162" fill="#603812"></path>
                            <path d="M111.92552,50.5156229 C111.92552,50.0732164 111.863776,49.9719177 111.402757,49.9719177 L110.980843,49.9719177 C110.519824,49.9719177 110.441615,50.0732164 110.441615,50.5156229 L110.441615,53.7799212 C110.441615,54.2223277 110.519824,54.3236264 110.980843,54.3236264 L111.402757,54.3236264 C111.863776,54.3236264 111.92552,54.2223277 111.92552,53.7799212 L111.92552,50.5156229 Z M113.409425,54.0011245 C113.409425,55.0285825 112.948406,55.5536818 111.863776,55.5536818 L110.519824,55.5536818 C109.437253,55.5536818 108.955652,55.0285825 108.955652,54.0011245 L108.955652,50.2944196 C108.955652,49.2669616 109.437253,48.7418623 110.519824,48.7418623 L111.863776,48.7418623 C112.948406,48.7418623 113.409425,49.2669616 113.409425,50.2944196 L113.409425,54.0011245 Z M111.244282,42.9388949 L105.384814,55.5536818 L103.900909,55.5536818 L109.737738,42.9388949 L111.244282,42.9388949 Z M104.682995,44.7126555 C104.682995,44.270249 104.602728,44.1689503 104.16229,44.1689503 L103.719794,44.1689503 C103.258776,44.1689503 103.19909,44.270249 103.19909,44.7126555 L103.19909,47.9562807 C103.19909,48.4193604 103.258776,48.520659 103.719794,48.520659 L104.16229,48.520659 C104.602728,48.520659 104.682995,48.4193604 104.682995,47.9562807 L104.682995,44.7126555 Z M106.166899,48.1981571 C106.166899,49.2256152 105.705881,49.7507145 104.602728,49.7507145 L103.279357,49.7507145 C102.176204,49.7507145 101.715185,49.2256152 101.715185,48.1981571 L101.715185,44.4914523 C101.715185,43.443321 102.176204,42.9388949 103.279357,42.9388949 L104.602728,42.9388949 C105.705881,42.9388949 106.166899,43.443321 106.166899,44.4914523 L106.166899,48.1981571 L106.166899,48.1981571 Z" id="Fill-163" fill="#603812"></path>
                        </g>
                    </g>
                </g>
            </g>
        </g>
    </g>
</svg>