<?xml version="1.0" encoding="UTF-8"?>
<svg width="124px" height="66px" viewBox="0 0 124 66" version="1.1" xmlns="http://www.w3.org/2000/svg" xmlns:xlink="http://www.w3.org/1999/xlink">
    <!-- Generator: sketchtool 61.2 (101010) - https://sketch.com -->
    <title>7ED59B7D-16D9-4061-AEF1-126F62BC2670</title>
    <desc>Created with sketchtool.</desc>
    <g id="Page-1" stroke="none" stroke-width="1" fill="none" fill-rule="evenodd">
        <g id="online-ordering-application" transform="translate(-774.000000, -1462.000000)">
            <g id="body" transform="translate(256.000000, 64.000000)">
                <g id="manage-data" transform="translate(20.000000, 1315.000000)">
                    <g id="Group-Copy-2" transform="translate(460.000000, 52.000000)">
                        <g id="venue" transform="translate(38.000000, 31.000000)">
                            <polyline id="Fill-3020" fill="#659941" points="28.619405 64.8089063 28.619405 14.3323125 30.722281 14.268375 30.722281 64.8089063 28.619405 64.8089063"></polyline>
                            <polygon id="Fill-3021" fill="#659941" points="46.4825785 64.8089063 49.7414215 64.8089063 49.7414215 14.3323125 46.4825785 14.3323125"></polygon>
                            <path d="M26.5646942,44.5304062 L25.1545785,46.5310312 L14.5930579,60.5075625 C12.5352727,63.2300625 9.3307438,64.8295312 5.93150413,64.8295312 L-8.91995385e-14,64.8295312 L0.573884298,63.6704062 C1.68373554,61.433625 3.95365289,60.0197812 6.43877686,60.0197812 L6.51256198,60.0197812 C8.6021157,60.0197812 10.5656198,59.0174062 11.8004959,57.3220312 L24.3296198,40.066125 C25.4312727,38.5491562 27.185719,37.653 29.0518678,37.653 L31.2920661,37.653 L26.5646942,44.5304062" id="Fill-3022" fill="#3F88BC"></path>
                            <path d="M34.6800331,37.653 L32.0329917,37.653 C30.1658182,37.653 28.4113719,38.5491562 27.3107438,40.066125 L14.780595,57.3220312 C13.5467438,59.0174062 11.5822149,60.0197812 9.49368595,60.0197812 L9.41887603,60.0197812 C6.93477686,60.0197812 4.66383471,61.433625 3.55500826,63.6704062 L2.98009917,64.8295312 L8.9126281,64.8295312 C12.3118678,64.8295312 15.5153719,63.2300625 17.573157,60.5075625 L28.1357025,46.5310312 L29.5458182,44.5304062 L29.5458182,44.4705937 L34.6800331,44.4705937 L34.6800331,37.653" id="Fill-3023" fill="#469FCC"></path>
                            <polygon id="Fill-3024" fill="#F2AF2A" points="31.6568926 45.511125 48.8037355 45.511125 48.8037355 31.5861563 31.6568926 31.5861563"></polygon>
                            <polygon id="Fill-3025" fill="#469FCC" points="29.5314711 33.309375 50.6534876 33.309375 50.6534876 30.7044375 29.5314711 30.7044375"></polygon>
                            <path d="M51.837124,45.1099688 C51.5071405,45.2945625 51.1792066,45.4874063 50.8522975,45.6895313 C50.8522975,40.9478438 50.8522975,36.2061563 50.8522975,31.4644688 C51.1792066,31.2623438 51.5071405,31.0684688 51.837124,30.883875 C51.837124,35.6255625 51.837124,40.3682813 51.837124,45.1099688" id="Fill-3026" fill="#54C1E3"></path>
                            <path d="M54.1398347,43.9745625 C53.8047273,44.1179062 53.4706446,44.2705312 53.1375868,44.4324375 C53.1375868,39.6897187 53.1375868,34.9480312 53.1375868,30.2063437 C53.4706446,30.0444375 53.8047273,29.8928437 54.1398347,29.7495 C54.1398347,34.4911875 54.1398347,39.232875 54.1398347,43.9745625" id="Fill-3027" fill="#88C041"></path>
                            <path d="M56.4773884,43.12275 C56.137157,43.225875 55.7979504,43.33725 55.4607934,43.4579063 C55.4607934,38.7151875 55.4607934,33.9735 55.4607934,29.2318125 C55.7979504,29.1111563 56.137157,28.9997813 56.4773884,28.8966563 C56.4773884,33.639375 56.4773884,38.3810625 56.4773884,43.12275" id="Fill-3028" fill="#54C1E3"></path>
                            <path d="M58.8385124,42.5545313 C58.4962314,42.615375 58.1539504,42.6865313 57.8126942,42.7659375 C57.8126942,38.02425 57.8126942,33.2815313 57.8126942,28.5398438 C58.1539504,28.4604375 58.4962314,28.3903125 58.8385124,28.3284375 C58.8385124,33.070125 58.8385124,37.8118125 58.8385124,42.5545313" id="Fill-3029" fill="#88C041"></path>
                            <path d="M61.2150083,42.268875 C60.8706777,42.2895 60.5273719,42.3194063 60.1840661,42.3575625 C60.1840661,37.615875 60.1840661,32.8741875 60.1840661,28.1314688 C60.5273719,28.0933125 60.8706777,28.0634063 61.2150083,28.0427813 C61.2150083,32.7844688 61.2150083,37.5271875 61.2150083,42.268875" id="Fill-3030" fill="#54C1E3"></path>
                            <path d="M63.5966281,42.2668125 C63.2522975,42.2461875 62.9079669,42.2348438 62.5636364,42.2327813 C62.5646612,37.4900625 62.5646612,32.748375 62.5636364,28.0066875 C62.9079669,28.00875 63.2522975,28.0200938 63.5966281,28.0407188 C63.5966281,32.7824063 63.5966281,37.5240938 63.5966281,42.2668125" id="Fill-3031" fill="#88C041"></path>
                            <path d="M65.973124,42.5473125 C65.630843,42.4864688 65.2875372,42.433875 64.9442314,42.3905625 C64.9442314,37.648875 64.9442314,32.9071875 64.9442314,28.1644688 C65.2875372,28.2077813 65.630843,28.260375 65.973124,28.3212188 C65.973124,33.0629063 65.973124,37.805625 65.973124,42.5473125" id="Fill-3032" fill="#54C1E3"></path>
                            <path d="M68.3352727,43.1114063 C67.9950413,43.0093125 67.6548099,42.9165 67.3135537,42.8319375 C67.3135537,38.09025 67.3135537,33.3485625 67.3135537,28.6058438 C67.6548099,28.6904063 67.9950413,28.7832188 68.3352727,28.8853125 C68.3352727,33.627 68.3352727,38.3697188 68.3352727,43.1114063" id="Fill-3033" fill="#88C041"></path>
                            <path d="M70.6728264,43.9590937 C70.3366942,43.81575 70.000562,43.6816875 69.6623802,43.5569062 C69.6623802,38.8141875 69.6623802,34.0725 69.6623802,29.3308125 C70.000562,29.4555937 70.3366942,29.5896562 70.6728264,29.733 C70.6728264,34.4746875 70.6728264,39.216375 70.6728264,43.9590937" id="Fill-3034" fill="#54C1E3"></path>
                            <path d="M72.9755372,45.0893438 C72.6455537,44.9057813 72.3145455,44.7304688 71.9825124,44.5644375 C71.9825124,39.82275 71.9825124,35.0800313 71.9825124,30.3383438 C72.3145455,30.504375 72.6455537,30.6796875 72.9755372,30.86325 C72.9755372,35.6049375 72.9755372,40.3476563 72.9755372,45.0893438" id="Fill-3035" fill="#88C041"></path>
                            <path d="M74.8488595,33.309375 C66.8944132,27.9654375 57.9561653,27.9654375 50.0006942,33.309375 C50.0006942,32.7256875 50.0006942,32.1430313 50.0006942,31.560375 C57.9561653,26.2174688 66.8944132,26.2174688 74.8488595,31.560375 C74.8488595,32.1430313 74.8488595,32.7256875 74.8488595,33.309375" id="Fill-3036" fill="#C4312B"></path>
                            <path d="M74.8488595,32.4534375 C66.8944132,27.1105313 57.9561653,27.1105313 50.0006942,32.4534375 C50.0006942,31.8707813 50.0006942,31.288125 50.0006942,30.7044375 C57.9561653,25.3615313 66.8944132,25.3615313 74.8488595,30.7044375 C74.8488595,31.288125 74.8488595,31.8707813 74.8488595,32.4534375" id="Fill-3037" fill="#C4312B"></path>
                            <path d="M74.8488595,47.8190625 C66.8944132,42.4761563 57.9561653,42.4761563 50.0006942,47.8190625 C50.0006942,47.2364063 50.0006942,46.65375 50.0006942,46.0710938 C57.9561653,40.7281875 66.8944132,40.7281875 74.8488595,46.0710938 C74.8488595,46.65375 74.8488595,47.2364063 74.8488595,47.8190625" id="Fill-3038" fill="#C4312B"></path>
                            <path d="M74.8488595,46.963125 C66.8944132,41.6202187 57.9561653,41.6202187 50.0006942,46.963125 C50.0006942,46.3804687 50.0006942,45.7978125 50.0006942,45.2151562 C57.9561653,39.87225 66.8944132,39.87225 74.8488595,45.2151562 C74.8488595,45.7978125 74.8488595,46.3804687 74.8488595,46.963125" id="Fill-3039" fill="#C4312B"></path>
                            <polygon id="Fill-3040" fill="#88C041" points="29.5314711 48.5027813 32.790314 48.5027813 32.790314 14.3323125 29.5314711 14.3323125"></polygon>
                            <polygon id="Fill-3041" fill="#88C041" points="47.3946446 48.5027813 50.6534876 48.5027813 50.6534876 14.3323125 47.3946446 14.3323125"></polygon>
                            <polygon id="Fill-3042" fill="#88C041" points="29.5314711 64.8089063 32.790314 64.8089063 32.790314 14.3323125 29.5314711 14.3323125"></polygon>
                            <polygon id="Fill-3043" fill="#88C041" points="47.3946446 64.8089063 50.6534876 64.8089063 50.6534876 14.3323125 47.3946446 14.3323125"></polygon>
                            <polygon id="Fill-3044" fill="#469FCC" points="28.5087273 14.3323125 50.6534876 14.3323125 50.6534876 11.682 28.5087273 11.682"></polygon>
                            <polyline id="Fill-3045" fill="#E6752B" points="27.0647934 12.3688125 31.9909752 12.3688125 39.4197025 1.46549439e-14 27.0647934 12.3688125"></polyline>
                            <polyline id="Fill-3046" fill="#E6752B" points="39.4197025 1.46549439e-14 46.8494545 12.3688125 52.3607934 12.3688125 39.4197025 1.46549439e-14"></polyline>
                            <polyline id="Fill-3047" fill="#C4312B" points="31.9909752 12.3688125 36.3811901 12.3688125 39.4197025 1.46549439e-14 31.9909752 12.3688125"></polyline>
                            <polyline id="Fill-3048" fill="#C4312B" points="42.4592397 12.3688125 46.8494545 12.3688125 39.4197025 1.46549439e-14 42.4592397 12.3688125"></polyline>
                            <polyline id="Fill-3049" fill="#E6752B" points="36.3811901 12.3688125 42.4592397 12.3688125 39.4197025 1.46549439e-14 36.3811901 12.3688125"></polyline>
                            <polyline id="Fill-3050" fill="#F2AF2A" points="61.4835041 65.3956875 61.4835041 59.1411563 48.3794711 41.2077188 47.2644959 41.2077188 60.3685289 65.3956875 61.4835041 65.3956875"></polyline>
                            <polyline id="Fill-3051" fill="#EA942D" points="60.3685289 65.3956875 60.3685289 59.1411563 47.2644959 41.2077188 47.2644959 47.46225 60.3685289 65.3956875"></polyline>
                            <polygon id="Fill-3052" fill="#E6752B" points="33.7782149 49.6639688 48.9021157 49.6639688 48.9021157 44.0003438 33.7782149 44.0003438"></polygon>
                            <polygon id="Fill-3053" fill="#EA942D" points="32.4541818 44.6221875 49.3212562 44.6221875 49.3212562 44.0003438 32.4541818 44.0003438"></polygon>
                            <polygon id="Fill-3054" fill="#E6752B" points="37.4602975 54.70575 52.5852231 54.70575 52.5852231 49.042125 37.4602975 49.042125"></polygon>
                            <polygon id="Fill-3055" fill="#EA942D" points="36.1362645 49.6639688 53.0033388 49.6639688 53.0033388 49.042125 36.1362645 49.042125"></polygon>
                            <polygon id="Fill-3056" fill="#E6752B" points="41.1423802 59.7475313 56.2673058 59.7475313 56.2673058 54.0839063 41.1423802 54.0839063"></polygon>
                            <polygon id="Fill-3057" fill="#EA942D" points="39.8183471 54.70575 56.6854215 54.70575 56.6854215 54.0839063 39.8183471 54.0839063"></polygon>
                            <polygon id="Fill-3058" fill="#E6752B" points="44.8254876 64.7893125 59.9493884 64.7893125 59.9493884 59.1256875 44.8254876 59.1256875"></polygon>
                            <polygon id="Fill-3059" fill="#EA942D" points="43.5014545 59.7475313 60.3685289 59.7475313 60.3685289 59.1256875 43.5014545 59.1256875"></polygon>
                            <polyline id="Fill-3060" fill="#F2AF2A" points="45.5920331 65.3956875 45.5920331 59.1411563 32.4890248 41.2077188 31.3730248 41.2077188 44.4770579 65.3956875 45.5920331 65.3956875"></polyline>
                            <polyline id="Fill-3061" fill="#EA942D" points="44.4770579 65.3956875 44.4770579 59.1411563 31.3730248 41.2077188 31.3730248 47.46225 44.4770579 65.3956875"></polyline>
                            <polygon id="Fill-3062" fill="#659941" points="73.224562 64.8089063 76.4844298 64.8089063 76.4844298 14.3323125 73.224562 14.3323125"></polygon>
                            <polygon id="Fill-3063" fill="#659941" points="91.0877355 64.8089063 94.3465785 64.8089063 94.3465785 14.3323125 91.0877355 14.3323125"></polygon>
                            <path d="M95.0260165,44.5304062 L96.4361322,46.5310312 L106.997653,60.5075625 C109.055438,63.2300625 112.259967,64.8295312 115.659207,64.8295312 L121.590711,64.8295312 L121.016826,63.6704062 C119.906975,61.433625 117.636033,60.0197812 115.151934,60.0197812 L115.077124,60.0197812 C112.988595,60.0197812 111.025091,59.0174062 109.790215,57.3220312 L97.2610909,40.066125 C96.159438,38.5491562 94.4049917,37.653 92.538843,37.653 L90.2976198,37.653 L95.0260165,44.5304062" id="Fill-3064" fill="#3F88BC"></path>
                            <path d="M91.6472727,37.653 L94.294314,37.653 C96.1614876,37.653 97.9159339,38.5491562 99.016562,40.066125 L111.546711,57.3220312 C112.780562,59.0174062 114.745091,60.0197812 116.83362,60.0197812 L116.90843,60.0197812 C119.392529,60.0197812 121.663471,61.433625 122.772298,63.6704062 L123.347207,64.8295312 L117.415702,64.8295312 C114.015438,64.8295312 110.811934,63.2300625 108.754149,60.5075625 L98.1916033,46.5310312 L98.178281,46.5114375 C97.3010579,45.2667187 95.8847934,44.5200937 94.369124,44.5025625 L91.6472727,44.4705937 L91.6472727,37.653" id="Fill-3065" fill="#469FCC"></path>
                            <polygon id="Fill-3066" fill="#F2AF2A" points="76.2620496 45.511125 93.4088926 45.511125 93.4088926 31.5861563 76.2620496 31.5861563"></polygon>
                            <polygon id="Fill-3067" fill="#469FCC" points="74.1366281 33.309375 95.2586446 33.309375 95.2586446 30.7044375 74.1366281 30.7044375"></polygon>
                            <polygon id="Fill-3068" fill="#88C041" points="74.1366281 48.5027813 77.3954711 48.5027813 77.3954711 14.3323125 74.1366281 14.3323125"></polygon>
                            <polygon id="Fill-3069" fill="#88C041" points="91.9987769 48.5027813 95.2586446 48.5027813 95.2586446 14.3323125 91.9987769 14.3323125"></polygon>
                            <polygon id="Fill-3070" fill="#469FCC" points="73.1138843 14.3323125 95.2586446 14.3323125 95.2586446 11.682 73.1138843 11.682"></polygon>
                            <polyline id="Fill-3071" fill="#E6752B" points="71.6699504 12.3688125 76.5961322 12.3688125 84.0248595 1.46549439e-14 71.6699504 12.3688125"></polyline>
                            <polyline id="Fill-3072" fill="#E6752B" points="84.0248595 1.46549439e-14 91.4535868 12.3688125 96.9659504 12.3688125 84.0248595 1.46549439e-14"></polyline>
                            <polyline id="Fill-3073" fill="#C4312B" points="76.5961322 12.3688125 80.9863471 12.3688125 84.0248595 1.46549439e-14 76.5961322 12.3688125"></polyline>
                            <polyline id="Fill-3074" fill="#C4312B" points="87.0643967 12.3688125 91.4535868 12.3688125 84.0248595 1.46549439e-14 87.0643967 12.3688125"></polyline>
                            <polyline id="Fill-3075" fill="#E6752B" points="80.9863471 12.3688125 87.0643967 12.3688125 84.0248595 1.46549439e-14 80.9863471 12.3688125"></polyline>
                            <polygon id="Fill-3076" fill="#469FCC" points="74.1366281 46.8125625 95.2586446 46.8125625 95.2586446 44.2086562 74.1366281 44.2086562"></polygon>
                            <polygon id="Fill-3077" fill="#88C041" points="74.1366281 64.8089063 77.3954711 64.8089063 77.3954711 14.3323125 74.1366281 14.3323125"></polygon>
                            <polygon id="Fill-3078" fill="#88C041" points="91.9987769 64.8089063 95.2586446 64.8089063 95.2586446 14.3323125 91.9987769 14.3323125"></polygon>
                            <path d="M79.2144793,64.8099375 L77.1648926,64.8099375 L77.1648926,62.7092813 C77.1648926,61.0448438 78.4663802,59.6918438 80.0650579,59.6918438 L89.0658182,59.6918438 C89.5351736,59.6918438 89.9163967,59.2628438 89.9163967,58.735875 C89.9163967,58.1686875 89.5351736,57.7396875 89.0658182,57.7396875 L80.0650579,57.7396875 C78.4663802,57.7396875 77.1648926,56.3866875 77.1648926,54.72225 L77.1648926,54.4386563 C77.1648926,52.7742188 78.4663802,51.4201875 80.0650579,51.4201875 L89.0658182,51.4201875 C89.5351736,51.4201875 89.9163967,50.9911875 89.9163967,50.4642188 C89.9163967,49.8980625 89.5351736,49.4690625 89.0658182,49.4690625 L80.0281653,49.4690625 C78.4602314,49.4690625 77.1597686,48.1418438 77.128,46.5114375 L77.0849587,44.22825 L79.1345455,44.22825 L79.1775868,46.47225 C79.1868099,46.9868438 79.5680331,47.4065625 80.0281653,47.4065625 L89.0658182,47.4065625 C90.6655207,47.4065625 91.9659835,48.7595625 91.9659835,50.424 C91.9659835,52.1296875 90.6655207,53.4826875 89.0658182,53.4826875 L80.0650579,53.4826875 C79.5957025,53.4826875 79.2144793,53.9116875 79.2144793,54.4386563 L79.2144793,54.72225 C79.2144793,55.2481875 79.5957025,55.6771875 80.0650579,55.6771875 L89.0658182,55.6771875 C90.6655207,55.6771875 91.9659835,57.0312188 91.9659835,58.6956563 C91.9659835,60.4003125 90.6655207,61.7543438 89.0658182,61.7543438 L80.0650579,61.7543438 C79.5957025,61.7543438 79.2144793,62.1833438 79.2144793,62.7092813 L79.2144793,64.8099375" id="Fill-3079" fill="#C4312B"></path>
                            <path d="M78.7020826,64.8099375 L77.6772893,64.8099375 L77.6772893,62.0162813 C77.6772893,60.6364688 78.7481983,59.5134375 80.0650579,59.5134375 L89.0658182,59.5134375 C89.8180165,59.5134375 90.4287934,58.8534375 90.4287934,58.0418438 C90.4287934,57.1900313 89.8180165,56.5300313 89.0658182,56.5300313 L80.0650579,56.5300313 C78.7481983,56.5300313 77.6772893,55.4080313 77.6772893,54.02925 L77.6772893,53.744625 C77.6772893,52.3648125 78.7481983,51.2417813 80.0650579,51.2417813 L89.0658182,51.2417813 C89.8180165,51.2417813 90.4287934,50.5828125 90.4287934,49.7712188 C90.4287934,48.9204375 89.8180165,48.2604375 89.0658182,48.2604375 L80.0281653,48.2604375 C78.7369256,48.2604375 77.6660165,47.1590625 77.6403967,45.8070938 L77.5973554,44.22825 L78.6221488,44.22825 L78.6651901,45.7864688 C78.680562,46.5825938 79.2913388,47.2291875 80.0281653,47.2291875 L89.0658182,47.2291875 C90.3837025,47.2291875 91.4535868,48.3522188 91.4535868,49.7320313 C91.4535868,51.1510313 90.3837025,52.2730313 89.0658182,52.2730313 L80.0650579,52.2730313 C79.3128595,52.2730313 78.7020826,52.9330313 78.7020826,53.744625 L78.7020826,54.02925 C78.7020826,54.8398125 79.3128595,55.4987813 80.0650579,55.4987813 L89.0658182,55.4987813 C90.3837025,55.4987813 91.4535868,56.6218125 91.4535868,58.001625 C91.4535868,59.4216563 90.3837025,60.5446875 89.0658182,60.5446875 L80.0650579,60.5446875 C79.3128595,60.5446875 78.7020826,61.2046875 78.7020826,62.0162813 L78.7020826,64.8099375" id="Fill-3080" fill="#E98EA8"></path>
                        </g>
                    </g>
                </g>
            </g>
        </g>
    </g>
</svg>