<?xml version="1.0" encoding="UTF-8"?>
<svg width="90px" height="48px" viewBox="0 0 90 48" version="1.1" xmlns="http://www.w3.org/2000/svg" xmlns:xlink="http://www.w3.org/1999/xlink">
    <!-- Generator: sketchtool 61.2 (101010) - https://sketch.com -->
    <title>CD15627D-23DC-49F0-A67B-30AD97719C22</title>
    <desc>Created with sketchtool.</desc>
    <g id="Page-1" stroke="none" stroke-width="1" fill="none" fill-rule="evenodd">
        <g id="online-ordering-application" transform="translate(-1232.000000, -1471.000000)">
            <g id="body" transform="translate(256.000000, 64.000000)">
                <g id="manage-data" transform="translate(20.000000, 1315.000000)">
                    <g id="Group-Copy-4" transform="translate(900.000000, 52.000000)">
                        <g id="cats" transform="translate(55.000000, 39.000000)">
                            <path d="M12.616581,41.4507092 C14.4367938,45.2425532 19.9396307,48.4553191 27.4286378,48.4553191 L66.6190633,48.4553191 C74.1775739,48.4553191 79.6031058,46.4014184 81.03573,41.7705674 C80.1882122,41.9283688 79.2449498,42.0602837 78.2094888,42.1542553 C71.2378576,42.793617 64.2297016,42.2819149 61.9041697,39.1748227 C59.7896307,41.6088652 55.1726094,43.9751773 45.13573,43.4407801 C37.1605526,43.0156028 32.7318292,41.0368794 30.28573,38.8400709 C27.8885668,40.5102837 24.3797016,41.9283688 19.3179995,42.0602837 C16.6832477,42.1280142 14.4633895,41.9056738 12.616581,41.4507092" id="Fill-161" fill="#EBAD2D"></path>
                            <path d="M47.900269,46.9460993 C47.0275739,46.9460993 46.1073612,46.9216312 45.13573,46.8698582 C37.1591342,46.4446809 32.73112,44.4663121 30.2850207,42.2684397 C27.887503,43.9379433 24.652042,45.312766 19.3183541,45.4879433 C17.966581,44.9 16.83112,44.1808511 15.9286378,43.3964539 C16.7204817,43.4595745 17.5403399,43.4907801 18.4006236,43.4907801 C18.6609073,43.4907801 18.9254463,43.4879433 19.1935314,43.4822695 C19.2470775,43.4812057 19.3006236,43.4797872 19.3545243,43.4783688 C19.3722548,43.4780142 19.3899853,43.477305 19.4073612,43.4769504 C19.4112619,43.4769504 19.4151626,43.4765957 19.4187087,43.4765957 C19.4328931,43.4762411 19.4463682,43.4758865 19.460198,43.4755319 C19.464808,43.4751773 19.4697725,43.4751773 19.474737,43.4751773 C19.487503,43.4744681 19.500269,43.4741135 19.5130349,43.4737589 C19.5179995,43.4737589 19.522964,43.4734043 19.5275739,43.4734043 C19.5403399,43.4730496 19.5531058,43.472695 19.5658718,43.4723404 C19.5711909,43.4719858 19.5761555,43.4719858 19.5814746,43.4716312 C19.5942406,43.4712766 19.6066519,43.470922 19.6194179,43.4702128 C19.6240278,43.4702128 19.6282831,43.4698582 19.6328931,43.4698582 C19.6463682,43.4695035 19.6598434,43.4687943 19.6733186,43.4684397 C19.6775739,43.4680851 19.6814746,43.4680851 19.68573,43.4680851 C19.7009782,43.4673759 19.7151626,43.4670213 19.7304108,43.4663121 C19.7325385,43.4663121 19.7346661,43.4659574 19.7367938,43.4659574 C19.7534604,43.4652482 19.7704817,43.464539 19.7867938,43.4641844 C19.7878576,43.4638298 19.7885668,43.4638298 19.7896307,43.4638298 C19.8612619,43.4609929 19.9328931,43.4578014 20.0041697,43.4546099 C20.0048789,43.4542553 20.0055881,43.4542553 20.0066519,43.4542553 C20.0236732,43.4535461 20.0403399,43.4528369 20.0570065,43.451773 C20.058425,43.451773 20.0594888,43.451773 20.0609073,43.451773 C20.0772193,43.4507092 20.0935314,43.45 20.1098434,43.4492908 C20.1112619,43.4489362 20.1133895,43.4489362 20.1151626,43.4489362 C20.13112,43.448227 20.1474321,43.4471631 20.1633895,43.4464539 C20.164808,43.4464539 20.166581,43.4460993 20.1679995,43.4460993 C20.1839569,43.4453901 20.200269,43.4443262 20.216581,43.443617 C20.2179995,43.4432624 20.2197725,43.4432624 20.2208363,43.4432624 C20.3272193,43.437234 20.4332477,43.4308511 20.5385668,43.4237589 C20.5396307,43.4237589 20.5403399,43.4237589 20.5414037,43.4237589 C20.5573612,43.422695 20.5740278,43.4216312 20.5903399,43.4205674 C20.5921129,43.4202128 20.593886,43.4202128 20.5960136,43.4202128 C20.6112619,43.4191489 20.6261555,43.4180851 20.6417583,43.4170213 C20.6442406,43.4166667 20.6470775,43.4166667 20.6495597,43.4163121 C20.664808,43.4152482 20.6797016,43.4141844 20.6949498,43.4131206 C20.6970775,43.4131206 20.6988505,43.412766 20.7009782,43.412766 C20.7169356,43.4117021 20.7321839,43.4102837 20.7477867,43.4092199 C20.7495597,43.4092199 20.7516874,43.4088652 20.7531058,43.4088652 C20.8399853,43.4024823 20.9272193,43.3953901 21.0133895,43.3882979 C21.0155172,43.3882979 21.0179995,43.3879433 21.0201271,43.3879433 C21.0343115,43.3865248 21.0488505,43.385461 21.0630349,43.3840426 C21.0672902,43.3836879 21.0719002,43.3833333 21.0758009,43.3829787 C21.0885668,43.3819149 21.1013328,43.3808511 21.1140987,43.3797872 C21.1183541,43.3794326 21.1233186,43.379078 21.1275739,43.3787234 C21.1399853,43.3776596 21.1516874,43.3765957 21.1640987,43.3751773 C21.1694179,43.3748227 21.1743824,43.3744681 21.1797016,43.3741135 C21.1914037,43.3730496 21.2034604,43.3719858 21.2151626,43.370922 C21.2204817,43.3702128 21.2254463,43.3698582 21.2304108,43.3695035 C21.2421129,43.3684397 21.2545243,43.3670213 21.2662264,43.3659574 C21.2711909,43.3656028 21.2761555,43.3652482 21.28112,43.364539 C21.293886,43.3634752 21.3062973,43.3624113 21.3194179,43.3609929 C21.3236732,43.3606383 21.3272193,43.3602837 21.3314746,43.3599291 C21.3460136,43.3585106 21.3609073,43.3570922 21.3754463,43.3556738 C21.3775739,43.3553191 21.3797016,43.3553191 21.3818292,43.3549645 C21.3984959,43.3535461 21.4151626,43.351773 21.4318292,43.3503546 C21.4371484,43.3496454 21.4421129,43.3492908 21.4474321,43.3485816 C21.458425,43.3475177 21.4697725,43.3464539 21.4807654,43.3453901 C21.4885668,43.3446809 21.4963682,43.343617 21.5041697,43.3429078 C21.5126803,43.3421986 21.5211909,43.3411348 21.5300562,43.3404255 C21.5382122,43.3393617 21.5463682,43.3386525 21.5545243,43.3375887 C21.5626803,43.3368794 21.5708363,43.3361702 21.579347,43.3351064 C21.5878576,43.3343972 21.5967229,43.3333333 21.6052335,43.3322695 C21.6126803,43.3315603 21.6208363,43.3308511 21.6282831,43.3301418 C21.6371484,43.329078 21.645659,43.3280142 21.6545243,43.327305 C21.6619711,43.3262411 21.6690633,43.3255319 21.6765101,43.3248227 C21.6864392,43.3237589 21.695659,43.322695 21.7052335,43.3216312 C21.7112619,43.320922 21.7179995,43.3202128 21.7240278,43.3195035 C21.7343115,43.3184397 21.7442406,43.3173759 21.7545243,43.3163121 C21.7598434,43.3156028 21.764808,43.3152482 21.7701271,43.314539 C21.7818292,43.3131206 21.7928222,43.3120567 21.8045243,43.3106383 C21.8066519,43.3102837 21.8091342,43.3102837 21.8116165,43.3099291 C21.8867938,43.3014184 21.9619711,43.2925532 22.0367938,43.2833333 C22.037503,43.2833333 22.0382122,43.2829787 22.0389214,43.2829787 C22.0538151,43.2812057 22.0687087,43.2794326 22.0839569,43.277305 C22.0843115,43.277305 22.0846661,43.277305 22.0850207,43.277305 C22.100269,43.2755319 22.114808,43.2737589 22.1300562,43.2716312 C22.1307654,43.2716312 22.13112,43.2716312 22.1318292,43.2716312 C25.1871484,42.8861702 27.8850207,41.9904255 30.1878576,40.5946809 C33.4410491,43.051773 38.3779285,44.4808511 44.8896307,44.8475177 C44.8910491,44.8475177 44.8921129,44.8478723 44.8935314,44.8478723 C44.9052335,44.8485816 44.9176448,44.8492908 44.929347,44.85 C44.9318292,44.85 44.9339569,44.85 44.9360846,44.8503546 C44.9481413,44.8510638 44.9598434,44.8514184 44.9719002,44.8521277 C44.9736732,44.8521277 44.9754463,44.8524823 44.9772193,44.8524823 C44.9899853,44.8531915 45.0031058,44.8539007 45.0158718,44.8546099 C45.0169356,44.8546099 45.0176448,44.8546099 45.0183541,44.8546099 C45.0325385,44.8553191 45.0460136,44.856383 45.060198,44.8570922 C46.0350207,44.9088652 46.9896307,44.935461 47.8974321,44.935461 C53.6052335,44.935461 57.9715456,43.9195035 60.9258009,41.9102837 C60.9268647,41.9095745 60.9279285,41.9088652 60.9289924,41.908156 C60.93112,41.9067376 60.9332477,41.9053191 60.9350207,41.9039007 C61.2736732,41.6734043 61.5935314,41.4297872 61.8945952,41.1730496 C62.3183541,41.5099291 62.8009782,41.8152482 63.3421129,42.0879433 C63.3424675,42.0882979 63.3431768,42.0886525 63.3435314,42.0886525 C63.3492051,42.0914894 63.3548789,42.0943262 63.3609073,42.0975177 C63.3619711,42.0978723 63.3623257,42.098227 63.3633895,42.0985816 C63.3694179,42.101773 63.3754463,42.1046099 63.3814746,42.1078014 L63.3825385,42.108156 C63.3953044,42.114539 63.408425,42.1212766 63.4211909,42.1276596 C63.4222548,42.1280142 63.4233186,42.1283688 63.4243824,42.129078 C63.4297016,42.1315603 63.4346661,42.1340426 63.4399853,42.1368794 C63.4417583,42.1375887 63.4435314,42.1382979 63.4453044,42.1393617 C63.4495597,42.1414894 63.4541697,42.143617 63.4587796,42.1457447 C63.4609073,42.1468085 63.4626803,42.1478723 63.464808,42.1489362 C63.4690633,42.1510638 63.4733186,42.1528369 63.4775739,42.1549645 C63.4797016,42.1560284 63.4818292,42.1570922 63.4839569,42.158156 C63.4896307,42.1609929 63.4949498,42.1634752 63.5006236,42.1663121 C63.5023966,42.1670213 63.5045243,42.1680851 63.5062973,42.1691489 C63.5109073,42.1712766 63.5158718,42.1734043 63.5204817,42.1758865 C63.5233186,42.177305 63.5261555,42.1783688 63.529347,42.1797872 C63.5325385,42.1815603 63.53573,42.1829787 63.5392761,42.1847518 C63.5421129,42.1861702 63.5453044,42.1875887 63.5481413,42.1890071 C63.5513328,42.1904255 63.5545243,42.1921986 63.5577158,42.193617 C63.5609073,42.1950355 63.5640987,42.1964539 63.5672902,42.198227 C63.5701271,42.1996454 63.5733186,42.2010638 63.5765101,42.2024823 C63.5797016,42.2039007 63.5828931,42.2056738 63.5860846,42.2070922 C63.5892761,42.2085106 63.5921129,42.2099291 63.5949498,42.2113475 C63.6016874,42.2141844 63.608425,42.2173759 63.614808,42.2205674 C63.6172902,42.2216312 63.6194179,42.222695 63.6219002,42.2237589 C63.6254463,42.2255319 63.6297016,42.227305 63.6336023,42.229078 C63.63573,42.2301418 63.6378576,42.2312057 63.6403399,42.2322695 C63.6445952,42.2343972 63.6481413,42.2361702 63.6523966,42.2379433 C63.6541697,42.2390071 63.6562973,42.2397163 63.6580704,42.2407801 C63.6626803,42.2425532 63.666581,42.2446809 63.6708363,42.2464539 C63.6726094,42.2475177 63.6743824,42.248227 63.6761555,42.2489362 C63.6970775,42.2585106 63.7179995,42.2680851 63.7389214,42.2776596 C63.7403399,42.2783688 63.7417583,42.2787234 63.7428222,42.2794326 C63.7474321,42.2815603 63.752042,42.2836879 63.7566519,42.285461 C63.758425,42.2865248 63.7598434,42.2868794 63.7616165,42.2879433 C63.7662264,42.2900709 63.7704817,42.291844 63.7750917,42.2939716 C63.7768647,42.2946809 63.7779285,42.2953901 63.7797016,42.2960993 C63.8013328,42.3056738 63.8236732,42.3156028 63.8453044,42.3251773 C63.8460136,42.3255319 63.8463682,42.3255319 63.8470775,42.3258865 C63.852042,42.3280142 63.8573612,42.3304965 63.8626803,42.3329787 C63.8633895,42.3329787 63.8644534,42.3336879 63.8651626,42.3340426 C63.8708363,42.3361702 63.8758009,42.3386525 63.8814746,42.3407801 C63.8814746,42.3411348 63.8821839,42.3411348 63.8821839,42.3411348 C63.9112619,42.3539007 63.9406945,42.3666667 63.9701271,42.379078 L63.9704817,42.3794326 C63.9761555,42.3819149 63.9821839,42.3843972 63.9882122,42.3868794 C64.0179995,42.3992908 64.0474321,42.4117021 64.0775739,42.4241135 C64.0779285,42.4244681 64.0779285,42.4244681 64.0782831,42.4244681 C64.1140987,42.4393617 64.150269,42.4542553 64.1864392,42.4687943 C64.1867938,42.4687943 64.1867938,42.4687943 64.1871484,42.4691489 C64.1928222,42.4712766 64.1988505,42.4737589 64.2048789,42.4762411 L64.2052335,42.4762411 C64.2289924,42.4858156 64.2531058,42.4953901 64.2772193,42.5049645 C64.2779285,42.5053191 64.2782831,42.5053191 64.2789924,42.5056738 C64.2843115,42.5078014 64.2899853,42.5099291 64.295659,42.5120567 C64.2963682,42.5124113 64.2970775,42.512766 64.2981413,42.5131206 C64.3034604,42.5152482 64.3091342,42.5173759 64.3144534,42.5195035 C64.3155172,42.5198582 64.3162264,42.5202128 64.3172902,42.5205674 C64.3406945,42.5297872 64.3640987,42.5386525 64.3878576,42.5478723 C64.3885668,42.548227 64.3896307,42.5485816 64.3903399,42.5489362 C64.395659,42.5507092 64.4006236,42.5528369 64.4059427,42.5546099 C64.4073612,42.5553191 64.4091342,42.5560284 64.4105526,42.556383 C64.4155172,42.5585106 64.4201271,42.5602837 64.4250917,42.5620567 C64.4268647,42.562766 64.4286378,42.5634752 64.4304108,42.5641844 C64.4353753,42.5659574 64.4406945,42.5680851 64.445659,42.5698582 C64.4460136,42.5698582 64.4463682,42.5702128 64.4463682,42.5702128 C64.4633895,42.5765957 64.4807654,42.5829787 64.4977867,42.5893617 C64.4995597,42.5900709 64.502042,42.5907801 64.5038151,42.5914894 C64.508425,42.5932624 64.5130349,42.5950355 64.5176448,42.5968085 C64.5201271,42.5975177 64.5215456,42.598227 64.5236732,42.5989362 C64.5286378,42.6007092 64.5332477,42.6024823 64.5378576,42.6042553 C64.5396307,42.6049645 64.5417583,42.6056738 64.5435314,42.606383 C64.5488505,42.608156 64.5534604,42.6099291 64.558425,42.6117021 C64.5594888,42.6120567 64.5605526,42.6124113 64.5616165,42.612766 C64.572964,42.6170213 64.5839569,42.620922 64.5953044,42.6251773 C64.595659,42.6255319 64.5963682,42.6255319 64.5970775,42.6258865 C64.6013328,42.627305 64.6052335,42.6287234 64.6094888,42.6304965 C64.6123257,42.6315603 64.6151626,42.6322695 64.6183541,42.6333333 C64.6222548,42.6347518 64.6261555,42.6361702 64.6300562,42.6375887 C64.6332477,42.6390071 64.6360846,42.6400709 64.6392761,42.6411348 C64.6431768,42.6425532 64.6467229,42.643617 64.6506236,42.6450355 C64.6541697,42.6464539 64.6577158,42.6475177 64.6612619,42.6489362 C64.6644534,42.65 64.6679995,42.6514184 64.6715456,42.6524823 C64.6758009,42.6539007 64.6800562,42.6556738 64.6843115,42.6570922 C64.6867938,42.658156 64.6899853,42.6592199 64.6924675,42.6599291 C64.6992051,42.6624113 64.7062973,42.6648936 64.7126803,42.6673759 C64.7155172,42.6680851 64.7183541,42.6691489 64.7211909,42.6702128 C64.7258009,42.6716312 64.7300562,42.6734043 64.7346661,42.6748227 C64.737503,42.6758865 64.7403399,42.6769504 64.7431768,42.6780142 C64.7474321,42.6794326 64.752042,42.6808511 64.7562973,42.6826241 C64.7591342,42.6833333 64.7619711,42.6843972 64.764808,42.685461 C64.7690633,42.6868794 64.7740278,42.6886525 64.7786378,42.6900709 C64.78112,42.6911348 64.7839569,42.6921986 64.7864392,42.6929078 C64.7935314,42.6953901 64.800269,42.6978723 64.8070065,42.7 L64.8073612,42.7 C64.814808,42.7028369 64.8226094,42.7053191 64.8300562,42.708156 C64.8307654,42.708156 64.8318292,42.7085106 64.8325385,42.7088652 C64.8392761,42.7109929 64.845659,42.7131206 64.8523966,42.7156028 C64.8538151,42.7159574 64.8555881,42.7166667 64.8570065,42.7170213 C64.8630349,42.7191489 64.8690633,42.7212766 64.8750917,42.7234043 C64.8765101,42.7237589 64.8779285,42.7241135 64.879347,42.7248227 C64.8860846,42.7269504 64.8928222,42.729078 64.8995597,42.7315603 C64.900269,42.7319149 64.9009782,42.7319149 64.9016874,42.7322695 C67.0406945,43.451773 69.8194179,43.8141844 73.2236732,43.8141844 C73.7768647,43.8141844 74.3477867,43.8042553 74.9258009,43.7843972 C76.0250917,43.7468085 77.1669356,43.6741135 78.3371484,43.5666667 C78.3655172,43.5641844 78.3903399,43.5617021 78.4187087,43.5592199 C78.4222548,43.5588652 78.429347,43.558156 78.4328931,43.5578014 C77.5570065,44.5464539 76.358425,45.2698582 74.9931768,45.7921986 C74.3974321,45.8134752 73.8087796,45.8248227 73.2272193,45.8248227 C68.1307654,45.8248227 63.6687087,44.9620567 61.9034604,42.6046099 C59.9953044,44.8031915 56.0431768,46.9460993 47.900269,46.9460993" id="Fill-163" fill="#CF9D30"></path>
                            <path d="M61.9041697,39.1748227 C64.2297016,42.2819149 71.2378576,42.793617 78.2094888,42.1542553 C79.2449498,42.0602837 80.1882122,41.9283688 81.03573,41.7705674 L81.0392761,41.7705674 C87.7484959,40.529078 88.9080704,37.4780142 89.3265101,34.7244681 C89.6208363,32.7868794 87.8194179,30.7102837 86.4258009,29.4312057 C81.5605526,34.0510638 70.7484959,37.0755319 66.7133895,37.0755319 C65.5977867,37.0755319 64.452042,36.962766 63.3137441,36.7819149 C62.5750917,36.6656028 61.8364392,36.5223404 61.1087796,36.3684397 C61.0371484,37.4780142 61.3275739,38.4035461 61.9041697,39.1748227" id="Fill-165" fill="#9E6039"></path>
                            <path d="M27.4286378,33.9343972 C27.6736732,35.2812057 28.3786378,37.1283688 30.28573,38.8400709 C32.7318292,41.0368794 37.1605526,43.0156028 45.13573,43.4407801 C55.1726094,43.9751773 59.7896307,41.6088652 61.9041697,39.1748227 C61.3275739,38.4035461 61.0371484,37.4780142 61.1087796,36.3684397 C57.6449498,35.6159574 54.4073612,34.5361702 52.2967229,34.5361702 C49.0591342,34.5361702 44.2385668,36.6992908 39.8818292,36.6992908 C37.83112,36.6992908 35.6789924,36.2177305 33.6023966,35.6460993 C31.3899853,35.029078 29.2605526,34.3031915 27.4286378,33.9343972" id="Fill-166" fill="#DB523D"></path>
                            <path d="M12.616581,41.4507092 C14.4633895,41.9056738 16.6832477,42.1280142 19.3179995,42.0602837 C24.3797016,41.9283688 27.8885668,40.5102837 30.28573,38.8400709 C28.3786378,37.1283688 27.6736732,35.2812057 27.4286378,33.9343972 C27.3307654,33.9156028 27.2328931,33.8968085 27.1385668,33.8780142 C23.5580704,33.2195035 11.5914037,33.9719858 11.5914037,33.9719858 C8.71551719,33.9719858 6.45026896,33.1858156 4.79175832,31.9443262 C4.437503,36.0070922 6.51799946,39.9648936 12.616581,41.4507092" id="Fill-167" fill="#9E6039"></path>
                            <path d="M62.9233186,38.1556738 C62.9598434,38.2131206 62.9984959,38.2698582 63.0399853,38.3251773 C64.3201271,40.0351064 67.9364392,40.9769504 73.2236732,40.977305 C74.7414037,40.977305 76.3761555,40.898227 78.0782831,40.7414894 C79.0250917,40.6556738 79.9328931,40.5326241 80.7768647,40.3758865 L80.8194179,40.3684397 C86.7236732,39.2663121 87.5676448,36.870922 87.9258009,34.5113475 C88.0463682,33.7223404 87.4719002,32.5882979 86.358425,31.3670213 C80.7945952,35.8113475 70.7555881,38.4939716 66.7133895,38.4939716 C65.5949498,38.4939716 64.410198,38.3921986 63.0914037,38.1829787 C63.03573,38.1741135 62.9797016,38.1652482 62.9233186,38.1556738 M73.2236732,43.8141844 L73.2236732,43.8141844 C66.8403399,43.8138298 62.650269,42.5393617 60.7687087,40.0244681 C59.9640987,38.9485816 59.6023966,37.6879433 59.6935314,36.2765957 C59.7201271,35.8656028 59.9240278,35.4865248 60.252042,35.2379433 C60.5804108,34.9890071 61.000269,34.8950355 61.4038151,34.9804965 C62.1903399,35.1478723 62.887503,35.2787234 63.5350207,35.3808511 C64.7062973,35.5670213 65.745659,35.6570922 66.7133895,35.6570922 C70.610198,35.6570922 80.9577158,32.6656028 85.4506236,28.4028369 C85.9896307,27.8890071 86.8336023,27.8822695 87.3832477,28.3858156 C89.1208363,29.9801418 91.1137441,32.4106383 90.7307654,34.937234 C90.2307654,38.235461 88.716581,41.7921986 81.2981413,43.1652482 L81.2555881,43.172695 C80.3371484,43.341844 79.3548789,43.4744681 78.3371484,43.5666667 C76.5499143,43.7308511 74.8265101,43.8141844 73.2236732,43.8141844" id="Fill-168" fill="#3E4348"></path>
                            <path d="M29.7158718,35.9826241 C30.0765101,36.5723404 30.5669356,37.1865248 31.2332477,37.7843972 C33.9782831,40.2496454 38.68112,41.6762411 45.2112619,42.0241135 C46.1360846,42.0734043 47.0396307,42.0985816 47.8974321,42.0985816 C54.7935314,42.0985816 58.3272193,40.5113475 60.1346661,38.9404255 C59.9364392,38.4886525 59.8027512,38.0109929 59.7343115,37.5106383 C58.9609073,37.3280142 58.2077158,37.137234 57.4719002,36.9507092 C55.4506236,36.4386525 53.5414037,35.9546099 52.2967229,35.9546099 C50.9740278,35.9546099 49.2052335,36.4007092 47.3325385,36.8730496 C45.0194179,37.4567376 42.3977867,38.1177305 39.8818292,38.1177305 C37.550269,38.1177305 35.2087796,37.5595745 33.2261555,37.0138298 C32.4772193,36.8049645 31.7421129,36.5851064 31.0243824,36.3705674 C30.579347,36.237234 30.1424675,36.1067376 29.7158718,35.9826241 M47.8974321,44.935461 C46.9896307,44.935461 46.0350207,44.9088652 45.060198,44.8570922 C37.8669356,44.4737589 32.5768647,42.8046099 29.3378576,39.8953901 C27.0992051,37.8861702 26.3052335,35.6829787 26.0332477,34.1882979 C25.9488505,33.7255319 26.0995597,33.2514184 26.4350207,32.9223404 C26.7704817,32.5929078 27.2477867,32.4510638 27.708425,32.543617 C28.9953044,32.8028369 30.3758009,33.2156028 31.8371484,33.6524823 C32.5385668,33.8624113 33.2562973,34.0769504 33.9836023,34.2801418 C35.7789924,34.7741135 37.8882122,35.2808511 39.8818292,35.2808511 C42.045659,35.2808511 44.3807654,34.691844 46.6385668,34.1223404 C48.6871484,33.6056738 50.6219002,33.1177305 52.2967229,33.1177305 C53.8953044,33.1177305 55.8758009,33.6195035 58.1687087,34.2007092 C59.2179995,34.4666667 60.3027512,34.741844 61.4098434,34.9819149 C62.0960136,35.1308511 62.5697725,35.7592199 62.5243824,36.4595745 C62.4772193,37.1879433 62.6460136,37.798227 63.0399853,38.3251773 C63.4399853,38.8599291 63.4126803,39.6010638 62.9750917,40.1046099 C60.1906945,43.3102837 55.1176448,44.935461 47.8974321,44.935461" id="Fill-169" fill="#3E4348"></path>
                            <path d="M6.3410491,34.4265957 C6.95665194,37.1978723 9.23324768,39.1666667 12.952042,40.072695 C14.7378576,40.512766 16.8527512,40.7053191 19.2814746,40.6421986 C22.6821839,40.5535461 25.6250917,39.8496454 28.0562973,38.5457447 C27.110198,37.3666667 26.5743824,36.1897163 26.2733186,35.1858156 C25.5187087,35.1021277 24.2414037,35.0262411 22.1116165,35.0262411 C17.4818292,35.0262411 11.737503,35.3840426 11.6800562,35.3875887 L11.5910491,35.3900709 C9.67580087,35.3900709 7.90097818,35.0613475 6.3410491,34.4265957 M18.4023966,43.4904255 C16.1222548,43.4904255 14.0612619,43.2680851 12.2772193,42.8280142 C6.2339569,41.3556738 2.90629733,37.2404255 3.37899236,31.820922 C3.42367321,31.308156 3.74282215,30.8595745 4.21268031,30.6492908 C4.68289307,30.4393617 5.22970158,30.5 5.64211293,30.8085106 C7.15736116,31.9432624 9.19885052,32.5460993 11.5484959,32.5531915 C12.110198,32.5191489 17.614808,32.1893617 22.1116165,32.1893617 C24.5928222,32.1893617 26.3208363,32.285461 27.3949498,32.4829787 L27.6995597,32.541844 C28.272964,32.6535461 28.7197725,33.1053191 28.8243824,33.6804965 C29.0169356,34.7390071 29.5914037,36.3106383 31.2332477,37.7843972 C31.5555881,38.0737589 31.7282831,38.4946809 31.7016874,38.927305 C31.6750917,39.3595745 31.452042,39.756383 31.0967229,40.0039007 C27.9616165,42.1879433 24.0112619,43.3567376 19.3545243,43.4783688 C19.0307654,43.4868794 18.7137441,43.4904255 18.4023966,43.4904255" id="Fill-170" fill="#3E4348"></path>
                            <path d="M67.0201271,40.3886525 C65.0885668,39.9400709 63.7275739,39.2432624 63.0399853,38.3251773 C63.0371484,38.320922 63.0343115,38.3170213 63.03112,38.3131206 C63.0307654,38.312766 63.0304108,38.3120567 63.0304108,38.3117021 C63.0275739,38.308156 63.0250917,38.3046099 63.0226094,38.3010638 C63.0219002,38.3003546 63.0215456,38.2996454 63.0208363,38.2989362 C63.0187087,38.2960993 63.0162264,38.2929078 63.0140987,38.2897163 C63.0133895,38.2886525 63.0123257,38.287234 63.0116165,38.2861702 C63.0098434,38.2836879 63.0080704,38.2815603 63.0062973,38.279078 C63.0052335,38.277305 63.0038151,38.2755319 63.0023966,38.2737589 C63.0016874,38.272695 63.0009782,38.2712766 63.000269,38.2702128 C62.9733186,38.2326241 62.9477867,38.1943262 62.9233186,38.1556738 C62.9797016,38.1652482 63.03573,38.1741135 63.0914037,38.1829787 C64.410198,38.3921986 65.5949498,38.4939716 66.7133895,38.4939716 C70.7555881,38.4939716 80.7945952,35.8113475 86.358425,31.3670213 C86.5995597,31.6343972 86.8194179,31.8975177 87.0109073,32.1539007 C86.9222548,32.3524823 86.7804108,32.5496454 86.574737,32.7457447 C81.7697725,37.3060284 71.1740278,40.3124113 67.0201271,40.3886525" id="Fill-171" fill="#8E5B3B"></path>
                            <path d="M40.0300562,40.0138298 C37.979347,40.0138298 35.8272193,39.5322695 33.7506236,38.9606383 C33.193886,38.8053191 32.6424675,38.6432624 32.0995597,38.4815603 C31.7917583,38.2592199 31.5031058,38.0269504 31.2332477,37.7843972 C31.2268647,37.779078 31.2208363,37.7734043 31.214808,37.7677305 C31.2140987,37.7670213 31.2130349,37.7666667 31.2123257,37.7659574 C31.2066519,37.7606383 31.2013328,37.7556738 31.195659,37.7507092 C31.1953044,37.75 31.1945952,37.7496454 31.1942406,37.7492908 C30.8960136,37.4787234 30.6339569,37.2049645 30.4031058,36.9319149 C30.4031058,36.9319149 30.4027512,36.9315603 30.4023966,36.9312057 C30.3981413,36.9258865 30.3935314,36.9205674 30.3889214,36.9152482 C30.3885668,36.9148936 30.3882122,36.9141844 30.387503,36.9134752 C30.3828931,36.908156 30.3782831,36.9028369 30.3740278,36.8971631 C30.3736732,36.8971631 30.3736732,36.8968085 30.3733186,36.8968085 C30.3687087,36.8911348 30.3637441,36.8851064 30.3591342,36.8794326 C30.3587796,36.879078 30.358425,36.8787234 30.3580704,36.8783688 C30.3541697,36.8734043 30.350269,36.8687943 30.3460136,36.8638298 C30.3445952,36.8617021 30.3428222,36.8599291 30.3410491,36.8578014 C30.3385668,36.8546099 30.3360846,36.851773 30.3336023,36.8485816 C30.3314746,36.8457447 30.329347,36.8432624 30.3272193,36.8407801 C30.3250917,36.8382979 30.322964,36.8358156 30.3208363,36.8333333 C30.3187087,36.8304965 30.3162264,36.827305 30.3137441,36.8244681 C30.3126803,36.8230496 30.3112619,36.8216312 30.310198,36.8202128 C30.2999143,36.8074468 30.2896307,36.7950355 30.2797016,36.7822695 C30.279347,36.7819149 30.2789924,36.7815603 30.2786378,36.7808511 C30.0626803,36.5124113 29.8765101,36.2450355 29.7158718,35.9826241 C30.1424675,36.1067376 30.579347,36.237234 31.0243824,36.3705674 C31.7421129,36.5851064 32.4772193,36.8049645 33.2261555,37.0138298 C35.2087796,37.5595745 37.550269,38.1177305 39.8818292,38.1177305 C42.3977867,38.1177305 45.0194179,37.4567376 47.3325385,36.8730496 C49.2052335,36.4007092 50.9740278,35.9546099 52.2967229,35.9546099 C53.5414037,35.9546099 55.4506236,36.4386525 57.4719002,36.9507092 C58.2077158,37.137234 58.9609073,37.3280142 59.7343115,37.5106383 C59.7410491,37.5613475 59.7488505,37.6117021 59.7570065,37.6617021 C59.7570065,37.6620567 59.7570065,37.6620567 59.7570065,37.6624113 C59.7594888,37.6769504 59.7619711,37.6914894 59.7644534,37.7060284 C59.764808,37.7074468 59.7651626,37.7088652 59.7651626,37.7099291 C59.7676448,37.7237589 59.7701271,37.737234 59.7726094,37.7510638 C59.772964,37.7531915 59.7733186,37.7549645 59.7736732,37.7570922 C59.7750917,37.7641844 59.7761555,37.7712766 59.7775739,37.7783688 C59.7779285,37.7804965 59.7782831,37.7826241 59.7786378,37.7847518 C59.779347,37.7886525 59.7800562,37.7925532 59.78112,37.7960993 C59.7814746,37.7989362 59.7818292,37.8014184 59.7825385,37.8042553 C59.7836023,37.8095745 59.7846661,37.8152482 59.78573,37.820922 C59.7864392,37.8241135 59.7871484,37.8276596 59.787503,37.8308511 C59.7882122,37.8343972 59.7889214,37.8379433 59.7896307,37.8411348 C59.7903399,37.8446809 59.7910491,37.8478723 59.7917583,37.8514184 C59.7928222,37.8560284 59.7935314,37.8602837 59.7945952,37.864539 C59.7953044,37.8687943 59.7963682,37.8734043 59.7970775,37.8776596 C59.7977867,37.8804965 59.7981413,37.8833333 59.7988505,37.8861702 C59.7995597,37.8900709 59.8006236,37.8943262 59.8013328,37.898227 C59.8023966,37.9024823 59.8031058,37.9067376 59.8041697,37.9106383 C59.8048789,37.9148936 59.8055881,37.9187943 59.8066519,37.922695 C59.8073612,37.9258865 59.8080704,37.9287234 59.808425,37.9319149 C59.8094888,37.9358156 59.810198,37.9400709 59.8112619,37.9439716 C59.8119711,37.9478723 59.8130349,37.9521277 59.8137441,37.956383 C59.814808,37.9602837 59.8158718,37.9641844 59.816581,37.9684397 C59.8172902,37.9712766 59.8179995,37.9741135 59.8187087,37.977305 C59.8194179,37.9815603 59.8204817,37.9858156 59.8215456,37.9900709 C59.8226094,37.9939716 59.8233186,37.998227 59.8243824,38.0021277 C59.8250917,38.0056738 59.8261555,38.0095745 59.8268647,38.0134752 C59.8275739,38.0163121 59.8282831,38.0195035 59.8289924,38.022695 C59.8300562,38.0265957 59.83112,38.0308511 59.8318292,38.0351064 C59.8328931,38.0393617 59.8339569,38.043617 59.8350207,38.0478723 C59.83573,38.0514184 59.8367938,38.0549645 59.837503,38.0585106 C59.8382122,38.0617021 59.8389214,38.064539 59.8399853,38.0677305 C59.8410491,38.0723404 59.8421129,38.0769504 59.8431768,38.0815603 C59.8442406,38.085461 59.8453044,38.0893617 59.8460136,38.093617 C59.8470775,38.0968085 59.8477867,38.0996454 59.8484959,38.1028369 C59.8495597,38.106383 59.850269,38.1095745 59.8509782,38.112766 C59.852042,38.1166667 59.8531058,38.1205674 59.8538151,38.1241135 C59.8552335,38.129078 59.8566519,38.1343972 59.8577158,38.1393617 C59.858425,38.141844 59.8591342,38.1443262 59.8598434,38.1471631 C59.8609073,38.1507092 59.8616165,38.1546099 59.8626803,38.158156 C59.8630349,38.1592199 59.8633895,38.1602837 59.8637441,38.1613475 C59.8655172,38.1695035 59.8676448,38.177305 59.8697725,38.1851064 C59.8704817,38.1868794 59.8708363,38.1886525 59.8711909,38.1904255 C59.8750917,38.2039007 59.8786378,38.2173759 59.8821839,38.2304965 C59.8825385,38.2319149 59.8828931,38.2329787 59.8832477,38.2340426 C59.950269,38.4758865 60.0343115,38.7113475 60.1346661,38.9404255 C59.9906945,39.0656028 59.83573,39.1907801 59.6690633,39.3152482 C56.8187087,38.6223404 54.2289924,37.8507092 52.4449498,37.8507092 C49.2073612,37.8507092 44.3867938,40.0138298 40.0300562,40.0138298" id="Fill-172" fill="#C25040"></path>
                            <path d="M66.8616165,40.3900709 C65.7460136,40.3900709 64.600269,40.277305 63.4619711,40.0968085 C63.3204817,40.0744681 63.179347,40.0510638 63.0378576,40.0269504 C63.4144534,39.5269504 63.4201271,38.8329787 63.0399853,38.3251773 C63.7275739,39.2432624 65.0885668,39.9400709 67.0201271,40.3886525 C66.9658718,40.3897163 66.9133895,40.3900709 66.8616165,40.3900709 M66.7133895,38.4939716 C65.5949498,38.4939716 64.410198,38.3921986 63.0914037,38.1829787 C63.03573,38.1741135 62.9797016,38.1652482 62.9233186,38.1556738 C62.9477867,38.1943262 62.9733186,38.2326241 63.000269,38.2702128 C62.6676448,37.8021277 62.5087796,37.2687943 62.5169356,36.6468085 C62.7821839,36.6946809 63.0481413,36.7400709 63.3137441,36.7819149 C64.452042,36.962766 65.5977867,37.0755319 66.7133895,37.0755319 C70.7449498,37.0755319 81.5321839,34.0588652 86.4080704,29.4492908 C86.8016874,30.4 87.3974321,31.2897163 87.0109073,32.1539007 C86.8194179,31.8975177 86.5995597,31.6343972 86.358425,31.3670213 C80.7945952,35.8113475 70.7555881,38.4939716 66.7133895,38.4939716" id="Fill-173" fill="#3E4348"></path>
                            <path d="M63.0378576,40.0269504 C62.4410491,39.9248227 61.8453044,39.8074468 61.2570065,39.6829787 C60.7211909,39.5663121 60.1906945,39.4421986 59.6690633,39.3152482 C59.83573,39.1907801 59.9906945,39.0656028 60.1346661,38.9404255 C60.0343115,38.7113475 59.950269,38.4758865 59.8832477,38.2340426 C59.8828931,38.2329787 59.8825385,38.2315603 59.8821839,38.2304965 C59.8786378,38.2173759 59.8750917,38.2039007 59.8711909,38.1904255 C59.8708363,38.1886525 59.8704817,38.1868794 59.8697725,38.1851064 C59.8676448,38.177305 59.8655172,38.1695035 59.8637441,38.1613475 C59.8633895,38.1602837 59.8630349,38.1592199 59.8626803,38.158156 C59.8616165,38.1546099 59.8609073,38.1507092 59.8598434,38.1471631 C59.8591342,38.1443262 59.858425,38.141844 59.8577158,38.1393617 C59.8566519,38.1343972 59.8552335,38.129078 59.8538151,38.1241135 C59.8531058,38.1205674 59.852042,38.1166667 59.8509782,38.112766 C59.850269,38.1095745 59.8495597,38.106383 59.8484959,38.1028369 C59.8477867,38.0996454 59.8470775,38.0964539 59.8460136,38.093617 C59.8453044,38.0893617 59.8442406,38.085461 59.8431768,38.0815603 C59.8421129,38.0769504 59.8410491,38.0723404 59.8399853,38.0677305 C59.8389214,38.064539 59.8382122,38.0617021 59.837503,38.0585106 C59.8367938,38.0549645 59.83573,38.0514184 59.8350207,38.0478723 C59.8339569,38.043617 59.8328931,38.0393617 59.8318292,38.0351064 C59.83112,38.0308511 59.8300562,38.0265957 59.8289924,38.022695 C59.8282831,38.0195035 59.8275739,38.0163121 59.8268647,38.0134752 C59.8261555,38.0095745 59.8250917,38.0060284 59.8243824,38.0021277 C59.8233186,37.998227 59.8226094,37.9939716 59.8215456,37.9900709 C59.8204817,37.9858156 59.8194179,37.9815603 59.8187087,37.977305 C59.8179995,37.9741135 59.8172902,37.9712766 59.816581,37.9684397 C59.8158718,37.9641844 59.814808,37.9602837 59.8137441,37.956383 C59.8130349,37.9521277 59.8119711,37.9478723 59.8112619,37.9439716 C59.810198,37.9400709 59.8094888,37.9358156 59.808425,37.9319149 C59.8080704,37.9287234 59.8073612,37.9258865 59.8066519,37.922695 C59.8055881,37.9187943 59.8048789,37.9148936 59.8041697,37.9106383 C59.8031058,37.9067376 59.8023966,37.9024823 59.8013328,37.898227 C59.8006236,37.8943262 59.7995597,37.8900709 59.7988505,37.8861702 C59.7981413,37.8833333 59.7977867,37.8804965 59.7970775,37.8776596 C59.7963682,37.8734043 59.7953044,37.8687943 59.7945952,37.864539 C59.7935314,37.8602837 59.7928222,37.8560284 59.7917583,37.8514184 C59.7910491,37.8478723 59.7903399,37.8446809 59.7896307,37.8411348 C59.7889214,37.8379433 59.7882122,37.8343972 59.787503,37.8308511 C59.7871484,37.8276596 59.7864392,37.8241135 59.78573,37.820922 C59.7846661,37.8152482 59.7836023,37.8095745 59.7825385,37.8042553 C59.7818292,37.8014184 59.7814746,37.7989362 59.78112,37.7960993 C59.7800562,37.7925532 59.779347,37.7886525 59.7786378,37.7847518 C59.7782831,37.7826241 59.7779285,37.7804965 59.7775739,37.7783688 C59.7761555,37.7712766 59.7750917,37.7641844 59.7736732,37.7570922 C59.7733186,37.7549645 59.772964,37.7531915 59.7726094,37.7510638 C59.7701271,37.737234 59.7676448,37.7237589 59.7651626,37.7099291 C59.7651626,37.7088652 59.764808,37.7074468 59.7644534,37.7060284 C59.7619711,37.6914894 59.7594888,37.6769504 59.7570065,37.6624113 C59.7570065,37.6620567 59.7570065,37.6620567 59.7570065,37.6617021 C59.7488505,37.6117021 59.7410491,37.5613475 59.7343115,37.5106383 C58.9609073,37.3280142 58.2077158,37.137234 57.4719002,36.9507092 C55.4506236,36.4386525 53.5414037,35.9546099 52.2967229,35.9546099 C50.9740278,35.9546099 49.2052335,36.4007092 47.3325385,36.8730496 C45.0194179,37.4567376 42.3977867,38.1177305 39.8818292,38.1177305 C37.550269,38.1177305 35.2087796,37.5595745 33.2261555,37.0138298 C32.4772193,36.8049645 31.7421129,36.5851064 31.0243824,36.3705674 C30.579347,36.237234 30.1424675,36.1067376 29.7158718,35.9826241 C29.8765101,36.2450355 30.0626803,36.5124113 30.2786378,36.7808511 C29.5679995,35.8975177 29.1800562,35.0283688 28.9701271,34.3010638 C30.4140987,34.6865248 31.9860846,35.1953901 33.6023966,35.6460993 C35.6789924,36.2177305 37.83112,36.6992908 39.8818292,36.6992908 C44.2385668,36.6992908 49.0591342,34.5361702 52.2967229,34.5361702 C54.4073612,34.5361702 57.6449498,35.6159574 61.1087796,36.3684397 C61.574737,36.4670213 62.0449498,36.5609929 62.5169356,36.6468085 C62.5087796,37.2687943 62.6676448,37.8021277 63.000269,38.2702128 C63.0009782,38.2712766 63.0016874,38.272695 63.0023966,38.2737589 C63.0038151,38.2755319 63.0052335,38.277305 63.0062973,38.279078 C63.0080704,38.2815603 63.0098434,38.2836879 63.0116165,38.2861702 C63.0123257,38.287234 63.0133895,38.2886525 63.0140987,38.2897163 C63.0162264,38.2929078 63.0187087,38.2960993 63.0208363,38.2989362 C63.0215456,38.2996454 63.0219002,38.3003546 63.0226094,38.3010638 C63.0250917,38.3046099 63.0275739,38.308156 63.0304108,38.3117021 C63.0304108,38.3120567 63.0307654,38.312766 63.03112,38.3131206 C63.0343115,38.3170213 63.0371484,38.320922 63.0399853,38.3251773 C63.4201271,38.8329787 63.4144534,39.5269504 63.0378576,40.0269504 M32.0995597,38.4815603 C31.9360846,38.4329787 31.7733186,38.3840426 31.6116165,38.3358156 C31.5321839,38.1269504 31.4034604,37.937234 31.2332477,37.7843972 C31.5031058,38.0269504 31.7917583,38.2592199 32.0995597,38.4815603 M30.310198,36.8202128 C30.2999143,36.8074468 30.2896307,36.7950355 30.2797016,36.7822695 C30.2896307,36.7950355 30.2999143,36.8074468 30.310198,36.8202128" id="Fill-174" fill="#3E4348"></path>
                            <path d="M11.7392761,37.2865248 C10.0073612,37.2865248 8.49672286,37.0010638 7.20665194,36.5031915 C6.79849591,35.8737589 6.50842499,35.1797872 6.3410491,34.4265957 C7.90097818,35.0613475 9.67580087,35.3900709 11.5910491,35.3900709 L11.6800562,35.3875887 C11.737503,35.3840426 17.4818292,35.0262411 22.1116165,35.0262411 C24.2414037,35.0262411 25.5187087,35.1021277 26.2733186,35.1858156 C26.3250917,35.358156 26.3836023,35.5358156 26.450269,35.7177305 C26.450269,35.7184397 26.4506236,35.7191489 26.4509782,35.7198582 C26.452042,35.722695 26.4531058,35.7255319 26.4541697,35.7280142 C26.4548789,35.7304965 26.4555881,35.7326241 26.4566519,35.7347518 C26.4570065,35.7361702 26.4573612,35.737234 26.4577158,35.7386525 C26.4587796,35.7414894 26.460198,35.7446809 26.4612619,35.7475177 C26.4612619,35.7478723 26.4612619,35.7478723 26.4612619,35.748227 C26.6279285,36.1985816 26.8424675,36.6748227 27.1183541,37.1634752 C26.0105526,36.9851064 24.2279285,36.9223404 22.2612619,36.9223404 C17.5307654,36.9223404 11.7392761,37.2865248 11.7392761,37.2865248" id="Fill-175" fill="#8E5B3B"></path>
                            <path d="M26.7723186,36.1315911 C26.5843186,35.8081359 26.4193186,35.4922469 26.2733186,35.1858156 C26.4193186,35.4928774 26.5843186,35.8081359 26.7723186,36.1315911" id="Fill-176" fill="#3E4348"></path>
                            <path d="M31.6116165,38.3358156 C30.1758009,37.906383 28.8087796,37.4968085 27.5768647,37.2489362 C27.4789924,37.2301418 27.38112,37.2113475 27.2867938,37.1925532 C27.2325385,37.1826241 27.1765101,37.172695 27.1183541,37.1634752 C26.8424675,36.6748227 26.6279285,36.1985816 26.4612619,35.748227 C26.4612619,35.7478723 26.4612619,35.7478723 26.4612619,35.7475177 C26.460198,35.7446809 26.4587796,35.7414894 26.4577158,35.7386525 C26.4573612,35.737234 26.4570065,35.7361702 26.4566519,35.7347518 C26.4555881,35.7326241 26.4548789,35.7304965 26.4541697,35.7280142 C26.4531058,35.7251773 26.452042,35.722695 26.4509782,35.7198582 C26.4506236,35.7191489 26.450269,35.7184397 26.450269,35.7177305 C26.3836023,35.5358156 26.3250917,35.3585106 26.2733186,35.1858156 C25.5187087,35.1021277 24.2414037,35.0262411 22.1116165,35.0262411 C17.4818292,35.0262411 11.737503,35.3840426 11.6800562,35.3875887 L11.5910491,35.3900709 C9.67580087,35.3900709 7.90097818,35.0613475 6.3410491,34.4265957 C6.50842499,35.1797872 6.79849591,35.8737589 7.20665194,36.5031915 C6.35487889,36.1741135 5.59955974,35.7524823 4.93998527,35.2588652 C3.88253846,34.191844 3.60594272,32.6978723 3.78360229,31.0613475 C4.08998527,31.3755319 4.42580087,31.6705674 4.79175832,31.9443262 C6.45026896,33.1858156 8.71551719,33.9719858 11.5914037,33.9719858 C11.5914037,33.9719858 17.3828931,33.6078014 22.1130349,33.6078014 C24.1828931,33.6078014 26.0484959,33.6776596 27.1385668,33.8780142 C27.2328931,33.8968085 27.3307654,33.9156028 27.4286378,33.9343972 C27.9222548,34.0336879 28.437503,34.1588652 28.9701271,34.3010638 C29.1800562,35.0283688 29.5679995,35.8975177 30.2786378,36.7808511 C30.2789924,36.7815603 30.279347,36.7819149 30.2797016,36.7822695 C30.2896307,36.7950355 30.2999143,36.8074468 30.310198,36.8202128 C30.3112619,36.8216312 30.3126803,36.8230496 30.3137441,36.8244681 C30.3162264,36.827305 30.3187087,36.8301418 30.3208363,36.8333333 C30.322964,36.8358156 30.3250917,36.8382979 30.3272193,36.8407801 C30.3289924,36.8432624 30.3314746,36.8457447 30.3336023,36.8485816 C30.3360846,36.851773 30.3385668,36.8546099 30.3410491,36.8578014 C30.3428222,36.8599291 30.3445952,36.8617021 30.3460136,36.8638298 C30.350269,36.8687943 30.3541697,36.8734043 30.3580704,36.8783688 C30.358425,36.8787234 30.3587796,36.879078 30.3591342,36.8794326 C30.3637441,36.8851064 30.3687087,36.8911348 30.3733186,36.8968085 C30.3736732,36.8971631 30.3736732,36.8971631 30.3740278,36.8971631 C30.3782831,36.9028369 30.3828931,36.908156 30.387503,36.9134752 C30.3882122,36.9141844 30.3885668,36.914539 30.3889214,36.9152482 C30.3935314,36.9205674 30.3981413,36.9258865 30.4023966,36.9312057 C30.4027512,36.9315603 30.4027512,36.9319149 30.4031058,36.9319149 C30.6339569,37.2049645 30.8960136,37.4787234 31.1942406,37.7492908 C31.1945952,37.7496454 31.1953044,37.7503546 31.195659,37.7507092 C31.2013328,37.7556738 31.2066519,37.7606383 31.2123257,37.7659574 C31.2130349,37.7663121 31.2140987,37.7673759 31.214808,37.7677305 C31.2208363,37.7734043 31.2268647,37.779078 31.2332477,37.7843972 C31.4034604,37.937234 31.5321839,38.1269504 31.6116165,38.3358156" id="Fill-177" fill="#3E4348"></path>
                            <path d="M4.79175832,31.9443262 C6.45026896,33.1858156 8.71551719,33.9719858 11.5914037,33.9719858 C11.5914037,33.9719858 23.5580704,33.2195035 27.1385668,33.8780142 C27.2328931,33.8968085 27.3307654,33.9156028 27.4286378,33.9343972 C29.2605526,34.3031915 31.3899853,35.029078 33.6023966,35.6460993 C35.6789924,36.2177305 37.83112,36.6992908 39.8818292,36.6992908 C44.2385668,36.6992908 49.0591342,34.5361702 52.2967229,34.5361702 C54.4073612,34.5361702 57.6449498,35.6159574 61.1087796,36.3684397 C61.8364392,36.5223404 62.5750917,36.6656028 63.3137441,36.7819149 C64.452042,36.962766 65.5977867,37.0755319 66.7133895,37.0755319 C70.7484959,37.0755319 81.5605526,34.0510638 86.4258009,29.4312057 C87.9222548,28.0092199 88.858425,26.4368794 88.858425,24.7549645 C88.858425,19.8758865 84.6421129,17.4531915 81.9683541,16.4035461 C81.4860846,24.5067376 74.822964,28.170922 69.2591342,28.170922 L23.0867938,28.170922 C13.0612619,28.170922 9.31835407,22.5432624 8.68147463,16.7797872 C0.536439172,18.5556738 -0.760014729,27.7946809 4.79175832,31.9443262" id="Fill-178" fill="#87B956"></path>
                            <path d="M71.2804108,32.0120567 L21.2123257,32.0120567 C10.3403399,32.0120567 6.28147463,26.3840426 5.59069449,20.6205674 C5.51303492,19.9925532 5.47651009,19.3606383 5.47651009,18.7361702 C6.59282215,18.3975177 7.70736116,18.0705674 8.82012711,17.7553191 C9.76197109,23.1617021 13.6282831,28.170922 23.0867938,28.170922 L69.2591342,28.170922 C74.4399853,28.170922 80.574737,24.9932624 81.7804108,18.0124113 C82.8903399,18.4198582 83.9931768,18.8489362 85.0924675,19.3003546 C85.0924675,19.6202128 85.0853753,19.9361702 85.0640987,20.2446809 C84.5428222,28.3478723 77.3194179,32.0120567 71.2804108,32.0120567" id="Fill-179" fill="#7DA654"></path>
                            <path d="M8.57615548,14.8950355 C8.57615548,15.5195035 8.60984343,16.1514184 8.68147463,16.7797872 C9.31835407,22.5432624 13.0612619,28.170922 23.0867938,28.170922 L69.2591342,28.170922 C74.822964,28.170922 81.4860846,24.5067376 81.9683541,16.4035461 C81.9860846,16.0950355 81.9931768,15.779078 81.9931768,15.4595745 C81.9931768,6.69787234 75.0321839,1.76914894 68.0658718,1.76914894 C61.0981413,1.76914894 57.3279285,3.73475177 53.7435314,5.31843972 C47.9194179,0.508510638 39.2531058,-0.257801418 31.7577158,5.31843972 C29.6495597,4.13617021 26.1655172,1.18652482 19.4453044,2.55957447 C13.102042,4.12836879 8.57615548,8.54503546 8.57615548,14.8950355" id="Fill-180" fill="#EBAD2D"></path>
                            <path d="M23.0867938,28.170922 C13.0612619,28.170922 9.31835407,22.5432624 8.68147463,16.7797872 C8.60984343,16.1514184 8.57615548,15.5195035 8.57615548,14.8950355 C8.57615548,8.54503546 13.102042,4.12836879 19.4453044,2.55957447 C20.6701271,2.30921986 21.7867938,2.20283688 22.8077158,2.20283688 C27.3892761,2.20283688 30.0336023,4.35177305 31.7577158,5.31843972 C31.7577158,5.31843972 29.0846661,3.84893617 25.560198,3.84893617 C22.1726094,3.84893617 17.9981413,5.20744681 14.6577158,10.5343972 C7.84211293,21.4035461 23.0867938,28.170922 23.0867938,28.170922" id="Fill-181" fill="#F3CA6D"></path>
                            <path d="M81.9470775,14.2223404 C81.9435314,14.2003546 81.9435314,14.1783688 81.9399853,14.156383 C81.9435314,14.1783688 81.9435314,14.2007092 81.9470775,14.2223404 M81.9080704,13.8060284 C81.9045243,13.7769504 81.9009782,13.7478723 81.8974321,13.7184397 C81.9009782,13.7478723 81.9045243,13.7769504 81.9080704,13.8060284 M81.858425,13.4035461 C81.8548789,13.3730496 81.8513328,13.343617 81.8477867,13.3134752 C81.8513328,13.343617 81.8548789,13.3734043 81.858425,13.4035461 M81.8016874,13.0021277 C81.7945952,12.9719858 81.7910491,12.9411348 81.7839569,12.9109929 C81.7910491,12.9414894 81.7945952,12.9719858 81.8016874,13.0021277 M81.7343115,12.6283688 C81.7272193,12.5836879 81.716581,12.5390071 81.7094888,12.4946809 C81.716581,12.5390071 81.7272193,12.5836879 81.7343115,12.6283688 M81.6562973,12.2386525 C81.645659,12.187234 81.6314746,12.1358156 81.6208363,12.0847518 C81.6314746,12.1358156 81.645659,12.187234 81.6562973,12.2386525 M81.5676448,11.8585106 C81.5570065,11.8148936 81.5463682,11.7716312 81.5321839,11.7283688 C81.5463682,11.7716312 81.5570065,11.8148936 81.5676448,11.8585106 M81.4683541,11.4833333 C81.4541697,11.4397163 81.4435314,11.3964539 81.429347,11.3531915 C81.4435314,11.3964539 81.4541697,11.4397163 81.4683541,11.4833333 M81.3513328,11.091844 C81.3442406,11.0638298 81.3336023,11.035461 81.3265101,11.0078014 C81.3336023,11.0358156 81.3442406,11.0638298 81.3513328,11.091844 M81.2343115,10.7283688 C81.2236732,10.7021277 81.216581,10.6765957 81.2059427,10.6503546 C81.216581,10.6765957 81.2236732,10.7024823 81.2343115,10.7283688" id="Fill-182" fill="#E2E3DF"></path>
                            <path d="M69.2591342,28.170922 L23.0867938,28.170922 C23.0867938,28.170922 57.2864392,24.9528369 68.7087796,23.0670213 C80.1314746,21.1812057 77.1421129,4.90496454 77.1421129,4.90496454 C78.5392761,6.0322695 79.7236732,7.45141844 80.5711909,9.14468085 C80.5711909,9.15141844 80.574737,9.15815603 80.5782831,9.16453901 L80.5782831,9.16560284 C80.5818292,9.17198582 80.5853753,9.1787234 80.5889214,9.18546099 L80.5889214,9.1858156 C80.5924675,9.19255319 80.5960136,9.19929078 80.5995597,9.20602837 L80.5995597,9.20638298 C80.6314746,9.2677305 80.6598434,9.32978723 80.6882122,9.39184397 C80.6917583,9.39219858 80.6917583,9.3929078 80.6917583,9.39361702 C80.6953044,9.39964539 80.6953044,9.40638298 80.6988505,9.41241135 C80.6988505,9.41347518 80.6988505,9.41347518 80.6988505,9.41453901 C80.7023966,9.42056738 80.7059427,9.42659574 80.7094888,9.43262411 C80.7094888,9.43404255 80.7094888,9.43475177 80.7094888,9.43617021 C80.7130349,9.44184397 80.716581,9.44787234 80.7201271,9.4535461 C80.7201271,9.45460993 80.7201271,9.45531915 80.7201271,9.45638298 C80.7236732,9.46205674 80.7272193,9.46808511 80.7272193,9.47375887 C80.7307654,9.47553191 80.7307654,9.47624113 80.7307654,9.47765957 C80.7343115,9.48333333 80.7343115,9.4893617 80.7378576,9.49503546 C80.7378576,9.49574468 80.7378576,9.49716312 80.7378576,9.49787234 C80.7414037,9.50390071 80.7449498,9.50992908 80.7484959,9.51595745 C80.7484959,9.51666667 80.7484959,9.5177305 80.7484959,9.51879433 C80.752042,9.52446809 80.7555881,9.53085106 80.7555881,9.53687943 C80.7591342,9.53758865 80.7591342,9.53865248 80.7591342,9.5393617 C80.7626803,9.54539007 80.7626803,9.55141844 80.7662264,9.5570922 C80.7662264,9.55851064 80.7662264,9.55921986 80.7697725,9.5606383 C80.7697725,9.56737589 80.7733186,9.57340426 80.7768647,9.58014184 L80.7768647,9.58049645 C80.7945952,9.61560284 80.8087796,9.65070922 80.822964,9.68617021 C80.8265101,9.6929078 80.8300562,9.7 80.8336023,9.70673759 C80.8336023,9.70780142 80.8336023,9.70851064 80.8336023,9.70921986 C80.8371484,9.71524823 80.8406945,9.7212766 80.8442406,9.72695035 C80.8442406,9.7287234 80.8442406,9.73049645 80.8442406,9.7322695 C80.8477867,9.73758865 80.8513328,9.7429078 80.8513328,9.74822695 C80.8513328,9.74964539 80.8548789,9.75141844 80.8548789,9.75283688 C80.8548789,9.75815603 80.858425,9.76382979 80.8619711,9.76914894 C80.8619711,9.77056738 80.8619711,9.77234043 80.8619711,9.77411348 C80.8655172,9.77943262 80.8690633,9.78475177 80.8690633,9.79007092 C80.8726094,9.79184397 80.8726094,9.79361702 80.8726094,9.79539007 C80.8761555,9.80035461 80.8761555,9.80531915 80.8797016,9.8106383 C80.8797016,9.81205674 80.8797016,9.81489362 80.8832477,9.81666667 C80.8832477,9.82163121 80.8867938,9.82695035 80.8867938,9.83191489 C80.8903399,9.83368794 80.8903399,9.8358156 80.8903399,9.83723404 C80.893886,9.84255319 80.893886,9.84787234 80.8974321,9.85283688 C80.8974321,9.85496454 80.8974321,9.85638298 80.9009782,9.85851064 C80.9009782,9.86347518 80.9045243,9.86879433 80.9045243,9.87375887 C80.9080704,9.87588652 80.9080704,9.87765957 80.9080704,9.87978723 C80.9116165,9.88475177 80.9116165,9.89007092 80.9151626,9.89503546 C80.9151626,9.89680851 80.9151626,9.89893617 80.9187087,9.90070922 C80.9187087,9.90602837 80.9222548,9.91170213 80.9258009,9.91702128 C80.9258009,9.91879433 80.9258009,9.91985816 80.9258009,9.92163121 C80.929347,9.92765957 80.9328931,9.93404255 80.9328931,9.94042553 C80.9328931,9.94078014 80.9364392,9.94184397 80.9364392,9.94255319 C80.9364392,9.94929078 80.9399853,9.95602837 80.9435314,9.96312057 L80.9435314,9.96382979 C80.9506236,9.97801418 80.9541697,9.99219858 80.9612619,10.006383 C80.9612619,10.0070922 80.9612619,10.0078014 80.9612619,10.008156 C80.964808,10.014539 80.9683541,10.020922 80.9683541,10.027305 C80.9719002,10.0294326 80.9719002,10.0315603 80.9719002,10.0336879 C80.9754463,10.0382979 80.9754463,10.0432624 80.9789924,10.048227 C80.9789924,10.0507092 80.9825385,10.0539007 80.9825385,10.056383 C80.9825385,10.0606383 80.9860846,10.0648936 80.9860846,10.0691489 C80.9896307,10.0723404 80.9896307,10.0748227 80.9896307,10.0780142 C80.9931768,10.0822695 80.9931768,10.0861702 80.9967229,10.0904255 C80.9967229,10.0932624 80.9967229,10.0960993 81.000269,10.0989362 C81.000269,10.1031915 81.0038151,10.1070922 81.0038151,10.1113475 C81.0038151,10.114539 81.0073612,10.1177305 81.0073612,10.120922 C81.0109073,10.1248227 81.0109073,10.1283688 81.0109073,10.1322695 C81.0144534,10.1351064 81.0144534,10.1390071 81.0179995,10.1421986 C81.0179995,10.1460993 81.0179995,10.1496454 81.0215456,10.1531915 C81.0215456,10.1567376 81.0250917,10.1599291 81.0250917,10.1634752 C81.0250917,10.1673759 81.0286378,10.1705674 81.0286378,10.1744681 C81.0286378,10.1776596 81.0321839,10.1815603 81.0321839,10.1843972 C81.03573,10.1882979 81.03573,10.191844 81.03573,10.1957447 C81.0392761,10.1992908 81.0392761,10.2024823 81.0428222,10.2056738 C81.0428222,10.2095745 81.0428222,10.2131206 81.0463682,10.2170213 C81.0463682,10.2202128 81.0499143,10.2234043 81.0499143,10.2269504 C81.0499143,10.2304965 81.0534604,10.2347518 81.0534604,10.2382979 C81.0570065,10.2414894 81.0570065,10.2446809 81.0570065,10.248227 C81.0605526,10.2521277 81.0605526,10.256383 81.0640987,10.2602837 C81.0640987,10.2631206 81.0640987,10.2663121 81.0676448,10.2691489 C81.0676448,10.2734043 81.0711909,10.2780142 81.0711909,10.2819149 C81.0711909,10.2851064 81.074737,10.2875887 81.074737,10.2907801 C81.074737,10.2939716 81.0782831,10.2978723 81.0782831,10.3010638 C81.0782831,10.3049645 81.0818292,10.3085106 81.0818292,10.3124113 C81.0818292,10.3138298 81.0853753,10.3152482 81.0853753,10.3166667 C81.0889214,10.3258865 81.0924675,10.335461 81.0960136,10.3446809 C81.0960136,10.3478723 81.0960136,10.3510638 81.0995597,10.3542553 C81.0995597,10.358156 81.1031058,10.3620567 81.1031058,10.3659574 C81.1031058,10.3691489 81.1066519,10.3723404 81.1066519,10.3755319 C81.1066519,10.3794326 81.110198,10.3843972 81.110198,10.3879433 C81.1137441,10.3907801 81.1137441,10.3939716 81.1137441,10.3964539 C81.1172902,10.4003546 81.1172902,10.4049645 81.1208363,10.4088652 C81.1208363,10.4120567 81.1208363,10.4148936 81.1208363,10.4180851 C81.1243824,10.4216312 81.1243824,10.4262411 81.1279285,10.4297872 C81.1279285,10.4329787 81.1279285,10.4361702 81.1314746,10.4397163 C81.1314746,10.443617 81.1350207,10.4475177 81.1350207,10.4514184 C81.1350207,10.4546099 81.1385668,10.4574468 81.1385668,10.4609929 C81.1385668,10.464539 81.1421129,10.4691489 81.1421129,10.472695 C81.145659,10.4762411 81.145659,10.479078 81.145659,10.4826241 C81.1492051,10.4865248 81.1492051,10.4900709 81.1492051,10.4939716 C81.1527512,10.4971631 81.1527512,10.5007092 81.1527512,10.5039007 C81.1562973,10.508156 81.1562973,10.5113475 81.1598434,10.5156028 C81.1598434,10.5191489 81.1598434,10.5219858 81.1633895,10.5251773 C81.1633895,10.5294326 81.1633895,10.5333333 81.1669356,10.537234 C81.1669356,10.5404255 81.1669356,10.543617 81.1704817,10.5468085 C81.1704817,10.5507092 81.1740278,10.5546099 81.1740278,10.5585106 C81.1740278,10.5620567 81.1775739,10.5652482 81.1775739,10.5687943 C81.1775739,10.572695 81.18112,10.5762411 81.18112,10.5801418 C81.18112,10.5833333 81.1846661,10.5865248 81.1846661,10.5897163 C81.1882122,10.5939716 81.1882122,10.5978723 81.1882122,10.6021277 C81.1917583,10.6046099 81.1917583,10.6074468 81.1917583,10.6099291 C81.1953044,10.614539 81.1953044,10.6195035 81.1988505,10.6237589 C81.1988505,10.6262411 81.1988505,10.6283688 81.1988505,10.6304965 C81.2023966,10.6358156 81.2023966,10.6400709 81.2059427,10.6453901 C81.2059427,10.6471631 81.2059427,10.6489362 81.2059427,10.6503546 C81.216581,10.6765957 81.2236732,10.7021277 81.2343115,10.7283688 C81.2343115,10.729078 81.2343115,10.7297872 81.2343115,10.7304965 C81.2343115,10.7358156 81.2378576,10.7407801 81.2378576,10.7460993 C81.2414037,10.748227 81.2414037,10.7503546 81.2414037,10.7524823 C81.2449498,10.7567376 81.2449498,10.7617021 81.2449498,10.7659574 C81.2484959,10.7687943 81.2484959,10.7712766 81.2484959,10.7741135 C81.252042,10.7787234 81.252042,10.7829787 81.252042,10.7875887 C81.2555881,10.7904255 81.2555881,10.7932624 81.2555881,10.7960993 C81.2591342,10.8007092 81.2591342,10.8046099 81.2591342,10.8088652 C81.2626803,10.8120567 81.2626803,10.8148936 81.2626803,10.8177305 C81.2662264,10.8223404 81.2662264,10.8262411 81.2697725,10.8304965 C81.2697725,10.8336879 81.2697725,10.8368794 81.2697725,10.8400709 C81.2733186,10.8439716 81.2733186,10.8485816 81.2768647,10.8524823 C81.2768647,10.8556738 81.2768647,10.858156 81.2768647,10.8613475 C81.2804108,10.8656028 81.2804108,10.8705674 81.2839569,10.8748227 C81.2839569,10.8776596 81.2839569,10.8801418 81.2839569,10.8826241 C81.287503,10.887234 81.287503,10.891844 81.2910491,10.8964539 C81.2910491,10.8992908 81.2910491,10.9021277 81.2910491,10.9049645 C81.2945952,10.9092199 81.2945952,10.9134752 81.2981413,10.9180851 C81.2981413,10.9212766 81.2981413,10.9241135 81.3016874,10.927305 C81.3016874,10.9312057 81.3016874,10.9358156 81.3052335,10.9397163 C81.3052335,10.9425532 81.3052335,10.9457447 81.3052335,10.9485816 C81.3087796,10.9528369 81.3087796,10.9578014 81.3123257,10.9624113 C81.3123257,10.964539 81.3123257,10.9673759 81.3123257,10.9695035 C81.3158718,10.9741135 81.3158718,10.979078 81.3194179,10.9840426 C81.3194179,10.9861702 81.3194179,10.9886525 81.3194179,10.9907801 C81.322964,10.9960993 81.322964,11.0010638 81.3265101,11.006383 C81.3265101,11.0070922 81.3265101,11.0074468 81.3265101,11.0078014 C81.3336023,11.035461 81.3442406,11.0638298 81.3513328,11.091844 C81.3513328,11.091844 81.3513328,11.0921986 81.3513328,11.0925532 C81.3548789,11.0978723 81.3548789,11.1035461 81.358425,11.1088652 C81.358425,11.1113475 81.358425,11.112766 81.358425,11.1148936 C81.3619711,11.1198582 81.3619711,11.1251773 81.3655172,11.1301418 C81.3655172,11.1326241 81.3655172,11.1343972 81.3655172,11.1368794 C81.3690633,11.141844 81.3690633,11.1471631 81.3726094,11.1521277 C81.3726094,11.1542553 81.3726094,11.1570922 81.3726094,11.1592199 C81.3761555,11.1641844 81.3761555,11.1687943 81.3761555,11.1737589 C81.3797016,11.1762411 81.3797016,11.1787234 81.3797016,11.1812057 C81.3832477,11.1861702 81.3832477,11.1907801 81.3832477,11.1957447 C81.3867938,11.198227 81.3867938,11.2010638 81.3867938,11.2031915 C81.3867938,11.208156 81.3903399,11.2131206 81.3903399,11.2180851 C81.3903399,11.2202128 81.393886,11.2230496 81.393886,11.2251773 C81.393886,11.2301418 81.3974321,11.2351064 81.3974321,11.2400709 C81.3974321,11.2429078 81.4009782,11.2450355 81.4009782,11.2475177 C81.4009782,11.2524823 81.4045243,11.2570922 81.4045243,11.2620567 C81.4045243,11.2648936 81.4045243,11.2673759 81.4080704,11.2698582 C81.4080704,11.2748227 81.4080704,11.279078 81.4116165,11.2840426 C81.4116165,11.2868794 81.4116165,11.2893617 81.4116165,11.2921986 C81.4151626,11.2971631 81.4151626,11.301773 81.4187087,11.3067376 C81.4187087,11.3088652 81.4187087,11.3109929 81.4187087,11.3131206 C81.4222548,11.3184397 81.4222548,11.3241135 81.4258009,11.3294326 C81.4258009,11.3312057 81.4258009,11.3322695 81.4258009,11.3340426 C81.4258009,11.3397163 81.429347,11.3460993 81.429347,11.3521277 C81.429347,11.3524823 81.429347,11.3528369 81.429347,11.3531915 C81.4435314,11.3964539 81.4541697,11.4397163 81.4683541,11.4833333 C81.4683541,11.4897163 81.4719002,11.4960993 81.4719002,11.5024823 C81.4754463,11.5039007 81.4754463,11.5049645 81.4754463,11.5060284 C81.4754463,11.5120567 81.4789924,11.5180851 81.4789924,11.5241135 C81.4789924,11.5255319 81.4789924,11.5269504 81.4789924,11.5283688 C81.4825385,11.5340426 81.4825385,11.5393617 81.4860846,11.5450355 C81.4860846,11.5471631 81.4860846,11.5492908 81.4860846,11.5514184 C81.4896307,11.5567376 81.4896307,11.5624113 81.4896307,11.5677305 C81.4931768,11.5698582 81.4931768,11.5716312 81.4931768,11.5734043 C81.4931768,11.579078 81.4967229,11.5843972 81.4967229,11.5900709 C81.4967229,11.591844 81.4967229,11.5939716 81.500269,11.5960993 C81.500269,11.6014184 81.500269,11.6070922 81.5038151,11.6124113 C81.5038151,11.614539 81.5038151,11.6163121 81.5038151,11.6187943 C81.5073612,11.6241135 81.5073612,11.629078 81.5109073,11.6343972 C81.5109073,11.6368794 81.5109073,11.6390071 81.5109073,11.6414894 C81.5109073,11.6468085 81.5144534,11.6521277 81.5144534,11.6574468 C81.5144534,11.6592199 81.5179995,11.6613475 81.5179995,11.662766 C81.5179995,11.6684397 81.5215456,11.6744681 81.5215456,11.6801418 C81.5215456,11.6815603 81.5215456,11.6836879 81.5215456,11.6851064 C81.5250917,11.6907801 81.5250917,11.6971631 81.5286378,11.7028369 C81.5286378,11.7042553 81.5286378,11.7053191 81.5286378,11.7067376 C81.5286378,11.7131206 81.5321839,11.7187943 81.5321839,11.7251773 C81.5321839,11.7262411 81.5321839,11.727305 81.5321839,11.7283688 C81.5463682,11.7716312 81.5570065,11.8148936 81.5676448,11.8585106 C81.5676448,11.8588652 81.5676448,11.8592199 81.5676448,11.8595745 C81.5676448,11.8663121 81.5711909,11.8734043 81.5711909,11.8804965 C81.5711909,11.8808511 81.5711909,11.8815603 81.5711909,11.8819149 C81.574737,11.8882979 81.574737,11.8950355 81.5782831,11.901773 C81.5782831,11.9028369 81.5782831,11.9035461 81.5782831,11.9049645 C81.5782831,11.9109929 81.5818292,11.9173759 81.5818292,11.9237589 C81.5818292,11.9251773 81.5818292,11.9262411 81.5853753,11.9276596 C81.5853753,11.9336879 81.5853753,11.9393617 81.5889214,11.9453901 C81.5889214,11.9471631 81.5889214,11.9492908 81.5889214,11.9510638 C81.5924675,11.9567376 81.5924675,11.9624113 81.5924675,11.9680851 C81.5924675,11.9702128 81.5960136,11.9716312 81.5960136,11.9737589 C81.5960136,11.9794326 81.5960136,11.9851064 81.5995597,11.9907801 C81.5995597,11.9929078 81.5995597,11.9946809 81.5995597,11.9968085 C81.6031058,12.0024823 81.6031058,12.008156 81.6031058,12.0138298 C81.6066519,12.0159574 81.6066519,12.0173759 81.6066519,12.0195035 C81.6066519,12.0248227 81.6066519,12.0308511 81.610198,12.0361702 C81.610198,12.0386525 81.610198,12.0404255 81.610198,12.0425532 C81.6137441,12.048227 81.6137441,12.0542553 81.6137441,12.0599291 C81.6137441,12.0609929 81.6172902,12.0624113 81.6172902,12.0638298 C81.6172902,12.0702128 81.6208363,12.0765957 81.6208363,12.0833333 C81.6208363,12.0836879 81.6208363,12.0840426 81.6208363,12.0847518 C81.6314746,12.1358156 81.645659,12.187234 81.6562973,12.2386525 C81.6562973,12.2400709 81.6562973,12.2411348 81.6562973,12.2425532 C81.6562973,12.2485816 81.6598434,12.2546099 81.6598434,12.2606383 C81.6598434,12.2624113 81.6598434,12.2638298 81.6598434,12.2656028 C81.6633895,12.2712766 81.6633895,12.2776596 81.6669356,12.2833333 C81.6669356,12.2851064 81.6669356,12.2868794 81.6669356,12.2890071 C81.6669356,12.2946809 81.6704817,12.3 81.6704817,12.3056738 C81.6704817,12.308156 81.6704817,12.3099291 81.6704817,12.3120567 C81.6740278,12.3177305 81.6740278,12.3234043 81.6740278,12.329078 C81.6740278,12.3312057 81.6775739,12.3333333 81.6775739,12.335461 C81.6775739,12.3407801 81.6775739,12.3464539 81.68112,12.351773 C81.68112,12.3539007 81.68112,12.3567376 81.68112,12.3588652 C81.68112,12.364539 81.6846661,12.3698582 81.6846661,12.3755319 C81.6846661,12.3776596 81.6846661,12.3797872 81.6846661,12.3815603 C81.6882122,12.3875887 81.6882122,12.3929078 81.6882122,12.3985816 C81.6882122,12.4007092 81.6917583,12.4028369 81.6917583,12.4049645 C81.6917583,12.4106383 81.6917583,12.4163121 81.6953044,12.4223404 C81.6953044,12.4241135 81.6953044,12.4262411 81.6953044,12.4280142 C81.6953044,12.4336879 81.6988505,12.4397163 81.6988505,12.4453901 C81.6988505,12.4471631 81.6988505,12.4492908 81.6988505,12.4510638 C81.7023966,12.4570922 81.7023966,12.4634752 81.7023966,12.4691489 C81.7023966,12.4702128 81.7059427,12.4716312 81.7059427,12.472695 C81.7059427,12.4794326 81.7059427,12.4858156 81.7094888,12.4925532 C81.7094888,12.4932624 81.7094888,12.4939716 81.7094888,12.4946809 C81.716581,12.5390071 81.7272193,12.5836879 81.7343115,12.6283688 C81.7343115,12.6294326 81.7343115,12.6304965 81.7343115,12.6315603 C81.7378576,12.6379433 81.7378576,12.643617 81.7378576,12.65 C81.7378576,12.651773 81.7378576,12.6535461 81.7414037,12.6553191 C81.7414037,12.6606383 81.7414037,12.6666667 81.7414037,12.6719858 C81.7449498,12.6744681 81.7449498,12.6769504 81.7449498,12.6794326 C81.7449498,12.6843972 81.7449498,12.6900709 81.7484959,12.6950355 C81.7484959,12.6975177 81.7484959,12.7003546 81.7484959,12.7031915 C81.7484959,12.7078014 81.752042,12.7134752 81.752042,12.7180851 C81.752042,12.7212766 81.752042,12.7241135 81.752042,12.727305 C81.7555881,12.7319149 81.7555881,12.7375887 81.7555881,12.7425532 C81.7555881,12.7450355 81.7555881,12.7475177 81.7591342,12.75 C81.7591342,12.7560284 81.7591342,12.7606383 81.7591342,12.7663121 C81.7591342,12.7691489 81.7626803,12.7712766 81.7626803,12.7741135 C81.7626803,12.7794326 81.7626803,12.7851064 81.7662264,12.7904255 C81.7662264,12.7925532 81.7662264,12.7950355 81.7662264,12.7971631 C81.7662264,12.8024823 81.7662264,12.8085106 81.7697725,12.8138298 C81.7697725,12.8163121 81.7697725,12.8187943 81.7697725,12.820922 C81.7697725,12.8269504 81.7733186,12.8326241 81.7733186,12.8382979 C81.7733186,12.8397163 81.7733186,12.8414894 81.7733186,12.8429078 C81.7733186,12.8489362 81.7768647,12.8560284 81.7768647,12.8620567 C81.7768647,12.8631206 81.7768647,12.8648936 81.7768647,12.8659574 C81.7804108,12.872695 81.7804108,12.879078 81.7804108,12.8858156 C81.7804108,12.8868794 81.7804108,12.8875887 81.7804108,12.8886525 C81.7839569,12.8957447 81.7839569,12.9024823 81.7839569,12.9095745 C81.7839569,12.9099291 81.7839569,12.9106383 81.7839569,12.9109929 C81.7910491,12.9411348 81.7945952,12.9719858 81.8016874,13.0021277 C81.8016874,13.0024823 81.8016874,13.0031915 81.8016874,13.0031915 C81.8016874,13.0113475 81.8016874,13.0184397 81.8052335,13.0262411 L81.8052335,13.0265957 C81.8052335,13.0336879 81.8052335,13.0404255 81.8087796,13.0475177 C81.8087796,13.0485816 81.8087796,13.0496454 81.8087796,13.0510638 C81.8087796,13.0574468 81.8087796,13.0638298 81.8123257,13.0702128 C81.8123257,13.0719858 81.8123257,13.0734043 81.8123257,13.0751773 C81.8123257,13.0804965 81.8123257,13.0865248 81.8158718,13.091844 C81.8158718,13.0946809 81.8158718,13.0975177 81.8158718,13.1 C81.8158718,13.1056738 81.8158718,13.1106383 81.8194179,13.1159574 C81.8194179,13.1184397 81.8194179,13.1212766 81.8194179,13.1241135 C81.8194179,13.1294326 81.8194179,13.1347518 81.822964,13.1400709 C81.822964,13.1425532 81.822964,13.1453901 81.822964,13.1478723 C81.822964,13.1539007 81.8265101,13.1588652 81.8265101,13.164539 C81.8265101,13.1670213 81.8265101,13.1695035 81.8265101,13.1716312 C81.8265101,13.177305 81.8300562,13.1829787 81.8300562,13.1882979 C81.8300562,13.1907801 81.8300562,13.193617 81.8300562,13.1960993 C81.8300562,13.2014184 81.8336023,13.2074468 81.8336023,13.212766 C81.8336023,13.2152482 81.8336023,13.2170213 81.8336023,13.2195035 C81.8336023,13.2255319 81.8371484,13.2308511 81.8371484,13.2368794 C81.8371484,13.2390071 81.8371484,13.2414894 81.8371484,13.2439716 C81.8371484,13.2496454 81.8406945,13.2553191 81.8406945,13.2613475 C81.8406945,13.2631206 81.8406945,13.2652482 81.8406945,13.2670213 C81.8406945,13.2730496 81.8406945,13.279078 81.8442406,13.2847518 C81.8442406,13.2875887 81.8442406,13.2904255 81.8442406,13.2929078 C81.8442406,13.2985816 81.8442406,13.3039007 81.8477867,13.3095745 C81.8477867,13.3106383 81.8477867,13.3120567 81.8477867,13.3134752 C81.8513328,13.343617 81.8548789,13.3730496 81.858425,13.4035461 C81.858425,13.4039007 81.858425,13.4046099 81.858425,13.4053191 C81.8619711,13.4109929 81.8619711,13.4163121 81.8619711,13.4223404 C81.8619711,13.4251773 81.8619711,13.4276596 81.8619711,13.4301418 C81.8655172,13.4358156 81.8655172,13.4407801 81.8655172,13.4464539 C81.8655172,13.4492908 81.8655172,13.4514184 81.8655172,13.4542553 C81.8655172,13.4599291 81.8690633,13.464539 81.8690633,13.4698582 C81.8690633,13.4730496 81.8690633,13.4762411 81.8690633,13.4794326 C81.8690633,13.4843972 81.8690633,13.4900709 81.8726094,13.4950355 C81.8726094,13.4975177 81.8726094,13.5007092 81.8726094,13.5031915 C81.8726094,13.5088652 81.8726094,13.514539 81.8761555,13.5198582 C81.8761555,13.522695 81.8761555,13.5248227 81.8761555,13.5276596 C81.8761555,13.5329787 81.8761555,13.5390071 81.8761555,13.5443262 C81.8761555,13.5471631 81.8797016,13.5492908 81.8797016,13.5521277 C81.8797016,13.5574468 81.8797016,13.562766 81.8797016,13.5680851 C81.8797016,13.5712766 81.8797016,13.5744681 81.8832477,13.5776596 C81.8832477,13.5822695 81.8832477,13.5875887 81.8832477,13.5921986 C81.8832477,13.5957447 81.8832477,13.5989362 81.8832477,13.6021277 C81.8867938,13.6074468 81.8867938,13.6120567 81.8867938,13.6170213 C81.8867938,13.6202128 81.8867938,13.6234043 81.8867938,13.6265957 C81.8867938,13.6319149 81.8903399,13.6368794 81.8903399,13.6421986 C81.8903399,13.6446809 81.8903399,13.6475177 81.8903399,13.65 C81.8903399,13.6553191 81.8903399,13.6609929 81.893886,13.6666667 C81.893886,13.6698582 81.893886,13.672695 81.893886,13.6758865 C81.893886,13.6808511 81.893886,13.6861702 81.893886,13.6914894 C81.893886,13.693617 81.893886,13.6960993 81.8974321,13.6985816 C81.8974321,13.7046099 81.8974321,13.7106383 81.8974321,13.7166667 C81.8974321,13.7170213 81.8974321,13.7180851 81.8974321,13.7184397 C81.9009782,13.7478723 81.9045243,13.7769504 81.9080704,13.8060284 C81.9080704,13.8088652 81.9080704,13.8113475 81.9080704,13.8141844 C81.9080704,13.8191489 81.9080704,13.8234043 81.9116165,13.8283688 C81.9116165,13.8322695 81.9116165,13.8358156 81.9116165,13.8393617 C81.9116165,13.843617 81.9116165,13.8478723 81.9116165,13.851773 C81.9116165,13.8560284 81.9116165,13.8602837 81.9151626,13.864539 C81.9151626,13.8687943 81.9151626,13.8730496 81.9151626,13.877305 C81.9151626,13.8812057 81.9151626,13.885461 81.9151626,13.8893617 C81.9151626,13.8939716 81.9187087,13.898227 81.9187087,13.9028369 C81.9187087,13.906383 81.9187087,13.9102837 81.9187087,13.9138298 C81.9187087,13.9191489 81.9187087,13.9230496 81.9187087,13.9283688 C81.9187087,13.9319149 81.9222548,13.9358156 81.9222548,13.9393617 C81.9222548,13.9439716 81.9222548,13.9478723 81.9222548,13.9524823 C81.9222548,13.956383 81.9222548,13.9602837 81.9222548,13.9641844 C81.9222548,13.9695035 81.9258009,13.9734043 81.9258009,13.9783688 C81.9258009,13.9819149 81.9258009,13.985461 81.9258009,13.9890071 C81.9258009,13.993617 81.9258009,13.9985816 81.9258009,14.0031915 C81.9258009,14.0067376 81.929347,14.0106383 81.929347,14.0141844 C81.929347,14.0187943 81.929347,14.0237589 81.929347,14.0283688 C81.929347,14.0319149 81.929347,14.0365248 81.929347,14.0400709 C81.929347,14.0446809 81.9328931,14.048227 81.9328931,14.0528369 C81.9328931,14.0567376 81.9328931,14.0609929 81.9328931,14.0648936 C81.9328931,14.0698582 81.9328931,14.0737589 81.9328931,14.0787234 C81.9328931,14.0822695 81.9328931,14.0858156 81.9364392,14.0893617 C81.9364392,14.0943262 81.9364392,14.0985816 81.9364392,14.1035461 C81.9364392,14.1070922 81.9364392,14.1106383 81.9364392,14.1141844 C81.9364392,14.1191489 81.9364392,14.1241135 81.9364392,14.1294326 C81.9399853,14.1319149 81.9399853,14.1340426 81.9399853,14.1365248 C81.9399853,14.1425532 81.9399853,14.148227 81.9399853,14.1542553 C81.9399853,14.1549645 81.9399853,14.1556738 81.9399853,14.156383 C81.9435314,14.1783688 81.9435314,14.2003546 81.9470775,14.2223404 C81.9470775,14.2244681 81.9470775,14.2265957 81.9470775,14.2287234 C81.9470775,14.2336879 81.9470775,14.2379433 81.9470775,14.2432624 C81.9470775,14.2471631 81.9470775,14.2510638 81.9470775,14.2546099 C81.9470775,14.2592199 81.9506236,14.2638298 81.9506236,14.2684397 C81.9506236,14.2719858 81.9506236,14.2758865 81.9506236,14.2794326 C81.9506236,14.2843972 81.9506236,14.2897163 81.9506236,14.2946809 C81.9506236,14.298227 81.9506236,14.3014184 81.9506236,14.3049645 C81.9506236,14.3099291 81.9541697,14.3152482 81.9541697,14.3202128 C81.9541697,14.3237589 81.9541697,14.3265957 81.9541697,14.3297872 C81.9541697,14.3347518 81.9541697,14.3400709 81.9541697,14.3450355 C81.9541697,14.3485816 81.9541697,14.3521277 81.9541697,14.3556738 C81.9541697,14.3602837 81.9577158,14.3652482 81.9577158,14.3698582 C81.9577158,14.3737589 81.9577158,14.3776596 81.9577158,14.3812057 C81.9577158,14.3865248 81.9577158,14.3904255 81.9577158,14.3953901 C81.9577158,14.3992908 81.9577158,14.4031915 81.9577158,14.4070922 C81.9577158,14.4117021 81.9612619,14.4159574 81.9612619,14.4205674 C81.9612619,14.4244681 81.9612619,14.429078 81.9612619,14.4329787 C81.9612619,14.437234 81.9612619,14.4414894 81.9612619,14.4457447 C81.9612619,14.45 81.9612619,14.4546099 81.9612619,14.4592199 C81.9612619,14.4631206 81.9612619,14.4670213 81.964808,14.4712766 C81.964808,14.4755319 81.964808,14.4801418 81.964808,14.4840426 C81.964808,14.4882979 81.964808,14.4929078 81.964808,14.4971631 C81.964808,14.5014184 81.964808,14.5060284 81.964808,14.5106383 C81.964808,14.514539 81.964808,14.5184397 81.964808,14.5223404 C81.964808,14.527305 81.9683541,14.5322695 81.9683541,14.5368794 C81.9683541,14.5404255 81.9683541,14.5443262 81.9683541,14.548227 C81.9683541,14.5535461 81.9683541,14.5592199 81.9683541,14.564539 C81.9683541,14.5677305 81.9683541,14.5705674 81.9683541,14.5737589 C81.9683541,14.5797872 81.9683541,14.5861702 81.9683541,14.5921986 C81.9719002,14.5968085 81.9719002,14.6010638 81.9719002,14.6060284 C81.9719002,14.6124113 81.9719002,14.6187943 81.9719002,14.6251773 C81.9719002,14.6276596 81.9719002,14.6304965 81.9719002,14.6329787 C81.9719002,14.6390071 81.9719002,14.6450355 81.9719002,14.6510638 C81.9719002,14.6539007 81.9719002,14.6578014 81.9719002,14.6609929 C81.9754463,14.6663121 81.9754463,14.6716312 81.9754463,14.6765957 C81.9754463,14.6804965 81.9754463,14.6843972 81.9754463,14.6879433 C81.9754463,14.6925532 81.9754463,14.6975177 81.9754463,14.7021277 C81.9754463,14.706383 81.9754463,14.7102837 81.9754463,14.714539 C81.9754463,14.7187943 81.9754463,14.7237589 81.9754463,14.7283688 C81.9754463,14.7319149 81.9754463,14.7361702 81.9789924,14.7397163 C81.9789924,14.7443262 81.9789924,14.7492908 81.9789924,14.7542553 C81.9789924,14.758156 81.9789924,14.7624113 81.9789924,14.7666667 C81.9789924,14.770922 81.9789924,14.7751773 81.9789924,14.7797872 C81.9789924,14.7840426 81.9789924,14.7882979 81.9789924,14.7921986 C81.9789924,14.7968085 81.9789924,14.8010638 81.9789924,14.8056738 C81.9789924,14.8095745 81.9789924,14.814539 81.9789924,14.8187943 C81.9825385,14.8230496 81.9825385,14.827305 81.9825385,14.8315603 C81.9825385,14.8358156 81.9825385,14.8397163 81.9825385,14.8439716 C81.9825385,14.8485816 81.9825385,14.8531915 81.9825385,14.858156 C81.9825385,14.8620567 81.9825385,14.8659574 81.9825385,14.8702128 C81.9825385,14.8748227 81.9825385,14.879078 81.9825385,14.8836879 C81.9825385,14.8879433 81.9825385,14.891844 81.9825385,14.8960993 C81.9825385,14.9003546 81.9825385,14.9049645 81.9825385,14.9088652 C81.9825385,14.9131206 81.9825385,14.9184397 81.9860846,14.922695 C81.9860846,14.927305 81.9860846,14.9312057 81.9860846,14.9358156 C81.9860846,14.9393617 81.9860846,14.9443262 81.9860846,14.9478723 C81.9860846,14.9528369 81.9860846,14.9578014 81.9860846,14.962766 C81.9860846,14.9663121 81.9860846,14.970922 81.9860846,14.9744681 C81.9860846,14.979078 81.9860846,14.9836879 81.9860846,14.9886525 C81.9860846,14.9929078 81.9860846,14.9960993 81.9860846,15.0003546 C81.9860846,15.0070922 81.9860846,15.014539 81.9860846,15.0216312 C81.9860846,15.0241135 81.9860846,15.0265957 81.9860846,15.029078 C81.9860846,15.037234 81.9896307,15.0446809 81.9896307,15.0528369 C81.9896307,15.0542553 81.9896307,15.0570922 81.9896307,15.0585106 C81.9896307,15.0652482 81.9896307,15.0719858 81.9896307,15.0783688 C81.9896307,15.0815603 81.9896307,15.085461 81.9896307,15.0886525 C81.9896307,15.0943262 81.9896307,15.0992908 81.9896307,15.1049645 C81.9896307,15.1085106 81.9896307,15.1120567 81.9896307,15.1159574 C81.9896307,15.1205674 81.9896307,15.1258865 81.9896307,15.1304965 C81.9896307,15.1347518 81.9896307,15.1382979 81.9896307,15.1425532 C81.9896307,15.1478723 81.9896307,15.1521277 81.9896307,15.1570922 C81.9896307,15.1609929 81.9896307,15.1656028 81.9896307,15.1691489 C81.9896307,15.1737589 81.9896307,15.1783688 81.9896307,15.1829787 C81.9896307,15.187234 81.9896307,15.191844 81.9896307,15.1957447 C81.9896307,15.2003546 81.9896307,15.2046099 81.9896307,15.2092199 C81.9896307,15.2141844 81.9931768,15.2173759 81.9931768,15.2223404 C81.9931768,15.2265957 81.9931768,15.2312057 81.9931768,15.2358156 C81.9931768,15.2400709 81.9931768,15.243617 81.9931768,15.2478723 C81.9931768,15.2528369 81.9931768,15.258156 81.9931768,15.2631206 C81.9931768,15.2670213 81.9931768,15.2702128 81.9931768,15.2737589 C81.9931768,15.279078 81.9931768,15.2843972 81.9931768,15.2897163 C81.9931768,15.2932624 81.9931768,15.2964539 81.9931768,15.3003546 C81.9931768,15.3053191 81.9931768,15.3109929 81.9931768,15.3159574 C81.9931768,15.3198582 81.9931768,15.3230496 81.9931768,15.3269504 C81.9931768,15.3322695 81.9931768,15.3375887 81.9931768,15.3429078 C81.9931768,15.3468085 81.9931768,15.3492908 81.9931768,15.3531915 C81.9931768,15.3592199 81.9931768,15.3652482 81.9931768,15.370922 C81.9931768,15.3737589 81.9931768,15.3769504 81.9931768,15.3794326 C81.9931768,15.385461 81.9931768,15.3911348 81.9931768,15.3971631 C81.9931768,15.4003546 81.9931768,15.4031915 81.9931768,15.406383 C81.9931768,15.412766 81.9931768,15.4198582 81.9931768,15.4265957 C81.9931768,15.4287234 81.9931768,15.4304965 81.9931768,15.4326241 C81.9931768,15.4414894 81.9931768,15.4507092 81.9931768,15.4595745 C81.9931768,15.779078 81.9860846,16.0950355 81.9683541,16.4035461 C81.4860846,24.5067376 74.822964,28.170922 69.2591342,28.170922" id="Fill-183" fill="#CF9D30"></path>
                            <path d="M38.7619711,20.1546099 L38.743886,20.1542553 C37.9605526,20.1443262 37.3336023,19.5014184 37.3435314,18.7180851 C37.408425,13.608156 35.3112619,9.60248227 30.9325385,6.47234043 C30.2953044,6.01666667 30.1481413,5.13049645 30.6038151,4.49361702 C31.0591342,3.85602837 31.9445952,3.70886525 32.5825385,4.16453901 C37.700269,7.82304965 40.2566519,12.7319149 40.1800562,18.7539007 C40.1701271,19.5312057 39.5371484,20.1546099 38.7619711,20.1546099" id="Fill-186" fill="#3E4348"></path>
                            <path d="M59.3988505,20.1546099 C59.3587796,20.1546099 59.3187087,20.1528369 59.2782831,20.1496454 C58.4977867,20.0836879 57.9179995,19.3978723 57.9839569,18.6170213 C58.4062973,13.593617 56.7250917,9.60212766 52.8435314,6.41453901 C52.2382122,5.91737589 52.150269,5.02340426 52.6474321,4.41808511 C53.1449498,3.81276596 54.0385668,3.7248227 54.643886,4.22198582 C59.2353753,7.9929078 61.310198,12.9159574 60.8105526,18.8549645 C60.7484959,19.5953901 60.1282831,20.1546099 59.3988505,20.1546099" id="Fill-187" fill="#3E4348"></path>
                        </g>
                    </g>
                </g>
            </g>
        </g>
    </g>
</svg>