<?xml version="1.0" encoding="UTF-8"?>
<svg width="59px" height="66px" viewBox="0 0 59 66" version="1.1" xmlns="http://www.w3.org/2000/svg" xmlns:xlink="http://www.w3.org/1999/xlink">
    <!-- Generator: sketchtool 61.2 (101010) - https://sketch.com -->
    <title>01F0F8C9-6DE7-48BA-804C-8F0E1CE02541</title>
    <desc>Created with sketchtool.</desc>
    <g id="Page-1" stroke="none" stroke-width="1" fill="none" fill-rule="evenodd">
        <g id="online-ordering-application" transform="translate(-367.000000, -1632.000000)" fill-rule="nonzero">
            <g id="body" transform="translate(256.000000, 64.000000)">
                <g id="manage-data" transform="translate(20.000000, 1315.000000)">
                    <g id="Group-Copy-5" transform="translate(20.000000, 222.000000)">
                        <g id="dessert" transform="translate(71.000000, 31.000000)">
                            <path d="M0.968811035,20.3425141 L0.968811035,30.6751557 L57.7983398,30.6751557 L57.7983398,20.3425141 C57.7983398,18.2024688 56.0636444,16.4677734 53.9235992,16.4677734 L4.84355167,16.4677734 C2.70350644,16.4677734 0.968811035,18.2024688 0.968811035,20.3425141 Z" id="Path" fill="#FF7B7B"></path>
                            <path d="M45.5577851,26.800415 L41.1533203,16.4677734 L15.7915191,16.4677734 C15.9954529,17.6928863 16.5730133,18.8228302 17.4667969,19.7166138 C18.6012726,20.8510894 20.109375,21.4759826 21.7136535,21.4759826 C22.2776183,21.4759826 22.8289947,21.3969268 23.3572082,21.247879 L36.3837891,26.800415 L0.968811035,26.800415 L0.968811035,30.6751557 L57.7983398,30.6751557 L57.7983398,26.800415 L45.5577851,26.800415 Z" id="Path" fill="#F75959"></path>
                            <polygon id="Path" fill="#D4EBF4" points="2.9059296 35.0665283 55.8612213 35.0665283 55.8612213 65.031189 2.9059296 65.031189"></polygon>
                            <path d="M2.9059296,40.1175385 C3.80575568,40.5923768 5.01223748,41.0077973 6.65176385,41.0077973 C9.33210751,41.0077973 10.8593445,39.8969879 11.7722626,39.2333222 C11.9112397,39.1321105 12.0975494,38.9966583 12.1811371,38.9493256 C12.205307,38.9463043 12.2541504,38.941269 12.3347168,38.941269 C12.4147797,38.941269 12.463623,38.9463043 12.487793,38.9493256 C12.5713807,38.9966583 12.7576904,39.1321105 12.8966675,39.2333222 C13.809082,39.8969879 15.3368224,41.0077973 18.0171661,41.0077973 C20.6980133,41.0077973 22.2252502,39.8969879 23.1381684,39.2333222 C23.2771454,39.1321105 23.4634552,38.9966583 23.5470429,38.9493256 C23.5712128,38.9463043 23.6200562,38.941269 23.7006226,38.941269 C23.7806855,38.941269 23.8295288,38.9463043 23.8536987,38.9493256 C23.9372863,38.9966583 24.1235962,39.1321105 24.2625732,39.2333222 C25.1749878,39.8969879 26.7027283,41.0077973 29.3830719,41.0077973 C32.063919,41.0077973 33.5911561,39.8969879 34.5035705,39.2333222 C34.6425477,39.1321105 34.8293609,38.9966583 34.9129486,38.9493256 C34.9366151,38.9463043 34.9854584,38.941269 35.0660248,38.941269 C35.1465912,38.941269 35.1954346,38.9463043 35.219101,38.9493256 C35.3026886,38.9966583 35.489502,39.1321105 35.628479,39.2333222 C36.5408936,39.8969879 38.0681305,41.0077973 40.7489776,41.0077973 C43.4298248,41.0077973 44.9570617,39.8969879 45.8699799,39.2333222 C46.0089569,39.1321105 46.1952667,38.9966583 46.2788544,38.9493256 C46.3030243,38.9463043 46.3518677,38.941269 46.4319306,38.941269 C46.512497,38.941269 46.5618438,38.9463043 46.5855103,38.9493256 C46.6690978,38.9966583 46.8559112,39.1321105 46.9948883,39.2333222 C47.9078065,39.8969879 49.4350434,41.0077973 52.1158905,41.0077973 C53.7554169,41.0077973 54.9618988,40.5918731 55.8617248,40.117035 L55.8617248,35.0665283 L2.90693661,35.0665283 L2.90693661,40.1175385 L2.9059296,40.1175385 Z" id="Path" fill="#ADDBEA"></path>
                            <path d="M57.7983398,35.0665283 L57.7983398,30.6751557 L0.968811035,30.6751557 L0.968811035,35.0665283 C3.81028751,35.0665283 3.81028751,37.1330566 6.65176385,37.1330566 C9.49324032,37.1330566 9.49324032,35.0665283 12.3342133,35.0665283 C15.1756896,35.0665283 15.1756896,37.1330566 18.0171661,37.1330566 C20.8586426,37.1330566 20.8586426,35.0665283 23.7001191,35.0665283 C26.5415955,35.0665283 26.5415955,37.1330566 29.3825684,37.1330566 C32.2240448,37.1330566 32.2240448,35.0665283 35.0655213,35.0665283 C37.9069976,35.0665283 37.9069976,37.1330566 40.7484741,37.1330566 C43.5899506,37.1330566 43.5899506,35.0665283 46.4314269,35.0665283 C49.2729034,35.0665283 49.2729034,37.1330566 52.1148834,37.1330566 C54.9568634,37.1330566 54.9568634,35.0665283 57.7983398,35.0665283 Z" id="Path" fill="#FEFF9E"></path>
                            <polygon id="Path" fill="#C19371" points="23.5712128 45.6574859 35.1959381 45.6574859 35.1959381 65.031189 23.5712128 65.031189"></polygon>
                            <polygon id="Path" fill="#90E6F4" points="6.7806701 41.7827453 19.6964722 41.7827453 19.6964722 57.2817078 6.7806701 57.2817078"></polygon>
                            <polygon id="Path" fill="#90E6F4" points="39.0706787 41.7827453 51.9864806 41.7827453 51.9864806 57.2817078 39.0706787 57.2817078"></polygon>
                            <path d="M32.9924469,7.20465088 C33.8247986,6.37280273 33.8247986,5.02331543 32.9924469,4.19096378 C32.1726837,3.37069709 30.8513946,3.36062616 30.0165253,4.15672305 C29.7577057,3.76547248 29.4560851,3.39436337 29.1111602,3.04943848 C26.3371582,0.275436434 21.8390351,0.275436434 19.065033,3.04943848 C16.2905273,5.82344052 16.2905273,10.3215637 19.065033,13.0955658 C19.4094543,13.4404907 19.7810669,13.7421112 20.1723175,14.0009308 C19.3762207,14.8358002 19.3862915,16.1570893 20.2065582,16.977356 C21.03891,17.8092041 22.3878936,17.8092041 23.2202453,16.977356 L32.9924469,7.20465088 Z" id="Path" fill="#FFA7DC"></path>
                            <polygon id="Path" fill="#ECCE93" points="23.2207489 16.9768524 40.2534942 24.2373963 32.9924469 7.20465088"></polygon>
                            <polygon id="Path" fill="#BC835C" points="23.5712128 45.6574859 23.5712128 49.5322266 31.3206939 49.5322266 31.3206939 65.031189 35.1959381 65.031189 35.1959381 45.6574859"></polygon>
                            <polygon id="Path" fill="#55D1E5" points="6.7806701 41.7827453 6.7806701 45.6574859 15.8217315 45.6574859 15.8217315 57.2817078 19.6964722 57.2817078 19.6964722 41.7827453"></polygon>
                            <polygon id="Path" fill="#55D1E5" points="39.0706787 41.7827453 39.0706787 45.6574859 48.1117401 45.6574859 48.1117401 57.2817078 51.9864806 57.2817078 51.9864806 41.7827453"></polygon>
                            <path d="M32.9924469,4.19096378 C32.6178131,3.81632999 32.1379395,3.6123963 31.647995,3.57563779 L21.7030792,13.5205536 C21.2388153,13.9848175 20.6244965,14.2048644 20.0167236,14.18573 C19.3827667,15.0205994 19.4441986,16.2149963 20.2065582,16.9768524 C21.03891,17.8092041 22.3883973,17.8092041 23.2202453,16.9768524 L32.9924469,7.20465088 C33.8247986,6.37280273 33.8247986,5.02331543 32.9924469,4.19096378 Z" id="Path" fill="#FF8AD5"></path>
                            <path d="M31.9707642,13.7063599 L34.6304627,11.0466613 L32.9924469,7.20465088 L23.2207489,16.9768524 L40.2534942,24.2373963 L39.583786,22.6673584 L32.3292847,17.6586456 C31.0019531,16.7422027 30.830246,14.846878 31.9707642,13.7063599 L31.9707642,13.7063599 Z" id="Path" fill="#EAB962"></path>
                            <path d="M53.9235992,15.4989624 L40.7494813,15.4989624 L40.7494813,17.4365845 L53.9235992,17.4365845 C55.5258637,17.4365845 56.8295288,18.7402496 56.8295288,20.3425141 L56.8295288,29.7063446 L16.4677734,29.7063446 L16.4677734,31.6439667 L56.8295288,31.6439667 L56.8295288,34.175766 C55.6905213,34.3686219 54.9810333,34.8847504 54.3873596,35.3162842 C53.7357788,35.7901153 53.221161,36.1642456 52.1153869,36.1642456 C51.0091095,36.1642456 50.4939881,35.7901153 49.8424072,35.3162842 C49.0956573,34.773468 48.166626,34.0977173 46.4314269,34.0977173 C44.6957245,34.0977173 43.7661895,34.773468 43.0199433,35.3162842 C42.3683624,35.7901153 41.854248,36.1642456 40.7479706,36.1642456 C39.6421967,36.1642456 39.1280822,35.7901153 38.4765015,35.3162842 C37.7302551,34.773468 36.8007202,34.0977173 35.0650177,34.0977173 C33.3298188,34.0977173 32.4002838,34.773468 31.6540375,35.3162842 C31.0024566,35.7901153 30.4883423,36.1642456 29.3820649,36.1642456 C28.2762909,36.1642456 27.7621766,35.7901153 27.1105957,35.3162842 C26.3643494,34.773468 25.4358215,34.0977173 23.7006226,34.0977173 C21.96492,34.0977173 21.0358887,34.773468 20.2891388,35.3162842 C19.6380615,35.7901153 19.1234435,36.1642456 18.0176697,36.1642456 C16.9118957,36.1642456 16.3972778,35.7901153 15.7456971,35.3162842 C14.9994507,34.773468 14.0704193,34.0977173 12.3347168,34.0977173 C10.5990142,34.0977173 9.66998291,34.773468 8.923233,35.3162842 C8.27215576,35.7901153 7.75753791,36.1642456 6.65176385,36.1642456 C5.54599005,36.1642456 5.03137207,35.7901153 4.3797912,35.3162842 C3.78611759,34.8847504 3.0766297,34.3686219 1.93762207,34.175766 L1.93762207,31.6439667 L14.5301514,31.6439667 L14.5301514,29.7063446 L1.93762207,29.7063446 L1.93762207,20.3425141 C1.93762207,18.7402496 3.2412872,17.4365845 4.84355167,17.4365845 L16.0800477,17.4365845 L16.0800477,15.4989624 L4.84355167,15.4989624 C2.1727753,15.4989624 -1.09912079e-14,17.6717377 -1.09912079e-14,20.3425141 L-1.09912079e-14,36.0353394 L0.968811035,36.0353394 C1.35301212,36.0353394 1.66520694,36.0811615 1.93762207,36.1602173 L1.93762207,48.7018891 L3.87474063,48.7018891 L3.87474063,37.3213807 C4.52833554,37.7327729 5.36975098,38.1018677 6.65176385,38.1018677 C8.3874664,38.1018677 9.31649787,37.426117 10.0627441,36.8833008 C10.714325,36.4094696 11.2289429,36.0353394 12.3347168,36.0353394 C13.4404907,36.0353394 13.9551086,36.4094696 14.6061859,36.8833008 C15.3529357,37.426117 16.2819672,38.1018677 18.0176697,38.1018677 C19.7533722,38.1018677 20.6824035,37.426117 21.4286499,36.8833008 C22.0802306,36.4094696 22.5948486,36.0353394 23.7006226,36.0353394 C24.8053895,36.0353394 25.3195038,36.4094696 25.9710846,36.8827973 C26.717331,37.426117 27.6463623,38.1018677 29.3820649,38.1018677 C31.1177674,38.1018677 32.0473022,37.426117 32.7935486,36.8833008 C33.4451294,36.4094696 33.9592437,36.0353394 35.0650177,36.0353394 C36.1712951,36.0353394 36.6854096,36.4094696 37.3369903,36.8833008 C38.0832367,37.426117 39.0127716,38.1018677 40.7479706,38.1018677 C42.483673,38.1018677 43.413208,37.426117 44.1594543,36.8833008 C44.8110352,36.4094696 45.3251495,36.0353394 46.4314269,36.0353394 C47.5366974,36.0353394 48.0513153,36.4094696 48.7028961,36.8827973 C49.449646,37.426117 50.3791808,38.1018677 52.1153869,38.1018677 C53.3973999,38.1018677 54.2388153,37.7327729 54.8924102,37.3213807 L54.8924102,64.0623779 L36.1642456,64.0623779 L36.1642456,52.7614288 L34.227127,52.7614288 L34.227127,64.0623779 L24.5400238,64.0623779 L24.5400238,46.626297 L34.227127,46.626297 L34.227127,50.8238067 L36.1642456,50.8238067 L36.1642456,44.6886749 L22.6029053,44.6886749 L22.6029053,64.0623779 L3.87474063,64.0623779 L3.87474063,50.6390076 L1.93762207,50.6390076 L1.93762207,66 L56.8295288,66 L56.8295288,36.1602173 C57.1019439,36.0811615 57.4141388,36.0353394 57.7983398,36.0353394 L58.7671509,36.0353394 L58.7671509,20.3425141 C58.7671509,17.6717377 56.5943756,15.4989624 53.9235992,15.4989624 Z" id="Path" fill="#000000"></path>
                            <path d="M5.8123627,40.8139344 L5.8123627,58.2505187 L20.6652832,58.2505187 L20.6652832,40.8139344 L5.8123627,40.8139344 Z M18.7281646,56.3128967 L7.74948127,56.3128967 L7.74948127,42.7515565 L18.7281646,42.7515565 L18.7281646,56.3128967 Z" id="Shape" fill="#000000"></path>
                            <polygon id="Path" fill="#000000" points="46.82016 42.7515565 46.82016 40.8139344 38.1018677 40.8139344 38.1018677 58.2505187 52.9547882 58.2505187 52.9547882 40.8139344 48.7572784 40.8139344 48.7572784 42.7515565 51.0176697 42.7515565 51.0176697 56.3128967 40.0389862 56.3128967 40.0389862 42.7515565"></polygon>
                            <path d="M18.8746948,14.236084 C18.3877716,15.3705597 18.6058045,16.746231 19.5217437,17.6621704 C20.1259918,18.2664185 20.9195709,18.5685425 21.7136535,18.5685425 C22.2881928,18.5685425 22.8617248,18.4079132 23.3642578,18.0911865 L42.0888976,26.0733032 L37.2629699,14.751709 L35.4804383,15.5115509 L38.4180908,22.4024963 L24.919693,16.6480408 L32.6641388,8.90359491 L34.7210998,13.7295226 L36.503128,12.9696808 L34.1072846,7.34866327 C34.861084,6.15124512 34.7195893,4.54747013 33.6777648,3.50614932 C32.7618256,2.59020996 31.3871612,2.37167365 30.2516785,2.85910041 C30.106659,2.6884003 29.9545898,2.52323917 29.7964783,2.36462402 C28.2712555,0.839904785 26.2440033,0 24.0878448,0 C21.9316864,0 19.9044342,0.839904785 18.3802186,2.36462402 C16.8554992,3.88883975 16.0155945,5.91609189 16.0155945,8.0722504 C16.0155945,10.2284088 16.8554992,12.255661 18.3802186,13.7803803 C18.5383301,13.9389953 18.7039947,14.0910645 18.8746948,14.236084 Z M19.7498475,3.73425293 C20.9084931,2.57560733 22.4493256,1.93762207 24.0878448,1.93762207 C25.7268677,1.93762207 27.2671967,2.57560733 28.4263458,3.73425293 C28.7189025,4.02680966 28.982254,4.34907529 29.2088471,4.69148251 L29.8478394,5.65626523 L30.6852265,4.85765079 C31.137909,4.42561337 31.8655243,4.43417365 32.3076324,4.87577823 C32.7608184,5.32896427 32.7608184,6.06665039 32.3076324,6.51983643 L22.5354308,16.292038 C22.0822449,16.745224 21.3445587,16.745224 20.8918762,16.292038 C20.4497681,15.8504334 20.4417114,15.1223145 20.8732452,14.6696319 L21.6723633,13.8322449 L20.7070771,13.1932525 C20.3646698,12.9666596 20.0424042,12.7033081 19.7498475,12.4102479 C18.5912017,11.2516021 17.9532166,9.71127326 17.9532166,8.0722504 C17.9532166,6.43373105 18.5912017,4.89289853 19.7498475,3.73425293 Z" id="Shape" fill="#000000"></path>
                            <g id="Group" transform="translate(5.027344, 3.867188)" fill="#FFFFFF">
                                <path d="M9.11558536,17.4441376 L3.94926456,17.4441376 L3.94926456,15.5065155 L9.11558536,15.5065155 L9.11558536,17.4441376 Z M2.01164249,17.4441376 L0.0745239258,17.4441376 L0.0745239258,15.5065155 L2.01164249,15.5065155 L2.01164249,17.4441376 Z" id="Shape"></path>
                                <polygon id="Path" points="21.4503022 50.5085907 23.3874207 50.5085907 23.3874207 52.4457092 21.4503022 52.4457092"></polygon>
                                <path d="M13.0547791,58.2580719 L11.1176606,58.2580719 L11.1176606,56.3204498 L13.0547791,56.3204498 L13.0547791,58.2580719 Z M9.18003848,58.2580719 L7.24291992,58.2580719 L7.24291992,56.3204498 L9.18003848,56.3204498 L9.18003848,58.2580719 Z M5.30529785,58.2580719 L3.36817929,58.2580719 L3.36817929,56.3204498 L5.30529785,56.3204498 L5.30529785,58.2580719 Z" id="Shape"></path>
                                <path d="M45.3442841,58.2580719 L43.4071655,58.2580719 L43.4071655,56.3204498 L45.3442841,56.3204498 L45.3442841,58.2580719 Z M41.4695435,58.2580719 L39.5324249,58.2580719 L39.5324249,56.3204498 L41.4695435,56.3204498 L41.4695435,58.2580719 Z M37.5948028,58.2580719 L35.6576844,58.2580719 L35.6576844,56.3204498 L37.5948028,56.3204498 L37.5948028,58.2580719 Z" id="Shape"></path>
                                <path d="M16.8907471,3.56758114 L15.0311737,3.02476505 C15.2265473,2.35404971 15.5936279,1.73570255 16.0926361,1.23719784 C16.8857117,0.44412225 17.939621,0.00755313281 19.0605011,0.00755313281 C20.1818848,0.00755313281 21.235794,0.44412225 22.0288696,1.23719784 L20.6587372,2.60682675 C20.2317353,2.1798248 19.6642456,1.9451752 19.0605011,1.9451752 C18.4572602,1.9451752 17.889267,2.1798248 17.462265,2.60733026 C17.1933746,2.8762207 16.9954834,3.20805362 16.8907471,3.56758114 Z" id="Path"></path>
                            </g>
                        </g>
                    </g>
                </g>
            </g>
        </g>
    </g>
</svg>