<?xml version="1.0" standalone="no"?>
<!DOCTYPE svg PUBLIC "-//W3C//DTD SVG 20010904//EN"
 "http://www.w3.org/TR/2001/REC-SVG-20010904/DTD/svg10.dtd">
<svg version="1.0" xmlns="http://www.w3.org/2000/svg"
 width="700.000000pt" height="700.000000pt" viewBox="0 0 700.000000 700.000000"
 preserveAspectRatio="xMidYMid meet">
<metadata>
Created by potrace 1.11, written by Peter Selinger 2001-2013
</metadata>
<g transform="translate(0.000000,700.000000) scale(0.100000,-0.100000)"
fill="#000000" stroke="none">
<path d="M3215 6989 c-1004 -86 -1899 -579 -2513 -1387 -373 -489 -613 -1100
-684 -1737 -17 -154 -17 -585 0 -730 44 -370 129 -694 269 -1020 276 -645 764
-1212 1365 -1586 447 -278 924 -443 1483 -511 130 -16 600 -16 730 0 451 55
818 163 1195 351 729 364 1312 973 1639 1714 144 325 238 675 283 1052 16 139
16 595 0 730 -108 889 -477 1619 -1122 2217 -507 471 -1171 785 -1865 882
-249 35 -546 45 -780 25z m796 -1169 c268 -28 535 -114 722 -234 164 -104 242
-264 183 -374 -9 -18 -517 -542 -1129 -1164 l-1112 -1131 -67 73 c-365 396
-523 972 -408 1495 185 840 971 1420 1811 1335z m254 -1870 c185 -221 315
-501 367 -789 25 -137 30 -408 9 -536 -161 -1021 -1143 -1659 -2139 -1390
-110 30 -235 80 -355 143 -202 106 -305 276 -244 402 32 67 369 394 1326 1286
530 494 970 905 979 912 14 11 11 17 -24 54 -21 24 -26 32 -10 18 15 -14 56
-59 91 -100z"/>
</g>
</svg>
