<?xml version="1.0" encoding="utf-8"?>
<!-- Generator: Adobe Illustrator 16.0.0, SVG Export Plug-In . SVG Version: 6.00 Build 0)  -->
<!DOCTYPE svg PUBLIC "-//W3C//DTD SVG 1.1//EN" "http://www.w3.org/Graphics/SVG/1.1/DTD/svg11.dtd">
<svg version="1.1" id="Layer_1" xmlns="http://www.w3.org/2000/svg" xmlns:xlink="http://www.w3.org/1999/xlink" x="0px" y="0px"
	 width="1144px" height="1144px" viewBox="0 0 1144 1144" enable-background="new 0 0 1144 1144" xml:space="preserve">
<title>icon</title>
<path fill="#FFFFFF" d="M589.877,60.375c-9.615-10.283-25.204-10.283-34.819,0L198.929,441.24h78.088v421.297h590.901V441.24h78.088L589.877,60.375
	L589.877,60.375z M917.16,493.902v368.635c0,29.086-22.047,52.663-49.242,52.663H277.017c-27.196,0-49.242-23.577-49.242-52.663
	V493.902h-88.286c-13.597,0-24.62-11.788-24.62-26.331c0-6.982,2.594-13.681,7.212-18.618L520.239,23.137
	c28.845-30.85,75.611-30.85,104.457,0l398.16,425.815c9.614,10.283,9.614,26.954,0,37.237c-4.618,4.938-10.88,7.712-17.41,7.712
	L917.16,493.902L917.16,493.902z M670.547,859.145V544.773H473.473v314.371H670.547z M473.473,492.378h197.074
	c27.209,0,49.268,23.458,49.268,52.396v366.766H424.205V544.773C424.205,515.837,446.264,492.378,473.473,492.378z"/>
</svg>
