<?xml version="1.0" encoding="utf-8"?>
<!DOCTYPE svg PUBLIC "-//W3C//DTD SVG 1.1//EN" "http://www.w3.org/Graphics/SVG/1.1/DTD/svg11.dtd">
<svg version="1.1" xmlns="http://www.w3.org/2000/svg" xmlns:xlink="http://www.w3.org/1999/xlink" x="0px" y="0px" viewBox="0 0 1000 1000" enable-background="new 0 0 1000 1000" xml:space="preserve">
<g fill="#ef3744"><path d="M910.8,243.2h-159l-95.2-96.1c0,0-0.5-0.5-0.7-0.5l-0.5-0.5l0,0c-14.1-14.1-33.2-23.1-54.9-23.1H402.7c-23.1,0-43.6,9.9-58,25.7v0.2l-93.1,94.2H89.2c-43.8,0-79.2,34.4-79.2,78.2v476.1c0,43.8,35.3,79.4,79.2,79.4h821.7c43.6,0,79.2-35.6,79.2-79.4V321.4C990,277.6,954.4,243.2,910.8,243.2z M500,758c-119.9,0-217.7-98-217.7-218.1c0-120.4,97.8-218.1,217.7-218.1c120.1,0,217.7,97.8,217.7,218.1C717.7,660,620.1,758,500,758z M896,369.3c-18.1,0-33-14.8-33-33.2c0-18.4,14.8-33.2,33-33.2c18.1,0,33,14.8,33,33.2C929,354.4,914.1,369.3,896,369.3z"/><path d="M500,374.9c-90.9,0-164.4,73.7-164.4,164.9c0,90.9,73.5,164.9,164.4,164.9c90.7,0,164.4-73.7,164.4-164.9C664.4,448.6,590.7,374.9,500,374.9z"/></g>
</svg>
